solid OpenSCAD_Model
  facet normal 0 0 -1
    outer loop
      vertex -44.3 0 0
      vertex -43.9875 2.97314 0
      vertex -43.9875 -2.97314 0
    endloop
  endfacet
  facet normal 0 0 -1
    outer loop
      vertex -43.9875 -2.97314 0
      vertex -43.9875 2.97314 0
      vertex -43.0637 5.81633 0
    endloop
  endfacet
  facet normal 0 0 -1
    outer loop
      vertex -43.9875 -2.97314 0
      vertex -43.0637 5.81633 0
      vertex -41.5689 8.40533 0
    endloop
  endfacet
  facet normal 0 0 -1
    outer loop
      vertex -43.9875 -2.97314 0
      vertex -41.5689 8.40533 0
      vertex -39.5686 10.627 0
    endloop
  endfacet
  facet normal 0 0 -1
    outer loop
      vertex -43.9875 -2.97314 0
      vertex -39.5686 10.627 0
      vertex -37.15 12.3842 0
    endloop
  endfacet
  facet normal 0 0 -1
    outer loop
      vertex -43.9875 -2.97314 0
      vertex -37.15 12.3842 0
      vertex -34.4189 13.6001 0
    endloop
  endfacet
  facet normal 0 0 -1
    outer loop
      vertex -43.9875 -2.97314 0
      vertex -34.4189 13.6001 0
      vertex -31.4948 14.2217 0
    endloop
  endfacet
  facet normal 0 0 -1
    outer loop
      vertex -43.9875 -2.97314 0
      vertex -31.4948 14.2217 0
      vertex -28.5052 14.2217 0
    endloop
  endfacet
  facet normal 0 0 -1
    outer loop
      vertex -43.9875 -2.97314 0
      vertex -28.5052 14.2217 0
      vertex -25.5811 13.6001 0
    endloop
  endfacet
  facet normal 0 0 -1
    outer loop
      vertex -43.9875 -2.97314 0
      vertex -25.5811 13.6001 0
      vertex -22.85 12.3842 0
    endloop
  endfacet
  facet normal 0 0 -1
    outer loop
      vertex -30.9724 5.51492 0
      vertex -22.85 12.3842 0
      vertex -20.4314 10.627 0
    endloop
  endfacet
  facet normal 0 0 -1
    outer loop
      vertex -27.2 4.84974 0
      vertex -20.4314 10.627 0
      vertex -18.4311 8.40533 0
    endloop
  endfacet
  facet normal 0 0 -1
    outer loop
      vertex -25.7102 3.59961 0
      vertex -18.4311 8.40533 0
      vertex -16.9363 5.81633 0
    endloop
  endfacet
  facet normal 0 0 -1
    outer loop
      vertex -24.7377 1.91531 0
      vertex -16.9363 5.81633 0
      vertex -16.0125 2.97314 0
    endloop
  endfacet
  facet normal 0 0 -1
    outer loop
      vertex -24.4 0 0
      vertex -5.25 0 0
      vertex -24.7377 -1.91531 0
    endloop
  endfacet
  facet normal 0 0 -1
    outer loop
      vertex -24.4 0 0
      vertex -4.93339 1.79561 0
      vertex -5.25 0 0
    endloop
  endfacet
  facet normal 0 0 -1
    outer loop
      vertex -8.15404 2.5 0
      vertex -8.13153 2.64209 0
      vertex -6.91709 5.02556 0
    endloop
  endfacet
  facet normal 0 0 -1
    outer loop
      vertex -8.15404 2.5 0
      vertex -6.91709 5.02556 0
      vertex -5.02556 6.91709 0
    endloop
  endfacet
  facet normal 0 0 -1
    outer loop
      vertex -5.02556 6.91709 0
      vertex -2.64209 8.13153 0
      vertex -8.15404 2.5 0
    endloop
  endfacet
  facet normal 0 0 -1
    outer loop
      vertex -8.15404 2.5 0
      vertex -2.64209 8.13153 0
      vertex 0 8.55 0
    endloop
  endfacet
  facet normal 0 0 -1
    outer loop
      vertex 0 8.55 0
      vertex 1.12155e-014 8.55 0
      vertex -8.15404 2.5 0
    endloop
  endfacet
  facet normal 0 0 -1
    outer loop
      vertex -4.02173 3.37464 0
      vertex -8.15404 2.5 0
      vertex -2.625 4.54663 0
    endloop
  endfacet
  facet normal 0 0 -1
    outer loop
      vertex 2.94872 4.275 0
      vertex 17.5 8.55 0
      vertex 17.5 4.275 0
    endloop
  endfacet
  facet normal 0 0 -1
    outer loop
      vertex 2.625 4.54663 0
      vertex 17.5 8.55 0
      vertex 2.94872 4.275 0
    endloop
  endfacet
  facet normal 0 0 -1
    outer loop
      vertex -24.7377 1.91531 0
      vertex -15.9628 2.5 0
      vertex -8.15404 2.5 0
    endloop
  endfacet
  facet normal 0 0 -1
    outer loop
      vertex 1.12155e-014 8.55 0
      vertex 17.5 8.55 0
      vertex 0.911653 5.17024 0
    endloop
  endfacet
  facet normal 0 0 -1
    outer loop
      vertex 1.12155e-014 8.55 0
      vertex 0.911653 5.17024 0
      vertex -0.911653 5.17024 0
    endloop
  endfacet
  facet normal 0 0 -1
    outer loop
      vertex 1.12155e-014 8.55 0
      vertex -0.911653 5.17024 0
      vertex -2.625 4.54663 0
    endloop
  endfacet
  facet normal 0 0 -1
    outer loop
      vertex 1.12155e-014 8.55 0
      vertex -2.625 4.54663 0
      vertex -8.15404 2.5 0
    endloop
  endfacet
  facet normal 0 0 -1
    outer loop
      vertex -24.7377 1.91531 0
      vertex -8.15404 2.5 0
      vertex -24.4 0 0
    endloop
  endfacet
  facet normal 0 0 -1
    outer loop
      vertex 17.5 -4.275 0
      vertex 2.625 -4.54663 0
      vertex 2.94872 -4.275 0
    endloop
  endfacet
  facet normal 0 0 -1
    outer loop
      vertex -24.7377 -1.91531 0
      vertex -5.25 0 0
      vertex -4.93339 -1.79561 0
    endloop
  endfacet
  facet normal 0 0 -1
    outer loop
      vertex -8.13153 -2.64209 0
      vertex -2.625 -4.54663 0
      vertex -0.911653 -5.17024 0
    endloop
  endfacet
  facet normal 0 0 -1
    outer loop
      vertex -6.91709 -5.02556 0
      vertex 17.5 -8.55 0
      vertex -5.02556 -6.91709 0
    endloop
  endfacet
  facet normal 0 0 -1
    outer loop
      vertex 2.625 -4.54663 0
      vertex 17.5 -4.275 0
      vertex 0.911653 -5.17024 0
    endloop
  endfacet
  facet normal 0 0 -1
    outer loop
      vertex 0.911653 -5.17024 0
      vertex 17.5 -4.275 0
      vertex 17.5 -8.55 0
    endloop
  endfacet
  facet normal 0 0 -1
    outer loop
      vertex 0.911653 -5.17024 0
      vertex 17.5 -8.55 0
      vertex -0.911653 -5.17024 0
    endloop
  endfacet
  facet normal 0 0 -1
    outer loop
      vertex -2.64209 -8.13153 0
      vertex 17.5 -8.55 0
      vertex 0 -8.55 0
    endloop
  endfacet
  facet normal 0 0 -1
    outer loop
      vertex -5.02556 -6.91709 0
      vertex 17.5 -8.55 0
      vertex -2.64209 -8.13153 0
    endloop
  endfacet
  facet normal 0 0 -1
    outer loop
      vertex -8.13153 -2.64209 0
      vertex -0.911653 -5.17024 0
      vertex -6.91709 -5.02556 0
    endloop
  endfacet
  facet normal 0 0 -1
    outer loop
      vertex -0.911653 -5.17024 0
      vertex 17.5 -8.55 0
      vertex -6.91709 -5.02556 0
    endloop
  endfacet
  facet normal 0 0 -1
    outer loop
      vertex -4.93339 -1.79561 0
      vertex -4.02173 -3.37464 0
      vertex -8.13153 -2.64209 0
    endloop
  endfacet
  facet normal 0 0 -1
    outer loop
      vertex -32.8 -4.84974 0
      vertex -43.9875 -2.97314 0
      vertex -34.2898 -3.59961 0
    endloop
  endfacet
  facet normal 0 0 -1
    outer loop
      vertex -4.93339 -1.79561 0
      vertex -8.13153 -2.64209 0
      vertex -8.15404 -2.5 0
    endloop
  endfacet
  facet normal 0 0 -1
    outer loop
      vertex -24.7377 -1.91531 0
      vertex -15.9628 -2.5 0
      vertex -16.0125 -2.97314 0
    endloop
  endfacet
  facet normal 0 0 -1
    outer loop
      vertex -4.93339 -1.79561 0
      vertex -8.15404 -2.5 0
      vertex -15.9628 -2.5 0
    endloop
  endfacet
  facet normal 0 0 -1
    outer loop
      vertex -29.0276 -5.51492 0
      vertex -18.4311 -8.40533 0
      vertex -30.9724 -5.51492 0
    endloop
  endfacet
  facet normal 0 0 -1
    outer loop
      vertex -24.7377 1.91531 0
      vertex -16.0125 2.97314 0
      vertex -15.9628 2.5 0
    endloop
  endfacet
  facet normal 0 0 -1
    outer loop
      vertex -35.6 0 0
      vertex -43.9875 -2.97314 0
      vertex -35.2623 1.91531 0
    endloop
  endfacet
  facet normal 0 0 -1
    outer loop
      vertex -43.9875 -2.97314 0
      vertex -18.4311 -8.40533 0
      vertex -20.4314 -10.627 0
    endloop
  endfacet
  facet normal 0 0 -1
    outer loop
      vertex -20.4314 -10.627 0
      vertex -22.85 -12.3842 0
      vertex -43.9875 -2.97314 0
    endloop
  endfacet
  facet normal 0 0 -1
    outer loop
      vertex -43.9875 -2.97314 0
      vertex -22.85 -12.3842 0
      vertex -25.5811 -13.6001 0
    endloop
  endfacet
  facet normal 0 0 -1
    outer loop
      vertex -43.9875 -2.97314 0
      vertex -25.5811 -13.6001 0
      vertex -28.5052 -14.2217 0
    endloop
  endfacet
  facet normal 0 0 -1
    outer loop
      vertex -43.9875 -2.97314 0
      vertex -28.5052 -14.2217 0
      vertex -31.4948 -14.2217 0
    endloop
  endfacet
  facet normal 0 0 -1
    outer loop
      vertex -43.9875 -2.97314 0
      vertex -31.4948 -14.2217 0
      vertex -34.4189 -13.6001 0
    endloop
  endfacet
  facet normal 0 0 -1
    outer loop
      vertex -43.9875 -2.97314 0
      vertex -34.4189 -13.6001 0
      vertex -37.15 -12.3842 0
    endloop
  endfacet
  facet normal 0 0 -1
    outer loop
      vertex -43.9875 -2.97314 0
      vertex -37.15 -12.3842 0
      vertex -39.5686 -10.627 0
    endloop
  endfacet
  facet normal 0 0 -1
    outer loop
      vertex -43.9875 -2.97314 0
      vertex -39.5686 -10.627 0
      vertex -41.5689 -8.40533 0
    endloop
  endfacet
  facet normal 0 0 -1
    outer loop
      vertex -43.9875 -2.97314 0
      vertex -41.5689 -8.40533 0
      vertex -43.0637 -5.81633 0
    endloop
  endfacet
  facet normal 0 0 -1
    outer loop
      vertex -35.2623 -1.91531 0
      vertex -43.9875 -2.97314 0
      vertex -35.6 0 0
    endloop
  endfacet
  facet normal 0 0 -1
    outer loop
      vertex -18.4311 -8.40533 0
      vertex -29.0276 -5.51492 0
      vertex -27.2 -4.84974 0
    endloop
  endfacet
  facet normal 0 0 -1
    outer loop
      vertex -34.2898 -3.59961 0
      vertex -43.9875 -2.97314 0
      vertex -35.2623 -1.91531 0
    endloop
  endfacet
  facet normal 0 0 -1
    outer loop
      vertex -8.13153 -2.64209 0
      vertex -4.02173 -3.37464 0
      vertex -2.625 -4.54663 0
    endloop
  endfacet
  facet normal 0 0 -1
    outer loop
      vertex -18.4311 -8.40533 0
      vertex -27.2 -4.84974 0
      vertex -16.9363 -5.81633 0
    endloop
  endfacet
  facet normal 0 0 -1
    outer loop
      vertex -43.9875 -2.97314 0
      vertex -32.8 -4.84974 0
      vertex -30.9724 -5.51492 0
    endloop
  endfacet
  facet normal 0 0 -1
    outer loop
      vertex -43.9875 -2.97314 0
      vertex -30.9724 -5.51492 0
      vertex -18.4311 -8.40533 0
    endloop
  endfacet
  facet normal 0 0 -1
    outer loop
      vertex -30.9724 5.51492 0
      vertex -20.4314 10.627 0
      vertex -29.0276 5.51492 0
    endloop
  endfacet
  facet normal 0 0 -1
    outer loop
      vertex -25.7102 -3.59961 0
      vertex -16.9363 -5.81633 0
      vertex -27.2 -4.84974 0
    endloop
  endfacet
  facet normal 0 0 -1
    outer loop
      vertex -16.9363 -5.81633 0
      vertex -25.7102 -3.59961 0
      vertex -16.0125 -2.97314 0
    endloop
  endfacet
  facet normal 0 0 -1
    outer loop
      vertex -8.15404 2.5 0
      vertex -4.93339 1.79561 0
      vertex -24.4 0 0
    endloop
  endfacet
  facet normal 0 0 -1
    outer loop
      vertex -24.7377 -1.91531 0
      vertex -4.93339 -1.79561 0
      vertex -15.9628 -2.5 0
    endloop
  endfacet
  facet normal 0 0 -1
    outer loop
      vertex -27.2 4.84974 0
      vertex -18.4311 8.40533 0
      vertex -25.7102 3.59961 0
    endloop
  endfacet
  facet normal 0 0 -1
    outer loop
      vertex -29.0276 5.51492 0
      vertex -20.4314 10.627 0
      vertex -27.2 4.84974 0
    endloop
  endfacet
  facet normal 0 0 -1
    outer loop
      vertex -32.8 4.84974 0
      vertex -22.85 12.3842 0
      vertex -30.9724 5.51492 0
    endloop
  endfacet
  facet normal 0 0 -1
    outer loop
      vertex -35.2623 1.91531 0
      vertex -43.9875 -2.97314 0
      vertex -34.2898 3.59961 0
    endloop
  endfacet
  facet normal 0 0 -1
    outer loop
      vertex -43.9875 -2.97314 0
      vertex -22.85 12.3842 0
      vertex -32.8 4.84974 0
    endloop
  endfacet
  facet normal 0 0 -1
    outer loop
      vertex -43.9875 -2.97314 0
      vertex -32.8 4.84974 0
      vertex -34.2898 3.59961 0
    endloop
  endfacet
  facet normal 0 0 -1
    outer loop
      vertex -25.7102 3.59961 0
      vertex -16.9363 5.81633 0
      vertex -24.7377 1.91531 0
    endloop
  endfacet
  facet normal 0 0 -1
    outer loop
      vertex 0.911653 5.17024 0
      vertex 17.5 8.55 0
      vertex 2.625 4.54663 0
    endloop
  endfacet
  facet normal 0 0 -1
    outer loop
      vertex -4.93339 1.79561 0
      vertex -8.15404 2.5 0
      vertex -4.02173 3.37464 0
    endloop
  endfacet
  facet normal 0 0 -1
    outer loop
      vertex -24.7377 -1.91531 0
      vertex -16.0125 -2.97314 0
      vertex -25.7102 -3.59961 0
    endloop
  endfacet
  facet normal -0.994522 0.104528 0
    outer loop
      vertex -44.3 0 0
      vertex -44.3 0 15
      vertex -43.9875 2.97314 0
    endloop
  endfacet
  facet normal -0.994522 0.104528 0
    outer loop
      vertex -43.9875 2.97314 0
      vertex -44.3 0 15
      vertex -43.9875 2.97314 15
    endloop
  endfacet
  facet normal -0.994522 -0.104528 0
    outer loop
      vertex -44.3 0 0
      vertex -43.9875 -2.97314 0
      vertex -44.3 0 15
    endloop
  endfacet
  facet normal -0.994522 -0.104528 0
    outer loop
      vertex -44.3 0 15
      vertex -43.9875 -2.97314 0
      vertex -43.9875 -2.97314 15
    endloop
  endfacet
  facet normal -0.951056 -0.309017 0
    outer loop
      vertex -43.9875 -2.97314 0
      vertex -43.0637 -5.81633 0
      vertex -43.9875 -2.97314 15
    endloop
  endfacet
  facet normal -0.951056 -0.309017 0
    outer loop
      vertex -43.9875 -2.97314 15
      vertex -43.0637 -5.81633 0
      vertex -43.0637 -5.81633 15
    endloop
  endfacet
  facet normal -0.866025 -0.5 0
    outer loop
      vertex -43.0637 -5.81633 0
      vertex -41.5689 -8.40533 0
      vertex -43.0637 -5.81633 15
    endloop
  endfacet
  facet normal -0.866025 -0.5 0
    outer loop
      vertex -43.0637 -5.81633 15
      vertex -41.5689 -8.40533 0
      vertex -41.5689 -8.40533 15
    endloop
  endfacet
  facet normal -0.743145 -0.669131 0
    outer loop
      vertex -41.5689 -8.40533 0
      vertex -39.5686 -10.627 0
      vertex -41.5689 -8.40533 15
    endloop
  endfacet
  facet normal -0.743145 -0.669131 0
    outer loop
      vertex -41.5689 -8.40533 15
      vertex -39.5686 -10.627 0
      vertex -39.5686 -10.627 15
    endloop
  endfacet
  facet normal -0.587785 -0.809017 0
    outer loop
      vertex -39.5686 -10.627 15
      vertex -39.5686 -10.627 0
      vertex -37.15 -12.3842 0
    endloop
  endfacet
  facet normal -0.587785 -0.809017 0
    outer loop
      vertex -37.15 -12.3842 15
      vertex -39.5686 -10.627 15
      vertex -37.15 -12.3842 0
    endloop
  endfacet
  facet normal -0.406737 -0.913545 0
    outer loop
      vertex -37.15 -12.3842 15
      vertex -37.15 -12.3842 0
      vertex -34.4189 -13.6001 0
    endloop
  endfacet
  facet normal -0.406737 -0.913545 0
    outer loop
      vertex -34.4189 -13.6001 15
      vertex -37.15 -12.3842 15
      vertex -34.4189 -13.6001 0
    endloop
  endfacet
  facet normal -0.207912 -0.978148 0
    outer loop
      vertex -34.4189 -13.6001 15
      vertex -34.4189 -13.6001 0
      vertex -31.4948 -14.2217 0
    endloop
  endfacet
  facet normal -0.207912 -0.978148 0
    outer loop
      vertex -31.4948 -14.2217 15
      vertex -34.4189 -13.6001 15
      vertex -31.4948 -14.2217 0
    endloop
  endfacet
  facet normal 0 -1 0
    outer loop
      vertex -31.4948 -14.2217 15
      vertex -31.4948 -14.2217 0
      vertex -28.5052 -14.2217 0
    endloop
  endfacet
  facet normal 0 -1 0
    outer loop
      vertex -28.5052 -14.2217 15
      vertex -31.4948 -14.2217 15
      vertex -28.5052 -14.2217 0
    endloop
  endfacet
  facet normal 0.207912 -0.978148 0
    outer loop
      vertex -28.5052 -14.2217 15
      vertex -28.5052 -14.2217 0
      vertex -25.5811 -13.6001 0
    endloop
  endfacet
  facet normal 0.207912 -0.978148 0
    outer loop
      vertex -25.5811 -13.6001 15
      vertex -28.5052 -14.2217 15
      vertex -25.5811 -13.6001 0
    endloop
  endfacet
  facet normal 0.406737 -0.913545 0
    outer loop
      vertex -25.5811 -13.6001 15
      vertex -25.5811 -13.6001 0
      vertex -22.85 -12.3842 0
    endloop
  endfacet
  facet normal 0.406737 -0.913545 0
    outer loop
      vertex -22.85 -12.3842 15
      vertex -25.5811 -13.6001 15
      vertex -22.85 -12.3842 0
    endloop
  endfacet
  facet normal 0.587785 -0.809017 0
    outer loop
      vertex -22.85 -12.3842 15
      vertex -22.85 -12.3842 0
      vertex -20.4314 -10.627 0
    endloop
  endfacet
  facet normal 0.587785 -0.809017 0
    outer loop
      vertex -20.4314 -10.627 15
      vertex -22.85 -12.3842 15
      vertex -20.4314 -10.627 0
    endloop
  endfacet
  facet normal 0.743145 -0.669131 0
    outer loop
      vertex -20.4314 -10.627 15
      vertex -20.4314 -10.627 0
      vertex -18.4311 -8.40533 0
    endloop
  endfacet
  facet normal 0.743145 -0.669131 0
    outer loop
      vertex -18.4311 -8.40533 15
      vertex -20.4314 -10.627 15
      vertex -18.4311 -8.40533 0
    endloop
  endfacet
  facet normal 0.866025 -0.5 0
    outer loop
      vertex -18.4311 -8.40533 15
      vertex -18.4311 -8.40533 0
      vertex -16.9363 -5.81633 0
    endloop
  endfacet
  facet normal 0.866025 -0.5 0
    outer loop
      vertex -16.9363 -5.81633 15
      vertex -18.4311 -8.40533 15
      vertex -16.9363 -5.81633 0
    endloop
  endfacet
  facet normal 0.951056 -0.309017 0
    outer loop
      vertex -16.9363 -5.81633 15
      vertex -16.9363 -5.81633 0
      vertex -16.0125 -2.97314 0
    endloop
  endfacet
  facet normal 0.951056 -0.309017 0
    outer loop
      vertex -16.0125 -2.97314 15
      vertex -16.9363 -5.81633 15
      vertex -16.0125 -2.97314 0
    endloop
  endfacet
  facet normal 0.994522 -0.104528 0
    outer loop
      vertex -16.0125 -2.97314 15
      vertex -16.0125 -2.97314 0
      vertex -15.9628 -2.5 0
    endloop
  endfacet
  facet normal 0.994522 -0.104528 0
    outer loop
      vertex -15.9628 -2.5 15
      vertex -16.0125 -2.97314 15
      vertex -15.9628 -2.5 0
    endloop
  endfacet
  facet normal 0 -1 0
    outer loop
      vertex -15.9628 -2.5 15
      vertex -15.9628 -2.5 0
      vertex -8.15404 -2.5 0
    endloop
  endfacet
  facet normal 0 -1 0
    outer loop
      vertex -8.15404 -2.5 15
      vertex -15.9628 -2.5 15
      vertex -8.15404 -2.5 0
    endloop
  endfacet
  facet normal -0.987688 -0.156435 0
    outer loop
      vertex -8.15404 -2.5 0
      vertex -8.13153 -2.64209 0
      vertex -8.15404 -2.5 15
    endloop
  endfacet
  facet normal -0.987688 -0.156435 0
    outer loop
      vertex -8.15404 -2.5 15
      vertex -8.13153 -2.64209 0
      vertex -8.13153 -2.64209 15
    endloop
  endfacet
  facet normal -0.891007 -0.45399 0
    outer loop
      vertex -8.13153 -2.64209 0
      vertex -6.91709 -5.02556 0
      vertex -8.13153 -2.64209 15
    endloop
  endfacet
  facet normal -0.891007 -0.45399 0
    outer loop
      vertex -8.13153 -2.64209 15
      vertex -6.91709 -5.02556 0
      vertex -6.91709 -5.02556 15
    endloop
  endfacet
  facet normal -0.707107 -0.707107 0
    outer loop
      vertex -6.91709 -5.02556 15
      vertex -6.91709 -5.02556 0
      vertex -5.02556 -6.91709 0
    endloop
  endfacet
  facet normal -0.707107 -0.707107 0
    outer loop
      vertex -5.02556 -6.91709 15
      vertex -6.91709 -5.02556 15
      vertex -5.02556 -6.91709 0
    endloop
  endfacet
  facet normal -0.45399 -0.891007 0
    outer loop
      vertex -5.02556 -6.91709 15
      vertex -5.02556 -6.91709 0
      vertex -2.64209 -8.13153 0
    endloop
  endfacet
  facet normal -0.45399 -0.891007 0
    outer loop
      vertex -2.64209 -8.13153 15
      vertex -5.02556 -6.91709 15
      vertex -2.64209 -8.13153 0
    endloop
  endfacet
  facet normal -0.156435 -0.987688 0
    outer loop
      vertex -2.64209 -8.13153 15
      vertex -2.64209 -8.13153 0
      vertex 0 -8.55 0
    endloop
  endfacet
  facet normal -0.156435 -0.987688 0
    outer loop
      vertex 0 -8.55 15
      vertex -2.64209 -8.13153 15
      vertex 0 -8.55 0
    endloop
  endfacet
  facet normal 0 -1 0
    outer loop
      vertex 7.94785 -8.55 5.95453
      vertex 0 -8.55 0
      vertex 17.5 -8.55 0
    endloop
  endfacet
  facet normal 0 -1 0
    outer loop
      vertex 0 -8.55 15
      vertex 0 -8.55 0
      vertex 7.13535 -8.55 6.54485
    endloop
  endfacet
  facet normal 0 -1 0
    outer loop
      vertex 8.95215 -8.55 5.95453
      vertex 7.94785 -8.55 5.95453
      vertex 17.5 -8.55 0
    endloop
  endfacet
  facet normal 0 -1 0
    outer loop
      vertex 0 -8.55 15
      vertex 7.13535 -8.55 6.54485
      vertex 6.825 -8.55 7.5
    endloop
  endfacet
  facet normal 0 -1 0
    outer loop
      vertex 0 -8.55 15
      vertex 6.825 -8.55 7.5
      vertex 7.13535 -8.55 8.45515
    endloop
  endfacet
  facet normal 0 -1 0
    outer loop
      vertex 17.5 -8.55 15
      vertex 0 -8.55 15
      vertex 7.94785 -8.55 9.04547
    endloop
  endfacet
  facet normal 0 -1 0
    outer loop
      vertex 10.075 -8.55 7.5
      vertex 9.76465 -8.55 6.54485
      vertex 17.5 -8.55 0
    endloop
  endfacet
  facet normal 0 -1 0
    outer loop
      vertex 17.5 -8.55 15
      vertex 7.94785 -8.55 9.04547
      vertex 8.95215 -8.55 9.04547
    endloop
  endfacet
  facet normal 0 -1 0
    outer loop
      vertex 17.5 -8.55 15
      vertex 9.76465 -8.55 8.45515
      vertex 17.5 -8.55 0
    endloop
  endfacet
  facet normal 0 -1 0
    outer loop
      vertex 17.5 -8.55 15
      vertex 8.95215 -8.55 9.04547
      vertex 9.76465 -8.55 8.45515
    endloop
  endfacet
  facet normal 0 -1 0
    outer loop
      vertex 9.76465 -8.55 8.45515
      vertex 10.075 -8.55 7.5
      vertex 17.5 -8.55 0
    endloop
  endfacet
  facet normal 0 -1 0
    outer loop
      vertex 9.76465 -8.55 6.54485
      vertex 8.95215 -8.55 5.95453
      vertex 17.5 -8.55 0
    endloop
  endfacet
  facet normal 0 -1 0
    outer loop
      vertex 7.13535 -8.55 6.54485
      vertex 0 -8.55 0
      vertex 7.94785 -8.55 5.95453
    endloop
  endfacet
  facet normal 0 -1 0
    outer loop
      vertex 7.13535 -8.55 8.45515
      vertex 7.94785 -8.55 9.04547
      vertex 0 -8.55 15
    endloop
  endfacet
  facet normal 1 0 0
    outer loop
      vertex 17.5 -8.55 15
      vertex 17.5 -8.55 0
      vertex 17.5 -4.275 0
    endloop
  endfacet
  facet normal 1 0 0
    outer loop
      vertex 17.5 -4.275 15
      vertex 17.5 -8.55 15
      vertex 17.5 -4.275 0
    endloop
  endfacet
  facet normal 0 1 0
    outer loop
      vertex 7.94785 -4.275 5.95453
      vertex 17.5 -4.275 0
      vertex 2.94872 -4.275 0
    endloop
  endfacet
  facet normal 0 1 0
    outer loop
      vertex 9.76465 -4.275 8.45515
      vertex 17.5 -4.275 0
      vertex 10.075 -4.275 7.5
    endloop
  endfacet
  facet normal 0 1 0
    outer loop
      vertex 2.94872 -4.275 15
      vertex 7.13535 -4.275 6.54485
      vertex 2.94872 -4.275 0
    endloop
  endfacet
  facet normal 0 1 0
    outer loop
      vertex 7.13535 -4.275 6.54485
      vertex 7.94785 -4.275 5.95453
      vertex 2.94872 -4.275 0
    endloop
  endfacet
  facet normal 0 1 0
    outer loop
      vertex 9.76465 -4.275 6.54485
      vertex 17.5 -4.275 0
      vertex 8.95215 -4.275 5.95453
    endloop
  endfacet
  facet normal 0 1 0
    outer loop
      vertex 10.075 -4.275 7.5
      vertex 17.5 -4.275 0
      vertex 9.76465 -4.275 6.54485
    endloop
  endfacet
  facet normal 0 1 0
    outer loop
      vertex 17.5 -4.275 15
      vertex 17.5 -4.275 0
      vertex 9.76465 -4.275 8.45515
    endloop
  endfacet
  facet normal 0 1 0
    outer loop
      vertex 17.5 -4.275 15
      vertex 9.76465 -4.275 8.45515
      vertex 2.94872 -4.275 15
    endloop
  endfacet
  facet normal 0 1 0
    outer loop
      vertex 7.94785 -4.275 9.04547
      vertex 2.94872 -4.275 15
      vertex 8.95215 -4.275 9.04547
    endloop
  endfacet
  facet normal 0 1 0
    outer loop
      vertex 9.76465 -4.275 8.45515
      vertex 8.95215 -4.275 9.04547
      vertex 2.94872 -4.275 15
    endloop
  endfacet
  facet normal 0 1 0
    outer loop
      vertex 7.13535 -4.275 8.45515
      vertex 2.94872 -4.275 15
      vertex 7.94785 -4.275 9.04547
    endloop
  endfacet
  facet normal 0 1 0
    outer loop
      vertex 2.94872 -4.275 15
      vertex 7.13535 -4.275 8.45515
      vertex 6.825 -4.275 7.5
    endloop
  endfacet
  facet normal 0 1 0
    outer loop
      vertex 2.94872 -4.275 15
      vertex 6.825 -4.275 7.5
      vertex 7.13535 -4.275 6.54485
    endloop
  endfacet
  facet normal 0 1 0
    outer loop
      vertex 8.95215 -4.275 5.95453
      vertex 17.5 -4.275 0
      vertex 7.94785 -4.275 5.95453
    endloop
  endfacet
  facet normal -0.642788 0.766044 0
    outer loop
      vertex 2.94872 -4.275 15
      vertex 2.94872 -4.275 0
      vertex 2.625 -4.54663 15
    endloop
  endfacet
  facet normal -0.642788 0.766044 0
    outer loop
      vertex 2.625 -4.54663 15
      vertex 2.94872 -4.275 0
      vertex 2.625 -4.54663 0
    endloop
  endfacet
  facet normal -0.34202 0.939692 0
    outer loop
      vertex 2.625 -4.54663 15
      vertex 2.625 -4.54663 0
      vertex 0.911653 -5.17024 15
    endloop
  endfacet
  facet normal -0.34202 0.939692 0
    outer loop
      vertex 0.911653 -5.17024 15
      vertex 2.625 -4.54663 0
      vertex 0.911653 -5.17024 0
    endloop
  endfacet
  facet normal 0 1 0
    outer loop
      vertex 0.911653 -5.17024 15
      vertex 0.911653 -5.17024 0
      vertex -0.911653 -5.17024 15
    endloop
  endfacet
  facet normal 0 1 0
    outer loop
      vertex -0.911653 -5.17024 15
      vertex 0.911653 -5.17024 0
      vertex -0.911653 -5.17024 0
    endloop
  endfacet
  facet normal 0.34202 0.939692 0
    outer loop
      vertex -0.911653 -5.17024 15
      vertex -0.911653 -5.17024 0
      vertex -2.625 -4.54663 15
    endloop
  endfacet
  facet normal 0.34202 0.939692 0
    outer loop
      vertex -2.625 -4.54663 15
      vertex -0.911653 -5.17024 0
      vertex -2.625 -4.54663 0
    endloop
  endfacet
  facet normal 0.642788 0.766044 0
    outer loop
      vertex -2.625 -4.54663 15
      vertex -2.625 -4.54663 0
      vertex -4.02173 -3.37464 15
    endloop
  endfacet
  facet normal 0.642788 0.766044 0
    outer loop
      vertex -4.02173 -3.37464 15
      vertex -2.625 -4.54663 0
      vertex -4.02173 -3.37464 0
    endloop
  endfacet
  facet normal 0.866025 0.5 0
    outer loop
      vertex -4.93339 -1.79561 15
      vertex -4.02173 -3.37464 15
      vertex -4.02173 -3.37464 0
    endloop
  endfacet
  facet normal 0.866025 0.5 0
    outer loop
      vertex -4.93339 -1.79561 0
      vertex -4.93339 -1.79561 15
      vertex -4.02173 -3.37464 0
    endloop
  endfacet
  facet normal 0.984808 0.173648 0
    outer loop
      vertex -5.25 0 15
      vertex -4.93339 -1.79561 15
      vertex -4.93339 -1.79561 0
    endloop
  endfacet
  facet normal 0.984808 0.173648 0
    outer loop
      vertex -5.25 0 0
      vertex -5.25 0 15
      vertex -4.93339 -1.79561 0
    endloop
  endfacet
  facet normal 0.984808 -0.173648 0
    outer loop
      vertex -4.93339 1.79561 0
      vertex -4.93339 1.79561 15
      vertex -5.25 0 15
    endloop
  endfacet
  facet normal 0.984808 -0.173648 0
    outer loop
      vertex -5.25 0 0
      vertex -4.93339 1.79561 0
      vertex -5.25 0 15
    endloop
  endfacet
  facet normal 0.866025 -0.5 0
    outer loop
      vertex -4.02173 3.37464 0
      vertex -4.02173 3.37464 15
      vertex -4.93339 1.79561 15
    endloop
  endfacet
  facet normal 0.866025 -0.5 0
    outer loop
      vertex -4.93339 1.79561 0
      vertex -4.02173 3.37464 0
      vertex -4.93339 1.79561 15
    endloop
  endfacet
  facet normal 0.642788 -0.766044 0
    outer loop
      vertex -2.625 4.54663 0
      vertex -2.625 4.54663 15
      vertex -4.02173 3.37464 15
    endloop
  endfacet
  facet normal 0.642788 -0.766044 0
    outer loop
      vertex -4.02173 3.37464 0
      vertex -2.625 4.54663 0
      vertex -4.02173 3.37464 15
    endloop
  endfacet
  facet normal 0.34202 -0.939692 0
    outer loop
      vertex -0.911653 5.17024 0
      vertex -0.911653 5.17024 15
      vertex -2.625 4.54663 15
    endloop
  endfacet
  facet normal 0.34202 -0.939692 0
    outer loop
      vertex -2.625 4.54663 0
      vertex -0.911653 5.17024 0
      vertex -2.625 4.54663 15
    endloop
  endfacet
  facet normal 0 -1 0
    outer loop
      vertex 0.911653 5.17024 0
      vertex 0.911653 5.17024 15
      vertex -0.911653 5.17024 15
    endloop
  endfacet
  facet normal 0 -1 0
    outer loop
      vertex -0.911653 5.17024 0
      vertex 0.911653 5.17024 0
      vertex -0.911653 5.17024 15
    endloop
  endfacet
  facet normal -0.34202 -0.939692 0
    outer loop
      vertex 2.625 4.54663 0
      vertex 2.625 4.54663 15
      vertex 0.911653 5.17024 15
    endloop
  endfacet
  facet normal -0.34202 -0.939692 0
    outer loop
      vertex 0.911653 5.17024 0
      vertex 2.625 4.54663 0
      vertex 0.911653 5.17024 15
    endloop
  endfacet
  facet normal -0.642788 -0.766044 0
    outer loop
      vertex 2.94872 4.275 0
      vertex 2.94872 4.275 15
      vertex 2.625 4.54663 15
    endloop
  endfacet
  facet normal -0.642788 -0.766044 0
    outer loop
      vertex 2.625 4.54663 0
      vertex 2.94872 4.275 0
      vertex 2.625 4.54663 15
    endloop
  endfacet
  facet normal 0 -1 0
    outer loop
      vertex 8.95215 4.275 9.04547
      vertex 17.5 4.275 15
      vertex 2.94872 4.275 15
    endloop
  endfacet
  facet normal 0 -1 0
    outer loop
      vertex 9.76465 4.275 8.45515
      vertex 10.075 4.275 7.5
      vertex 17.5 4.275 0
    endloop
  endfacet
  facet normal 0 -1 0
    outer loop
      vertex 2.94872 4.275 0
      vertex 6.825 4.275 7.5
      vertex 2.94872 4.275 15
    endloop
  endfacet
  facet normal 0 -1 0
    outer loop
      vertex 6.825 4.275 7.5
      vertex 7.13535 4.275 8.45515
      vertex 2.94872 4.275 15
    endloop
  endfacet
  facet normal 0 -1 0
    outer loop
      vertex 7.13535 4.275 8.45515
      vertex 7.94785 4.275 9.04547
      vertex 2.94872 4.275 15
    endloop
  endfacet
  facet normal 0 -1 0
    outer loop
      vertex 9.76465 4.275 8.45515
      vertex 17.5 4.275 15
      vertex 8.95215 4.275 9.04547
    endloop
  endfacet
  facet normal 0 -1 0
    outer loop
      vertex 10.075 4.275 7.5
      vertex 9.76465 4.275 6.54485
      vertex 17.5 4.275 0
    endloop
  endfacet
  facet normal 0 -1 0
    outer loop
      vertex 17.5 4.275 0
      vertex 17.5 4.275 15
      vertex 9.76465 4.275 8.45515
    endloop
  endfacet
  facet normal 0 -1 0
    outer loop
      vertex 9.76465 4.275 6.54485
      vertex 8.95215 4.275 5.95453
      vertex 17.5 4.275 0
    endloop
  endfacet
  facet normal 0 -1 0
    outer loop
      vertex 2.94872 4.275 0
      vertex 17.5 4.275 0
      vertex 8.95215 4.275 5.95453
    endloop
  endfacet
  facet normal 0 -1 0
    outer loop
      vertex 2.94872 4.275 0
      vertex 8.95215 4.275 5.95453
      vertex 7.94785 4.275 5.95453
    endloop
  endfacet
  facet normal 0 -1 0
    outer loop
      vertex 2.94872 4.275 0
      vertex 7.13535 4.275 6.54485
      vertex 6.825 4.275 7.5
    endloop
  endfacet
  facet normal 0 -1 0
    outer loop
      vertex 2.94872 4.275 0
      vertex 7.94785 4.275 5.95453
      vertex 7.13535 4.275 6.54485
    endloop
  endfacet
  facet normal 0 -1 0
    outer loop
      vertex 7.94785 4.275 9.04547
      vertex 8.95215 4.275 9.04547
      vertex 2.94872 4.275 15
    endloop
  endfacet
  facet normal 1 0 0
    outer loop
      vertex 17.5 4.275 15
      vertex 17.5 4.275 0
      vertex 17.5 8.55 0
    endloop
  endfacet
  facet normal 1 0 0
    outer loop
      vertex 17.5 8.55 15
      vertex 17.5 4.275 15
      vertex 17.5 8.55 0
    endloop
  endfacet
  facet normal 0 1 0
    outer loop
      vertex 9.9125 8.55 10.0331
      vertex 1.12155e-014 8.55 15
      vertex 17.5 8.55 15
    endloop
  endfacet
  facet normal 0 1 0
    outer loop
      vertex 1.12155e-014 8.55 0
      vertex 1.12155e-014 8.55 15
      vertex 5.525 8.55 7.5
    endloop
  endfacet
  facet normal 0 1 0
    outer loop
      vertex 1.12155e-014 8.55 0
      vertex 5.525 8.55 7.5
      vertex 6.9875 8.55 4.96688
    endloop
  endfacet
  facet normal 0 1 0
    outer loop
      vertex 1.12155e-014 8.55 0
      vertex 6.9875 8.55 4.96688
      vertex 17.5 8.55 0
    endloop
  endfacet
  facet normal 0 1 0
    outer loop
      vertex 9.9125 8.55 4.96688
      vertex 17.5 8.55 0
      vertex 6.9875 8.55 4.96688
    endloop
  endfacet
  facet normal 0 1 0
    outer loop
      vertex 11.375 8.55 7.5
      vertex 17.5 8.55 0
      vertex 9.9125 8.55 4.96688
    endloop
  endfacet
  facet normal 0 1 0
    outer loop
      vertex 17.5 8.55 0
      vertex 11.375 8.55 7.5
      vertex 17.5 8.55 15
    endloop
  endfacet
  facet normal 0 1 0
    outer loop
      vertex 11.375 8.55 7.5
      vertex 9.9125 8.55 10.0331
      vertex 17.5 8.55 15
    endloop
  endfacet
  facet normal 0 1 0
    outer loop
      vertex 6.9875 8.55 10.0331
      vertex 1.12155e-014 8.55 15
      vertex 9.9125 8.55 10.0331
    endloop
  endfacet
  facet normal 0 1 0
    outer loop
      vertex 5.525 8.55 7.5
      vertex 1.12155e-014 8.55 15
      vertex 6.9875 8.55 10.0331
    endloop
  endfacet
  facet normal 0.156435 0.987688 0
    outer loop
      vertex 0 8.55 0
      vertex 0 8.55 15
      vertex 1.12155e-014 8.55 0
    endloop
  endfacet
  facet normal 0.156435 0.987688 0
    outer loop
      vertex 1.12155e-014 8.55 0
      vertex 0 8.55 15
      vertex 1.12155e-014 8.55 15
    endloop
  endfacet
  facet normal -0.156435 0.987688 0
    outer loop
      vertex -2.64209 8.13153 0
      vertex -2.64209 8.13153 15
      vertex 0 8.55 0
    endloop
  endfacet
  facet normal -0.156435 0.987688 0
    outer loop
      vertex 0 8.55 0
      vertex -2.64209 8.13153 15
      vertex 0 8.55 15
    endloop
  endfacet
  facet normal -0.45399 0.891007 0
    outer loop
      vertex -5.02556 6.91709 0
      vertex -5.02556 6.91709 15
      vertex -2.64209 8.13153 0
    endloop
  endfacet
  facet normal -0.45399 0.891007 0
    outer loop
      vertex -2.64209 8.13153 0
      vertex -5.02556 6.91709 15
      vertex -2.64209 8.13153 15
    endloop
  endfacet
  facet normal -0.707107 0.707107 0
    outer loop
      vertex -6.91709 5.02556 0
      vertex -6.91709 5.02556 15
      vertex -5.02556 6.91709 0
    endloop
  endfacet
  facet normal -0.707107 0.707107 0
    outer loop
      vertex -5.02556 6.91709 0
      vertex -6.91709 5.02556 15
      vertex -5.02556 6.91709 15
    endloop
  endfacet
  facet normal -0.891007 0.45399 0
    outer loop
      vertex -8.13153 2.64209 0
      vertex -8.13153 2.64209 15
      vertex -6.91709 5.02556 0
    endloop
  endfacet
  facet normal -0.891007 0.45399 0
    outer loop
      vertex -6.91709 5.02556 0
      vertex -8.13153 2.64209 15
      vertex -6.91709 5.02556 15
    endloop
  endfacet
  facet normal -0.987688 0.156435 0
    outer loop
      vertex -8.15404 2.5 0
      vertex -8.15404 2.5 15
      vertex -8.13153 2.64209 0
    endloop
  endfacet
  facet normal -0.987688 0.156435 0
    outer loop
      vertex -8.13153 2.64209 0
      vertex -8.15404 2.5 15
      vertex -8.13153 2.64209 15
    endloop
  endfacet
  facet normal 0 1 0
    outer loop
      vertex -15.9628 2.5 0
      vertex -15.9628 2.5 15
      vertex -8.15404 2.5 0
    endloop
  endfacet
  facet normal 0 1 0
    outer loop
      vertex -8.15404 2.5 0
      vertex -15.9628 2.5 15
      vertex -8.15404 2.5 15
    endloop
  endfacet
  facet normal 0.994522 0.104528 0
    outer loop
      vertex -15.9628 2.5 0
      vertex -16.0125 2.97314 0
      vertex -16.0125 2.97314 15
    endloop
  endfacet
  facet normal 0.994522 0.104528 0
    outer loop
      vertex -15.9628 2.5 15
      vertex -15.9628 2.5 0
      vertex -16.0125 2.97314 15
    endloop
  endfacet
  facet normal 0.951056 0.309017 0
    outer loop
      vertex -16.0125 2.97314 0
      vertex -16.9363 5.81633 0
      vertex -16.9363 5.81633 15
    endloop
  endfacet
  facet normal 0.951056 0.309017 0
    outer loop
      vertex -16.0125 2.97314 15
      vertex -16.0125 2.97314 0
      vertex -16.9363 5.81633 15
    endloop
  endfacet
  facet normal 0.866025 0.5 0
    outer loop
      vertex -16.9363 5.81633 0
      vertex -18.4311 8.40533 0
      vertex -18.4311 8.40533 15
    endloop
  endfacet
  facet normal 0.866025 0.5 0
    outer loop
      vertex -16.9363 5.81633 15
      vertex -16.9363 5.81633 0
      vertex -18.4311 8.40533 15
    endloop
  endfacet
  facet normal 0.743145 0.669131 0
    outer loop
      vertex -18.4311 8.40533 0
      vertex -20.4314 10.627 0
      vertex -20.4314 10.627 15
    endloop
  endfacet
  facet normal 0.743145 0.669131 0
    outer loop
      vertex -18.4311 8.40533 15
      vertex -18.4311 8.40533 0
      vertex -20.4314 10.627 15
    endloop
  endfacet
  facet normal 0.587785 0.809017 0
    outer loop
      vertex -22.85 12.3842 0
      vertex -22.85 12.3842 15
      vertex -20.4314 10.627 0
    endloop
  endfacet
  facet normal 0.587785 0.809017 0
    outer loop
      vertex -20.4314 10.627 0
      vertex -22.85 12.3842 15
      vertex -20.4314 10.627 15
    endloop
  endfacet
  facet normal 0.406737 0.913545 0
    outer loop
      vertex -25.5811 13.6001 0
      vertex -25.5811 13.6001 15
      vertex -22.85 12.3842 0
    endloop
  endfacet
  facet normal 0.406737 0.913545 0
    outer loop
      vertex -22.85 12.3842 0
      vertex -25.5811 13.6001 15
      vertex -22.85 12.3842 15
    endloop
  endfacet
  facet normal 0.207912 0.978148 0
    outer loop
      vertex -28.5052 14.2217 0
      vertex -28.5052 14.2217 15
      vertex -25.5811 13.6001 0
    endloop
  endfacet
  facet normal 0.207912 0.978148 0
    outer loop
      vertex -25.5811 13.6001 0
      vertex -28.5052 14.2217 15
      vertex -25.5811 13.6001 15
    endloop
  endfacet
  facet normal 0 1 0
    outer loop
      vertex -31.4948 14.2217 0
      vertex -31.4948 14.2217 15
      vertex -28.5052 14.2217 0
    endloop
  endfacet
  facet normal 0 1 0
    outer loop
      vertex -28.5052 14.2217 0
      vertex -31.4948 14.2217 15
      vertex -28.5052 14.2217 15
    endloop
  endfacet
  facet normal -0.207912 0.978148 0
    outer loop
      vertex -34.4189 13.6001 0
      vertex -34.4189 13.6001 15
      vertex -31.4948 14.2217 0
    endloop
  endfacet
  facet normal -0.207912 0.978148 0
    outer loop
      vertex -31.4948 14.2217 0
      vertex -34.4189 13.6001 15
      vertex -31.4948 14.2217 15
    endloop
  endfacet
  facet normal -0.406737 0.913545 0
    outer loop
      vertex -37.15 12.3842 0
      vertex -37.15 12.3842 15
      vertex -34.4189 13.6001 0
    endloop
  endfacet
  facet normal -0.406737 0.913545 0
    outer loop
      vertex -34.4189 13.6001 0
      vertex -37.15 12.3842 15
      vertex -34.4189 13.6001 15
    endloop
  endfacet
  facet normal -0.587785 0.809017 0
    outer loop
      vertex -39.5686 10.627 0
      vertex -39.5686 10.627 15
      vertex -37.15 12.3842 0
    endloop
  endfacet
  facet normal -0.587785 0.809017 0
    outer loop
      vertex -37.15 12.3842 0
      vertex -39.5686 10.627 15
      vertex -37.15 12.3842 15
    endloop
  endfacet
  facet normal -0.743145 0.669131 0
    outer loop
      vertex -41.5689 8.40533 0
      vertex -41.5689 8.40533 15
      vertex -39.5686 10.627 0
    endloop
  endfacet
  facet normal -0.743145 0.669131 0
    outer loop
      vertex -39.5686 10.627 0
      vertex -41.5689 8.40533 15
      vertex -39.5686 10.627 15
    endloop
  endfacet
  facet normal -0.866025 0.5 0
    outer loop
      vertex -43.0637 5.81633 0
      vertex -43.0637 5.81633 15
      vertex -41.5689 8.40533 0
    endloop
  endfacet
  facet normal -0.866025 0.5 0
    outer loop
      vertex -41.5689 8.40533 0
      vertex -43.0637 5.81633 15
      vertex -41.5689 8.40533 15
    endloop
  endfacet
  facet normal -0.951056 0.309017 0
    outer loop
      vertex -43.9875 2.97314 0
      vertex -43.9875 2.97314 15
      vertex -43.0637 5.81633 0
    endloop
  endfacet
  facet normal -0.951056 0.309017 0
    outer loop
      vertex -43.0637 5.81633 0
      vertex -43.9875 2.97314 15
      vertex -43.0637 5.81633 15
    endloop
  endfacet
  facet normal 0.984808 -0.173648 0
    outer loop
      vertex -35.2623 1.91531 0
      vertex -35.2623 1.91531 5
      vertex -35.6 0 5
    endloop
  endfacet
  facet normal 0.984808 -0.173648 0
    outer loop
      vertex -35.6 0 0
      vertex -35.2623 1.91531 0
      vertex -35.6 0 5
    endloop
  endfacet
  facet normal 0.984808 0.173648 0
    outer loop
      vertex -35.6 0 5
      vertex -35.2623 -1.91531 5
      vertex -35.2623 -1.91531 0
    endloop
  endfacet
  facet normal 0.984808 0.173648 0
    outer loop
      vertex -35.6 0 0
      vertex -35.6 0 5
      vertex -35.2623 -1.91531 0
    endloop
  endfacet
  facet normal 0.866025 -0.5 0
    outer loop
      vertex -34.2898 3.59961 0
      vertex -34.2898 3.59961 5
      vertex -35.2623 1.91531 5
    endloop
  endfacet
  facet normal 0.866025 -0.5 0
    outer loop
      vertex -35.2623 1.91531 0
      vertex -34.2898 3.59961 0
      vertex -35.2623 1.91531 5
    endloop
  endfacet
  facet normal 0.642787 -0.766045 0
    outer loop
      vertex -32.8 4.84974 0
      vertex -32.8 4.84974 5
      vertex -34.2898 3.59961 5
    endloop
  endfacet
  facet normal 0.642787 -0.766045 0
    outer loop
      vertex -34.2898 3.59961 0
      vertex -32.8 4.84974 0
      vertex -34.2898 3.59961 5
    endloop
  endfacet
  facet normal 0.34202 -0.939693 0
    outer loop
      vertex -30.9724 5.51492 0
      vertex -30.9724 5.51492 5
      vertex -32.8 4.84974 5
    endloop
  endfacet
  facet normal 0.34202 -0.939693 0
    outer loop
      vertex -32.8 4.84974 0
      vertex -30.9724 5.51492 0
      vertex -32.8 4.84974 5
    endloop
  endfacet
  facet normal 0 -1 0
    outer loop
      vertex -29.0276 5.51492 0
      vertex -29.0276 5.51492 5
      vertex -30.9724 5.51492 5
    endloop
  endfacet
  facet normal 0 -1 0
    outer loop
      vertex -30.9724 5.51492 0
      vertex -29.0276 5.51492 0
      vertex -30.9724 5.51492 5
    endloop
  endfacet
  facet normal -0.34202 -0.939693 0
    outer loop
      vertex -27.2 4.84974 0
      vertex -27.2 4.84974 5
      vertex -29.0276 5.51492 5
    endloop
  endfacet
  facet normal -0.34202 -0.939693 0
    outer loop
      vertex -29.0276 5.51492 0
      vertex -27.2 4.84974 0
      vertex -29.0276 5.51492 5
    endloop
  endfacet
  facet normal -0.642787 -0.766045 0
    outer loop
      vertex -25.7102 3.59961 0
      vertex -25.7102 3.59961 5
      vertex -27.2 4.84974 5
    endloop
  endfacet
  facet normal -0.642787 -0.766045 0
    outer loop
      vertex -27.2 4.84974 0
      vertex -25.7102 3.59961 0
      vertex -27.2 4.84974 5
    endloop
  endfacet
  facet normal -0.866025 -0.5 0
    outer loop
      vertex -24.7377 1.91531 5
      vertex -25.7102 3.59961 5
      vertex -24.7377 1.91531 0
    endloop
  endfacet
  facet normal -0.866025 -0.5 0
    outer loop
      vertex -24.7377 1.91531 0
      vertex -25.7102 3.59961 5
      vertex -25.7102 3.59961 0
    endloop
  endfacet
  facet normal -0.984808 -0.173648 0
    outer loop
      vertex -24.4 0 5
      vertex -24.7377 1.91531 5
      vertex -24.4 0 0
    endloop
  endfacet
  facet normal -0.984808 -0.173648 0
    outer loop
      vertex -24.4 0 0
      vertex -24.7377 1.91531 5
      vertex -24.7377 1.91531 0
    endloop
  endfacet
  facet normal -0.984808 0.173648 0
    outer loop
      vertex -24.4 0 5
      vertex -24.4 0 0
      vertex -24.7377 -1.91531 5
    endloop
  endfacet
  facet normal -0.984808 0.173648 0
    outer loop
      vertex -24.7377 -1.91531 5
      vertex -24.4 0 0
      vertex -24.7377 -1.91531 0
    endloop
  endfacet
  facet normal -0.866025 0.5 0
    outer loop
      vertex -24.7377 -1.91531 5
      vertex -24.7377 -1.91531 0
      vertex -25.7102 -3.59961 5
    endloop
  endfacet
  facet normal -0.866025 0.5 0
    outer loop
      vertex -25.7102 -3.59961 5
      vertex -24.7377 -1.91531 0
      vertex -25.7102 -3.59961 0
    endloop
  endfacet
  facet normal -0.642787 0.766045 0
    outer loop
      vertex -25.7102 -3.59961 5
      vertex -25.7102 -3.59961 0
      vertex -27.2 -4.84974 5
    endloop
  endfacet
  facet normal -0.642787 0.766045 0
    outer loop
      vertex -27.2 -4.84974 5
      vertex -25.7102 -3.59961 0
      vertex -27.2 -4.84974 0
    endloop
  endfacet
  facet normal -0.34202 0.939693 0
    outer loop
      vertex -27.2 -4.84974 5
      vertex -27.2 -4.84974 0
      vertex -29.0276 -5.51492 5
    endloop
  endfacet
  facet normal -0.34202 0.939693 0
    outer loop
      vertex -29.0276 -5.51492 5
      vertex -27.2 -4.84974 0
      vertex -29.0276 -5.51492 0
    endloop
  endfacet
  facet normal 0 1 0
    outer loop
      vertex -29.0276 -5.51492 5
      vertex -29.0276 -5.51492 0
      vertex -30.9724 -5.51492 5
    endloop
  endfacet
  facet normal 0 1 0
    outer loop
      vertex -30.9724 -5.51492 5
      vertex -29.0276 -5.51492 0
      vertex -30.9724 -5.51492 0
    endloop
  endfacet
  facet normal 0.34202 0.939693 0
    outer loop
      vertex -30.9724 -5.51492 5
      vertex -30.9724 -5.51492 0
      vertex -32.8 -4.84974 5
    endloop
  endfacet
  facet normal 0.34202 0.939693 0
    outer loop
      vertex -32.8 -4.84974 5
      vertex -30.9724 -5.51492 0
      vertex -32.8 -4.84974 0
    endloop
  endfacet
  facet normal 0.642787 0.766045 0
    outer loop
      vertex -32.8 -4.84974 5
      vertex -32.8 -4.84974 0
      vertex -34.2898 -3.59961 5
    endloop
  endfacet
  facet normal 0.642787 0.766045 0
    outer loop
      vertex -34.2898 -3.59961 5
      vertex -32.8 -4.84974 0
      vertex -34.2898 -3.59961 0
    endloop
  endfacet
  facet normal 0.866025 0.5 0
    outer loop
      vertex -35.2623 -1.91531 5
      vertex -34.2898 -3.59961 5
      vertex -34.2898 -3.59961 0
    endloop
  endfacet
  facet normal 0.866025 0.5 0
    outer loop
      vertex -35.2623 -1.91531 0
      vertex -35.2623 -1.91531 5
      vertex -34.2898 -3.59961 0
    endloop
  endfacet
  facet normal 0 0 1
    outer loop
      vertex -43.9875 2.97314 15
      vertex -44.3 0 15
      vertex -43.9875 -2.97314 15
    endloop
  endfacet
  facet normal 0 0 1
    outer loop
      vertex -41.5689 -8.40533 15
      vertex -43.9875 2.97314 15
      vertex -43.0637 -5.81633 15
    endloop
  endfacet
  facet normal 0 0 1
    outer loop
      vertex -43.0637 -5.81633 15
      vertex -43.9875 2.97314 15
      vertex -43.9875 -2.97314 15
    endloop
  endfacet
  facet normal 0 0 1
    outer loop
      vertex -39.5686 -10.627 15
      vertex -43.9875 2.97314 15
      vertex -41.5689 -8.40533 15
    endloop
  endfacet
  facet normal 0 0 1
    outer loop
      vertex -37.15 -12.3842 15
      vertex -43.9875 2.97314 15
      vertex -39.5686 -10.627 15
    endloop
  endfacet
  facet normal 0 0 1
    outer loop
      vertex -40.3231 -4.59612 15
      vertex -43.9875 2.97314 15
      vertex -37.15 -12.3842 15
    endloop
  endfacet
  facet normal 0 0 1
    outer loop
      vertex -22.4388 -8.39754 15
      vertex -24.35 -9.78609 15
      vertex -20.4314 -10.627 15
    endloop
  endfacet
  facet normal 0 0 1
    outer loop
      vertex -20.8581 -6.64197 15
      vertex -22.4388 -8.39754 15
      vertex -18.4311 -8.40533 15
    endloop
  endfacet
  facet normal 0 0 1
    outer loop
      vertex -18.7 0 15
      vertex -8.15404 -2.5 15
      vertex -4.93339 -1.79561 15
    endloop
  endfacet
  facet normal 0 0 1
    outer loop
      vertex -18.7 0 15
      vertex -15.9628 -2.5 15
      vertex -8.15404 -2.5 15
    endloop
  endfacet
  facet normal 0 0 1
    outer loop
      vertex -19.6769 4.59612 15
      vertex -15.9628 2.5 15
      vertex -16.0125 2.97314 15
    endloop
  endfacet
  facet normal 0 0 1
    outer loop
      vertex -6.91709 -5.02556 15
      vertex -8.15404 -2.5 15
      vertex -8.13153 -2.64209 15
    endloop
  endfacet
  facet normal 0 0 1
    outer loop
      vertex -5.02556 -6.91709 15
      vertex -8.15404 -2.5 15
      vertex -6.91709 -5.02556 15
    endloop
  endfacet
  facet normal 0 0 1
    outer loop
      vertex -2.64209 -8.13153 15
      vertex -8.15404 -2.5 15
      vertex -5.02556 -6.91709 15
    endloop
  endfacet
  facet normal 0 0 1
    outer loop
      vertex 0 -8.55 15
      vertex -8.15404 -2.5 15
      vertex -2.64209 -8.13153 15
    endloop
  endfacet
  facet normal 0 0 1
    outer loop
      vertex -2.625 -4.54663 15
      vertex -8.15404 -2.5 15
      vertex 0 -8.55 15
    endloop
  endfacet
  facet normal 0 0 1
    outer loop
      vertex 2.94872 4.275 15
      vertex 17.5 4.275 15
      vertex 2.625 4.54663 15
    endloop
  endfacet
  facet normal 0 0 1
    outer loop
      vertex 17.5 -4.275 15
      vertex 2.94872 -4.275 15
      vertex 17.5 -8.55 15
    endloop
  endfacet
  facet normal 0 0 1
    outer loop
      vertex 2.94872 -4.275 15
      vertex 2.625 -4.54663 15
      vertex 17.5 -8.55 15
    endloop
  endfacet
  facet normal 0 0 1
    outer loop
      vertex -4.93339 -1.79561 15
      vertex -5.25 0 15
      vertex -18.7 0 15
    endloop
  endfacet
  facet normal 0 0 1
    outer loop
      vertex 17.5 -8.55 15
      vertex 0.911653 -5.17024 15
      vertex 0 -8.55 15
    endloop
  endfacet
  facet normal 0 0 1
    outer loop
      vertex 0.911653 -5.17024 15
      vertex -0.911653 -5.17024 15
      vertex 0 -8.55 15
    endloop
  endfacet
  facet normal 0 0 1
    outer loop
      vertex -0.911653 -5.17024 15
      vertex -2.625 -4.54663 15
      vertex 0 -8.55 15
    endloop
  endfacet
  facet normal 0 0 1
    outer loop
      vertex -2.625 -4.54663 15
      vertex -4.02173 -3.37464 15
      vertex -8.15404 -2.5 15
    endloop
  endfacet
  facet normal 0 0 1
    outer loop
      vertex -6.91709 5.02556 15
      vertex -4.02173 3.37464 15
      vertex -2.625 4.54663 15
    endloop
  endfacet
  facet normal 0 0 1
    outer loop
      vertex -5.02556 6.91709 15
      vertex -6.91709 5.02556 15
      vertex 17.5 8.55 15
    endloop
  endfacet
  facet normal 0 0 1
    outer loop
      vertex -40.3231 4.59612 15
      vertex -39.1419 6.64197 15
      vertex -43.9875 2.97314 15
    endloop
  endfacet
  facet normal 0 0 1
    outer loop
      vertex -16.0125 2.97314 15
      vertex -16.9363 5.81633 15
      vertex -19.6769 4.59612 15
    endloop
  endfacet
  facet normal 0 0 1
    outer loop
      vertex 17.5 8.55 15
      vertex -0.911653 5.17024 15
      vertex 0.911653 5.17024 15
    endloop
  endfacet
  facet normal 0 0 1
    outer loop
      vertex 17.5 4.275 15
      vertex 0.911653 5.17024 15
      vertex 2.625 4.54663 15
    endloop
  endfacet
  facet normal 0 0 1
    outer loop
      vertex 0 8.55 15
      vertex -2.64209 8.13153 15
      vertex 1.12155e-014 8.55 15
    endloop
  endfacet
  facet normal 0 0 1
    outer loop
      vertex 17.5 8.55 15
      vertex 0.911653 5.17024 15
      vertex 17.5 4.275 15
    endloop
  endfacet
  facet normal 0 0 1
    outer loop
      vertex -6.91709 5.02556 15
      vertex -2.625 4.54663 15
      vertex -0.911653 5.17024 15
    endloop
  endfacet
  facet normal 0 0 1
    outer loop
      vertex -24.35 9.78609 15
      vertex -22.4388 8.39754 15
      vertex -20.4314 10.627 15
    endloop
  endfacet
  facet normal 0 0 1
    outer loop
      vertex 1.12155e-014 8.55 15
      vertex -2.64209 8.13153 15
      vertex 17.5 8.55 15
    endloop
  endfacet
  facet normal 0 0 1
    outer loop
      vertex -2.64209 8.13153 15
      vertex -5.02556 6.91709 15
      vertex 17.5 8.55 15
    endloop
  endfacet
  facet normal 0 0 1
    outer loop
      vertex 17.5 8.55 15
      vertex -6.91709 5.02556 15
      vertex -0.911653 5.17024 15
    endloop
  endfacet
  facet normal 0 0 1
    outer loop
      vertex -16.9363 5.81633 15
      vertex -18.4311 8.40533 15
      vertex -20.8581 6.64197 15
    endloop
  endfacet
  facet normal 0 0 1
    outer loop
      vertex -4.02173 3.37464 15
      vertex -8.13153 2.64209 15
      vertex -4.93339 1.79561 15
    endloop
  endfacet
  facet normal 0 0 1
    outer loop
      vertex -8.13153 2.64209 15
      vertex -8.15404 2.5 15
      vertex -4.93339 1.79561 15
    endloop
  endfacet
  facet normal 0 0 1
    outer loop
      vertex -8.15404 2.5 15
      vertex -15.9628 2.5 15
      vertex -4.93339 1.79561 15
    endloop
  endfacet
  facet normal 0 0 1
    outer loop
      vertex -18.7 0 15
      vertex -18.9469 -2.3494 15
      vertex -16.0125 -2.97314 15
    endloop
  endfacet
  facet normal 0 0 1
    outer loop
      vertex -28.8188 11.2381 15
      vertex -26.5081 10.7469 15
      vertex -22.85 12.3842 15
    endloop
  endfacet
  facet normal 0 0 1
    outer loop
      vertex -34.4189 13.6001 15
      vertex -43.9875 2.97314 15
      vertex -31.4948 14.2217 15
    endloop
  endfacet
  facet normal 0 0 1
    outer loop
      vertex -37.15 12.3842 15
      vertex -43.9875 2.97314 15
      vertex -34.4189 13.6001 15
    endloop
  endfacet
  facet normal 0 0 1
    outer loop
      vertex -39.5686 10.627 15
      vertex -43.9875 2.97314 15
      vertex -37.15 12.3842 15
    endloop
  endfacet
  facet normal 0 0 1
    outer loop
      vertex -41.5689 8.40533 15
      vertex -43.9875 2.97314 15
      vertex -39.5686 10.627 15
    endloop
  endfacet
  facet normal 0 0 1
    outer loop
      vertex -43.0637 5.81633 15
      vertex -43.9875 2.97314 15
      vertex -41.5689 8.40533 15
    endloop
  endfacet
  facet normal 0 0 1
    outer loop
      vertex -33.4919 -10.7469 15
      vertex -35.65 -9.78609 15
      vertex -31.4948 -14.2217 15
    endloop
  endfacet
  facet normal 0 0 1
    outer loop
      vertex -19.6769 -4.59612 15
      vertex -20.8581 -6.64197 15
      vertex -16.9363 -5.81633 15
    endloop
  endfacet
  facet normal 0 0 1
    outer loop
      vertex -22.4388 8.39754 15
      vertex -20.8581 6.64197 15
      vertex -18.4311 8.40533 15
    endloop
  endfacet
  facet normal 0 0 1
    outer loop
      vertex -31.1812 11.2381 15
      vertex -28.8188 11.2381 15
      vertex -25.5811 13.6001 15
    endloop
  endfacet
  facet normal 0 0 1
    outer loop
      vertex -37.5612 8.39754 15
      vertex -43.9875 2.97314 15
      vertex -39.1419 6.64197 15
    endloop
  endfacet
  facet normal 0 0 1
    outer loop
      vertex -33.4919 10.7469 15
      vertex -31.1812 11.2381 15
      vertex -28.5052 14.2217 15
    endloop
  endfacet
  facet normal 0 0 1
    outer loop
      vertex -31.4948 14.2217 15
      vertex -43.9875 2.97314 15
      vertex -37.5612 8.39754 15
    endloop
  endfacet
  facet normal 0 0 1
    outer loop
      vertex -31.4948 14.2217 15
      vertex -35.65 9.78609 15
      vertex -28.5052 14.2217 15
    endloop
  endfacet
  facet normal 0 0 1
    outer loop
      vertex -35.65 9.78609 15
      vertex -33.4919 10.7469 15
      vertex -28.5052 14.2217 15
    endloop
  endfacet
  facet normal 0 0 1
    outer loop
      vertex -28.5052 14.2217 15
      vertex -31.1812 11.2381 15
      vertex -25.5811 13.6001 15
    endloop
  endfacet
  facet normal 0 0 1
    outer loop
      vertex -37.5612 8.39754 15
      vertex -35.65 9.78609 15
      vertex -31.4948 14.2217 15
    endloop
  endfacet
  facet normal 0 0 1
    outer loop
      vertex -25.5811 13.6001 15
      vertex -28.8188 11.2381 15
      vertex -22.85 12.3842 15
    endloop
  endfacet
  facet normal 0 0 1
    outer loop
      vertex -18.7 0 15
      vertex -16.0125 -2.97314 15
      vertex -15.9628 -2.5 15
    endloop
  endfacet
  facet normal 0 0 1
    outer loop
      vertex -22.85 12.3842 15
      vertex -26.5081 10.7469 15
      vertex -20.4314 10.627 15
    endloop
  endfacet
  facet normal 0 0 1
    outer loop
      vertex -26.5081 10.7469 15
      vertex -24.35 9.78609 15
      vertex -20.4314 10.627 15
    endloop
  endfacet
  facet normal 0 0 1
    outer loop
      vertex -20.4314 10.627 15
      vertex -22.4388 8.39754 15
      vertex -18.4311 8.40533 15
    endloop
  endfacet
  facet normal 0 0 1
    outer loop
      vertex -19.6769 4.59612 15
      vertex -18.9469 2.3494 15
      vertex -15.9628 2.5 15
    endloop
  endfacet
  facet normal 0 0 1
    outer loop
      vertex -39.1419 -6.64197 15
      vertex -40.3231 -4.59612 15
      vertex -37.15 -12.3842 15
    endloop
  endfacet
  facet normal 0 0 1
    outer loop
      vertex -15.9628 2.5 15
      vertex -18.9469 2.3494 15
      vertex -4.93339 1.79561 15
    endloop
  endfacet
  facet normal 0 0 1
    outer loop
      vertex -16.0125 -2.97314 15
      vertex -18.9469 -2.3494 15
      vertex -16.9363 -5.81633 15
    endloop
  endfacet
  facet normal 0 0 1
    outer loop
      vertex -20.8581 6.64197 15
      vertex -19.6769 4.59612 15
      vertex -16.9363 5.81633 15
    endloop
  endfacet
  facet normal 0 0 1
    outer loop
      vertex -18.9469 -2.3494 15
      vertex -19.6769 -4.59612 15
      vertex -16.9363 -5.81633 15
    endloop
  endfacet
  facet normal 0 0 1
    outer loop
      vertex -16.9363 -5.81633 15
      vertex -20.8581 -6.64197 15
      vertex -18.4311 -8.40533 15
    endloop
  endfacet
  facet normal 0 0 1
    outer loop
      vertex -18.4311 -8.40533 15
      vertex -22.4388 -8.39754 15
      vertex -20.4314 -10.627 15
    endloop
  endfacet
  facet normal 0 0 1
    outer loop
      vertex -18.9469 2.3494 15
      vertex -18.7 0 15
      vertex -5.25 0 15
    endloop
  endfacet
  facet normal 0 0 1
    outer loop
      vertex -20.4314 -10.627 15
      vertex -24.35 -9.78609 15
      vertex -22.85 -12.3842 15
    endloop
  endfacet
  facet normal 0 0 1
    outer loop
      vertex -18.9469 2.3494 15
      vertex -5.25 0 15
      vertex -4.93339 1.79561 15
    endloop
  endfacet
  facet normal 0 0 1
    outer loop
      vertex -22.85 -12.3842 15
      vertex -26.5081 -10.7469 15
      vertex -25.5811 -13.6001 15
    endloop
  endfacet
  facet normal 0 0 1
    outer loop
      vertex -25.5811 -13.6001 15
      vertex -28.8188 -11.2381 15
      vertex -28.5052 -14.2217 15
    endloop
  endfacet
  facet normal 0 0 1
    outer loop
      vertex -28.8188 -11.2381 15
      vertex -31.1812 -11.2381 15
      vertex -28.5052 -14.2217 15
    endloop
  endfacet
  facet normal 0 0 1
    outer loop
      vertex -28.5052 -14.2217 15
      vertex -33.4919 -10.7469 15
      vertex -31.4948 -14.2217 15
    endloop
  endfacet
  facet normal 0 0 1
    outer loop
      vertex -31.4948 -14.2217 15
      vertex -35.65 -9.78609 15
      vertex -34.4189 -13.6001 15
    endloop
  endfacet
  facet normal 0 0 1
    outer loop
      vertex -34.4189 -13.6001 15
      vertex -37.5612 -8.39754 15
      vertex -37.15 -12.3842 15
    endloop
  endfacet
  facet normal 0 0 1
    outer loop
      vertex -37.5612 -8.39754 15
      vertex -39.1419 -6.64197 15
      vertex -37.15 -12.3842 15
    endloop
  endfacet
  facet normal 0 0 1
    outer loop
      vertex -41.0531 -2.3494 15
      vertex -43.9875 2.97314 15
      vertex -40.3231 -4.59612 15
    endloop
  endfacet
  facet normal 0 0 1
    outer loop
      vertex 2.625 -4.54663 15
      vertex 0.911653 -5.17024 15
      vertex 17.5 -8.55 15
    endloop
  endfacet
  facet normal 0 0 1
    outer loop
      vertex -4.02173 -3.37464 15
      vertex -4.93339 -1.79561 15
      vertex -8.15404 -2.5 15
    endloop
  endfacet
  facet normal 0 0 1
    outer loop
      vertex -6.91709 5.02556 15
      vertex -8.13153 2.64209 15
      vertex -4.02173 3.37464 15
    endloop
  endfacet
  facet normal 0 0 1
    outer loop
      vertex -41.0531 -2.3494 15
      vertex -41.3 0 15
      vertex -43.9875 2.97314 15
    endloop
  endfacet
  facet normal 0 0 1
    outer loop
      vertex -24.35 -9.78609 15
      vertex -26.5081 -10.7469 15
      vertex -22.85 -12.3842 15
    endloop
  endfacet
  facet normal 0 0 1
    outer loop
      vertex -35.65 -9.78609 15
      vertex -37.5612 -8.39754 15
      vertex -34.4189 -13.6001 15
    endloop
  endfacet
  facet normal 0 0 1
    outer loop
      vertex -31.1812 -11.2381 15
      vertex -33.4919 -10.7469 15
      vertex -28.5052 -14.2217 15
    endloop
  endfacet
  facet normal 0 0 1
    outer loop
      vertex -41.3 0 15
      vertex -41.0531 2.3494 15
      vertex -43.9875 2.97314 15
    endloop
  endfacet
  facet normal 0 0 1
    outer loop
      vertex -26.5081 -10.7469 15
      vertex -28.8188 -11.2381 15
      vertex -25.5811 -13.6001 15
    endloop
  endfacet
  facet normal 0 0 1
    outer loop
      vertex -41.0531 2.3494 15
      vertex -40.3231 4.59612 15
      vertex -43.9875 2.97314 15
    endloop
  endfacet
  facet normal 0.951057 6.86155e-017 0.309017
    outer loop
      vertex 7.13535 -8.55 6.54485
      vertex 7.13535 -4.275 6.54485
      vertex 6.825 -4.275 7.5
    endloop
  endfacet
  facet normal 0.951057 6.86155e-017 0.309017
    outer loop
      vertex 6.825 -8.55 7.5
      vertex 7.13535 -8.55 6.54485
      vertex 6.825 -4.275 7.5
    endloop
  endfacet
  facet normal 0.587785 1.79638e-016 0.809017
    outer loop
      vertex 7.94785 -8.55 5.95453
      vertex 7.94785 -4.275 5.95453
      vertex 7.13535 -4.275 6.54485
    endloop
  endfacet
  facet normal 0.587785 1.79638e-016 0.809017
    outer loop
      vertex 7.13535 -8.55 6.54485
      vertex 7.94785 -8.55 5.95453
      vertex 7.13535 -4.275 6.54485
    endloop
  endfacet
  facet normal 0 2.22045e-016 1
    outer loop
      vertex 8.95215 -8.55 5.95453
      vertex 8.95215 -4.275 5.95453
      vertex 7.94785 -4.275 5.95453
    endloop
  endfacet
  facet normal 0 2.22045e-016 1
    outer loop
      vertex 7.94785 -8.55 5.95453
      vertex 8.95215 -8.55 5.95453
      vertex 7.94785 -4.275 5.95453
    endloop
  endfacet
  facet normal -0.587785 1.79638e-016 0.809017
    outer loop
      vertex 9.76465 -8.55 6.54485
      vertex 9.76465 -4.275 6.54485
      vertex 8.95215 -4.275 5.95453
    endloop
  endfacet
  facet normal -0.587785 1.79638e-016 0.809017
    outer loop
      vertex 8.95215 -8.55 5.95453
      vertex 9.76465 -8.55 6.54485
      vertex 8.95215 -4.275 5.95453
    endloop
  endfacet
  facet normal -0.951057 6.86155e-017 0.309017
    outer loop
      vertex 10.075 -4.275 7.5
      vertex 9.76465 -4.275 6.54485
      vertex 10.075 -8.55 7.5
    endloop
  endfacet
  facet normal -0.951057 6.86155e-017 0.309017
    outer loop
      vertex 10.075 -8.55 7.5
      vertex 9.76465 -4.275 6.54485
      vertex 9.76465 -8.55 6.54485
    endloop
  endfacet
  facet normal -0.951057 -6.86155e-017 -0.309017
    outer loop
      vertex 10.075 -4.275 7.5
      vertex 10.075 -8.55 7.5
      vertex 9.76465 -4.275 8.45515
    endloop
  endfacet
  facet normal -0.951057 -6.86155e-017 -0.309017
    outer loop
      vertex 9.76465 -4.275 8.45515
      vertex 10.075 -8.55 7.5
      vertex 9.76465 -8.55 8.45515
    endloop
  endfacet
  facet normal -0.587785 -1.79638e-016 -0.809017
    outer loop
      vertex 9.76465 -4.275 8.45515
      vertex 9.76465 -8.55 8.45515
      vertex 8.95215 -4.275 9.04547
    endloop
  endfacet
  facet normal -0.587785 -1.79638e-016 -0.809017
    outer loop
      vertex 8.95215 -4.275 9.04547
      vertex 9.76465 -8.55 8.45515
      vertex 8.95215 -8.55 9.04547
    endloop
  endfacet
  facet normal 0 -2.22045e-016 -1
    outer loop
      vertex 8.95215 -4.275 9.04547
      vertex 8.95215 -8.55 9.04547
      vertex 7.94785 -4.275 9.04547
    endloop
  endfacet
  facet normal 0 -2.22045e-016 -1
    outer loop
      vertex 7.94785 -4.275 9.04547
      vertex 8.95215 -8.55 9.04547
      vertex 7.94785 -8.55 9.04547
    endloop
  endfacet
  facet normal 0.587785 -1.79638e-016 -0.809017
    outer loop
      vertex 7.94785 -4.275 9.04547
      vertex 7.94785 -8.55 9.04547
      vertex 7.13535 -4.275 8.45515
    endloop
  endfacet
  facet normal 0.587785 -1.79638e-016 -0.809017
    outer loop
      vertex 7.13535 -4.275 8.45515
      vertex 7.94785 -8.55 9.04547
      vertex 7.13535 -8.55 8.45515
    endloop
  endfacet
  facet normal 0.951057 -6.86155e-017 -0.309017
    outer loop
      vertex 6.825 -4.275 7.5
      vertex 7.13535 -4.275 8.45515
      vertex 7.13535 -8.55 8.45515
    endloop
  endfacet
  facet normal 0.951057 -6.86155e-017 -0.309017
    outer loop
      vertex 6.825 -8.55 7.5
      vertex 6.825 -4.275 7.5
      vertex 7.13535 -8.55 8.45515
    endloop
  endfacet
  facet normal 0.951057 -6.86155e-017 -0.309017
    outer loop
      vertex 6.825 6.35 7.5
      vertex 7.13535 6.35 8.45515
      vertex 7.13535 4.275 8.45515
    endloop
  endfacet
  facet normal 0.951057 -6.86155e-017 -0.309017
    outer loop
      vertex 6.825 4.275 7.5
      vertex 6.825 6.35 7.5
      vertex 7.13535 4.275 8.45515
    endloop
  endfacet
  facet normal 0.951057 6.86155e-017 0.309017
    outer loop
      vertex 7.13535 4.275 6.54485
      vertex 7.13535 6.35 6.54485
      vertex 6.825 6.35 7.5
    endloop
  endfacet
  facet normal 0.951057 6.86155e-017 0.309017
    outer loop
      vertex 6.825 4.275 7.5
      vertex 7.13535 4.275 6.54485
      vertex 6.825 6.35 7.5
    endloop
  endfacet
  facet normal 0.587785 1.79638e-016 0.809017
    outer loop
      vertex 7.94785 4.275 5.95453
      vertex 7.94785 6.35 5.95453
      vertex 7.13535 6.35 6.54485
    endloop
  endfacet
  facet normal 0.587785 1.79638e-016 0.809017
    outer loop
      vertex 7.13535 4.275 6.54485
      vertex 7.94785 4.275 5.95453
      vertex 7.13535 6.35 6.54485
    endloop
  endfacet
  facet normal 0 2.22045e-016 1
    outer loop
      vertex 8.95215 4.275 5.95453
      vertex 8.95215 6.35 5.95453
      vertex 7.94785 6.35 5.95453
    endloop
  endfacet
  facet normal 0 2.22045e-016 1
    outer loop
      vertex 7.94785 4.275 5.95453
      vertex 8.95215 4.275 5.95453
      vertex 7.94785 6.35 5.95453
    endloop
  endfacet
  facet normal -0.587785 1.79638e-016 0.809017
    outer loop
      vertex 9.76465 4.275 6.54485
      vertex 9.76465 6.35 6.54485
      vertex 8.95215 6.35 5.95453
    endloop
  endfacet
  facet normal -0.587785 1.79638e-016 0.809017
    outer loop
      vertex 8.95215 4.275 5.95453
      vertex 9.76465 4.275 6.54485
      vertex 8.95215 6.35 5.95453
    endloop
  endfacet
  facet normal -0.951057 6.86155e-017 0.309017
    outer loop
      vertex 10.075 6.35 7.5
      vertex 9.76465 6.35 6.54485
      vertex 10.075 4.275 7.5
    endloop
  endfacet
  facet normal -0.951057 6.86155e-017 0.309017
    outer loop
      vertex 10.075 4.275 7.5
      vertex 9.76465 6.35 6.54485
      vertex 9.76465 4.275 6.54485
    endloop
  endfacet
  facet normal -0.951057 -6.86155e-017 -0.309017
    outer loop
      vertex 10.075 6.35 7.5
      vertex 10.075 4.275 7.5
      vertex 9.76465 6.35 8.45515
    endloop
  endfacet
  facet normal -0.951057 -6.86155e-017 -0.309017
    outer loop
      vertex 9.76465 6.35 8.45515
      vertex 10.075 4.275 7.5
      vertex 9.76465 4.275 8.45515
    endloop
  endfacet
  facet normal -0.587785 -1.79638e-016 -0.809017
    outer loop
      vertex 9.76465 6.35 8.45515
      vertex 9.76465 4.275 8.45515
      vertex 8.95215 6.35 9.04547
    endloop
  endfacet
  facet normal -0.587785 -1.79638e-016 -0.809017
    outer loop
      vertex 8.95215 6.35 9.04547
      vertex 9.76465 4.275 8.45515
      vertex 8.95215 4.275 9.04547
    endloop
  endfacet
  facet normal 0 -2.22045e-016 -1
    outer loop
      vertex 8.95215 6.35 9.04547
      vertex 8.95215 4.275 9.04547
      vertex 7.94785 6.35 9.04547
    endloop
  endfacet
  facet normal 0 -2.22045e-016 -1
    outer loop
      vertex 7.94785 6.35 9.04547
      vertex 8.95215 4.275 9.04547
      vertex 7.94785 4.275 9.04547
    endloop
  endfacet
  facet normal 0.587785 -1.79638e-016 -0.809017
    outer loop
      vertex 7.94785 6.35 9.04547
      vertex 7.94785 4.275 9.04547
      vertex 7.13535 6.35 8.45515
    endloop
  endfacet
  facet normal 0.587785 -1.79638e-016 -0.809017
    outer loop
      vertex 7.13535 6.35 8.45515
      vertex 7.94785 4.275 9.04547
      vertex 7.13535 4.275 8.45515
    endloop
  endfacet
  facet normal 0.866025 -1.11022e-016 -0.5
    outer loop
      vertex 5.525 8.55 7.5
      vertex 6.9875 8.55 10.0331
      vertex 6.9875 6.35 10.0331
    endloop
  endfacet
  facet normal 0.866025 -1.11022e-016 -0.5
    outer loop
      vertex 5.525 6.35 7.5
      vertex 5.525 8.55 7.5
      vertex 6.9875 6.35 10.0331
    endloop
  endfacet
  facet normal 0.866025 1.11022e-016 0.5
    outer loop
      vertex 6.9875 6.35 4.96688
      vertex 6.9875 8.55 4.96688
      vertex 5.525 8.55 7.5
    endloop
  endfacet
  facet normal 0.866025 1.11022e-016 0.5
    outer loop
      vertex 5.525 6.35 7.5
      vertex 6.9875 6.35 4.96688
      vertex 5.525 8.55 7.5
    endloop
  endfacet
  facet normal 0 -2.22045e-016 -1
    outer loop
      vertex 9.9125 8.55 10.0331
      vertex 9.9125 6.35 10.0331
      vertex 6.9875 8.55 10.0331
    endloop
  endfacet
  facet normal 0 -2.22045e-016 -1
    outer loop
      vertex 6.9875 8.55 10.0331
      vertex 9.9125 6.35 10.0331
      vertex 6.9875 6.35 10.0331
    endloop
  endfacet
  facet normal -0.866025 -1.11022e-016 -0.5
    outer loop
      vertex 11.375 8.55 7.5
      vertex 11.375 6.35 7.5
      vertex 9.9125 8.55 10.0331
    endloop
  endfacet
  facet normal -0.866025 -1.11022e-016 -0.5
    outer loop
      vertex 9.9125 8.55 10.0331
      vertex 11.375 6.35 7.5
      vertex 9.9125 6.35 10.0331
    endloop
  endfacet
  facet normal -0.866025 1.11022e-016 0.5
    outer loop
      vertex 11.375 8.55 7.5
      vertex 9.9125 8.55 4.96688
      vertex 11.375 6.35 7.5
    endloop
  endfacet
  facet normal -0.866025 1.11022e-016 0.5
    outer loop
      vertex 11.375 6.35 7.5
      vertex 9.9125 8.55 4.96688
      vertex 9.9125 6.35 4.96688
    endloop
  endfacet
  facet normal 0 2.22045e-016 1
    outer loop
      vertex 9.9125 6.35 4.96688
      vertex 9.9125 8.55 4.96688
      vertex 6.9875 8.55 4.96688
    endloop
  endfacet
  facet normal 0 2.22045e-016 1
    outer loop
      vertex 6.9875 6.35 4.96688
      vertex 9.9125 6.35 4.96688
      vertex 6.9875 8.55 4.96688
    endloop
  endfacet
  facet normal 0 0 1
    outer loop
      vertex -41.0531 -2.3494 5
      vertex -40.3231 -4.59612 5
      vertex -39.1419 -6.64197 5
    endloop
  endfacet
  facet normal 0 0 1
    outer loop
      vertex -35.65 -9.78609 5
      vertex -41.0531 -2.3494 5
      vertex -37.5612 -8.39754 5
    endloop
  endfacet
  facet normal 0 0 1
    outer loop
      vertex -37.5612 -8.39754 5
      vertex -41.0531 -2.3494 5
      vertex -39.1419 -6.64197 5
    endloop
  endfacet
  facet normal 0 0 1
    outer loop
      vertex -33.4919 -10.7469 5
      vertex -41.0531 -2.3494 5
      vertex -35.65 -9.78609 5
    endloop
  endfacet
  facet normal 0 0 1
    outer loop
      vertex -31.1812 -11.2381 5
      vertex -41.0531 -2.3494 5
      vertex -33.4919 -10.7469 5
    endloop
  endfacet
  facet normal 0 0 1
    outer loop
      vertex -28.8188 -11.2381 5
      vertex -41.0531 -2.3494 5
      vertex -31.1812 -11.2381 5
    endloop
  endfacet
  facet normal 0 0 1
    outer loop
      vertex -26.5081 -10.7469 5
      vertex -41.0531 -2.3494 5
      vertex -28.8188 -11.2381 5
    endloop
  endfacet
  facet normal 0 0 1
    outer loop
      vertex -24.35 -9.78609 5
      vertex -41.0531 -2.3494 5
      vertex -26.5081 -10.7469 5
    endloop
  endfacet
  facet normal 0 0 1
    outer loop
      vertex -22.4388 -8.39754 5
      vertex -41.0531 -2.3494 5
      vertex -24.35 -9.78609 5
    endloop
  endfacet
  facet normal 0 0 1
    outer loop
      vertex -30.9724 -5.51492 5
      vertex -41.0531 -2.3494 5
      vertex -22.4388 -8.39754 5
    endloop
  endfacet
  facet normal 0 0 1
    outer loop
      vertex -32.8 -4.84974 5
      vertex -34.2898 -3.59961 5
      vertex -41.0531 -2.3494 5
    endloop
  endfacet
  facet normal 0 0 1
    outer loop
      vertex -25.7102 -3.59961 5
      vertex -27.2 -4.84974 5
      vertex -19.6769 -4.59612 5
    endloop
  endfacet
  facet normal 0 0 1
    outer loop
      vertex -25.7102 3.59961 5
      vertex -24.7377 1.91531 5
      vertex -19.6769 4.59612 5
    endloop
  endfacet
  facet normal 0 0 1
    outer loop
      vertex -27.2 4.84974 5
      vertex -25.7102 3.59961 5
      vertex -20.8581 6.64197 5
    endloop
  endfacet
  facet normal 0 0 1
    outer loop
      vertex -28.8188 11.2381 5
      vertex -41.0531 -2.3494 5
      vertex -26.5081 10.7469 5
    endloop
  endfacet
  facet normal 0 0 1
    outer loop
      vertex -31.1812 11.2381 5
      vertex -41.0531 -2.3494 5
      vertex -28.8188 11.2381 5
    endloop
  endfacet
  facet normal 0 0 1
    outer loop
      vertex -33.4919 10.7469 5
      vertex -41.0531 -2.3494 5
      vertex -31.1812 11.2381 5
    endloop
  endfacet
  facet normal 0 0 1
    outer loop
      vertex -35.65 9.78609 5
      vertex -41.0531 -2.3494 5
      vertex -33.4919 10.7469 5
    endloop
  endfacet
  facet normal 0 0 1
    outer loop
      vertex -37.5612 8.39754 5
      vertex -41.0531 -2.3494 5
      vertex -35.65 9.78609 5
    endloop
  endfacet
  facet normal 0 0 1
    outer loop
      vertex -39.1419 6.64197 5
      vertex -41.0531 -2.3494 5
      vertex -37.5612 8.39754 5
    endloop
  endfacet
  facet normal 0 0 1
    outer loop
      vertex -40.3231 4.59612 5
      vertex -41.0531 -2.3494 5
      vertex -39.1419 6.64197 5
    endloop
  endfacet
  facet normal 0 0 1
    outer loop
      vertex -41.0531 2.3494 5
      vertex -41.0531 -2.3494 5
      vertex -40.3231 4.59612 5
    endloop
  endfacet
  facet normal 0 0 1
    outer loop
      vertex -41.3 0 5
      vertex -41.0531 -2.3494 5
      vertex -41.0531 2.3494 5
    endloop
  endfacet
  facet normal 0 0 1
    outer loop
      vertex -24.7377 1.91531 5
      vertex -24.4 0 5
      vertex -18.9469 2.3494 5
    endloop
  endfacet
  facet normal 0 0 1
    outer loop
      vertex -29.0276 5.51492 5
      vertex -27.2 4.84974 5
      vertex -22.4388 8.39754 5
    endloop
  endfacet
  facet normal 0 0 1
    outer loop
      vertex -34.2898 3.59961 5
      vertex -41.0531 -2.3494 5
      vertex -35.2623 1.91531 5
    endloop
  endfacet
  facet normal 0 0 1
    outer loop
      vertex -26.5081 10.7469 5
      vertex -41.0531 -2.3494 5
      vertex -34.2898 3.59961 5
    endloop
  endfacet
  facet normal 0 0 1
    outer loop
      vertex -30.9724 5.51492 5
      vertex -29.0276 5.51492 5
      vertex -24.35 9.78609 5
    endloop
  endfacet
  facet normal 0 0 1
    outer loop
      vertex -26.5081 10.7469 5
      vertex -34.2898 3.59961 5
      vertex -32.8 4.84974 5
    endloop
  endfacet
  facet normal 0 0 1
    outer loop
      vertex -26.5081 10.7469 5
      vertex -30.9724 5.51492 5
      vertex -24.35 9.78609 5
    endloop
  endfacet
  facet normal 0 0 1
    outer loop
      vertex -24.35 9.78609 5
      vertex -29.0276 5.51492 5
      vertex -22.4388 8.39754 5
    endloop
  endfacet
  facet normal 0 0 1
    outer loop
      vertex -32.8 4.84974 5
      vertex -30.9724 5.51492 5
      vertex -26.5081 10.7469 5
    endloop
  endfacet
  facet normal 0 0 1
    outer loop
      vertex -22.4388 8.39754 5
      vertex -27.2 4.84974 5
      vertex -20.8581 6.64197 5
    endloop
  endfacet
  facet normal 0 0 1
    outer loop
      vertex -34.2898 -3.59961 5
      vertex -35.2623 -1.91531 5
      vertex -41.0531 -2.3494 5
    endloop
  endfacet
  facet normal 0 0 1
    outer loop
      vertex -20.8581 6.64197 5
      vertex -25.7102 3.59961 5
      vertex -19.6769 4.59612 5
    endloop
  endfacet
  facet normal 0 0 1
    outer loop
      vertex -19.6769 4.59612 5
      vertex -24.7377 1.91531 5
      vertex -18.9469 2.3494 5
    endloop
  endfacet
  facet normal 0 0 1
    outer loop
      vertex -18.9469 2.3494 5
      vertex -24.4 0 5
      vertex -18.7 0 5
    endloop
  endfacet
  facet normal 0 0 1
    outer loop
      vertex -27.2 -4.84974 5
      vertex -29.0276 -5.51492 5
      vertex -20.8581 -6.64197 5
    endloop
  endfacet
  facet normal 0 0 1
    outer loop
      vertex -18.7 0 5
      vertex -24.7377 -1.91531 5
      vertex -18.9469 -2.3494 5
    endloop
  endfacet
  facet normal 0 0 1
    outer loop
      vertex -18.9469 -2.3494 5
      vertex -25.7102 -3.59961 5
      vertex -19.6769 -4.59612 5
    endloop
  endfacet
  facet normal 0 0 1
    outer loop
      vertex -19.6769 -4.59612 5
      vertex -27.2 -4.84974 5
      vertex -20.8581 -6.64197 5
    endloop
  endfacet
  facet normal 0 0 1
    outer loop
      vertex -20.8581 -6.64197 5
      vertex -29.0276 -5.51492 5
      vertex -22.4388 -8.39754 5
    endloop
  endfacet
  facet normal 0 0 1
    outer loop
      vertex -29.0276 -5.51492 5
      vertex -30.9724 -5.51492 5
      vertex -22.4388 -8.39754 5
    endloop
  endfacet
  facet normal 0 0 1
    outer loop
      vertex -32.8 -4.84974 5
      vertex -41.0531 -2.3494 5
      vertex -30.9724 -5.51492 5
    endloop
  endfacet
  facet normal 0 0 1
    outer loop
      vertex -35.6 0 5
      vertex -35.2623 1.91531 5
      vertex -41.0531 -2.3494 5
    endloop
  endfacet
  facet normal 0 0 1
    outer loop
      vertex -24.4 0 5
      vertex -24.7377 -1.91531 5
      vertex -18.7 0 5
    endloop
  endfacet
  facet normal 0 0 1
    outer loop
      vertex -24.7377 -1.91531 5
      vertex -25.7102 -3.59961 5
      vertex -18.9469 -2.3494 5
    endloop
  endfacet
  facet normal 0 0 1
    outer loop
      vertex -35.2623 -1.91531 5
      vertex -35.6 0 5
      vertex -41.0531 -2.3494 5
    endloop
  endfacet
  facet normal 0.994522 0.104528 0
    outer loop
      vertex -41.3 0 15
      vertex -41.0531 -2.3494 15
      vertex -41.0531 -2.3494 5
    endloop
  endfacet
  facet normal 0.994522 0.104528 0
    outer loop
      vertex -41.3 0 5
      vertex -41.3 0 15
      vertex -41.0531 -2.3494 5
    endloop
  endfacet
  facet normal 0.951057 0.309017 0
    outer loop
      vertex -41.0531 -2.3494 15
      vertex -40.3231 -4.59612 15
      vertex -40.3231 -4.59612 5
    endloop
  endfacet
  facet normal 0.951057 0.309017 0
    outer loop
      vertex -41.0531 -2.3494 5
      vertex -41.0531 -2.3494 15
      vertex -40.3231 -4.59612 5
    endloop
  endfacet
  facet normal 0.866025 0.5 0
    outer loop
      vertex -40.3231 -4.59612 15
      vertex -39.1419 -6.64197 15
      vertex -39.1419 -6.64197 5
    endloop
  endfacet
  facet normal 0.866025 0.5 0
    outer loop
      vertex -40.3231 -4.59612 5
      vertex -40.3231 -4.59612 15
      vertex -39.1419 -6.64197 5
    endloop
  endfacet
  facet normal 0.743145 0.66913 0
    outer loop
      vertex -39.1419 -6.64197 15
      vertex -37.5612 -8.39754 15
      vertex -37.5612 -8.39754 5
    endloop
  endfacet
  facet normal 0.743145 0.66913 0
    outer loop
      vertex -39.1419 -6.64197 5
      vertex -39.1419 -6.64197 15
      vertex -37.5612 -8.39754 5
    endloop
  endfacet
  facet normal 0.587785 0.809017 0
    outer loop
      vertex -35.65 -9.78609 15
      vertex -35.65 -9.78609 5
      vertex -37.5612 -8.39754 15
    endloop
  endfacet
  facet normal 0.587785 0.809017 0
    outer loop
      vertex -37.5612 -8.39754 15
      vertex -35.65 -9.78609 5
      vertex -37.5612 -8.39754 5
    endloop
  endfacet
  facet normal 0.406737 0.913545 0
    outer loop
      vertex -33.4919 -10.7469 15
      vertex -33.4919 -10.7469 5
      vertex -35.65 -9.78609 15
    endloop
  endfacet
  facet normal 0.406737 0.913545 0
    outer loop
      vertex -35.65 -9.78609 15
      vertex -33.4919 -10.7469 5
      vertex -35.65 -9.78609 5
    endloop
  endfacet
  facet normal 0.207911 0.978148 0
    outer loop
      vertex -31.1812 -11.2381 15
      vertex -31.1812 -11.2381 5
      vertex -33.4919 -10.7469 15
    endloop
  endfacet
  facet normal 0.207911 0.978148 0
    outer loop
      vertex -33.4919 -10.7469 15
      vertex -31.1812 -11.2381 5
      vertex -33.4919 -10.7469 5
    endloop
  endfacet
  facet normal 0 1 0
    outer loop
      vertex -28.8188 -11.2381 15
      vertex -28.8188 -11.2381 5
      vertex -31.1812 -11.2381 15
    endloop
  endfacet
  facet normal 0 1 0
    outer loop
      vertex -31.1812 -11.2381 15
      vertex -28.8188 -11.2381 5
      vertex -31.1812 -11.2381 5
    endloop
  endfacet
  facet normal -0.207911 0.978148 0
    outer loop
      vertex -26.5081 -10.7469 15
      vertex -26.5081 -10.7469 5
      vertex -28.8188 -11.2381 15
    endloop
  endfacet
  facet normal -0.207911 0.978148 0
    outer loop
      vertex -28.8188 -11.2381 15
      vertex -26.5081 -10.7469 5
      vertex -28.8188 -11.2381 5
    endloop
  endfacet
  facet normal -0.406737 0.913545 0
    outer loop
      vertex -24.35 -9.78609 15
      vertex -24.35 -9.78609 5
      vertex -26.5081 -10.7469 15
    endloop
  endfacet
  facet normal -0.406737 0.913545 0
    outer loop
      vertex -26.5081 -10.7469 15
      vertex -24.35 -9.78609 5
      vertex -26.5081 -10.7469 5
    endloop
  endfacet
  facet normal -0.587785 0.809017 0
    outer loop
      vertex -22.4388 -8.39754 15
      vertex -22.4388 -8.39754 5
      vertex -24.35 -9.78609 15
    endloop
  endfacet
  facet normal -0.587785 0.809017 0
    outer loop
      vertex -24.35 -9.78609 15
      vertex -22.4388 -8.39754 5
      vertex -24.35 -9.78609 5
    endloop
  endfacet
  facet normal -0.743145 0.66913 0
    outer loop
      vertex -20.8581 -6.64197 15
      vertex -20.8581 -6.64197 5
      vertex -22.4388 -8.39754 15
    endloop
  endfacet
  facet normal -0.743145 0.66913 0
    outer loop
      vertex -22.4388 -8.39754 15
      vertex -20.8581 -6.64197 5
      vertex -22.4388 -8.39754 5
    endloop
  endfacet
  facet normal -0.866025 0.5 0
    outer loop
      vertex -19.6769 -4.59612 15
      vertex -19.6769 -4.59612 5
      vertex -20.8581 -6.64197 15
    endloop
  endfacet
  facet normal -0.866025 0.5 0
    outer loop
      vertex -20.8581 -6.64197 15
      vertex -19.6769 -4.59612 5
      vertex -20.8581 -6.64197 5
    endloop
  endfacet
  facet normal -0.951057 0.309017 0
    outer loop
      vertex -18.9469 -2.3494 15
      vertex -18.9469 -2.3494 5
      vertex -19.6769 -4.59612 15
    endloop
  endfacet
  facet normal -0.951057 0.309017 0
    outer loop
      vertex -19.6769 -4.59612 15
      vertex -18.9469 -2.3494 5
      vertex -19.6769 -4.59612 5
    endloop
  endfacet
  facet normal -0.994522 0.104528 0
    outer loop
      vertex -18.7 0 15
      vertex -18.7 0 5
      vertex -18.9469 -2.3494 15
    endloop
  endfacet
  facet normal -0.994522 0.104528 0
    outer loop
      vertex -18.9469 -2.3494 15
      vertex -18.7 0 5
      vertex -18.9469 -2.3494 5
    endloop
  endfacet
  facet normal -0.994522 -0.104528 0
    outer loop
      vertex -18.7 0 15
      vertex -18.9469 2.3494 15
      vertex -18.7 0 5
    endloop
  endfacet
  facet normal -0.994522 -0.104528 0
    outer loop
      vertex -18.7 0 5
      vertex -18.9469 2.3494 15
      vertex -18.9469 2.3494 5
    endloop
  endfacet
  facet normal -0.951057 -0.309017 0
    outer loop
      vertex -18.9469 2.3494 15
      vertex -19.6769 4.59612 15
      vertex -18.9469 2.3494 5
    endloop
  endfacet
  facet normal -0.951057 -0.309017 0
    outer loop
      vertex -18.9469 2.3494 5
      vertex -19.6769 4.59612 15
      vertex -19.6769 4.59612 5
    endloop
  endfacet
  facet normal -0.866025 -0.5 0
    outer loop
      vertex -19.6769 4.59612 15
      vertex -20.8581 6.64197 15
      vertex -19.6769 4.59612 5
    endloop
  endfacet
  facet normal -0.866025 -0.5 0
    outer loop
      vertex -19.6769 4.59612 5
      vertex -20.8581 6.64197 15
      vertex -20.8581 6.64197 5
    endloop
  endfacet
  facet normal -0.743145 -0.66913 0
    outer loop
      vertex -20.8581 6.64197 15
      vertex -22.4388 8.39754 15
      vertex -20.8581 6.64197 5
    endloop
  endfacet
  facet normal -0.743145 -0.66913 0
    outer loop
      vertex -20.8581 6.64197 5
      vertex -22.4388 8.39754 15
      vertex -22.4388 8.39754 5
    endloop
  endfacet
  facet normal -0.587785 -0.809017 0
    outer loop
      vertex -22.4388 8.39754 5
      vertex -22.4388 8.39754 15
      vertex -24.35 9.78609 15
    endloop
  endfacet
  facet normal -0.587785 -0.809017 0
    outer loop
      vertex -24.35 9.78609 5
      vertex -22.4388 8.39754 5
      vertex -24.35 9.78609 15
    endloop
  endfacet
  facet normal -0.406737 -0.913545 0
    outer loop
      vertex -24.35 9.78609 5
      vertex -24.35 9.78609 15
      vertex -26.5081 10.7469 15
    endloop
  endfacet
  facet normal -0.406737 -0.913545 0
    outer loop
      vertex -26.5081 10.7469 5
      vertex -24.35 9.78609 5
      vertex -26.5081 10.7469 15
    endloop
  endfacet
  facet normal -0.207911 -0.978148 0
    outer loop
      vertex -26.5081 10.7469 5
      vertex -26.5081 10.7469 15
      vertex -28.8188 11.2381 15
    endloop
  endfacet
  facet normal -0.207911 -0.978148 0
    outer loop
      vertex -28.8188 11.2381 5
      vertex -26.5081 10.7469 5
      vertex -28.8188 11.2381 15
    endloop
  endfacet
  facet normal 0 -1 0
    outer loop
      vertex -28.8188 11.2381 5
      vertex -28.8188 11.2381 15
      vertex -31.1812 11.2381 15
    endloop
  endfacet
  facet normal 0 -1 0
    outer loop
      vertex -31.1812 11.2381 5
      vertex -28.8188 11.2381 5
      vertex -31.1812 11.2381 15
    endloop
  endfacet
  facet normal 0.207911 -0.978148 0
    outer loop
      vertex -31.1812 11.2381 5
      vertex -31.1812 11.2381 15
      vertex -33.4919 10.7469 15
    endloop
  endfacet
  facet normal 0.207911 -0.978148 0
    outer loop
      vertex -33.4919 10.7469 5
      vertex -31.1812 11.2381 5
      vertex -33.4919 10.7469 15
    endloop
  endfacet
  facet normal 0.406737 -0.913545 0
    outer loop
      vertex -33.4919 10.7469 5
      vertex -33.4919 10.7469 15
      vertex -35.65 9.78609 15
    endloop
  endfacet
  facet normal 0.406737 -0.913545 0
    outer loop
      vertex -35.65 9.78609 5
      vertex -33.4919 10.7469 5
      vertex -35.65 9.78609 15
    endloop
  endfacet
  facet normal 0.587785 -0.809017 0
    outer loop
      vertex -35.65 9.78609 5
      vertex -35.65 9.78609 15
      vertex -37.5612 8.39754 15
    endloop
  endfacet
  facet normal 0.587785 -0.809017 0
    outer loop
      vertex -37.5612 8.39754 5
      vertex -35.65 9.78609 5
      vertex -37.5612 8.39754 15
    endloop
  endfacet
  facet normal 0.743145 -0.66913 0
    outer loop
      vertex -37.5612 8.39754 5
      vertex -37.5612 8.39754 15
      vertex -39.1419 6.64197 15
    endloop
  endfacet
  facet normal 0.743145 -0.66913 0
    outer loop
      vertex -39.1419 6.64197 5
      vertex -37.5612 8.39754 5
      vertex -39.1419 6.64197 15
    endloop
  endfacet
  facet normal 0.866025 -0.5 0
    outer loop
      vertex -39.1419 6.64197 5
      vertex -39.1419 6.64197 15
      vertex -40.3231 4.59612 15
    endloop
  endfacet
  facet normal 0.866025 -0.5 0
    outer loop
      vertex -40.3231 4.59612 5
      vertex -39.1419 6.64197 5
      vertex -40.3231 4.59612 15
    endloop
  endfacet
  facet normal 0.951057 -0.309017 0
    outer loop
      vertex -40.3231 4.59612 5
      vertex -40.3231 4.59612 15
      vertex -41.0531 2.3494 15
    endloop
  endfacet
  facet normal 0.951057 -0.309017 0
    outer loop
      vertex -41.0531 2.3494 5
      vertex -40.3231 4.59612 5
      vertex -41.0531 2.3494 15
    endloop
  endfacet
  facet normal 0.994522 -0.104528 0
    outer loop
      vertex -41.0531 2.3494 5
      vertex -41.0531 2.3494 15
      vertex -41.3 0 15
    endloop
  endfacet
  facet normal 0.994522 -0.104528 0
    outer loop
      vertex -41.3 0 5
      vertex -41.0531 2.3494 5
      vertex -41.3 0 15
    endloop
  endfacet
  facet normal 0 1 -2.22045e-016
    outer loop
      vertex 7.94785 6.35 9.04547
      vertex 6.9875 6.35 10.0331
      vertex 8.95215 6.35 9.04547
    endloop
  endfacet
  facet normal 0 1 -2.22045e-016
    outer loop
      vertex 9.76465 6.35 6.54485
      vertex 11.375 6.35 7.5
      vertex 9.9125 6.35 4.96688
    endloop
  endfacet
  facet normal 0 1 -2.22045e-016
    outer loop
      vertex 7.94785 6.35 5.95453
      vertex 9.9125 6.35 4.96688
      vertex 6.9875 6.35 4.96688
    endloop
  endfacet
  facet normal 0 1 -2.22045e-016
    outer loop
      vertex 6.825 6.35 7.5
      vertex 6.9875 6.35 4.96688
      vertex 5.525 6.35 7.5
    endloop
  endfacet
  facet normal 0 1 -2.22045e-016
    outer loop
      vertex 9.76465 6.35 6.54485
      vertex 9.9125 6.35 4.96688
      vertex 8.95215 6.35 5.95453
    endloop
  endfacet
  facet normal 0 1 -2.22045e-016
    outer loop
      vertex 8.95215 6.35 5.95453
      vertex 9.9125 6.35 4.96688
      vertex 7.94785 6.35 5.95453
    endloop
  endfacet
  facet normal 0 1 -2.22045e-016
    outer loop
      vertex 7.13535 6.35 6.54485
      vertex 7.94785 6.35 5.95453
      vertex 6.9875 6.35 4.96688
    endloop
  endfacet
  facet normal 0 1 -2.22045e-016
    outer loop
      vertex 10.075 6.35 7.5
      vertex 11.375 6.35 7.5
      vertex 9.76465 6.35 6.54485
    endloop
  endfacet
  facet normal 0 1 -2.22045e-016
    outer loop
      vertex 9.76465 6.35 8.45515
      vertex 11.375 6.35 7.5
      vertex 10.075 6.35 7.5
    endloop
  endfacet
  facet normal 0 1 -2.22045e-016
    outer loop
      vertex 9.9125 6.35 10.0331
      vertex 11.375 6.35 7.5
      vertex 9.76465 6.35 8.45515
    endloop
  endfacet
  facet normal 0 1 -2.22045e-016
    outer loop
      vertex 9.9125 6.35 10.0331
      vertex 9.76465 6.35 8.45515
      vertex 8.95215 6.35 9.04547
    endloop
  endfacet
  facet normal 0 1 -2.22045e-016
    outer loop
      vertex 9.9125 6.35 10.0331
      vertex 8.95215 6.35 9.04547
      vertex 6.9875 6.35 10.0331
    endloop
  endfacet
  facet normal 0 1 -2.22045e-016
    outer loop
      vertex 7.13535 6.35 8.45515
      vertex 6.9875 6.35 10.0331
      vertex 7.94785 6.35 9.04547
    endloop
  endfacet
  facet normal 0 1 -2.22045e-016
    outer loop
      vertex 6.825 6.35 7.5
      vertex 6.9875 6.35 10.0331
      vertex 7.13535 6.35 8.45515
    endloop
  endfacet
  facet normal 0 1 -2.22045e-016
    outer loop
      vertex 6.9875 6.35 10.0331
      vertex 6.825 6.35 7.5
      vertex 5.525 6.35 7.5
    endloop
  endfacet
  facet normal 0 1 -2.22045e-016
    outer loop
      vertex 7.13535 6.35 6.54485
      vertex 6.9875 6.35 4.96688
      vertex 6.825 6.35 7.5
    endloop
  endfacet
endsolid OpenSCAD_Model
