solid OpenSCAD_Model
  facet normal -1 0 0
    outer loop
      vertex 0 0 0
      vertex 0 0 3
      vertex 0 25 0
    endloop
  endfacet
  facet normal -1 0 0
    outer loop
      vertex 0 25 0
      vertex 0 0 3
      vertex 0 25 3
    endloop
  endfacet
  facet normal 0 -1 0
    outer loop
      vertex 0 0 3
      vertex 0 0 0
      vertex 28 0 0
    endloop
  endfacet
  facet normal 0 -1 0
    outer loop
      vertex 25 0 3
      vertex 0 0 3
      vertex 28 0 0
    endloop
  endfacet
  facet normal 0 -1 0
    outer loop
      vertex 28 0 10
      vertex 25 0 3
      vertex 28 0 0
    endloop
  endfacet
  facet normal 0 -1 0
    outer loop
      vertex 25 0 10
      vertex 25 0 3
      vertex 28 0 10
    endloop
  endfacet
  facet normal 0 0 -1
    outer loop
      vertex 14.954 9.31629 0
      vertex 28 0 0
      vertex 13.0019 9.03562 0
    endloop
  endfacet
  facet normal 0 0 -1
    outer loop
      vertex 14.954 15.6837 0
      vertex 0 25 0
      vertex 28 25 0
    endloop
  endfacet
  facet normal 0 0 -1
    outer loop
      vertex 0 0 0
      vertex 0 25 0
      vertex 10.1418 13.4861 0
    endloop
  endfacet
  facet normal 0 0 -1
    outer loop
      vertex 0 0 0
      vertex 10.1418 13.4861 0
      vertex 10.1418 11.5139 0
    endloop
  endfacet
  facet normal 0 0 -1
    outer loop
      vertex 0 0 0
      vertex 10.1418 11.5139 0
      vertex 11.208 9.85488 0
    endloop
  endfacet
  facet normal 0 0 -1
    outer loop
      vertex 0 0 0
      vertex 11.208 9.85488 0
      vertex 28 0 0
    endloop
  endfacet
  facet normal 0 0 -1
    outer loop
      vertex 11.208 9.85488 0
      vertex 13.0019 9.03562 0
      vertex 28 0 0
    endloop
  endfacet
  facet normal 0 0 -1
    outer loop
      vertex 16.4444 10.6078 0
      vertex 28 0 0
      vertex 14.954 9.31629 0
    endloop
  endfacet
  facet normal 0 0 -1
    outer loop
      vertex 28 0 0
      vertex 16.4444 10.6078 0
      vertex 28 25 0
    endloop
  endfacet
  facet normal 0 0 -1
    outer loop
      vertex 16.4444 10.6078 0
      vertex 17 12.5 0
      vertex 28 25 0
    endloop
  endfacet
  facet normal 0 0 -1
    outer loop
      vertex 11.208 15.1451 0
      vertex 0 25 0
      vertex 13.0019 15.9644 0
    endloop
  endfacet
  facet normal 0 0 -1
    outer loop
      vertex 17 12.5 0
      vertex 16.4444 14.3922 0
      vertex 28 25 0
    endloop
  endfacet
  facet normal 0 0 -1
    outer loop
      vertex 16.4444 14.3922 0
      vertex 14.954 15.6837 0
      vertex 28 25 0
    endloop
  endfacet
  facet normal 0 0 -1
    outer loop
      vertex 13.0019 15.9644 0
      vertex 0 25 0
      vertex 14.954 15.6837 0
    endloop
  endfacet
  facet normal 0 0 -1
    outer loop
      vertex 10.1418 13.4861 0
      vertex 0 25 0
      vertex 11.208 15.1451 0
    endloop
  endfacet
  facet normal 0 1 0
    outer loop
      vertex 0 25 0
      vertex 0 25 3
      vertex 28 25 0
    endloop
  endfacet
  facet normal 0 1 0
    outer loop
      vertex 28 25 0
      vertex 0 25 3
      vertex 25 25 3
    endloop
  endfacet
  facet normal 0 1 0
    outer loop
      vertex 28 25 0
      vertex 25 25 3
      vertex 25 25 10
    endloop
  endfacet
  facet normal 0 1 0
    outer loop
      vertex 28 25 0
      vertex 25 25 10
      vertex 28 25 10
    endloop
  endfacet
  facet normal 0 0 1
    outer loop
      vertex 13.0019 9.03562 3
      vertex 0 0 3
      vertex 25 0 3
    endloop
  endfacet
  facet normal 0 0 1
    outer loop
      vertex 0 25 3
      vertex 0 0 3
      vertex 10.1418 11.5139 3
    endloop
  endfacet
  facet normal 0 0 1
    outer loop
      vertex 0 25 3
      vertex 10.1418 11.5139 3
      vertex 10.1418 13.4861 3
    endloop
  endfacet
  facet normal 0 0 1
    outer loop
      vertex 25 25 3
      vertex 0 25 3
      vertex 11.208 15.1451 3
    endloop
  endfacet
  facet normal 0 0 1
    outer loop
      vertex 16.4444 10.6078 3
      vertex 14.954 9.31629 3
      vertex 25 0 3
    endloop
  endfacet
  facet normal 0 0 1
    outer loop
      vertex 25 25 3
      vertex 11.208 15.1451 3
      vertex 13.0019 15.9644 3
    endloop
  endfacet
  facet normal 0 0 1
    outer loop
      vertex 14.954 9.31629 3
      vertex 13.0019 9.03562 3
      vertex 25 0 3
    endloop
  endfacet
  facet normal 0 0 1
    outer loop
      vertex 25 25 3
      vertex 13.0019 15.9644 3
      vertex 14.954 15.6837 3
    endloop
  endfacet
  facet normal 0 0 1
    outer loop
      vertex 25 25 3
      vertex 16.4444 14.3922 3
      vertex 25 0 3
    endloop
  endfacet
  facet normal 0 0 1
    outer loop
      vertex 25 25 3
      vertex 14.954 15.6837 3
      vertex 16.4444 14.3922 3
    endloop
  endfacet
  facet normal 0 0 1
    outer loop
      vertex 16.4444 14.3922 3
      vertex 17 12.5 3
      vertex 25 0 3
    endloop
  endfacet
  facet normal 0 0 1
    outer loop
      vertex 17 12.5 3
      vertex 16.4444 10.6078 3
      vertex 25 0 3
    endloop
  endfacet
  facet normal 0 0 1
    outer loop
      vertex 11.208 9.85488 3
      vertex 0 0 3
      vertex 13.0019 9.03562 3
    endloop
  endfacet
  facet normal 0 0 1
    outer loop
      vertex 10.1418 11.5139 3
      vertex 0 0 3
      vertex 11.208 9.85488 3
    endloop
  endfacet
  facet normal 0 0 1
    outer loop
      vertex 10.1418 13.4861 3
      vertex 11.208 15.1451 3
      vertex 0 25 3
    endloop
  endfacet
  facet normal -1 0 0
    outer loop
      vertex 25 25 10
      vertex 25 25 3
      vertex 25 0 10
    endloop
  endfacet
  facet normal -1 0 0
    outer loop
      vertex 25 0 10
      vertex 25 25 3
      vertex 25 0 3
    endloop
  endfacet
  facet normal 0 0 1
    outer loop
      vertex 25 25 10
      vertex 25 0 10
      vertex 28 0 10
    endloop
  endfacet
  facet normal 0 0 1
    outer loop
      vertex 28 25 10
      vertex 25 25 10
      vertex 28 0 10
    endloop
  endfacet
  facet normal 1 0 0
    outer loop
      vertex 28 0 10
      vertex 28 0 0
      vertex 28 25 0
    endloop
  endfacet
  facet normal 1 0 0
    outer loop
      vertex 28 25 10
      vertex 28 0 10
      vertex 28 25 0
    endloop
  endfacet
  facet normal 0.841254 -0.54064 0
    outer loop
      vertex 11.208 15.1451 0
      vertex 11.208 15.1451 3
      vertex 10.1418 13.4861 3
    endloop
  endfacet
  facet normal 0.841254 -0.54064 0
    outer loop
      vertex 10.1418 13.4861 0
      vertex 11.208 15.1451 0
      vertex 10.1418 13.4861 3
    endloop
  endfacet
  facet normal 1 0 0
    outer loop
      vertex 10.1418 13.4861 0
      vertex 10.1418 13.4861 3
      vertex 10.1418 11.5139 3
    endloop
  endfacet
  facet normal 1 0 0
    outer loop
      vertex 10.1418 11.5139 0
      vertex 10.1418 13.4861 0
      vertex 10.1418 11.5139 3
    endloop
  endfacet
  facet normal 0.415415 -0.909632 0
    outer loop
      vertex 13.0019 15.9644 0
      vertex 13.0019 15.9644 3
      vertex 11.208 15.1451 3
    endloop
  endfacet
  facet normal 0.415415 -0.909632 0
    outer loop
      vertex 11.208 15.1451 0
      vertex 13.0019 15.9644 0
      vertex 11.208 15.1451 3
    endloop
  endfacet
  facet normal -0.142315 -0.989821 0
    outer loop
      vertex 14.954 15.6837 0
      vertex 14.954 15.6837 3
      vertex 13.0019 15.9644 3
    endloop
  endfacet
  facet normal -0.142315 -0.989821 0
    outer loop
      vertex 13.0019 15.9644 0
      vertex 14.954 15.6837 0
      vertex 13.0019 15.9644 3
    endloop
  endfacet
  facet normal -0.654861 -0.755749 0
    outer loop
      vertex 16.4444 14.3922 0
      vertex 16.4444 14.3922 3
      vertex 14.954 15.6837 3
    endloop
  endfacet
  facet normal -0.654861 -0.755749 0
    outer loop
      vertex 14.954 15.6837 0
      vertex 16.4444 14.3922 0
      vertex 14.954 15.6837 3
    endloop
  endfacet
  facet normal -0.959493 -0.281733 0
    outer loop
      vertex 17 12.5 3
      vertex 16.4444 14.3922 3
      vertex 17 12.5 0
    endloop
  endfacet
  facet normal -0.959493 -0.281733 0
    outer loop
      vertex 17 12.5 0
      vertex 16.4444 14.3922 3
      vertex 16.4444 14.3922 0
    endloop
  endfacet
  facet normal -0.959493 0.281733 0
    outer loop
      vertex 17 12.5 3
      vertex 17 12.5 0
      vertex 16.4444 10.6078 3
    endloop
  endfacet
  facet normal -0.959493 0.281733 0
    outer loop
      vertex 16.4444 10.6078 3
      vertex 17 12.5 0
      vertex 16.4444 10.6078 0
    endloop
  endfacet
  facet normal -0.654861 0.755749 0
    outer loop
      vertex 16.4444 10.6078 3
      vertex 16.4444 10.6078 0
      vertex 14.954 9.31629 3
    endloop
  endfacet
  facet normal -0.654861 0.755749 0
    outer loop
      vertex 14.954 9.31629 3
      vertex 16.4444 10.6078 0
      vertex 14.954 9.31629 0
    endloop
  endfacet
  facet normal -0.142315 0.989821 0
    outer loop
      vertex 14.954 9.31629 3
      vertex 14.954 9.31629 0
      vertex 13.0019 9.03562 3
    endloop
  endfacet
  facet normal -0.142315 0.989821 0
    outer loop
      vertex 13.0019 9.03562 3
      vertex 14.954 9.31629 0
      vertex 13.0019 9.03562 0
    endloop
  endfacet
  facet normal 0.415415 0.909632 0
    outer loop
      vertex 13.0019 9.03562 3
      vertex 13.0019 9.03562 0
      vertex 11.208 9.85488 3
    endloop
  endfacet
  facet normal 0.415415 0.909632 0
    outer loop
      vertex 11.208 9.85488 3
      vertex 13.0019 9.03562 0
      vertex 11.208 9.85488 0
    endloop
  endfacet
  facet normal 0.841254 0.54064 0
    outer loop
      vertex 10.1418 11.5139 3
      vertex 11.208 9.85488 3
      vertex 11.208 9.85488 0
    endloop
  endfacet
  facet normal 0.841254 0.54064 0
    outer loop
      vertex 10.1418 11.5139 0
      vertex 10.1418 11.5139 3
      vertex 11.208 9.85488 0
    endloop
  endfacet
endsolid OpenSCAD_Model
