solid Default
  facet normal 0.000000e+00 0.000000e+00 1.000000e+00
    outer loop
      vertex -1.000380e+01 -5.500000e+01 7.000000e+00
      vertex -1.997389e+01 5.085788e+01 7.000000e+00
      vertex -2.000380e+01 -5.500000e+01 7.000000e+00
    endloop
  endfacet
  facet normal 0.000000e+00 0.000000e+00 1.000000e+00
    outer loop
      vertex -1.997389e+01 5.085788e+01 7.000000e+00
      vertex -1.000380e+01 -5.500000e+01 7.000000e+00
      vertex -1.906618e+01 5.168979e+01 7.000000e+00
    endloop
  endfacet
  facet normal 0.000000e+00 0.000000e+00 1.000000e+00
    outer loop
      vertex -1.906618e+01 5.168979e+01 7.000000e+00
      vertex -1.000380e+01 -5.500000e+01 7.000000e+00
      vertex -1.808954e+01 5.243960e+01 7.000000e+00
    endloop
  endfacet
  facet normal 0.000000e+00 0.000000e+00 1.000000e+00
    outer loop
      vertex -1.808954e+01 5.243960e+01 7.000000e+00
      vertex -1.000380e+01 -5.500000e+01 7.000000e+00
      vertex -1.705140e+01 5.310161e+01 7.000000e+00
    endloop
  endfacet
  facet normal 0.000000e+00 0.000000e+00 1.000000e+00
    outer loop
      vertex -1.705140e+01 5.310161e+01 7.000000e+00
      vertex -1.000380e+01 -5.500000e+01 7.000000e+00
      vertex -1.595960e+01 5.367081e+01 7.000000e+00
    endloop
  endfacet
  facet normal 0.000000e+00 0.000000e+00 1.000000e+00
    outer loop
      vertex -1.595960e+01 5.367081e+01 7.000000e+00
      vertex -1.000380e+01 -5.500000e+01 7.000000e+00
      vertex -1.482243e+01 5.414290e+01 7.000000e+00
    endloop
  endfacet
  facet normal 0.000000e+00 0.000000e+00 1.000000e+00
    outer loop
      vertex -1.482243e+01 5.414290e+01 7.000000e+00
      vertex -1.000380e+01 -5.500000e+01 7.000000e+00
      vertex -1.364851e+01 5.451427e+01 7.000000e+00
    endloop
  endfacet
  facet normal 0.000000e+00 0.000000e+00 1.000000e+00
    outer loop
      vertex -1.364851e+01 5.451427e+01 7.000000e+00
      vertex -1.000380e+01 -5.500000e+01 7.000000e+00
      vertex -1.244673e+01 5.478214e+01 7.000000e+00
    endloop
  endfacet
  facet normal 0.000000e+00 0.000000e+00 1.000000e+00
    outer loop
      vertex -1.244673e+01 5.478214e+01 7.000000e+00
      vertex -1.000380e+01 -5.500000e+01 7.000000e+00
      vertex -1.122621e+01 5.494446e+01 7.000000e+00
    endloop
  endfacet
  facet normal 0.000000e+00 0.000000e+00 1.000000e+00
    outer loop
      vertex -1.122621e+01 5.494446e+01 7.000000e+00
      vertex -1.000380e+01 -5.500000e+01 7.000000e+00
      vertex -1.073966e+01 4.278470e+01 7.000000e+00
    endloop
  endfacet
  facet normal 0.000000e+00 0.000000e+00 1.000000e+00
    outer loop
      vertex -1.073966e+01 4.278470e+01 7.000000e+00
      vertex -1.000380e+01 -5.500000e+01 7.000000e+00
      vertex -1.064124e+01 4.241090e+01 7.000000e+00
    endloop
  endfacet
  facet normal 0.000000e+00 0.000000e+00 1.000000e+00
    outer loop
      vertex -1.064124e+01 4.241090e+01 7.000000e+00
      vertex -1.000380e+01 -5.500000e+01 7.000000e+00
      vertex -1.036912e+01 4.213640e+01 7.000000e+00
    endloop
  endfacet
  facet normal 0.000000e+00 0.000000e+00 1.000000e+00
    outer loop
      vertex -1.036912e+01 4.213640e+01 7.000000e+00
      vertex -1.000380e+01 -5.500000e+01 7.000000e+00
      vertex -9.996202e+00 4.203473e+01 7.000000e+00
    endloop
  endfacet
  facet normal 0.000000e+00 0.000000e+00 1.000000e+00
    outer loop
      vertex -1.073966e+01 4.278470e+01 7.000000e+00
      vertex -9.996202e+00 5.500000e+01 7.000000e+00
      vertex -1.122621e+01 5.494446e+01 7.000000e+00
    endloop
  endfacet
  facet normal 0.000000e+00 0.000000e+00 1.000000e+00
    outer loop
      vertex -9.996202e+00 5.500000e+01 7.000000e+00
      vertex -1.073966e+01 4.278470e+01 7.000000e+00
      vertex -1.063799e+01 4.315762e+01 7.000000e+00
    endloop
  endfacet
  facet normal 0.000000e+00 0.000000e+00 1.000000e+00
    outer loop
      vertex -9.996202e+00 5.500000e+01 7.000000e+00
      vertex -1.063799e+01 4.315762e+01 7.000000e+00
      vertex -1.036348e+01 4.342974e+01 7.000000e+00
    endloop
  endfacet
  facet normal 0.000000e+00 0.000000e+00 1.000000e+00
    outer loop
      vertex -9.996202e+00 5.500000e+01 7.000000e+00
      vertex -1.036348e+01 4.342974e+01 7.000000e+00
      vertex -9.989683e+00 4.352815e+01 7.000000e+00
    endloop
  endfacet
  facet normal 0.000000e+00 0.000000e+00 1.000000e+00
    outer loop
      vertex -9.996202e+00 5.500000e+01 7.000000e+00
      vertex -9.989683e+00 4.352815e+01 7.000000e+00
      vertex -8.766020e+00 5.494834e+01 7.000000e+00
    endloop
  endfacet
  facet normal 0.000000e+00 0.000000e+00 1.000000e+00
    outer loop
      vertex -8.766020e+00 5.494834e+01 7.000000e+00
      vertex -9.989683e+00 4.352815e+01 7.000000e+00
      vertex -9.616766e+00 4.342648e+01 7.000000e+00
    endloop
  endfacet
  facet normal 0.000000e+00 0.000000e+00 1.000000e+00
    outer loop
      vertex -8.766020e+00 5.494834e+01 7.000000e+00
      vertex -9.616766e+00 4.342648e+01 7.000000e+00
      vertex -9.344641e+00 4.315198e+01 7.000000e+00
    endloop
  endfacet
  facet normal 0.000000e+00 0.000000e+00 1.000000e+00
    outer loop
      vertex -8.766020e+00 5.494834e+01 7.000000e+00
      vertex -9.344641e+00 4.315198e+01 7.000000e+00
      vertex -9.246229e+00 4.277818e+01 7.000000e+00
    endloop
  endfacet
  facet normal 0.000000e+00 0.000000e+00 1.000000e+00
    outer loop
      vertex -8.766020e+00 5.494834e+01 7.000000e+00
      vertex -9.246229e+00 4.277818e+01 7.000000e+00
      vertex 8.003801e+00 4.262765e+01 7.000000e+00
    endloop
  endfacet
  facet normal 0.000000e+00 0.000000e+00 1.000000e+00
    outer loop
      vertex -8.766020e+00 5.494834e+01 7.000000e+00
      vertex 8.003801e+00 4.262765e+01 7.000000e+00
      vertex -7.544992e+00 5.478988e+01 7.000000e+00
    endloop
  endfacet
  facet normal 0.000000e+00 0.000000e+00 1.000000e+00
    outer loop
      vertex -7.544992e+00 5.478988e+01 7.000000e+00
      vertex 8.003801e+00 4.262765e+01 7.000000e+00
      vertex -6.342379e+00 5.452580e+01 7.000000e+00
    endloop
  endfacet
  facet normal 0.000000e+00 0.000000e+00 1.000000e+00
    outer loop
      vertex -6.342379e+00 5.452580e+01 7.000000e+00
      vertex 8.003801e+00 4.262765e+01 7.000000e+00
      vertex 1.000380e+01 4.478473e+01 7.000000e+00
    endloop
  endfacet
  facet normal 0.000000e+00 0.000000e+00 1.000000e+00
    outer loop
      vertex -6.342379e+00 5.452580e+01 7.000000e+00
      vertex 1.000380e+01 4.478473e+01 7.000000e+00
      vertex 2.000380e+01 4.778473e+01 7.000000e+00
    endloop
  endfacet
  facet normal 0.000000e+00 0.000000e+00 1.000000e+00
    outer loop
      vertex 2.000380e+01 4.778473e+01 7.000000e+00
      vertex 1.000380e+01 4.478473e+01 7.000000e+00
      vertex 1.200380e+01 4.259274e+01 7.000000e+00
    endloop
  endfacet
  facet normal 0.000000e+00 0.000000e+00 1.000000e+00
    outer loop
      vertex 2.000380e+01 4.778473e+01 7.000000e+00
      vertex 1.200380e+01 4.259274e+01 7.000000e+00
      vertex 2.000266e+01 4.252293e+01 7.000000e+00
    endloop
  endfacet
  facet normal 0.000000e+00 0.000000e+00 -1.000000e+00
    outer loop
      vertex -9.995806e+00 5.474976e+01 0.000000e+00
      vertex -1.099847e+01 4.278583e+01 0.000000e+00
      vertex -1.120405e+01 5.469521e+01 0.000000e+00
    endloop
  endfacet
  facet normal 0.000000e+00 0.000000e+00 -1.000000e+00
    outer loop
      vertex -1.099847e+01 4.278583e+01 0.000000e+00
      vertex -9.995806e+00 5.474976e+01 0.000000e+00
      vertex -1.086156e+01 4.328801e+01 0.000000e+00
    endloop
  endfacet
  facet normal 0.000000e+00 0.000000e+00 -1.000000e+00
    outer loop
      vertex -1.086156e+01 4.328801e+01 0.000000e+00
      vertex -9.995806e+00 5.474976e+01 0.000000e+00
      vertex -1.049191e+01 4.365445e+01 0.000000e+00
    endloop
  endfacet
  facet normal 0.000000e+00 0.000000e+00 -1.000000e+00
    outer loop
      vertex -1.049191e+01 4.365445e+01 0.000000e+00
      vertex -9.995806e+00 5.474976e+01 0.000000e+00
      vertex -9.988554e+00 4.378697e+01 0.000000e+00
    endloop
  endfacet
  facet normal 0.000000e+00 0.000000e+00 -1.000000e+00
    outer loop
      vertex -9.988554e+00 4.378697e+01 0.000000e+00
      vertex -9.995806e+00 5.474976e+01 0.000000e+00
      vertex -8.787394e+00 5.469902e+01 0.000000e+00
    endloop
  endfacet
  facet normal 0.000000e+00 0.000000e+00 -1.000000e+00
    outer loop
      vertex -9.988554e+00 4.378697e+01 0.000000e+00
      vertex -8.787394e+00 5.469902e+01 0.000000e+00
      vertex -9.486380e+00 4.365006e+01 0.000000e+00
    endloop
  endfacet
  facet normal 0.000000e+00 0.000000e+00 -1.000000e+00
    outer loop
      vertex -9.486380e+00 4.365006e+01 0.000000e+00
      vertex -8.787394e+00 5.469902e+01 0.000000e+00
      vertex -9.119936e+00 4.328041e+01 0.000000e+00
    endloop
  endfacet
  facet normal 0.000000e+00 0.000000e+00 -1.000000e+00
    outer loop
      vertex -9.119936e+00 4.328041e+01 0.000000e+00
      vertex -8.787394e+00 5.469902e+01 0.000000e+00
      vertex -9.053087e+00 4.302651e+01 0.000000e+00
    endloop
  endfacet
  facet normal 0.000000e+00 0.000000e+00 -1.000000e+00
    outer loop
      vertex -9.053087e+00 4.302651e+01 0.000000e+00
      vertex -8.787394e+00 5.469902e+01 0.000000e+00
      vertex 7.895555e+00 4.287860e+01 0.000000e+00
    endloop
  endfacet
  facet normal 0.000000e+00 0.000000e+00 -1.000000e+00
    outer loop
      vertex 7.895555e+00 4.287860e+01 0.000000e+00
      vertex -8.787394e+00 5.469902e+01 0.000000e+00
      vertex -7.587973e+00 5.454336e+01 0.000000e+00
    endloop
  endfacet
  facet normal 0.000000e+00 0.000000e+00 -1.000000e+00
    outer loop
      vertex 7.895555e+00 4.287860e+01 0.000000e+00
      vertex -7.587973e+00 5.454336e+01 0.000000e+00
      vertex -6.400190e+00 5.428255e+01 0.000000e+00
    endloop
  endfacet
  facet normal 0.000000e+00 0.000000e+00 -1.000000e+00
    outer loop
      vertex 7.895555e+00 4.287860e+01 0.000000e+00
      vertex -6.400190e+00 5.428255e+01 0.000000e+00
      vertex 1.000527e+01 4.515402e+01 0.000000e+00
    endloop
  endfacet
  facet normal 0.000000e+00 0.000000e+00 -1.000000e+00
    outer loop
      vertex 1.000527e+01 4.515402e+01 0.000000e+00
      vertex -6.400190e+00 5.428255e+01 0.000000e+00
      vertex 1.975376e+01 4.759065e+01 0.000000e+00
    endloop
  endfacet
  facet normal 0.000000e+00 0.000000e+00 -1.000000e+00
    outer loop
      vertex 1.000527e+01 4.515402e+01 0.000000e+00
      vertex 1.975376e+01 4.759065e+01 0.000000e+00
      vertex 1.211500e+01 4.284177e+01 0.000000e+00
    endloop
  endfacet
  facet normal 0.000000e+00 0.000000e+00 -1.000000e+00
    outer loop
      vertex 1.211500e+01 4.284177e+01 0.000000e+00
      vertex 1.975376e+01 4.759065e+01 0.000000e+00
      vertex 1.975271e+01 4.277512e+01 0.000000e+00
    endloop
  endfacet
  facet normal 0.000000e+00 0.000000e+00 -1.000000e+00
    outer loop
      vertex -1.972392e+01 5.074786e+01 0.000000e+00
      vertex -1.025380e+01 -5.475000e+01 0.000000e+00
      vertex -1.975374e+01 -5.475000e+01 0.000000e+00
    endloop
  endfacet
  facet normal 0.000000e+00 0.000000e+00 -1.000000e+00
    outer loop
      vertex -1.025380e+01 -5.475000e+01 0.000000e+00
      vertex -1.972392e+01 5.074786e+01 0.000000e+00
      vertex -1.890529e+01 5.149813e+01 0.000000e+00
    endloop
  endfacet
  facet normal 0.000000e+00 0.000000e+00 -1.000000e+00
    outer loop
      vertex -1.025380e+01 -5.475000e+01 0.000000e+00
      vertex -1.890529e+01 5.149813e+01 0.000000e+00
      vertex -1.794594e+01 5.223467e+01 0.000000e+00
    endloop
  endfacet
  facet normal 0.000000e+00 0.000000e+00 -1.000000e+00
    outer loop
      vertex -1.025380e+01 -5.475000e+01 0.000000e+00
      vertex -1.794594e+01 5.223467e+01 0.000000e+00
      vertex -1.692616e+01 5.288496e+01 0.000000e+00
    endloop
  endfacet
  facet normal 0.000000e+00 0.000000e+00 -1.000000e+00
    outer loop
      vertex -1.025380e+01 -5.475000e+01 0.000000e+00
      vertex -1.692616e+01 5.288496e+01 0.000000e+00
      vertex -1.585369e+01 5.344410e+01 0.000000e+00
    endloop
  endfacet
  facet normal 0.000000e+00 0.000000e+00 -1.000000e+00
    outer loop
      vertex -1.025380e+01 -5.475000e+01 0.000000e+00
      vertex -1.585369e+01 5.344410e+01 0.000000e+00
      vertex -1.473664e+01 5.390783e+01 0.000000e+00
    endloop
  endfacet
  facet normal 0.000000e+00 0.000000e+00 -1.000000e+00
    outer loop
      vertex -1.025380e+01 -5.475000e+01 0.000000e+00
      vertex -1.473664e+01 5.390783e+01 0.000000e+00
      vertex -1.358349e+01 5.427264e+01 0.000000e+00
    endloop
  endfacet
  facet normal 0.000000e+00 0.000000e+00 -1.000000e+00
    outer loop
      vertex -1.025380e+01 -5.475000e+01 0.000000e+00
      vertex -1.358349e+01 5.427264e+01 0.000000e+00
      vertex -1.240298e+01 5.453576e+01 0.000000e+00
    endloop
  endfacet
  facet normal 0.000000e+00 0.000000e+00 -1.000000e+00
    outer loop
      vertex -1.025380e+01 -5.475000e+01 0.000000e+00
      vertex -1.240298e+01 5.453576e+01 0.000000e+00
      vertex -1.120405e+01 5.469521e+01 0.000000e+00
    endloop
  endfacet
  facet normal 0.000000e+00 0.000000e+00 -1.000000e+00
    outer loop
      vertex -1.025380e+01 -5.475000e+01 0.000000e+00
      vertex -1.120405e+01 5.469521e+01 0.000000e+00
      vertex -1.099847e+01 4.278583e+01 0.000000e+00
    endloop
  endfacet
  facet normal 0.000000e+00 0.000000e+00 -1.000000e+00
    outer loop
      vertex -1.025380e+01 -5.475000e+01 0.000000e+00
      vertex -1.099847e+01 4.278583e+01 0.000000e+00
      vertex -1.086595e+01 4.228248e+01 0.000000e+00
    endloop
  endfacet
  facet normal 0.000000e+00 0.000000e+00 -1.000000e+00
    outer loop
      vertex -1.025380e+01 -5.475000e+01 0.000000e+00
      vertex -1.086595e+01 4.228248e+01 0.000000e+00
      vertex -1.049951e+01 4.191282e+01 0.000000e+00
    endloop
  endfacet
  facet normal 0.000000e+00 0.000000e+00 -1.000000e+00
    outer loop
      vertex -1.025380e+01 -5.475000e+01 0.000000e+00
      vertex -1.049951e+01 4.191282e+01 0.000000e+00
      vertex -1.024620e+01 4.184377e+01 0.000000e+00
    endloop
  endfacet
  facet normal 1.249148e-01 -9.379508e-01 -3.234882e-01
    outer loop
      vertex -9.989683e+00 4.352815e+01 7.500000e-01
      vertex -9.988554e+00 4.378697e+01 0.000000e+00
      vertex -9.988554e+00 4.352815e+01 7.500000e-01
    endloop
  endfacet
  facet normal 9.173148e-01 2.415088e-01 -3.165550e-01
    outer loop
      vertex -1.099847e+01 4.278583e+01 0.000000e+00
      vertex -1.073966e+01 4.278583e+01 7.500000e-01
      vertex -1.086595e+01 4.228248e+01 0.000000e+00
    endloop
  endfacet
  facet normal 9.698010e-01 9.276642e-02 -2.255668e-01
    outer loop
      vertex -1.073966e+01 4.278583e+01 7.500000e-01
      vertex -1.073966e+01 4.278470e+01 7.500000e-01
      vertex -1.086595e+01 4.228248e+01 0.000000e+00
    endloop
  endfacet
  facet normal 9.728245e-01 7.990084e-02 -2.173211e-01
    outer loop
      vertex -1.073966e+01 4.278470e+01 7.500000e-01
      vertex -1.064124e+01 4.241090e+01 7.500000e-01
      vertex -1.086595e+01 4.228248e+01 0.000000e+00
    endloop
  endfacet
  facet normal -3.637367e-01 8.761824e-01 -3.162278e-01
    outer loop
      vertex -1.595960e+01 5.367081e+01 7.500000e-01
      vertex -1.473664e+01 5.390783e+01 0.000000e+00
      vertex -1.585369e+01 5.344410e+01 0.000000e+00
    endloop
  endfacet
  facet normal -3.637367e-01 8.761824e-01 -3.162278e-01
    outer loop
      vertex -1.473664e+01 5.390783e+01 0.000000e+00
      vertex -1.595960e+01 5.367081e+01 7.500000e-01
      vertex -1.482243e+01 5.414290e+01 7.500000e-01
    endloop
  endfacet
  facet normal 2.144710e-01 9.767303e-01 0.000000e+00
    outer loop
      vertex -7.544992e+00 5.478988e+01 7.000000e+00
      vertex -6.342379e+00 5.452580e+01 7.500000e-01
      vertex -7.544992e+00 5.478988e+01 7.500000e-01
    endloop
  endfacet
  facet normal 2.144710e-01 9.767303e-01 0.000000e+00
    outer loop
      vertex -6.342379e+00 5.452580e+01 7.500000e-01
      vertex -7.544992e+00 5.478988e+01 7.000000e+00
      vertex -6.342379e+00 5.452580e+01 7.000000e+00
    endloop
  endfacet
  facet normal -6.737410e-01 -6.678870e-01 -3.162278e-01
    outer loop
      vertex -9.616766e+00 4.342648e+01 7.500000e-01
      vertex -9.119936e+00 4.328041e+01 0.000000e+00
      vertex -9.344641e+00 4.315198e+01 7.500000e-01
    endloop
  endfacet
  facet normal -6.737410e-01 -6.678870e-01 -3.162278e-01
    outer loop
      vertex -9.119936e+00 4.328041e+01 0.000000e+00
      vertex -9.616766e+00 4.342648e+01 7.500000e-01
      vertex -9.486380e+00 4.365006e+01 0.000000e+00
    endloop
  endfacet
  facet normal -1.658677e-01 9.339792e-01 -3.164978e-01
    outer loop
      vertex -1.244673e+01 5.478214e+01 7.500000e-01
      vertex -1.120405e+01 5.469521e+01 0.000000e+00
      vertex -1.240298e+01 5.453576e+01 0.000000e+00
    endloop
  endfacet
  facet normal -1.250646e-01 9.404036e-01 -3.162278e-01
    outer loop
      vertex -1.120405e+01 5.469521e+01 0.000000e+00
      vertex -1.244673e+01 5.478214e+01 7.500000e-01
      vertex -1.122621e+01 5.494446e+01 7.500000e-01
    endloop
  endfacet
  facet normal -4.279321e-02 9.477177e-01 -3.162278e-01
    outer loop
      vertex -1.122621e+01 5.494446e+01 7.500000e-01
      vertex -9.995806e+00 5.474976e+01 0.000000e+00
      vertex -1.120405e+01 5.469521e+01 0.000000e+00
    endloop
  endfacet
  facet normal -4.279321e-02 9.477177e-01 -3.162278e-01
    outer loop
      vertex -9.995806e+00 5.474976e+01 0.000000e+00
      vertex -1.122621e+01 5.494446e+01 7.500000e-01
      vertex -9.996202e+00 5.500000e+01 7.500000e-01
    endloop
  endfacet
  facet normal -6.089700e-01 7.931932e-01 0.000000e+00
    outer loop
      vertex -1.906618e+01 5.168979e+01 7.000000e+00
      vertex -1.808954e+01 5.243960e+01 7.500000e-01
      vertex -1.906618e+01 5.168979e+01 7.500000e-01
    endloop
  endfacet
  facet normal -6.089700e-01 7.931932e-01 0.000000e+00
    outer loop
      vertex -1.808954e+01 5.243960e+01 7.500000e-01
      vertex -1.906618e+01 5.168979e+01 7.000000e+00
      vertex -1.808954e+01 5.243960e+01 7.000000e+00
    endloop
  endfacet
  facet normal -2.063879e-01 9.259611e-01 -3.162278e-01
    outer loop
      vertex -1.364851e+01 5.451427e+01 7.500000e-01
      vertex -1.240298e+01 5.453576e+01 0.000000e+00
      vertex -1.358349e+01 5.427264e+01 0.000000e+00
    endloop
  endfacet
  facet normal -1.658677e-01 9.339792e-01 -3.164978e-01
    outer loop
      vertex -1.240298e+01 5.453576e+01 0.000000e+00
      vertex -1.364851e+01 5.451427e+01 7.500000e-01
      vertex -1.244673e+01 5.478214e+01 7.500000e-01
    endloop
  endfacet
  facet normal 9.152640e-01 -2.497979e-01 -3.160585e-01
    outer loop
      vertex -1.099847e+01 4.278583e+01 0.000000e+00
      vertex -1.063799e+01 4.315762e+01 7.500000e-01
      vertex -1.073966e+01 4.278583e+01 7.500000e-01
    endloop
  endfacet
  facet normal 9.152640e-01 -2.497979e-01 -3.160585e-01
    outer loop
      vertex -1.063799e+01 4.315762e+01 7.500000e-01
      vertex -1.099847e+01 4.278583e+01 0.000000e+00
      vertex -1.086156e+01 4.328801e+01 0.000000e+00
    endloop
  endfacet
  facet normal -6.756548e-01 7.372181e-01 0.000000e+00
    outer loop
      vertex -1.997389e+01 5.085788e+01 7.000000e+00
      vertex -1.906618e+01 5.168979e+01 7.500000e-01
      vertex -1.997389e+01 5.085788e+01 7.500000e-01
    endloop
  endfacet
  facet normal -6.756548e-01 7.372181e-01 0.000000e+00
    outer loop
      vertex -1.906618e+01 5.168979e+01 7.500000e-01
      vertex -1.997389e+01 5.085788e+01 7.000000e+00
      vertex -1.906618e+01 5.168979e+01 7.000000e+00
    endloop
  endfacet
  facet normal 2.478801e-01 9.687907e-01 0.000000e+00
    outer loop
      vertex -6.342379e+00 5.452580e+01 7.000000e+00
      vertex 2.000380e+01 4.778473e+01 7.500000e-01
      vertex -6.342379e+00 5.452580e+01 7.500000e-01
    endloop
  endfacet
  facet normal 2.478801e-01 9.687907e-01 0.000000e+00
    outer loop
      vertex 2.000380e+01 4.778473e+01 7.500000e-01
      vertex -6.342379e+00 5.452580e+01 7.000000e+00
      vertex 2.000380e+01 4.778473e+01 7.000000e+00
    endloop
  endfacet
  facet normal 4.195552e-02 9.991195e-01 0.000000e+00
    outer loop
      vertex -9.996202e+00 5.500000e+01 7.000000e+00
      vertex -8.766020e+00 5.494834e+01 7.500000e-01
      vertex -9.996202e+00 5.500000e+01 7.500000e-01
    endloop
  endfacet
  facet normal 4.195552e-02 9.991195e-01 0.000000e+00
    outer loop
      vertex -8.766020e+00 5.494834e+01 7.500000e-01
      vertex -9.996202e+00 5.500000e+01 7.000000e+00
      vertex -8.766020e+00 5.494834e+01 7.000000e+00
    endloop
  endfacet
  facet normal 1.000000e+00 -7.833571e-05 1.136868e-15
    outer loop
      vertex -9.996202e+00 4.203473e+01 7.500000e-01
      vertex -1.000380e+01 -5.500000e+01 7.000000e+00
      vertex -1.000380e+01 -5.500000e+01 7.500000e-01
    endloop
  endfacet
  facet normal 1.000000e+00 -7.833571e-05 1.136868e-15
    outer loop
      vertex -1.000380e+01 -5.500000e+01 7.000000e+00
      vertex -9.996202e+00 4.203473e+01 7.500000e-01
      vertex -9.996202e+00 4.203473e+01 7.000000e+00
    endloop
  endfacet
  facet normal -8.278718e-03 -9.486472e-01 -3.162278e-01
    outer loop
      vertex 2.000266e+01 4.252293e+01 7.500000e-01
      vertex 1.211500e+01 4.284177e+01 0.000000e+00
      vertex 1.975271e+01 4.277512e+01 0.000000e+00
    endloop
  endfacet
  facet normal -8.278718e-03 -9.486472e-01 -3.162278e-01
    outer loop
      vertex 1.211500e+01 4.284177e+01 0.000000e+00
      vertex 2.000266e+01 4.252293e+01 7.500000e-01
      vertex 1.200380e+01 4.259274e+01 7.500000e-01
    endloop
  endfacet
  facet normal 6.678870e-01 -6.737410e-01 -3.162278e-01
    outer loop
      vertex -1.036348e+01 4.342974e+01 7.500000e-01
      vertex -1.086156e+01 4.328801e+01 0.000000e+00
      vertex -1.049191e+01 4.365445e+01 0.000000e+00
    endloop
  endfacet
  facet normal 6.678870e-01 -6.737410e-01 -3.162278e-01
    outer loop
      vertex -1.086156e+01 4.328801e+01 0.000000e+00
      vertex -1.036348e+01 4.342974e+01 7.500000e-01
      vertex -1.063799e+01 4.315762e+01 7.500000e-01
    endloop
  endfacet
  facet normal -8.726535e-03 -9.999619e-01 0.000000e+00
    outer loop
      vertex 8.003801e+00 4.262765e+01 7.000000e+00
      vertex -9.246229e+00 4.277818e+01 7.500000e-01
      vertex 8.003801e+00 4.262765e+01 7.500000e-01
    endloop
  endfacet
  facet normal -8.726535e-03 -9.999619e-01 0.000000e+00
    outer loop
      vertex -9.246229e+00 4.277818e+01 7.500000e-01
      vertex 8.003801e+00 4.262765e+01 7.000000e+00
      vertex -9.246229e+00 4.277818e+01 7.000000e+00
    endloop
  endfacet
  facet normal -2.861468e-01 9.044999e-01 -3.162278e-01
    outer loop
      vertex -1.482243e+01 5.414290e+01 7.500000e-01
      vertex -1.358349e+01 5.427264e+01 0.000000e+00
      vertex -1.473664e+01 5.390783e+01 0.000000e+00
    endloop
  endfacet
  facet normal -2.861468e-01 9.044999e-01 -3.162278e-01
    outer loop
      vertex -1.358349e+01 5.427264e+01 0.000000e+00
      vertex -1.482243e+01 5.414290e+01 7.500000e-01
      vertex -1.364851e+01 5.451427e+01 7.500000e-01
    endloop
  endfacet
  facet normal 1.220965e-01 9.407935e-01 -3.162278e-01
    outer loop
      vertex -8.766020e+00 5.494834e+01 7.500000e-01
      vertex -7.587973e+00 5.454336e+01 0.000000e+00
      vertex -8.787394e+00 5.469902e+01 0.000000e+00
    endloop
  endfacet
  facet normal 1.220965e-01 9.407935e-01 -3.162278e-01
    outer loop
      vertex -7.587973e+00 5.454336e+01 0.000000e+00
      vertex -8.766020e+00 5.494834e+01 7.500000e-01
      vertex -7.544992e+00 5.478988e+01 7.500000e-01
    endloop
  endfacet
  facet normal 1.249148e-01 -9.379508e-01 -3.234882e-01
    outer loop
      vertex -9.989683e+00 4.352815e+01 7.500000e-01
      vertex -1.049191e+01 4.365445e+01 0.000000e+00
      vertex -9.988554e+00 4.378697e+01 0.000000e+00
    endloop
  endfacet
  facet normal 2.415366e-01 -9.174203e-01 -3.162278e-01
    outer loop
      vertex -1.049191e+01 4.365445e+01 0.000000e+00
      vertex -9.989683e+00 4.352815e+01 7.500000e-01
      vertex -1.036348e+01 4.342974e+01 7.500000e-01
    endloop
  endfacet
  facet normal 2.763661e-15 -9.486833e-01 -3.162278e-01
    outer loop
      vertex -1.000380e+01 -5.500000e+01 7.500000e-01
      vertex -1.975374e+01 -5.475000e+01 0.000000e+00
      vertex -1.025380e+01 -5.475000e+01 0.000000e+00
    endloop
  endfacet
  facet normal 2.763661e-15 -9.486833e-01 -3.162278e-01
    outer loop
      vertex -1.975374e+01 -5.475000e+01 0.000000e+00
      vertex -1.000380e+01 -5.500000e+01 7.500000e-01
      vertex -2.000380e+01 -5.500000e+01 7.500000e-01
    endloop
  endfacet
  facet normal -4.510801e-02 9.989821e-01 0.000000e+00
    outer loop
      vertex -1.122621e+01 5.494446e+01 7.000000e+00
      vertex -9.996202e+00 5.500000e+01 7.500000e-01
      vertex -1.122621e+01 5.494446e+01 7.500000e-01
    endloop
  endfacet
  facet normal -4.510801e-02 9.989821e-01 0.000000e+00
    outer loop
      vertex -9.996202e+00 5.500000e+01 7.500000e-01
      vertex -1.122621e+01 5.494446e+01 7.000000e+00
      vertex -9.996202e+00 5.500000e+01 7.000000e+00
    endloop
  endfacet
  facet normal 2.495333e-01 9.152776e-01 -3.162278e-01
    outer loop
      vertex -1.036912e+01 4.213640e+01 7.500000e-01
      vertex -1.024620e+01 4.184377e+01 0.000000e+00
      vertex -1.049951e+01 4.191282e+01 0.000000e+00
    endloop
  endfacet
  facet normal 2.495333e-01 9.152776e-01 -3.162278e-01
    outer loop
      vertex -1.024620e+01 4.184377e+01 0.000000e+00
      vertex -1.036912e+01 4.213640e+01 7.500000e-01
      vertex -9.996202e+00 4.203473e+01 7.500000e-01
    endloop
  endfacet
  facet normal -9.670459e-01 -2.546019e-01 0.000000e+00
    outer loop
      vertex -9.344641e+00 4.315198e+01 7.000000e+00
      vertex -9.246229e+00 4.277818e+01 7.500000e-01
      vertex -9.246229e+00 4.277818e+01 7.000000e+00
    endloop
  endfacet
  facet normal -9.670459e-01 -2.546019e-01 0.000000e+00
    outer loop
      vertex -9.246229e+00 4.277818e+01 7.500000e-01
      vertex -9.344641e+00 4.315198e+01 7.000000e+00
      vertex -9.344641e+00 4.315198e+01 7.500000e-01
    endloop
  endfacet
  facet normal -5.777197e-01 7.524891e-01 -3.162278e-01
    outer loop
      vertex -1.906618e+01 5.168979e+01 7.500000e-01
      vertex -1.794594e+01 5.223467e+01 0.000000e+00
      vertex -1.890529e+01 5.149813e+01 0.000000e+00
    endloop
  endfacet
  facet normal -5.777197e-01 7.524891e-01 -3.162278e-01
    outer loop
      vertex -1.794594e+01 5.223467e+01 0.000000e+00
      vertex -1.906618e+01 5.168979e+01 7.500000e-01
      vertex -1.808954e+01 5.243960e+01 7.500000e-01
    endloop
  endfacet
  facet normal 6.737410e-01 6.678870e-01 -3.162278e-01
    outer loop
      vertex -1.086595e+01 4.228248e+01 0.000000e+00
      vertex -1.036912e+01 4.213640e+01 7.500000e-01
      vertex -1.049951e+01 4.191282e+01 0.000000e+00
    endloop
  endfacet
  facet normal 6.737410e-01 6.678870e-01 -3.162278e-01
    outer loop
      vertex -1.036912e+01 4.213640e+01 7.500000e-01
      vertex -1.086595e+01 4.228248e+01 0.000000e+00
      vertex -1.064124e+01 4.241090e+01 7.500000e-01
    endloop
  endfacet
  facet normal 2.842171e-15 -1.000000e+00 3.231174e-30
    outer loop
      vertex -1.000380e+01 -5.500000e+01 7.000000e+00
      vertex -2.000380e+01 -5.500000e+01 7.500000e-01
      vertex -1.000380e+01 -5.500000e+01 7.500000e-01
    endloop
  endfacet
  facet normal 2.842171e-15 -1.000000e+00 3.231174e-30
    outer loop
      vertex -2.000380e+01 -5.500000e+01 7.500000e-01
      vertex -1.000380e+01 -5.500000e+01 7.000000e+00
      vertex -2.000380e+01 -5.500000e+01 7.000000e+00
    endloop
  endfacet
  facet normal -4.385694e-01 8.412234e-01 -3.162278e-01
    outer loop
      vertex -1.705140e+01 5.310161e+01 7.500000e-01
      vertex -1.585369e+01 5.344410e+01 0.000000e+00
      vertex -1.692616e+01 5.288496e+01 0.000000e+00
    endloop
  endfacet
  facet normal -4.385694e-01 8.412234e-01 -3.162278e-01
    outer loop
      vertex -1.585369e+01 5.344410e+01 0.000000e+00
      vertex -1.705140e+01 5.310161e+01 7.500000e-01
      vertex -1.595960e+01 5.367081e+01 7.500000e-01
    endloop
  endfacet
  facet normal -1.318296e-01 9.912724e-01 0.000000e+00
    outer loop
      vertex -1.244673e+01 5.478214e+01 7.000000e+00
      vertex -1.122621e+01 5.494446e+01 7.500000e-01
      vertex -1.244673e+01 5.478214e+01 7.500000e-01
    endloop
  endfacet
  facet normal -1.318296e-01 9.912724e-01 0.000000e+00
    outer loop
      vertex -1.122621e+01 5.494446e+01 7.500000e-01
      vertex -1.244673e+01 5.478214e+01 7.000000e+00
      vertex -1.122621e+01 5.494446e+01 7.000000e+00
    endloop
  endfacet
  facet normal 7.040147e-01 -7.101853e-01 0.000000e+00
    outer loop
      vertex -1.036348e+01 4.342974e+01 7.000000e+00
      vertex -1.063799e+01 4.315762e+01 7.500000e-01
      vertex -1.036348e+01 4.342974e+01 7.500000e-01
    endloop
  endfacet
  facet normal 7.040147e-01 -7.101853e-01 0.000000e+00
    outer loop
      vertex -1.063799e+01 4.315762e+01 7.500000e-01
      vertex -1.036348e+01 4.342974e+01 7.000000e+00
      vertex -1.063799e+01 4.315762e+01 7.000000e+00
    endloop
  endfacet
  facet normal 1.000000e+00 -2.170947e-04 0.000000e+00
    outer loop
      vertex 2.000380e+01 4.778473e+01 7.500000e-01
      vertex 2.000266e+01 4.252293e+01 7.000000e+00
      vertex 2.000266e+01 4.252293e+01 7.500000e-01
    endloop
  endfacet
  facet normal 1.000000e+00 -2.170947e-04 0.000000e+00
    outer loop
      vertex 2.000266e+01 4.252293e+01 7.000000e+00
      vertex 2.000380e+01 4.778473e+01 7.500000e-01
      vertex 2.000380e+01 4.778473e+01 7.000000e+00
    endloop
  endfacet
  facet normal 2.630312e-01 9.647873e-01 0.000000e+00
    outer loop
      vertex -1.036912e+01 4.213640e+01 7.000000e+00
      vertex -9.996202e+00 4.203473e+01 7.500000e-01
      vertex -1.036912e+01 4.213640e+01 7.500000e-01
    endloop
  endfacet
  facet normal 2.630312e-01 9.647873e-01 0.000000e+00
    outer loop
      vertex -9.996202e+00 4.203473e+01 7.500000e-01
      vertex -1.036912e+01 4.213640e+01 7.000000e+00
      vertex -9.996202e+00 4.203473e+01 7.000000e+00
    endloop
  endfacet
  facet normal -2.634018e-01 -9.646862e-01 -2.379693e-05
    outer loop
      vertex -9.616766e+00 4.342648e+01 7.000000e+00
      vertex -9.988554e+00 4.352815e+01 7.500000e-01
      vertex -9.616766e+00 4.342648e+01 7.500000e-01
    endloop
  endfacet
  facet normal -1.328942e-01 -9.911302e-01 -1.200628e-05
    outer loop
      vertex -9.988554e+00 4.352815e+01 7.500000e-01
      vertex -9.616766e+00 4.342648e+01 7.000000e+00
      vertex -9.989683e+00 4.352815e+01 7.000000e+00
    endloop
  endfacet
  facet normal -2.633725e-01 -9.646942e-01 -2.379429e-05
    outer loop
      vertex -9.989683e+00 4.352815e+01 7.000000e+00
      vertex -9.989683e+00 4.352815e+01 7.500000e-01
      vertex -9.988554e+00 4.352815e+01 7.500000e-01
    endloop
  endfacet
  facet normal 6.956722e-01 -6.450118e-01 -3.162278e-01
    outer loop
      vertex 7.895555e+00 4.287860e+01 0.000000e+00
      vertex 1.000380e+01 4.478473e+01 7.500000e-01
      vertex 8.003801e+00 4.262765e+01 7.500000e-01
    endloop
  endfacet
  facet normal 6.956722e-01 -6.450118e-01 -3.162278e-01
    outer loop
      vertex 1.000380e+01 4.478473e+01 7.500000e-01
      vertex 7.895555e+00 4.287860e+01 0.000000e+00
      vertex 1.000527e+01 4.515402e+01 0.000000e+00
    endloop
  endfacet
  facet normal -9.999999e-01 2.825850e-04 0.000000e+00
    outer loop
      vertex -1.997389e+01 5.085788e+01 7.000000e+00
      vertex -2.000380e+01 -5.500000e+01 7.500000e-01
      vertex -2.000380e+01 -5.500000e+01 7.000000e+00
    endloop
  endfacet
  facet normal -9.999999e-01 2.825850e-04 0.000000e+00
    outer loop
      vertex -2.000380e+01 -5.500000e+01 7.500000e-01
      vertex -1.997389e+01 5.085788e+01 7.000000e+00
      vertex -1.997389e+01 5.085788e+01 7.500000e-01
    endloop
  endfacet
  facet normal -2.175519e-01 9.760488e-01 0.000000e+00
    outer loop
      vertex -1.364851e+01 5.451427e+01 7.000000e+00
      vertex -1.244673e+01 5.478214e+01 7.500000e-01
      vertex -1.364851e+01 5.451427e+01 7.500000e-01
    endloop
  endfacet
  facet normal -2.175519e-01 9.760488e-01 0.000000e+00
    outer loop
      vertex -1.244673e+01 5.478214e+01 7.500000e-01
      vertex -1.364851e+01 5.451427e+01 7.000000e+00
      vertex -1.244673e+01 5.478214e+01 7.000000e+00
    endloop
  endfacet
  facet normal -8.726535e-03 -9.999619e-01 0.000000e+00
    outer loop
      vertex 2.000266e+01 4.252293e+01 7.000000e+00
      vertex 1.200380e+01 4.259274e+01 7.500000e-01
      vertex 2.000266e+01 4.252293e+01 7.500000e-01
    endloop
  endfacet
  facet normal -8.726535e-03 -9.999619e-01 0.000000e+00
    outer loop
      vertex 1.200380e+01 4.259274e+01 7.500000e-01
      vertex 2.000266e+01 4.252293e+01 7.000000e+00
      vertex 1.200380e+01 4.259274e+01 7.000000e+00
    endloop
  endfacet
  facet normal 1.287010e-01 9.916834e-01 0.000000e+00
    outer loop
      vertex -8.766020e+00 5.494834e+01 7.000000e+00
      vertex -7.544992e+00 5.478988e+01 7.500000e-01
      vertex -8.766020e+00 5.494834e+01 7.500000e-01
    endloop
  endfacet
  facet normal 1.287010e-01 9.916834e-01 0.000000e+00
    outer loop
      vertex -7.544992e+00 5.478988e+01 7.500000e-01
      vertex -8.766020e+00 5.494834e+01 7.000000e+00
      vertex -7.544992e+00 5.478988e+01 7.000000e+00
    endloop
  endfacet
  facet normal -5.376692e-01 8.431559e-01 0.000000e+00
    outer loop
      vertex -1.808954e+01 5.243960e+01 7.000000e+00
      vertex -1.705140e+01 5.310161e+01 7.500000e-01
      vertex -1.808954e+01 5.243960e+01 7.500000e-01
    endloop
  endfacet
  facet normal -5.376692e-01 8.431559e-01 0.000000e+00
    outer loop
      vertex -1.705140e+01 5.310161e+01 7.500000e-01
      vertex -1.808954e+01 5.243960e+01 7.000000e+00
      vertex -1.705140e+01 5.310161e+01 7.000000e+00
    endloop
  endfacet
  facet normal -2.497979e-01 -9.152640e-01 -3.160585e-01
    outer loop
      vertex -9.616766e+00 4.342648e+01 7.500000e-01
      vertex -9.988554e+00 4.378697e+01 0.000000e+00
      vertex -9.486380e+00 4.365006e+01 0.000000e+00
    endloop
  endfacet
  facet normal -2.497979e-01 -9.152640e-01 -3.160585e-01
    outer loop
      vertex -9.988554e+00 4.378697e+01 0.000000e+00
      vertex -9.616766e+00 4.342648e+01 7.500000e-01
      vertex -9.988554e+00 4.352815e+01 7.500000e-01
    endloop
  endfacet
  facet normal 9.486824e-01 -7.448457e-05 -3.162304e-01
    outer loop
      vertex -1.025380e+01 -5.475000e+01 0.000000e+00
      vertex -9.996202e+00 4.203473e+01 7.500000e-01
      vertex -1.000380e+01 -5.500000e+01 7.500000e-01
    endloop
  endfacet
  facet normal 9.486824e-01 -7.448457e-05 -3.162304e-01
    outer loop
      vertex -9.996202e+00 4.203473e+01 7.500000e-01
      vertex -1.025380e+01 -5.475000e+01 0.000000e+00
      vertex -1.024620e+01 4.184377e+01 0.000000e+00
    endloop
  endfacet
  facet normal -8.278718e-03 -9.486472e-01 -3.162278e-01
    outer loop
      vertex 8.003801e+00 4.262765e+01 7.500000e-01
      vertex -9.053087e+00 4.302651e+01 0.000000e+00
      vertex 7.895555e+00 4.287860e+01 0.000000e+00
    endloop
  endfacet
  facet normal -8.278718e-03 -9.486472e-01 -3.162278e-01
    outer loop
      vertex -9.053087e+00 4.302651e+01 0.000000e+00
      vertex 8.003801e+00 4.262765e+01 7.500000e-01
      vertex -9.246229e+00 4.277818e+01 7.500000e-01
    endloop
  endfacet
  facet normal -4.622928e-01 8.867273e-01 0.000000e+00
    outer loop
      vertex -1.705140e+01 5.310161e+01 7.000000e+00
      vertex -1.595960e+01 5.367081e+01 7.500000e-01
      vertex -1.705140e+01 5.310161e+01 7.500000e-01
    endloop
  endfacet
  facet normal -4.622928e-01 8.867273e-01 0.000000e+00
    outer loop
      vertex -1.595960e+01 5.367081e+01 7.500000e-01
      vertex -1.705140e+01 5.310161e+01 7.000000e+00
      vertex -1.595960e+01 5.367081e+01 7.000000e+00
    endloop
  endfacet
  facet normal -5.100778e-01 7.998879e-01 -3.162278e-01
    outer loop
      vertex -1.808954e+01 5.243960e+01 7.500000e-01
      vertex -1.692616e+01 5.288496e+01 0.000000e+00
      vertex -1.794594e+01 5.223467e+01 0.000000e+00
    endloop
  endfacet
  facet normal -5.100778e-01 7.998879e-01 -3.162278e-01
    outer loop
      vertex -1.692616e+01 5.288496e+01 0.000000e+00
      vertex -1.808954e+01 5.243960e+01 7.500000e-01
      vertex -1.705140e+01 5.310161e+01 7.500000e-01
    endloop
  endfacet
  facet normal -9.174203e-01 -2.415366e-01 -3.162278e-01
    outer loop
      vertex -9.344641e+00 4.315198e+01 7.500000e-01
      vertex -9.053087e+00 4.302651e+01 0.000000e+00
      vertex -9.246229e+00 4.277818e+01 7.500000e-01
    endloop
  endfacet
  facet normal -9.174203e-01 -2.415366e-01 -3.162278e-01
    outer loop
      vertex -9.053087e+00 4.302651e+01 0.000000e+00
      vertex -9.344641e+00 4.315198e+01 7.500000e-01
      vertex -9.119936e+00 4.328041e+01 0.000000e+00
    endloop
  endfacet
  facet normal -9.486840e-01 2.681311e-04 -3.162254e-01
    outer loop
      vertex -1.997389e+01 5.085788e+01 7.500000e-01
      vertex -1.975374e+01 -5.475000e+01 0.000000e+00
      vertex -2.000380e+01 -5.500000e+01 7.500000e-01
    endloop
  endfacet
  facet normal -9.486840e-01 2.681311e-04 -3.162254e-01
    outer loop
      vertex -1.975374e+01 -5.475000e+01 0.000000e+00
      vertex -1.997389e+01 5.085788e+01 7.500000e-01
      vertex -1.972392e+01 5.074786e+01 0.000000e+00
    endloop
  endfacet
  facet normal 2.034650e-01 9.266078e-01 -3.162278e-01
    outer loop
      vertex -7.544992e+00 5.478988e+01 7.500000e-01
      vertex -6.400190e+00 5.428255e+01 0.000000e+00
      vertex -7.587973e+00 5.454336e+01 0.000000e+00
    endloop
  endfacet
  facet normal 2.034650e-01 9.266078e-01 -3.162278e-01
    outer loop
      vertex -6.400190e+00 5.428255e+01 0.000000e+00
      vertex -7.544992e+00 5.478988e+01 7.500000e-01
      vertex -6.342379e+00 5.452580e+01 7.500000e-01
    endloop
  endfacet
  facet normal 2.351597e-01 9.190756e-01 -3.162278e-01
    outer loop
      vertex -6.342379e+00 5.452580e+01 7.500000e-01
      vertex 1.975376e+01 4.759065e+01 0.000000e+00
      vertex -6.400190e+00 5.428255e+01 0.000000e+00
    endloop
  endfacet
  facet normal 2.351597e-01 9.190756e-01 -3.162278e-01
    outer loop
      vertex 1.975376e+01 4.759065e+01 0.000000e+00
      vertex -6.342379e+00 5.452580e+01 7.500000e-01
      vertex 2.000380e+01 4.778473e+01 7.500000e-01
    endloop
  endfacet
  facet normal 9.670459e-01 2.546019e-01 0.000000e+00
    outer loop
      vertex -1.073966e+01 4.278470e+01 7.500000e-01
      vertex -1.064124e+01 4.241090e+01 7.000000e+00
      vertex -1.064124e+01 4.241090e+01 7.500000e-01
    endloop
  endfacet
  facet normal 9.670459e-01 2.546019e-01 0.000000e+00
    outer loop
      vertex -1.064124e+01 4.241090e+01 7.000000e+00
      vertex -1.073966e+01 4.278470e+01 7.500000e-01
      vertex -1.073966e+01 4.278470e+01 7.000000e+00
    endloop
  endfacet
  facet normal 7.101853e-01 7.040147e-01 0.000000e+00
    outer loop
      vertex -1.064124e+01 4.241090e+01 7.500000e-01
      vertex -1.036912e+01 4.213640e+01 7.000000e+00
      vertex -1.036912e+01 4.213640e+01 7.500000e-01
    endloop
  endfacet
  facet normal 7.101853e-01 7.040147e-01 0.000000e+00
    outer loop
      vertex -1.036912e+01 4.213640e+01 7.000000e+00
      vertex -1.064124e+01 4.241090e+01 7.500000e-01
      vertex -1.064124e+01 4.241090e+01 7.000000e+00
    endloop
  endfacet
  facet normal -3.016252e-01 9.534266e-01 0.000000e+00
    outer loop
      vertex -1.482243e+01 5.414290e+01 7.000000e+00
      vertex -1.364851e+01 5.451427e+01 7.500000e-01
      vertex -1.482243e+01 5.414290e+01 7.500000e-01
    endloop
  endfacet
  facet normal -3.016252e-01 9.534266e-01 0.000000e+00
    outer loop
      vertex -1.364851e+01 5.451427e+01 7.500000e-01
      vertex -1.482243e+01 5.414290e+01 7.000000e+00
      vertex -1.364851e+01 5.451427e+01 7.000000e+00
    endloop
  endfacet
  facet normal 9.647873e-01 -2.630313e-01 -1.864106e-06
    outer loop
      vertex -1.063799e+01 4.315762e+01 7.000000e+00
      vertex -1.073966e+01 4.278583e+01 7.500000e-01
      vertex -1.063799e+01 4.315762e+01 7.500000e-01
    endloop
  endfacet
  facet normal 9.647873e-01 -2.630313e-01 -1.864106e-06
    outer loop
      vertex -1.063799e+01 4.315762e+01 7.000000e+00
      vertex -1.073966e+01 4.278470e+01 7.500000e-01
      vertex -1.073966e+01 4.278583e+01 7.500000e-01
    endloop
  endfacet
  facet normal 9.647873e-01 -2.630313e-01 -1.864106e-06
    outer loop
      vertex -1.063799e+01 4.315762e+01 7.000000e+00
      vertex -1.073966e+01 4.278470e+01 7.000000e+00
      vertex -1.073966e+01 4.278470e+01 7.500000e-01
    endloop
  endfacet
  facet normal 2.546019e-01 -9.670459e-01 0.000000e+00
    outer loop
      vertex -9.989683e+00 4.352815e+01 7.000000e+00
      vertex -1.036348e+01 4.342974e+01 7.500000e-01
      vertex -9.989683e+00 4.352815e+01 7.500000e-01
    endloop
  endfacet
  facet normal 2.546019e-01 -9.670459e-01 0.000000e+00
    outer loop
      vertex -1.036348e+01 4.342974e+01 7.500000e-01
      vertex -9.989683e+00 4.352815e+01 7.000000e+00
      vertex -1.036348e+01 4.342974e+01 7.000000e+00
    endloop
  endfacet
  facet normal -7.101853e-01 -7.040147e-01 0.000000e+00
    outer loop
      vertex -9.616766e+00 4.342648e+01 7.000000e+00
      vertex -9.344641e+00 4.315198e+01 7.500000e-01
      vertex -9.344641e+00 4.315198e+01 7.000000e+00
    endloop
  endfacet
  facet normal -7.101853e-01 -7.040147e-01 0.000000e+00
    outer loop
      vertex -9.344641e+00 4.315198e+01 7.500000e-01
      vertex -9.616766e+00 4.342648e+01 7.000000e+00
      vertex -9.616766e+00 4.342648e+01 7.500000e-01
    endloop
  endfacet
  facet normal -6.409824e-01 6.993865e-01 -3.162278e-01
    outer loop
      vertex -1.997389e+01 5.085788e+01 7.500000e-01
      vertex -1.890529e+01 5.149813e+01 0.000000e+00
      vertex -1.972392e+01 5.074786e+01 0.000000e+00
    endloop
  endfacet
  facet normal -6.409824e-01 6.993865e-01 -3.162278e-01
    outer loop
      vertex -1.890529e+01 5.149813e+01 0.000000e+00
      vertex -1.997389e+01 5.085788e+01 7.500000e-01
      vertex -1.906618e+01 5.168979e+01 7.500000e-01
    endloop
  endfacet
  facet normal 9.486833e-01 -2.059541e-04 -3.162278e-01
    outer loop
      vertex 1.975271e+01 4.277512e+01 0.000000e+00
      vertex 2.000380e+01 4.778473e+01 7.500000e-01
      vertex 2.000266e+01 4.252293e+01 7.500000e-01
    endloop
  endfacet
  facet normal 9.486833e-01 -2.059541e-04 -3.162278e-01
    outer loop
      vertex 2.000380e+01 4.778473e+01 7.500000e-01
      vertex 1.975271e+01 4.277512e+01 0.000000e+00
      vertex 1.975376e+01 4.759065e+01 0.000000e+00
    endloop
  endfacet
  facet normal 3.980250e-02 9.478480e-01 -3.162278e-01
    outer loop
      vertex -9.996202e+00 5.500000e+01 7.500000e-01
      vertex -8.787394e+00 5.469902e+01 0.000000e+00
      vertex -9.995806e+00 5.474976e+01 0.000000e+00
    endloop
  endfacet
  facet normal 3.980250e-02 9.478480e-01 -3.162278e-01
    outer loop
      vertex -8.787394e+00 5.469902e+01 0.000000e+00
      vertex -9.996202e+00 5.500000e+01 7.500000e-01
      vertex -8.766020e+00 5.494834e+01 7.500000e-01
    endloop
  endfacet
  facet normal -7.008090e-01 -6.394269e-01 -3.162278e-01
    outer loop
      vertex 1.000380e+01 4.478473e+01 7.500000e-01
      vertex 1.211500e+01 4.284177e+01 0.000000e+00
      vertex 1.200380e+01 4.259274e+01 7.500000e-01
    endloop
  endfacet
  facet normal -7.008090e-01 -6.394269e-01 -3.162278e-01
    outer loop
      vertex 1.211500e+01 4.284177e+01 0.000000e+00
      vertex 1.000380e+01 4.478473e+01 7.500000e-01
      vertex 1.000527e+01 4.515402e+01 0.000000e+00
    endloop
  endfacet
  facet normal -3.834121e-01 9.235774e-01 0.000000e+00
    outer loop
      vertex -1.595960e+01 5.367081e+01 7.000000e+00
      vertex -1.482243e+01 5.414290e+01 7.500000e-01
      vertex -1.595960e+01 5.367081e+01 7.500000e-01
    endloop
  endfacet
  facet normal -3.834121e-01 9.235774e-01 0.000000e+00
    outer loop
      vertex -1.482243e+01 5.414290e+01 7.500000e-01
      vertex -1.595960e+01 5.367081e+01 7.000000e+00
      vertex -1.482243e+01 5.414290e+01 7.000000e+00
    endloop
  endfacet
  facet normal 7.333029e-01 -6.799021e-01 0.000000e+00
    outer loop
      vertex 1.000380e+01 4.478473e+01 7.500000e-01
      vertex 8.003801e+00 4.262765e+01 7.000000e+00
      vertex 8.003801e+00 4.262765e+01 7.500000e-01
    endloop
  endfacet
  facet normal 7.333029e-01 -6.799021e-01 0.000000e+00
    outer loop
      vertex 8.003801e+00 4.262765e+01 7.000000e+00
      vertex 1.000380e+01 4.478473e+01 7.500000e-01
      vertex 1.000380e+01 4.478473e+01 7.000000e+00
    endloop
  endfacet
  facet normal -7.387176e-01 -6.740151e-01 0.000000e+00
    outer loop
      vertex 1.000380e+01 4.478473e+01 7.000000e+00
      vertex 1.200380e+01 4.259274e+01 7.500000e-01
      vertex 1.200380e+01 4.259274e+01 7.000000e+00
    endloop
  endfacet
  facet normal -7.387176e-01 -6.740151e-01 0.000000e+00
    outer loop
      vertex 1.200380e+01 4.259274e+01 7.500000e-01
      vertex 1.000380e+01 4.478473e+01 7.000000e+00
      vertex 1.000380e+01 4.478473e+01 7.500000e-01
    endloop
  endfacet
endsolid Default
