solid Default
  facet normal 9.488329e-01 -2.078906e-04 -3.157784e-01
    outer loop
      vertex 5.396272e+00 -6.521958e+00 5.773995e-01
      vertex 5.453008e+00 -9.952846e+00 7.500000e-01
      vertex 5.452501e+00 -1.245285e+01 7.500000e-01
    endloop
  endfacet
  facet normal 9.489878e-01 -1.889278e-04 -3.153129e-01
    outer loop
      vertex 5.453008e+00 -9.952846e+00 7.500000e-01
      vertex 5.396272e+00 -6.521958e+00 5.773995e-01
      vertex 5.424945e+00 -6.521958e+00 6.635583e-01
    endloop
  endfacet
  facet normal 9.489024e-01 -1.919260e-04 -3.155697e-01
    outer loop
      vertex 5.424945e+00 -6.521958e+00 6.635583e-01
      vertex 5.396272e+00 -6.521958e+00 5.773995e-01
      vertex 5.207435e+00 8.298305e+00 2.028299e-14
    endloop
  endfacet
  facet normal -7.234004e-01 6.137522e-01 -3.162278e-01
    outer loop
      vertex 2.126568e+00 -9.747630e+00 7.500000e-01
      vertex 2.461732e+00 -9.739017e+00 2.028299e-14
      vertex 2.297060e+00 -9.933108e+00 2.028299e-14
    endloop
  endfacet
  facet normal -7.234004e-01 6.137522e-01 -3.162278e-01
    outer loop
      vertex 2.461732e+00 -9.739017e+00 2.028299e-14
      vertex 2.126568e+00 -9.747630e+00 7.500000e-01
      vertex 2.250958e+00 -9.601016e+00 7.500000e-01
    endloop
  endfacet
  facet normal -2.750488e-15 -1.000000e+00 0.000000e+00
    outer loop
      vertex 5.452501e+00 -1.245285e+01 7.500000e-01
      vertex 1.952501e+00 -1.245285e+01 3.095288e+00
      vertex -2.297499e+00 -1.245285e+01 7.500000e-01
    endloop
  endfacet
  facet normal -2.750488e-15 -1.000000e+00 0.000000e+00
    outer loop
      vertex 1.952501e+00 -1.245285e+01 3.095288e+00
      vertex 5.452501e+00 -1.245285e+01 7.500000e-01
      vertex 2.227020e+00 -1.245285e+01 3.369807e+00
    endloop
  endfacet
  facet normal -2.750488e-15 -1.000000e+00 0.000000e+00
    outer loop
      vertex 2.227020e+00 -1.245285e+01 3.369807e+00
      vertex 5.452501e+00 -1.245285e+01 7.500000e-01
      vertex 5.452501e+00 -1.245285e+01 7.000000e+00
    endloop
  endfacet
  facet normal -2.750488e-15 -1.000000e+00 0.000000e+00
    outer loop
      vertex -2.297499e+00 -1.245285e+01 7.500000e-01
      vertex 1.952501e+00 -1.245285e+01 3.095288e+00
      vertex 1.577501e+00 -1.245285e+01 2.994807e+00
    endloop
  endfacet
  facet normal -2.750488e-15 -1.000000e+00 0.000000e+00
    outer loop
      vertex 2.227020e+00 -1.245285e+01 3.369807e+00
      vertex 5.452501e+00 -1.245285e+01 7.000000e+00
      vertex 2.327501e+00 -1.245285e+01 3.744807e+00
    endloop
  endfacet
  facet normal -2.750488e-15 -1.000000e+00 0.000000e+00
    outer loop
      vertex 2.327501e+00 -1.245285e+01 3.744807e+00
      vertex 5.452501e+00 -1.245285e+01 7.000000e+00
      vertex 2.227020e+00 -1.245285e+01 4.119807e+00
    endloop
  endfacet
  facet normal -2.750488e-15 -1.000000e+00 0.000000e+00
    outer loop
      vertex 2.227020e+00 -1.245285e+01 4.119807e+00
      vertex 5.452501e+00 -1.245285e+01 7.000000e+00
      vertex 1.952501e+00 -1.245285e+01 4.394326e+00
    endloop
  endfacet
  facet normal -2.750488e-15 -1.000000e+00 0.000000e+00
    outer loop
      vertex 1.952501e+00 -1.245285e+01 4.394326e+00
      vertex 5.452501e+00 -1.245285e+01 7.000000e+00
      vertex 1.577501e+00 -1.245285e+01 4.494807e+00
    endloop
  endfacet
  facet normal -2.750488e-15 -1.000000e+00 0.000000e+00
    outer loop
      vertex -2.297499e+00 -1.245285e+01 7.500000e-01
      vertex 9.279823e-01 -1.245285e+01 3.369807e+00
      vertex -2.297499e+00 -1.245285e+01 7.000000e+00
    endloop
  endfacet
  facet normal -2.750488e-15 -1.000000e+00 0.000000e+00
    outer loop
      vertex 9.279823e-01 -1.245285e+01 3.369807e+00
      vertex -2.297499e+00 -1.245285e+01 7.500000e-01
      vertex 1.202501e+00 -1.245285e+01 3.095288e+00
    endloop
  endfacet
  facet normal -2.750488e-15 -1.000000e+00 0.000000e+00
    outer loop
      vertex 1.202501e+00 -1.245285e+01 3.095288e+00
      vertex -2.297499e+00 -1.245285e+01 7.500000e-01
      vertex 1.577501e+00 -1.245285e+01 2.994807e+00
    endloop
  endfacet
  facet normal -2.750488e-15 -1.000000e+00 0.000000e+00
    outer loop
      vertex -2.297499e+00 -1.245285e+01 7.000000e+00
      vertex 9.279823e-01 -1.245285e+01 3.369807e+00
      vertex 8.275013e-01 -1.245285e+01 3.744807e+00
    endloop
  endfacet
  facet normal -2.750488e-15 -1.000000e+00 0.000000e+00
    outer loop
      vertex -2.297499e+00 -1.245285e+01 7.000000e+00
      vertex 8.275013e-01 -1.245285e+01 3.744807e+00
      vertex 9.279823e-01 -1.245285e+01 4.119807e+00
    endloop
  endfacet
  facet normal -2.750488e-15 -1.000000e+00 0.000000e+00
    outer loop
      vertex -2.297499e+00 -1.245285e+01 7.000000e+00
      vertex 9.279823e-01 -1.245285e+01 4.119807e+00
      vertex 1.202501e+00 -1.245285e+01 4.394326e+00
    endloop
  endfacet
  facet normal -2.750488e-15 -1.000000e+00 0.000000e+00
    outer loop
      vertex -2.297499e+00 -1.245285e+01 7.000000e+00
      vertex 1.202501e+00 -1.245285e+01 4.394326e+00
      vertex 1.577501e+00 -1.245285e+01 4.494807e+00
    endloop
  endfacet
  facet normal -2.750488e-15 -1.000000e+00 0.000000e+00
    outer loop
      vertex -2.297499e+00 -1.245285e+01 7.000000e+00
      vertex 1.577501e+00 -1.245285e+01 4.494807e+00
      vertex 5.452501e+00 -1.245285e+01 7.000000e+00
    endloop
  endfacet
  facet normal -1.143963e-01 9.934352e-01 -1.555777e-15
    outer loop
      vertex 5.561371e-01 1.289573e+01 7.000000e+00
      vertex 1.577821e+00 1.301338e+01 7.500000e-01
      vertex 5.561371e-01 1.289573e+01 7.500000e-01
    endloop
  endfacet
  facet normal -1.143963e-01 9.934352e-01 -1.555777e-15
    outer loop
      vertex 1.577821e+00 1.301338e+01 7.500000e-01
      vertex 5.561371e-01 1.289573e+01 7.000000e+00
      vertex 1.577821e+00 1.301338e+01 7.000000e+00
    endloop
  endfacet
  facet normal -5.164845e-01 7.957662e-01 -3.162278e-01
    outer loop
      vertex -4.908444e+00 -9.897075e+00 7.500000e-01
      vertex -4.208579e+00 -9.740874e+00 2.028299e-14
      vertex -4.730044e+00 -1.007933e+01 2.028299e-14
    endloop
  endfacet
  facet normal -5.164845e-01 7.957662e-01 -3.162278e-01
    outer loop
      vertex -4.208579e+00 -9.740874e+00 2.028299e-14
      vertex -4.908444e+00 -9.897075e+00 7.500000e-01
      vertex -4.302390e+00 -9.503722e+00 7.500000e-01
    endloop
  endfacet
  facet normal -9.453272e-01 7.972781e-02 -3.162278e-01
    outer loop
      vertex 2.375304e+00 -9.240249e+00 7.500000e-01
      vertex 2.956545e+00 -5.323270e+00 2.028299e-14
      vertex 2.623116e+00 -9.276710e+00 2.028299e-14
    endloop
  endfacet
  facet normal -9.453591e-01 7.934821e-02 -3.162278e-01
    outer loop
      vertex 2.956545e+00 -5.323270e+00 2.028299e-14
      vertex 2.375304e+00 -9.240249e+00 7.500000e-01
      vertex 2.707418e+00 -5.302386e+00 7.500000e-01
    endloop
  endfacet
  facet normal -5.164845e-01 -7.957662e-01 -3.162278e-01
    outer loop
      vertex -4.302390e+00 -1.290197e+01 7.500000e-01
      vertex -4.730044e+00 -1.232637e+01 2.028299e-14
      vertex -4.208579e+00 -1.266482e+01 2.028299e-14
    endloop
  endfacet
  facet normal -5.164845e-01 -7.957662e-01 -3.162278e-01
    outer loop
      vertex -4.730044e+00 -1.232637e+01 2.028299e-14
      vertex -4.302390e+00 -1.290197e+01 7.500000e-01
      vertex -4.908444e+00 -1.250862e+01 7.500000e-01
    endloop
  endfacet
  facet normal -3.631665e-01 9.317243e-01 0.000000e+00
    outer loop
      vertex 1.790875e+00 -9.929088e+00 7.000000e+00
      vertex 1.970019e+00 -9.859260e+00 7.500000e-01
      vertex 1.790875e+00 -9.929088e+00 7.500000e-01
    endloop
  endfacet
  facet normal -3.631665e-01 9.317243e-01 0.000000e+00
    outer loop
      vertex 1.970019e+00 -9.859260e+00 7.500000e-01
      vertex 1.790875e+00 -9.929088e+00 7.000000e+00
      vertex 1.970019e+00 -9.859260e+00 7.000000e+00
    endloop
  endfacet
  facet normal 5.797442e-01 8.147986e-01 0.000000e+00
    outer loop
      vertex -2.886204e+00 -9.533973e+00 7.000000e+00
      vertex -2.297499e+00 -9.952846e+00 7.500000e-01
      vertex -2.886204e+00 -9.533973e+00 7.500000e-01
    endloop
  endfacet
  facet normal 5.797442e-01 8.147986e-01 0.000000e+00
    outer loop
      vertex -2.297499e+00 -9.952846e+00 7.500000e-01
      vertex -2.886204e+00 -9.533973e+00 7.000000e+00
      vertex -2.297499e+00 -9.952846e+00 7.000000e+00
    endloop
  endfacet
  facet normal -8.269935e-01 -5.622115e-01 0.000000e+00
    outer loop
      vertex -5.314651e+00 -1.191110e+01 7.000000e+00
      vertex -4.908444e+00 -1.250862e+01 7.500000e-01
      vertex -4.908444e+00 -1.250862e+01 7.000000e+00
    endloop
  endfacet
  facet normal -8.269935e-01 -5.622115e-01 0.000000e+00
    outer loop
      vertex -4.908444e+00 -1.250862e+01 7.500000e-01
      vertex -5.314651e+00 -1.191110e+01 7.000000e+00
      vertex -5.314651e+00 -1.191110e+01 7.500000e-01
    endloop
  endfacet
  facet normal -9.965047e-01 8.353673e-02 9.401001e-19
    outer loop
      vertex 2.707418e+00 -5.302386e+00 7.000000e+00
      vertex 2.375304e+00 -9.240249e+00 7.500000e-01
      vertex 2.375304e+00 -9.240249e+00 7.000000e+00
    endloop
  endfacet
  facet normal -9.964623e-01 8.404049e-02 0.000000e+00
    outer loop
      vertex 2.375304e+00 -9.240249e+00 7.500000e-01
      vertex 2.707418e+00 -5.302386e+00 7.000000e+00
      vertex 2.707418e+00 -5.302386e+00 7.500000e-01
    endloop
  endfacet
  facet normal -1.767289e-01 -9.842595e-01 0.000000e+00
    outer loop
      vertex -3.591247e+00 -1.302966e+01 7.000000e+00
      vertex -4.302390e+00 -1.290197e+01 7.500000e-01
      vertex -3.591247e+00 -1.302966e+01 7.500000e-01
    endloop
  endfacet
  facet normal -1.767289e-01 -9.842595e-01 0.000000e+00
    outer loop
      vertex -4.302390e+00 -1.290197e+01 7.500000e-01
      vertex -3.591247e+00 -1.302966e+01 7.000000e+00
      vertex -4.302390e+00 -1.290197e+01 7.000000e+00
    endloop
  endfacet
  facet normal 1.000000e+00 -2.057508e-04 5.697851e-20
    outer loop
      vertex 5.453008e+00 -9.952846e+00 7.500000e-01
      vertex 5.452501e+00 -1.245285e+01 7.000000e+00
      vertex 5.452501e+00 -1.245285e+01 7.500000e-01
    endloop
  endfacet
  facet normal 1.000000e+00 -2.026731e-04 0.000000e+00
    outer loop
      vertex 5.452501e+00 -1.245285e+01 7.000000e+00
      vertex 5.453008e+00 -9.952846e+00 7.500000e-01
      vertex 5.453008e+00 -9.952846e+00 7.000000e+00
    endloop
  endfacet
  facet normal 2.185968e-01 9.758152e-01 0.000000e+00
    outer loop
      vertex -3.591247e+00 -9.376033e+00 7.000000e+00
      vertex -2.886204e+00 -9.533973e+00 7.500000e-01
      vertex -3.591247e+00 -9.376033e+00 7.500000e-01
    endloop
  endfacet
  facet normal 2.185968e-01 9.758152e-01 0.000000e+00
    outer loop
      vertex -2.886204e+00 -9.533973e+00 7.500000e-01
      vertex -3.591247e+00 -9.376033e+00 7.000000e+00
      vertex -2.886204e+00 -9.533973e+00 7.000000e+00
    endloop
  endfacet
  facet normal -8.096947e-01 -4.995831e-01 -3.079142e-01
    outer loop
      vertex -4.507818e-01 1.113141e+01 7.500000e-01
      vertex 2.616386e-01 1.043902e+01 2.028299e-14
      vertex 1.137085e-01 1.021652e+01 7.500000e-01
    endloop
  endfacet
  facet normal -8.096947e-01 -4.995831e-01 -3.079142e-01
    outer loop
      vertex 2.616386e-01 1.043902e+01 2.028299e-14
      vertex -4.507818e-01 1.113141e+01 7.500000e-01
      vertex -1.912289e-01 1.117300e+01 2.028299e-14
    endloop
  endfacet
  facet normal -9.362654e-01 1.546094e-01 -3.154410e-01
    outer loop
      vertex -2.802534e-01 1.216407e+01 7.500000e-01
      vertex -1.912289e-01 1.117300e+01 2.028299e-14
      vertex -4.507818e-01 1.113141e+01 7.500000e-01
    endloop
  endfacet
  facet normal -9.362654e-01 1.546094e-01 -3.154410e-01
    outer loop
      vertex -1.912289e-01 1.117300e+01 2.028299e-14
      vertex -2.802534e-01 1.216407e+01 7.500000e-01
      vertex -4.512119e-02 1.205778e+01 2.028299e-14
    endloop
  endfacet
  facet normal -6.283320e-01 7.182792e-01 -2.987874e-01
    outer loop
      vertex -2.802534e-01 1.216407e+01 7.500000e-01
      vertex 6.714945e-01 1.268466e+01 2.028299e-14
      vertex -4.512119e-02 1.205778e+01 2.028299e-14
    endloop
  endfacet
  facet normal -6.283320e-01 7.182792e-01 -2.987874e-01
    outer loop
      vertex 6.714945e-01 1.268466e+01 2.028299e-14
      vertex -2.802534e-01 1.216407e+01 7.500000e-01
      vertex 5.561371e-01 1.289573e+01 7.500000e-01
    endloop
  endfacet
  facet normal -7.625310e-01 6.469517e-01 -6.421125e-17
    outer loop
      vertex 2.215116e+00 -9.643264e+00 7.000000e+00
      vertex 2.126568e+00 -9.747630e+00 7.500000e-01
      vertex 2.126568e+00 -9.747630e+00 7.000000e+00
    endloop
  endfacet
  facet normal -7.625310e-01 6.469517e-01 -6.421125e-17
    outer loop
      vertex 2.126568e+00 -9.747630e+00 7.500000e-01
      vertex 2.215116e+00 -9.643264e+00 7.000000e+00
      vertex 2.250958e+00 -9.601016e+00 7.500000e-01
    endloop
  endfacet
  facet normal -7.625310e-01 6.469517e-01 -6.421125e-17
    outer loop
      vertex 2.250958e+00 -9.601016e+00 7.500000e-01
      vertex 2.215116e+00 -9.643264e+00 7.000000e+00
      vertex 2.250958e+00 -9.601016e+00 7.000000e+00
    endloop
  endfacet
  facet normal -5.805795e-01 8.142036e-01 0.000000e+00
    outer loop
      vertex 1.970019e+00 -9.859260e+00 7.000000e+00
      vertex 2.126568e+00 -9.747630e+00 7.500000e-01
      vertex 1.970019e+00 -9.859260e+00 7.500000e-01
    endloop
  endfacet
  facet normal -5.805795e-01 8.142036e-01 0.000000e+00
    outer loop
      vertex 2.126568e+00 -9.747630e+00 7.500000e-01
      vertex 1.970019e+00 -9.859260e+00 7.000000e+00
      vertex 2.126568e+00 -9.747630e+00 7.000000e+00
    endloop
  endfacet
  facet normal 5.797442e-01 -8.147986e-01 0.000000e+00
    outer loop
      vertex -2.297499e+00 -1.245285e+01 7.000000e+00
      vertex -2.886204e+00 -1.287172e+01 7.500000e-01
      vertex -2.297499e+00 -1.245285e+01 7.500000e-01
    endloop
  endfacet
  facet normal 5.797442e-01 -8.147986e-01 0.000000e+00
    outer loop
      vertex -2.886204e+00 -1.287172e+01 7.500000e-01
      vertex -2.297499e+00 -1.245285e+01 7.000000e+00
      vertex -2.886204e+00 -1.287172e+01 7.000000e+00
    endloop
  endfacet
  facet normal -8.979074e-01 4.401843e-01 0.000000e+00
    outer loop
      vertex 2.335594e+00 -9.428374e+00 7.000000e+00
      vertex 2.250958e+00 -9.601016e+00 7.500000e-01
      vertex 2.250958e+00 -9.601016e+00 7.000000e+00
    endloop
  endfacet
  facet normal -8.979074e-01 4.401843e-01 0.000000e+00
    outer loop
      vertex 2.250958e+00 -9.601016e+00 7.500000e-01
      vertex 2.335594e+00 -9.428374e+00 7.000000e+00
      vertex 2.335594e+00 -9.428374e+00 7.500000e-01
    endloop
  endfacet
  facet normal -8.510435e-01 -5.250953e-01 0.000000e+00
    outer loop
      vertex -4.507818e-01 1.113141e+01 7.000000e+00
      vertex 1.137085e-01 1.021652e+01 7.500000e-01
      vertex 1.137085e-01 1.021652e+01 7.000000e+00
    endloop
  endfacet
  facet normal -8.510435e-01 -5.250953e-01 0.000000e+00
    outer loop
      vertex 1.137085e-01 1.021652e+01 7.500000e-01
      vertex -4.507818e-01 1.113141e+01 7.000000e+00
      vertex -4.507818e-01 1.113141e+01 7.500000e-01
    endloop
  endfacet
  facet normal -8.518298e-01 4.175955e-01 -3.162278e-01
    outer loop
      vertex 2.250958e+00 -9.601016e+00 7.500000e-01
      vertex 2.573774e+00 -9.510467e+00 2.028299e-14
      vertex 2.461732e+00 -9.739017e+00 2.028299e-14
    endloop
  endfacet
  facet normal -8.518298e-01 4.175955e-01 -3.162278e-01
    outer loop
      vertex 2.573774e+00 -9.510467e+00 2.028299e-14
      vertex 2.250958e+00 -9.601016e+00 7.500000e-01
      vertex 2.335594e+00 -9.428374e+00 7.500000e-01
    endloop
  endfacet
  facet normal -1.235714e-01 9.923357e-01 0.000000e+00
    outer loop
      vertex 1.600077e+00 -9.952846e+00 7.000000e+00
      vertex 1.790875e+00 -9.929088e+00 7.500000e-01
      vertex 1.600077e+00 -9.952846e+00 7.500000e-01
    endloop
  endfacet
  facet normal -1.235714e-01 9.923357e-01 0.000000e+00
    outer loop
      vertex 1.790875e+00 -9.929088e+00 7.500000e-01
      vertex 1.600077e+00 -9.952846e+00 7.000000e+00
      vertex 1.790875e+00 -9.929088e+00 7.000000e+00
    endloop
  endfacet
  facet normal -1.676598e-01 9.337506e-01 -3.162278e-01
    outer loop
      vertex -4.302390e+00 -9.503722e+00 7.500000e-01
      vertex -3.596693e+00 -9.631007e+00 2.028299e-14
      vertex -4.208579e+00 -9.740874e+00 2.028299e-14
    endloop
  endfacet
  facet normal -1.676598e-01 9.337506e-01 -3.162278e-01
    outer loop
      vertex -3.596693e+00 -9.631007e+00 2.028299e-14
      vertex -4.302390e+00 -9.503722e+00 7.500000e-01
      vertex -3.591247e+00 -9.376033e+00 7.500000e-01
    endloop
  endfacet
  facet normal -5.507861e-01 7.724213e-01 -3.162278e-01
    outer loop
      vertex 1.970019e+00 -9.859260e+00 7.500000e-01
      vertex 2.297060e+00 -9.933108e+00 2.028299e-14
      vertex 2.089817e+00 -1.008089e+01 2.028299e-14
    endloop
  endfacet
  facet normal -5.507861e-01 7.724213e-01 -3.162278e-01
    outer loop
      vertex 2.297060e+00 -9.933108e+00 2.028299e-14
      vertex 1.970019e+00 -9.859260e+00 7.500000e-01
      vertex 2.126568e+00 -9.747630e+00 7.500000e-01
    endloop
  endfacet
  facet normal -9.866380e-01 1.629276e-01 0.000000e+00
    outer loop
      vertex -2.802534e-01 1.216407e+01 7.000000e+00
      vertex -4.507818e-01 1.113141e+01 7.500000e-01
      vertex -4.507818e-01 1.113141e+01 7.000000e+00
    endloop
  endfacet
  facet normal -9.866380e-01 1.629276e-01 0.000000e+00
    outer loop
      vertex -4.507818e-01 1.113141e+01 7.500000e-01
      vertex -2.802534e-01 1.216407e+01 7.000000e+00
      vertex -2.802534e-01 1.216407e+01 7.500000e-01
    endloop
  endfacet
  facet normal -9.282298e-01 1.959321e-01 -3.162278e-01
    outer loop
      vertex 2.335594e+00 -9.428374e+00 7.500000e-01
      vertex 2.623116e+00 -9.276710e+00 2.028299e-14
      vertex 2.573774e+00 -9.510467e+00 2.028299e-14
    endloop
  endfacet
  facet normal -9.282298e-01 1.959321e-01 -3.162278e-01
    outer loop
      vertex 2.623116e+00 -9.276710e+00 2.028299e-14
      vertex 2.335594e+00 -9.428374e+00 7.500000e-01
      vertex 2.375304e+00 -9.240249e+00 7.500000e-01
    endloop
  endfacet
  facet normal -7.845549e-01 -5.333607e-01 -3.162278e-01
    outer loop
      vertex -5.314651e+00 -1.191110e+01 7.500000e-01
      vertex -4.730044e+00 -1.232637e+01 2.028299e-14
      vertex -4.908444e+00 -1.250862e+01 7.500000e-01
    endloop
  endfacet
  facet normal -7.845549e-01 -5.333607e-01 -3.162278e-01
    outer loop
      vertex -4.730044e+00 -1.232637e+01 2.028299e-14
      vertex -5.314651e+00 -1.191110e+01 7.500000e-01
      vertex -5.079556e+00 -1.181225e+01 2.028299e-14
    endloop
  endfacet
  facet normal -6.584083e-01 7.526609e-01 0.000000e+00
    outer loop
      vertex -2.802534e-01 1.216407e+01 7.000000e+00
      vertex 5.561371e-01 1.289573e+01 7.500000e-01
      vertex -2.802534e-01 1.216407e+01 7.500000e-01
    endloop
  endfacet
  facet normal -6.584083e-01 7.526609e-01 0.000000e+00
    outer loop
      vertex 5.561371e-01 1.289573e+01 7.500000e-01
      vertex -2.802534e-01 1.216407e+01 7.000000e+00
      vertex 5.561371e-01 1.289573e+01 7.000000e+00
    endloop
  endfacet
  facet normal -9.802610e-01 -1.977080e-01 0.000000e+00
    outer loop
      vertex -5.457499e+00 -1.120285e+01 7.000000e+00
      vertex -5.314651e+00 -1.191110e+01 7.500000e-01
      vertex -5.314651e+00 -1.191110e+01 7.000000e+00
    endloop
  endfacet
  facet normal -9.802610e-01 -1.977080e-01 0.000000e+00
    outer loop
      vertex -5.314651e+00 -1.191110e+01 7.500000e-01
      vertex -5.457499e+00 -1.120285e+01 7.000000e+00
      vertex -5.457499e+00 -1.120285e+01 7.500000e-01
    endloop
  endfacet
  facet normal -1.676598e-01 -9.337506e-01 -3.162278e-01
    outer loop
      vertex -3.591247e+00 -1.302966e+01 7.500000e-01
      vertex -4.208579e+00 -1.266482e+01 2.028299e-14
      vertex -3.596693e+00 -1.277468e+01 2.028299e-14
    endloop
  endfacet
  facet normal -1.676598e-01 -9.337506e-01 -3.162278e-01
    outer loop
      vertex -4.208579e+00 -1.266482e+01 2.028299e-14
      vertex -3.591247e+00 -1.302966e+01 7.500000e-01
      vertex -4.302390e+00 -1.290197e+01 7.500000e-01
    endloop
  endfacet
  facet normal 9.486754e-01 -2.270305e-04 -3.162512e-01
    outer loop
      vertex 5.202552e+00 -1.220285e+01 2.028299e-14
      vertex 5.396272e+00 -6.521958e+00 5.773995e-01
      vertex 5.452501e+00 -1.245285e+01 7.500000e-01
    endloop
  endfacet
  facet normal 9.488329e-01 -2.078906e-04 -3.157784e-01
    outer loop
      vertex 5.396272e+00 -6.521958e+00 5.773995e-01
      vertex 5.202552e+00 -1.220285e+01 2.028299e-14
      vertex 5.203008e+00 -9.952788e+00 2.028299e-14
    endloop
  endfacet
  facet normal 9.488329e-01 -2.078906e-04 -3.157784e-01
    outer loop
      vertex 5.396272e+00 -6.521958e+00 5.773995e-01
      vertex 5.203008e+00 -9.952788e+00 2.028299e-14
      vertex 5.207435e+00 8.298305e+00 2.028299e-14
    endloop
  endfacet
  facet normal -9.299572e-01 1.875622e-01 -3.162278e-01
    outer loop
      vertex -5.314651e+00 -1.049459e+01 7.500000e-01
      vertex -5.202465e+00 -1.120285e+01 2.028299e-14
      vertex -5.457499e+00 -1.120285e+01 7.500000e-01
    endloop
  endfacet
  facet normal -9.299572e-01 1.875622e-01 -3.162278e-01
    outer loop
      vertex -5.202465e+00 -1.120285e+01 2.028299e-14
      vertex -5.314651e+00 -1.049459e+01 7.500000e-01
      vertex -5.079556e+00 -1.059344e+01 2.028299e-14
    endloop
  endfacet
  facet normal -9.802610e-01 1.977080e-01 0.000000e+00
    outer loop
      vertex -5.314651e+00 -1.049459e+01 7.000000e+00
      vertex -5.457499e+00 -1.120285e+01 7.500000e-01
      vertex -5.457499e+00 -1.120285e+01 7.000000e+00
    endloop
  endfacet
  facet normal -9.802610e-01 1.977080e-01 0.000000e+00
    outer loop
      vertex -5.457499e+00 -1.120285e+01 7.500000e-01
      vertex -5.314651e+00 -1.049459e+01 7.000000e+00
      vertex -5.314651e+00 -1.049459e+01 7.500000e-01
    endloop
  endfacet
  facet normal -7.845549e-01 5.333607e-01 -3.162278e-01
    outer loop
      vertex -5.314651e+00 -1.049459e+01 7.500000e-01
      vertex -4.730044e+00 -1.007933e+01 2.028299e-14
      vertex -5.079556e+00 -1.059344e+01 2.028299e-14
    endloop
  endfacet
  facet normal -7.845549e-01 5.333607e-01 -3.162278e-01
    outer loop
      vertex -4.730044e+00 -1.007933e+01 2.028299e-14
      vertex -5.314651e+00 -1.049459e+01 7.500000e-01
      vertex -4.908444e+00 -9.897075e+00 7.500000e-01
    endloop
  endfacet
  facet normal 2.073791e-01 -9.257396e-01 -3.162278e-01
    outer loop
      vertex -2.886204e+00 -1.287172e+01 7.500000e-01
      vertex -3.596693e+00 -1.277468e+01 2.028299e-14
      vertex -2.990056e+00 -1.263879e+01 2.028299e-14
    endloop
  endfacet
  facet normal 2.073791e-01 -9.257396e-01 -3.162278e-01
    outer loop
      vertex -3.596693e+00 -1.277468e+01 2.028299e-14
      vertex -2.886204e+00 -1.287172e+01 7.500000e-01
      vertex -3.591247e+00 -1.302966e+01 7.500000e-01
    endloop
  endfacet
  facet normal -5.444224e-01 -8.388112e-01 0.000000e+00
    outer loop
      vertex -4.302390e+00 -1.290197e+01 7.000000e+00
      vertex -4.908444e+00 -1.250862e+01 7.500000e-01
      vertex -4.302390e+00 -1.290197e+01 7.500000e-01
    endloop
  endfacet
  facet normal -5.444224e-01 -8.388112e-01 0.000000e+00
    outer loop
      vertex -4.908444e+00 -1.250862e+01 7.500000e-01
      vertex -4.302390e+00 -1.290197e+01 7.000000e+00
      vertex -4.908444e+00 -1.250862e+01 7.000000e+00
    endloop
  endfacet
  facet normal 2.073791e-01 9.257396e-01 -3.162278e-01
    outer loop
      vertex -3.591247e+00 -9.376033e+00 7.500000e-01
      vertex -2.990056e+00 -9.766902e+00 2.028299e-14
      vertex -3.596693e+00 -9.631007e+00 2.028299e-14
    endloop
  endfacet
  facet normal 2.073791e-01 9.257396e-01 -3.162278e-01
    outer loop
      vertex -2.990056e+00 -9.766902e+00 2.028299e-14
      vertex -3.591247e+00 -9.376033e+00 7.500000e-01
      vertex -2.886204e+00 -9.533973e+00 7.500000e-01
    endloop
  endfacet
  facet normal 5.499936e-01 7.729858e-01 -3.162278e-01
    outer loop
      vertex -2.886204e+00 -9.533973e+00 7.500000e-01
      vertex -2.377362e+00 -1.020285e+01 2.028299e-14
      vertex -2.990056e+00 -9.766902e+00 2.028299e-14
    endloop
  endfacet
  facet normal 5.499936e-01 7.729858e-01 -3.162278e-01
    outer loop
      vertex -2.377362e+00 -1.020285e+01 2.028299e-14
      vertex -2.886204e+00 -9.533973e+00 7.500000e-01
      vertex -2.297499e+00 -9.952846e+00 7.500000e-01
    endloop
  endfacet
  facet normal -8.269935e-01 5.622115e-01 0.000000e+00
    outer loop
      vertex -4.908444e+00 -9.897075e+00 7.000000e+00
      vertex -5.314651e+00 -1.049459e+01 7.500000e-01
      vertex -5.314651e+00 -1.049459e+01 7.000000e+00
    endloop
  endfacet
  facet normal -8.269935e-01 5.622115e-01 0.000000e+00
    outer loop
      vertex -5.314651e+00 -1.049459e+01 7.500000e-01
      vertex -4.908444e+00 -9.897075e+00 7.000000e+00
      vertex -4.908444e+00 -9.897075e+00 7.500000e-01
    endloop
  endfacet
  facet normal -9.784402e-01 2.065306e-01 0.000000e+00
    outer loop
      vertex 2.375304e+00 -9.240249e+00 7.000000e+00
      vertex 2.335594e+00 -9.428374e+00 7.500000e-01
      vertex 2.335594e+00 -9.428374e+00 7.000000e+00
    endloop
  endfacet
  facet normal -9.784402e-01 2.065306e-01 0.000000e+00
    outer loop
      vertex 2.335594e+00 -9.428374e+00 7.500000e-01
      vertex 2.375304e+00 -9.240249e+00 7.000000e+00
      vertex 2.375304e+00 -9.240249e+00 7.500000e-01
    endloop
  endfacet
  facet normal -9.299572e-01 -1.875622e-01 -3.162278e-01
    outer loop
      vertex -5.457499e+00 -1.120285e+01 7.500000e-01
      vertex -5.079556e+00 -1.181225e+01 2.028299e-14
      vertex -5.314651e+00 -1.191110e+01 7.500000e-01
    endloop
  endfacet
  facet normal -9.299572e-01 -1.875622e-01 -3.162278e-01
    outer loop
      vertex -5.079556e+00 -1.181225e+01 2.028299e-14
      vertex -5.457499e+00 -1.120285e+01 7.500000e-01
      vertex -5.202465e+00 -1.120285e+01 2.028299e-14
    endloop
  endfacet
  facet normal -1.767289e-01 9.842595e-01 0.000000e+00
    outer loop
      vertex -4.302390e+00 -9.503722e+00 7.000000e+00
      vertex -3.591247e+00 -9.376033e+00 7.500000e-01
      vertex -4.302390e+00 -9.503722e+00 7.500000e-01
    endloop
  endfacet
  facet normal -1.767289e-01 9.842595e-01 0.000000e+00
    outer loop
      vertex -3.591247e+00 -9.376033e+00 7.500000e-01
      vertex -4.302390e+00 -9.503722e+00 7.000000e+00
      vertex -3.591247e+00 -9.376033e+00 7.000000e+00
    endloop
  endfacet
  facet normal -2.639054e-15 -9.486833e-01 -3.162278e-01
    outer loop
      vertex 5.452501e+00 -1.245285e+01 7.500000e-01
      vertex -2.377362e+00 -1.220285e+01 2.028299e-14
      vertex 5.202552e+00 -1.220285e+01 2.028299e-14
    endloop
  endfacet
  facet normal -2.639054e-15 -9.486833e-01 -3.162278e-01
    outer loop
      vertex -2.377362e+00 -1.220285e+01 2.028299e-14
      vertex 5.452501e+00 -1.245285e+01 7.500000e-01
      vertex -2.297499e+00 -1.245285e+01 7.500000e-01
    endloop
  endfacet
  facet normal -3.445300e-01 8.839113e-01 -3.162278e-01
    outer loop
      vertex 1.790875e+00 -9.929088e+00 7.500000e-01
      vertex 2.089817e+00 -1.008089e+01 2.028299e-14
      vertex 1.852661e+00 -1.017332e+01 2.028299e-14
    endloop
  endfacet
  facet normal -3.445300e-01 8.839113e-01 -3.162278e-01
    outer loop
      vertex 2.089817e+00 -1.008089e+01 2.028299e-14
      vertex 1.790875e+00 -9.929088e+00 7.500000e-01
      vertex 1.970019e+00 -9.859260e+00 7.500000e-01
    endloop
  endfacet
  facet normal -5.444224e-01 8.388112e-01 0.000000e+00
    outer loop
      vertex -4.908444e+00 -9.897075e+00 7.000000e+00
      vertex -4.302390e+00 -9.503722e+00 7.500000e-01
      vertex -4.908444e+00 -9.897075e+00 7.500000e-01
    endloop
  endfacet
  facet normal -5.444224e-01 8.388112e-01 0.000000e+00
    outer loop
      vertex -4.302390e+00 -9.503722e+00 7.500000e-01
      vertex -4.908444e+00 -9.897075e+00 7.000000e+00
      vertex -4.302390e+00 -9.503722e+00 7.000000e+00
    endloop
  endfacet
  facet normal -1.172301e-01 9.414123e-01 -3.162278e-01
    outer loop
      vertex 1.600077e+00 -9.952846e+00 7.500000e-01
      vertex 1.852661e+00 -1.017332e+01 2.028299e-14
      vertex 1.615582e+00 -1.020285e+01 2.028299e-14
    endloop
  endfacet
  facet normal -1.172301e-01 9.414123e-01 -3.162278e-01
    outer loop
      vertex 1.852661e+00 -1.017332e+01 2.028299e-14
      vertex 1.600077e+00 -9.952846e+00 7.500000e-01
      vertex 1.790875e+00 -9.929088e+00 7.500000e-01
    endloop
  endfacet
  facet normal 2.185968e-01 -9.758152e-01 0.000000e+00
    outer loop
      vertex -2.886204e+00 -1.287172e+01 7.000000e+00
      vertex -3.591247e+00 -1.302966e+01 7.500000e-01
      vertex -2.886204e+00 -1.287172e+01 7.500000e-01
    endloop
  endfacet
  facet normal 2.185968e-01 -9.758152e-01 0.000000e+00
    outer loop
      vertex -3.591247e+00 -1.302966e+01 7.500000e-01
      vertex -2.886204e+00 -1.287172e+01 7.000000e+00
      vertex -3.591247e+00 -1.302966e+01 7.000000e+00
    endloop
  endfacet
  facet normal 5.499936e-01 -7.729858e-01 -3.162278e-01
    outer loop
      vertex -2.297499e+00 -1.245285e+01 7.500000e-01
      vertex -2.990056e+00 -1.263879e+01 2.028299e-14
      vertex -2.377362e+00 -1.220285e+01 2.028299e-14
    endloop
  endfacet
  facet normal 5.499936e-01 -7.729858e-01 -3.162278e-01
    outer loop
      vertex -2.990056e+00 -1.263879e+01 2.028299e-14
      vertex -2.297499e+00 -1.245285e+01 7.500000e-01
      vertex -2.886204e+00 -1.287172e+01 7.500000e-01
    endloop
  endfacet
  facet normal -4.320893e-03 9.575701e-01 -2.881682e-01
    outer loop
      vertex 1.577821e+00 1.301338e+01 7.500000e-01
      vertex 4.178004e+00 1.279941e+01 2.125249e-14
      vertex 1.577821e+00 1.278902e+01 0.000000e+00
    endloop
  endfacet
  facet normal -4.320893e-03 9.575701e-01 -2.881682e-01
    outer loop
      vertex 1.577821e+00 1.301338e+01 7.500000e-01
      vertex 3.979204e+00 1.302966e+01 7.500000e-01
      vertex 4.178004e+00 1.279941e+01 2.125249e-14
    endloop
  endfacet
  facet normal -6.952349e-01 -7.187826e-01 5.806280e-32
    outer loop
      vertex 3.974213e+00 9.901459e+00 7.000000e+00
      vertex 3.648481e+00 1.021652e+01 7.500000e-01
      vertex 3.974213e+00 9.901459e+00 7.500000e-01
    endloop
  endfacet
  facet normal -6.952349e-01 -7.187826e-01 5.806280e-32
    outer loop
      vertex 3.648481e+00 1.021652e+01 7.500000e-01
      vertex 3.974213e+00 9.901459e+00 7.000000e+00
      vertex 3.648481e+00 1.021652e+01 7.000000e+00
    endloop
  endfacet
  facet normal -6.058461e-01 -6.263663e-01 -4.905261e-01
    outer loop
      vertex 3.974213e+00 9.901459e+00 7.500000e-01
      vertex 4.025686e+00 1.043902e+01 2.028299e-14
      vertex 4.254670e+00 1.021754e+01 2.028299e-14
    endloop
  endfacet
  facet normal -6.058461e-01 -6.263663e-01 -4.905261e-01
    outer loop
      vertex 4.025686e+00 1.043902e+01 2.028299e-14
      vertex 3.974213e+00 9.901459e+00 7.500000e-01
      vertex 3.648481e+00 1.021652e+01 7.500000e-01
    endloop
  endfacet
  facet normal -9.965468e-01 8.303294e-02 1.880200e-18
    outer loop
      vertex 3.974213e+00 9.901459e+00 7.000000e+00
      vertex 2.707418e+00 -5.302386e+00 7.500000e-01
      vertex 2.707418e+00 -5.302386e+00 7.000000e+00
    endloop
  endfacet
  facet normal -9.965047e-01 8.353673e-02 9.401001e-19
    outer loop
      vertex 2.707418e+00 -5.302386e+00 7.500000e-01
      vertex 3.974213e+00 9.901459e+00 7.000000e+00
      vertex 3.974213e+00 9.901459e+00 7.500000e-01
    endloop
  endfacet
  facet normal -9.442282e-01 7.868231e-02 -3.197534e-01
    outer loop
      vertex 4.254670e+00 1.021754e+01 2.028299e-14
      vertex 2.956545e+00 -5.323270e+00 2.028299e-14
      vertex 2.707418e+00 -5.302386e+00 7.500000e-01
    endloop
  endfacet
  facet normal -9.442282e-01 7.868231e-02 -3.197534e-01
    outer loop
      vertex 4.254670e+00 1.021754e+01 2.028299e-14
      vertex 2.707418e+00 -5.302386e+00 7.500000e-01
      vertex 3.974213e+00 9.901459e+00 7.500000e-01
    endloop
  endfacet
  facet normal 9.713066e-01 2.377995e-01 3.857409e-03
    outer loop
      vertex 5.247280e+00 1.251155e+01 7.500000e-01
      vertex 5.457499e+00 1.155152e+01 7.000000e+00
      vertex 5.457499e+00 1.155152e+01 7.500000e-01
    endloop
  endfacet
  facet normal 9.713066e-01 2.377995e-01 3.857409e-03
    outer loop
      vertex 5.247280e+00 1.251155e+01 7.500000e-01
      vertex 4.997280e+00 1.251155e+01 7.000000e+00
      vertex 5.457499e+00 1.155152e+01 7.000000e+00
    endloop
  endfacet
  facet normal 4.435534e-01 8.962456e-01 2.044806e-03
    outer loop
      vertex 4.997280e+00 1.251155e+01 7.000000e+00
      vertex 5.247280e+00 1.251155e+01 7.500000e-01
      vertex 3.979204e+00 1.302966e+01 7.500000e-01
    endloop
  endfacet
  facet normal 4.535536e-01 8.912290e-01 3.042625e-15
    outer loop
      vertex 3.979204e+00 1.302966e+01 7.000000e+00
      vertex 4.997280e+00 1.251155e+01 7.000000e+00
      vertex 3.979204e+00 1.302966e+01 7.500000e-01
    endloop
  endfacet
  facet normal 9.489024e-01 -1.919260e-04 -3.155697e-01
    outer loop
      vertex 5.424945e+00 -6.521958e+00 6.635583e-01
      vertex 5.457499e+00 1.155152e+01 7.500000e-01
      vertex 5.453008e+00 -9.952846e+00 7.500000e-01
    endloop
  endfacet
  facet normal 9.488166e-01 -1.949356e-04 -3.158275e-01
    outer loop
      vertex 5.457499e+00 1.155152e+01 7.500000e-01
      vertex 5.424945e+00 -6.521958e+00 6.635583e-01
      vertex 5.207435e+00 8.298305e+00 2.028299e-14
    endloop
  endfacet
  facet normal 9.488166e-01 -1.949356e-04 -3.158275e-01
    outer loop
      vertex 5.457499e+00 1.155152e+01 7.500000e-01
      vertex 5.207435e+00 8.298305e+00 2.028299e-14
      vertex 5.207499e+00 1.150604e+01 2.028299e-14
    endloop
  endfacet
  facet normal 9.338656e-01 1.908808e-01 -3.024229e-01
    outer loop
      vertex 5.050287e+00 1.235550e+01 2.028299e-14
      vertex 5.457499e+00 1.155152e+01 7.500000e-01
      vertex 5.207499e+00 1.150604e+01 2.028299e-14
    endloop
  endfacet
  facet normal 9.353775e-01 2.048196e-01 -2.883017e-01
    outer loop
      vertex 5.247280e+00 1.251155e+01 7.500000e-01
      vertex 5.457499e+00 1.155152e+01 7.500000e-01
      vertex 5.050287e+00 1.235550e+01 2.028299e-14
    endloop
  endfacet
  facet normal -6.779539e-03 9.999770e-01 5.684293e-16
    outer loop
      vertex 1.577821e+00 1.301338e+01 7.500000e-01
      vertex 3.979204e+00 1.302966e+01 7.000000e+00
      vertex 3.979204e+00 1.302966e+01 7.500000e-01
    endloop
  endfacet
  facet normal -6.779539e-03 9.999770e-01 5.684293e-16
    outer loop
      vertex 3.979204e+00 1.302966e+01 7.000000e+00
      vertex 1.577821e+00 1.301338e+01 7.500000e-01
      vertex 1.577821e+00 1.301338e+01 7.000000e+00
    endloop
  endfacet
  facet normal 0.000000e+00 1.000000e+00 0.000000e+00
    outer loop
      vertex -2.297499e+00 -9.952846e+00 7.000000e+00
      vertex 1.600077e+00 -9.952846e+00 7.500000e-01
      vertex -2.297499e+00 -9.952846e+00 7.500000e-01
    endloop
  endfacet
  facet normal 0.000000e+00 1.000000e+00 0.000000e+00
    outer loop
      vertex 1.600077e+00 -9.952846e+00 7.500000e-01
      vertex -2.297499e+00 -9.952846e+00 7.000000e+00
      vertex 1.600077e+00 -9.952846e+00 7.000000e+00
    endloop
  endfacet
  facet normal -1.126630e-16 -9.587013e-01 -2.844147e-01
    outer loop
      vertex 3.648481e+00 1.021652e+01 7.500000e-01
      vertex 2.616386e-01 1.043902e+01 2.028299e-14
      vertex 4.025686e+00 1.043902e+01 2.028299e-14
    endloop
  endfacet
  facet normal -1.126630e-16 -9.587013e-01 -2.844147e-01
    outer loop
      vertex 2.616386e-01 1.043902e+01 2.028299e-14
      vertex 3.648481e+00 1.021652e+01 7.500000e-01
      vertex 1.137085e-01 1.021652e+01 7.500000e-01
    endloop
  endfacet
  facet normal 4.083693e-01 8.794104e-01 -2.446870e-01
    outer loop
      vertex 5.247280e+00 1.251155e+01 7.500000e-01
      vertex 5.050287e+00 1.235550e+01 2.028299e-14
      vertex 4.178004e+00 1.279941e+01 2.125249e-14
    endloop
  endfacet
  facet normal 3.719850e-01 9.104398e-01 -1.809046e-01
    outer loop
      vertex 3.979204e+00 1.302966e+01 7.500000e-01
      vertex 5.247280e+00 1.251155e+01 7.500000e-01
      vertex 4.178004e+00 1.279941e+01 2.125249e-14
    endloop
  endfacet
  facet normal 9.950397e-17 -1.040595e-16 -1.000000e+00
    outer loop
      vertex -4.512119e-02 1.205778e+01 2.028299e-14
      vertex 2.616386e-01 1.043902e+01 2.028299e-14
      vertex -1.912289e-01 1.117300e+01 2.028299e-14
    endloop
  endfacet
  facet normal 9.950397e-17 -1.040595e-16 -1.000000e+00
    outer loop
      vertex 2.616386e-01 1.043902e+01 2.028299e-14
      vertex -4.512119e-02 1.205778e+01 2.028299e-14
      vertex 6.714945e-01 1.268466e+01 2.028299e-14
    endloop
  endfacet
  facet normal 9.950397e-17 -1.040595e-16 -1.000000e+00
    outer loop
      vertex 2.616386e-01 1.043902e+01 2.028299e-14
      vertex 6.714945e-01 1.268466e+01 2.028299e-14
      vertex 4.025686e+00 1.043902e+01 2.028299e-14
    endloop
  endfacet
  facet normal 9.950397e-17 -1.040595e-16 -1.000000e+00
    outer loop
      vertex 4.025686e+00 1.043902e+01 2.028299e-14
      vertex 6.714945e-01 1.268466e+01 2.028299e-14
      vertex 1.577821e+00 1.278902e+01 0.000000e+00
    endloop
  endfacet
  facet normal 9.950397e-17 -1.040595e-16 -1.000000e+00
    outer loop
      vertex 4.025686e+00 1.043902e+01 2.028299e-14
      vertex 1.577821e+00 1.278902e+01 0.000000e+00
      vertex 4.178004e+00 1.279941e+01 2.125249e-14
    endloop
  endfacet
  facet normal 9.950397e-17 -1.040595e-16 -1.000000e+00
    outer loop
      vertex 4.025686e+00 1.043902e+01 2.028299e-14
      vertex 4.178004e+00 1.279941e+01 2.125249e-14
      vertex 4.254670e+00 1.021754e+01 2.028299e-14
    endloop
  endfacet
  facet normal 9.950397e-17 -1.040595e-16 -1.000000e+00
    outer loop
      vertex 4.254670e+00 1.021754e+01 2.028299e-14
      vertex 4.178004e+00 1.279941e+01 2.125249e-14
      vertex 5.050287e+00 1.235550e+01 2.028299e-14
    endloop
  endfacet
  facet normal 9.950397e-17 -1.040595e-16 -1.000000e+00
    outer loop
      vertex -5.079556e+00 -1.059344e+01 2.028299e-14
      vertex -5.079556e+00 -1.181225e+01 2.028299e-14
      vertex -5.202465e+00 -1.120285e+01 2.028299e-14
    endloop
  endfacet
  facet normal 9.950397e-17 -1.040595e-16 -1.000000e+00
    outer loop
      vertex -5.079556e+00 -1.181225e+01 2.028299e-14
      vertex -5.079556e+00 -1.059344e+01 2.028299e-14
      vertex -4.730044e+00 -1.007933e+01 2.028299e-14
    endloop
  endfacet
  facet normal 9.950397e-17 -1.040595e-16 -1.000000e+00
    outer loop
      vertex -5.079556e+00 -1.181225e+01 2.028299e-14
      vertex -4.730044e+00 -1.007933e+01 2.028299e-14
      vertex -4.730044e+00 -1.232637e+01 2.028299e-14
    endloop
  endfacet
  facet normal 9.950397e-17 -1.040595e-16 -1.000000e+00
    outer loop
      vertex -4.730044e+00 -1.232637e+01 2.028299e-14
      vertex -4.730044e+00 -1.007933e+01 2.028299e-14
      vertex -4.208579e+00 -9.740874e+00 2.028299e-14
    endloop
  endfacet
  facet normal 9.950397e-17 -1.040595e-16 -1.000000e+00
    outer loop
      vertex -4.730044e+00 -1.232637e+01 2.028299e-14
      vertex -4.208579e+00 -9.740874e+00 2.028299e-14
      vertex -4.208579e+00 -1.266482e+01 2.028299e-14
    endloop
  endfacet
  facet normal 9.950397e-17 -1.040595e-16 -1.000000e+00
    outer loop
      vertex -4.208579e+00 -1.266482e+01 2.028299e-14
      vertex -4.208579e+00 -9.740874e+00 2.028299e-14
      vertex -3.596693e+00 -1.277468e+01 2.028299e-14
    endloop
  endfacet
  facet normal 9.950397e-17 -1.040595e-16 -1.000000e+00
    outer loop
      vertex -3.596693e+00 -1.277468e+01 2.028299e-14
      vertex -4.208579e+00 -9.740874e+00 2.028299e-14
      vertex -3.596693e+00 -9.631007e+00 2.028299e-14
    endloop
  endfacet
  facet normal 9.950397e-17 -1.040595e-16 -1.000000e+00
    outer loop
      vertex -3.596693e+00 -1.277468e+01 2.028299e-14
      vertex -3.596693e+00 -9.631007e+00 2.028299e-14
      vertex -2.990056e+00 -9.766902e+00 2.028299e-14
    endloop
  endfacet
  facet normal 9.950397e-17 -1.040595e-16 -1.000000e+00
    outer loop
      vertex -3.596693e+00 -1.277468e+01 2.028299e-14
      vertex -2.990056e+00 -9.766902e+00 2.028299e-14
      vertex -2.990056e+00 -1.263879e+01 2.028299e-14
    endloop
  endfacet
  facet normal 9.950397e-17 -1.040595e-16 -1.000000e+00
    outer loop
      vertex -2.990056e+00 -1.263879e+01 2.028299e-14
      vertex -2.990056e+00 -9.766902e+00 2.028299e-14
      vertex -2.377362e+00 -1.020285e+01 2.028299e-14
    endloop
  endfacet
  facet normal 9.950397e-17 -1.040595e-16 -1.000000e+00
    outer loop
      vertex -2.990056e+00 -1.263879e+01 2.028299e-14
      vertex -2.377362e+00 -1.020285e+01 2.028299e-14
      vertex -2.377362e+00 -1.220285e+01 2.028299e-14
    endloop
  endfacet
  facet normal 9.950397e-17 -1.040595e-16 -1.000000e+00
    outer loop
      vertex -2.377362e+00 -1.220285e+01 2.028299e-14
      vertex -2.377362e+00 -1.020285e+01 2.028299e-14
      vertex 1.615582e+00 -1.020285e+01 2.028299e-14
    endloop
  endfacet
  facet normal 9.950397e-17 -1.040595e-16 -1.000000e+00
    outer loop
      vertex -2.377362e+00 -1.220285e+01 2.028299e-14
      vertex 1.615582e+00 -1.020285e+01 2.028299e-14
      vertex 5.202552e+00 -1.220285e+01 2.028299e-14
    endloop
  endfacet
  facet normal 9.950397e-17 -1.040595e-16 -1.000000e+00
    outer loop
      vertex 5.202552e+00 -1.220285e+01 2.028299e-14
      vertex 1.615582e+00 -1.020285e+01 2.028299e-14
      vertex 1.852661e+00 -1.017332e+01 2.028299e-14
    endloop
  endfacet
  facet normal 9.950397e-17 -1.040595e-16 -1.000000e+00
    outer loop
      vertex 5.202552e+00 -1.220285e+01 2.028299e-14
      vertex 1.852661e+00 -1.017332e+01 2.028299e-14
      vertex 2.089817e+00 -1.008089e+01 2.028299e-14
    endloop
  endfacet
  facet normal 9.950397e-17 -1.040595e-16 -1.000000e+00
    outer loop
      vertex 5.202552e+00 -1.220285e+01 2.028299e-14
      vertex 2.089817e+00 -1.008089e+01 2.028299e-14
      vertex 2.297060e+00 -9.933108e+00 2.028299e-14
    endloop
  endfacet
  facet normal 9.950397e-17 -1.040595e-16 -1.000000e+00
    outer loop
      vertex 5.202552e+00 -1.220285e+01 2.028299e-14
      vertex 2.297060e+00 -9.933108e+00 2.028299e-14
      vertex 2.461732e+00 -9.739017e+00 2.028299e-14
    endloop
  endfacet
  facet normal 9.950397e-17 -1.040595e-16 -1.000000e+00
    outer loop
      vertex 5.202552e+00 -1.220285e+01 2.028299e-14
      vertex 2.461732e+00 -9.739017e+00 2.028299e-14
      vertex 2.573774e+00 -9.510467e+00 2.028299e-14
    endloop
  endfacet
  facet normal 9.950397e-17 -1.040595e-16 -1.000000e+00
    outer loop
      vertex 5.202552e+00 -1.220285e+01 2.028299e-14
      vertex 2.573774e+00 -9.510467e+00 2.028299e-14
      vertex 2.623116e+00 -9.276710e+00 2.028299e-14
    endloop
  endfacet
  facet normal 9.950397e-17 -1.040595e-16 -1.000000e+00
    outer loop
      vertex 5.202552e+00 -1.220285e+01 2.028299e-14
      vertex 2.623116e+00 -9.276710e+00 2.028299e-14
      vertex 2.956545e+00 -5.323270e+00 2.028299e-14
    endloop
  endfacet
  facet normal 9.950397e-17 -1.040595e-16 -1.000000e+00
    outer loop
      vertex 5.202552e+00 -1.220285e+01 2.028299e-14
      vertex 2.956545e+00 -5.323270e+00 2.028299e-14
      vertex 4.254670e+00 1.021754e+01 2.028299e-14
    endloop
  endfacet
  facet normal 9.950397e-17 -1.040595e-16 -1.000000e+00
    outer loop
      vertex 5.202552e+00 -1.220285e+01 2.028299e-14
      vertex 4.254670e+00 1.021754e+01 2.028299e-14
      vertex 5.050287e+00 1.235550e+01 2.028299e-14
    endloop
  endfacet
  facet normal 9.950397e-17 -1.040595e-16 -1.000000e+00
    outer loop
      vertex 5.202552e+00 -1.220285e+01 2.028299e-14
      vertex 5.050287e+00 1.235550e+01 2.028299e-14
      vertex 5.203008e+00 -9.952788e+00 2.028299e-14
    endloop
  endfacet
  facet normal 9.950397e-17 -1.040595e-16 -1.000000e+00
    outer loop
      vertex 5.203008e+00 -9.952788e+00 2.028299e-14
      vertex 5.050287e+00 1.235550e+01 2.028299e-14
      vertex 5.207499e+00 1.150604e+01 2.028299e-14
    endloop
  endfacet
  facet normal 9.950397e-17 -1.040595e-16 -1.000000e+00
    outer loop
      vertex 5.203008e+00 -9.952788e+00 2.028299e-14
      vertex 5.207499e+00 1.150604e+01 2.028299e-14
      vertex 5.207435e+00 8.298305e+00 2.028299e-14
    endloop
  endfacet
  facet normal 1.000000e+00 -2.088285e-04 1.139570e-19
    outer loop
      vertex 5.457499e+00 1.155152e+01 7.500000e-01
      vertex 5.453008e+00 -9.952846e+00 7.000000e+00
      vertex 5.453008e+00 -9.952846e+00 7.500000e-01
    endloop
  endfacet
  facet normal 1.000000e+00 -2.057508e-04 5.697851e-20
    outer loop
      vertex 5.453008e+00 -9.952846e+00 7.000000e+00
      vertex 5.457499e+00 1.155152e+01 7.500000e-01
      vertex 5.457499e+00 1.155152e+01 7.000000e+00
    endloop
  endfacet
  facet normal 0.000000e+00 -1.000000e+00 0.000000e+00
    outer loop
      vertex 3.648481e+00 1.021652e+01 7.000000e+00
      vertex 1.137085e-01 1.021652e+01 7.500000e-01
      vertex 3.648481e+00 1.021652e+01 7.500000e-01
    endloop
  endfacet
  facet normal 0.000000e+00 -1.000000e+00 0.000000e+00
    outer loop
      vertex 1.137085e-01 1.021652e+01 7.500000e-01
      vertex 3.648481e+00 1.021652e+01 7.000000e+00
      vertex 1.137085e-01 1.021652e+01 7.000000e+00
    endloop
  endfacet
  facet normal 1.725927e-15 9.486833e-01 -3.162278e-01
    outer loop
      vertex -2.297499e+00 -9.952846e+00 7.500000e-01
      vertex 1.615582e+00 -1.020285e+01 2.028299e-14
      vertex -2.377362e+00 -1.020285e+01 2.028299e-14
    endloop
  endfacet
  facet normal 1.725927e-15 9.486833e-01 -3.162278e-01
    outer loop
      vertex 1.615582e+00 -1.020285e+01 2.028299e-14
      vertex -2.297499e+00 -9.952846e+00 7.500000e-01
      vertex 1.600077e+00 -9.952846e+00 7.500000e-01
    endloop
  endfacet
  facet normal -1.096567e-01 9.522754e-01 -2.848632e-01
    outer loop
      vertex 6.714945e-01 1.268466e+01 2.028299e-14
      vertex 1.577821e+00 1.301338e+01 7.500000e-01
      vertex 1.577821e+00 1.278902e+01 0.000000e+00
    endloop
  endfacet
  facet normal -1.096567e-01 9.522754e-01 -2.848632e-01
    outer loop
      vertex 1.577821e+00 1.301338e+01 7.500000e-01
      vertex 6.714945e-01 1.268466e+01 2.028299e-14
      vertex 5.561371e-01 1.289573e+01 7.500000e-01
    endloop
  endfacet
  facet normal -3.791661e-17 -1.133374e-16 1.000000e+00
    outer loop
      vertex -5.314651e+00 -1.191110e+01 7.000000e+00
      vertex -5.314651e+00 -1.049459e+01 7.000000e+00
      vertex -5.457499e+00 -1.120285e+01 7.000000e+00
    endloop
  endfacet
  facet normal -3.791661e-17 -1.133374e-16 1.000000e+00
    outer loop
      vertex -5.314651e+00 -1.049459e+01 7.000000e+00
      vertex -5.314651e+00 -1.191110e+01 7.000000e+00
      vertex -4.908444e+00 -1.250862e+01 7.000000e+00
    endloop
  endfacet
  facet normal -3.791661e-17 -1.133374e-16 1.000000e+00
    outer loop
      vertex -5.314651e+00 -1.049459e+01 7.000000e+00
      vertex -4.908444e+00 -1.250862e+01 7.000000e+00
      vertex -4.908444e+00 -9.897075e+00 7.000000e+00
    endloop
  endfacet
  facet normal -3.791661e-17 -1.133374e-16 1.000000e+00
    outer loop
      vertex -4.908444e+00 -9.897075e+00 7.000000e+00
      vertex -4.908444e+00 -1.250862e+01 7.000000e+00
      vertex -4.302390e+00 -1.290197e+01 7.000000e+00
    endloop
  endfacet
  facet normal -3.791661e-17 -1.133374e-16 1.000000e+00
    outer loop
      vertex -4.908444e+00 -9.897075e+00 7.000000e+00
      vertex -4.302390e+00 -1.290197e+01 7.000000e+00
      vertex -4.302390e+00 -9.503722e+00 7.000000e+00
    endloop
  endfacet
  facet normal -3.791661e-17 -1.133374e-16 1.000000e+00
    outer loop
      vertex -4.302390e+00 -9.503722e+00 7.000000e+00
      vertex -4.302390e+00 -1.290197e+01 7.000000e+00
      vertex -3.591247e+00 -1.302966e+01 7.000000e+00
    endloop
  endfacet
  facet normal -3.791661e-17 -1.133374e-16 1.000000e+00
    outer loop
      vertex -4.302390e+00 -9.503722e+00 7.000000e+00
      vertex -3.591247e+00 -1.302966e+01 7.000000e+00
      vertex -3.591247e+00 -9.376033e+00 7.000000e+00
    endloop
  endfacet
  facet normal -3.791661e-17 -1.133374e-16 1.000000e+00
    outer loop
      vertex -3.591247e+00 -9.376033e+00 7.000000e+00
      vertex -3.591247e+00 -1.302966e+01 7.000000e+00
      vertex -2.886204e+00 -1.287172e+01 7.000000e+00
    endloop
  endfacet
  facet normal -3.791661e-17 -1.133374e-16 1.000000e+00
    outer loop
      vertex -3.591247e+00 -9.376033e+00 7.000000e+00
      vertex -2.886204e+00 -1.287172e+01 7.000000e+00
      vertex -2.886204e+00 -9.533973e+00 7.000000e+00
    endloop
  endfacet
  facet normal -3.791661e-17 -1.133374e-16 1.000000e+00
    outer loop
      vertex -2.886204e+00 -9.533973e+00 7.000000e+00
      vertex -2.886204e+00 -1.287172e+01 7.000000e+00
      vertex -2.297499e+00 -1.245285e+01 7.000000e+00
    endloop
  endfacet
  facet normal -3.791661e-17 -1.133374e-16 1.000000e+00
    outer loop
      vertex -2.886204e+00 -9.533973e+00 7.000000e+00
      vertex -2.297499e+00 -1.245285e+01 7.000000e+00
      vertex -2.297499e+00 -9.952846e+00 7.000000e+00
    endloop
  endfacet
  facet normal -3.791661e-17 -1.133374e-16 1.000000e+00
    outer loop
      vertex -2.297499e+00 -9.952846e+00 7.000000e+00
      vertex -2.297499e+00 -1.245285e+01 7.000000e+00
      vertex 5.452501e+00 -1.245285e+01 7.000000e+00
    endloop
  endfacet
  facet normal -3.791661e-17 -1.133374e-16 1.000000e+00
    outer loop
      vertex -2.297499e+00 -9.952846e+00 7.000000e+00
      vertex 5.452501e+00 -1.245285e+01 7.000000e+00
      vertex 1.600077e+00 -9.952846e+00 7.000000e+00
    endloop
  endfacet
  facet normal -3.791661e-17 -1.133374e-16 1.000000e+00
    outer loop
      vertex 1.600077e+00 -9.952846e+00 7.000000e+00
      vertex 5.452501e+00 -1.245285e+01 7.000000e+00
      vertex 1.790875e+00 -9.929088e+00 7.000000e+00
    endloop
  endfacet
  facet normal -3.791661e-17 -1.133374e-16 1.000000e+00
    outer loop
      vertex 1.790875e+00 -9.929088e+00 7.000000e+00
      vertex 5.452501e+00 -1.245285e+01 7.000000e+00
      vertex 1.970019e+00 -9.859260e+00 7.000000e+00
    endloop
  endfacet
  facet normal -3.791661e-17 -1.133374e-16 1.000000e+00
    outer loop
      vertex 1.970019e+00 -9.859260e+00 7.000000e+00
      vertex 5.452501e+00 -1.245285e+01 7.000000e+00
      vertex 2.126568e+00 -9.747630e+00 7.000000e+00
    endloop
  endfacet
  facet normal -3.791661e-17 -1.133374e-16 1.000000e+00
    outer loop
      vertex 2.126568e+00 -9.747630e+00 7.000000e+00
      vertex 5.452501e+00 -1.245285e+01 7.000000e+00
      vertex 2.215116e+00 -9.643264e+00 7.000000e+00
    endloop
  endfacet
  facet normal -3.791661e-17 -1.133374e-16 1.000000e+00
    outer loop
      vertex 2.215116e+00 -9.643264e+00 7.000000e+00
      vertex 5.452501e+00 -1.245285e+01 7.000000e+00
      vertex 2.250958e+00 -9.601016e+00 7.000000e+00
    endloop
  endfacet
  facet normal -3.791661e-17 -1.133374e-16 1.000000e+00
    outer loop
      vertex 2.250958e+00 -9.601016e+00 7.000000e+00
      vertex 5.452501e+00 -1.245285e+01 7.000000e+00
      vertex 2.335594e+00 -9.428374e+00 7.000000e+00
    endloop
  endfacet
  facet normal -3.791661e-17 -1.133374e-16 1.000000e+00
    outer loop
      vertex 2.335594e+00 -9.428374e+00 7.000000e+00
      vertex 5.452501e+00 -1.245285e+01 7.000000e+00
      vertex 2.375304e+00 -9.240249e+00 7.000000e+00
    endloop
  endfacet
  facet normal -3.791661e-17 -1.133374e-16 1.000000e+00
    outer loop
      vertex 2.375304e+00 -9.240249e+00 7.000000e+00
      vertex 5.452501e+00 -1.245285e+01 7.000000e+00
      vertex 2.707418e+00 -5.302386e+00 7.000000e+00
    endloop
  endfacet
  facet normal -3.791661e-17 -1.133374e-16 1.000000e+00
    outer loop
      vertex 2.707418e+00 -5.302386e+00 7.000000e+00
      vertex 5.452501e+00 -1.245285e+01 7.000000e+00
      vertex 3.974213e+00 9.901459e+00 7.000000e+00
    endloop
  endfacet
  facet normal -3.791661e-17 -1.133374e-16 1.000000e+00
    outer loop
      vertex 3.974213e+00 9.901459e+00 7.000000e+00
      vertex 5.452501e+00 -1.245285e+01 7.000000e+00
      vertex 3.979204e+00 1.302966e+01 7.000000e+00
    endloop
  endfacet
  facet normal -3.791661e-17 -1.133374e-16 1.000000e+00
    outer loop
      vertex 3.979204e+00 1.302966e+01 7.000000e+00
      vertex 5.452501e+00 -1.245285e+01 7.000000e+00
      vertex 4.997280e+00 1.251155e+01 7.000000e+00
    endloop
  endfacet
  facet normal -3.791661e-17 -1.133374e-16 1.000000e+00
    outer loop
      vertex 4.997280e+00 1.251155e+01 7.000000e+00
      vertex 5.452501e+00 -1.245285e+01 7.000000e+00
      vertex 5.453008e+00 -9.952846e+00 7.000000e+00
    endloop
  endfacet
  facet normal -3.791661e-17 -1.133374e-16 1.000000e+00
    outer loop
      vertex 4.997280e+00 1.251155e+01 7.000000e+00
      vertex 5.453008e+00 -9.952846e+00 7.000000e+00
      vertex 5.457499e+00 1.155152e+01 7.000000e+00
    endloop
  endfacet
  facet normal -3.791661e-17 -1.133374e-16 1.000000e+00
    outer loop
      vertex 1.137085e-01 1.021652e+01 7.000000e+00
      vertex -2.802534e-01 1.216407e+01 7.000000e+00
      vertex -4.507818e-01 1.113141e+01 7.000000e+00
    endloop
  endfacet
  facet normal -3.791661e-17 -1.133374e-16 1.000000e+00
    outer loop
      vertex -2.802534e-01 1.216407e+01 7.000000e+00
      vertex 1.137085e-01 1.021652e+01 7.000000e+00
      vertex 5.561371e-01 1.289573e+01 7.000000e+00
    endloop
  endfacet
  facet normal -3.791661e-17 -1.133374e-16 1.000000e+00
    outer loop
      vertex 5.561371e-01 1.289573e+01 7.000000e+00
      vertex 1.137085e-01 1.021652e+01 7.000000e+00
      vertex 3.648481e+00 1.021652e+01 7.000000e+00
    endloop
  endfacet
  facet normal -3.791661e-17 -1.133374e-16 1.000000e+00
    outer loop
      vertex 5.561371e-01 1.289573e+01 7.000000e+00
      vertex 3.648481e+00 1.021652e+01 7.000000e+00
      vertex 1.577821e+00 1.301338e+01 7.000000e+00
    endloop
  endfacet
  facet normal -3.791661e-17 -1.133374e-16 1.000000e+00
    outer loop
      vertex 1.577821e+00 1.301338e+01 7.000000e+00
      vertex 3.648481e+00 1.021652e+01 7.000000e+00
      vertex 3.979204e+00 1.302966e+01 7.000000e+00
    endloop
  endfacet
  facet normal -3.791661e-17 -1.133374e-16 1.000000e+00
    outer loop
      vertex 3.979204e+00 1.302966e+01 7.000000e+00
      vertex 3.648481e+00 1.021652e+01 7.000000e+00
      vertex 3.974213e+00 9.901459e+00 7.000000e+00
    endloop
  endfacet
  facet normal -2.551678e-15 -1.000000e+00 6.837201e-16
    outer loop
      vertex 1.952501e+00 -1.225284e+01 3.095288e+00
      vertex 1.202501e+00 -1.225284e+01 3.095288e+00
      vertex 1.577501e+00 -1.225284e+01 2.994807e+00
    endloop
  endfacet
  facet normal -2.551678e-15 -1.000000e+00 6.837201e-16
    outer loop
      vertex 1.202501e+00 -1.225284e+01 3.095288e+00
      vertex 1.952501e+00 -1.225284e+01 3.095288e+00
      vertex 2.227020e+00 -1.225284e+01 3.369807e+00
    endloop
  endfacet
  facet normal -2.551678e-15 -1.000000e+00 6.837201e-16
    outer loop
      vertex 1.202501e+00 -1.225284e+01 3.095288e+00
      vertex 2.227020e+00 -1.225284e+01 3.369807e+00
      vertex 9.279823e-01 -1.225284e+01 3.369807e+00
    endloop
  endfacet
  facet normal -2.551678e-15 -1.000000e+00 6.837201e-16
    outer loop
      vertex 9.279823e-01 -1.225284e+01 3.369807e+00
      vertex 2.227020e+00 -1.225284e+01 3.369807e+00
      vertex 2.327501e+00 -1.225284e+01 3.744807e+00
    endloop
  endfacet
  facet normal -2.551678e-15 -1.000000e+00 6.837201e-16
    outer loop
      vertex 9.279823e-01 -1.225284e+01 3.369807e+00
      vertex 2.327501e+00 -1.225284e+01 3.744807e+00
      vertex 8.275013e-01 -1.225284e+01 3.744807e+00
    endloop
  endfacet
  facet normal -2.551678e-15 -1.000000e+00 6.837201e-16
    outer loop
      vertex 8.275013e-01 -1.225284e+01 3.744807e+00
      vertex 2.327501e+00 -1.225284e+01 3.744807e+00
      vertex 2.227020e+00 -1.225284e+01 4.119807e+00
    endloop
  endfacet
  facet normal -2.551678e-15 -1.000000e+00 6.837201e-16
    outer loop
      vertex 8.275013e-01 -1.225284e+01 3.744807e+00
      vertex 2.227020e+00 -1.225284e+01 4.119807e+00
      vertex 9.279823e-01 -1.225284e+01 4.119807e+00
    endloop
  endfacet
  facet normal -2.551678e-15 -1.000000e+00 6.837201e-16
    outer loop
      vertex 9.279823e-01 -1.225284e+01 4.119807e+00
      vertex 2.227020e+00 -1.225284e+01 4.119807e+00
      vertex 1.952501e+00 -1.225284e+01 4.394326e+00
    endloop
  endfacet
  facet normal -2.551678e-15 -1.000000e+00 6.837201e-16
    outer loop
      vertex 9.279823e-01 -1.225284e+01 4.119807e+00
      vertex 1.952501e+00 -1.225284e+01 4.394326e+00
      vertex 1.202501e+00 -1.225284e+01 4.394326e+00
    endloop
  endfacet
  facet normal -2.551678e-15 -1.000000e+00 6.837201e-16
    outer loop
      vertex 1.202501e+00 -1.225284e+01 4.394326e+00
      vertex 1.952501e+00 -1.225284e+01 4.394326e+00
      vertex 1.577501e+00 -1.225284e+01 4.494807e+00
    endloop
  endfacet
  facet normal -8.660254e-01 2.551678e-15 5.000000e-01
    outer loop
      vertex 2.227020e+00 -1.225284e+01 3.369807e+00
      vertex 1.952501e+00 -1.245285e+01 3.095288e+00
      vertex 2.227020e+00 -1.245285e+01 3.369807e+00
    endloop
  endfacet
  facet normal -5.000000e-01 1.867958e-15 8.660254e-01
    outer loop
      vertex 1.952501e+00 -1.245285e+01 3.095288e+00
      vertex 2.227020e+00 -1.225284e+01 3.369807e+00
      vertex 1.952501e+00 -1.225284e+01 3.095288e+00
    endloop
  endfacet
  facet normal -1.000000e+00 2.551678e-15 0.000000e+00
    outer loop
      vertex 2.327501e+00 -1.225284e+01 3.744807e+00
      vertex 2.227020e+00 -1.245285e+01 3.369807e+00
      vertex 2.327501e+00 -1.245285e+01 3.744807e+00
    endloop
  endfacet
  facet normal -8.660254e-01 2.551678e-15 5.000000e-01
    outer loop
      vertex 2.227020e+00 -1.245285e+01 3.369807e+00
      vertex 2.327501e+00 -1.225284e+01 3.744807e+00
      vertex 2.227020e+00 -1.225284e+01 3.369807e+00
    endloop
  endfacet
  facet normal -8.660254e-01 1.867958e-15 -5.000000e-01
    outer loop
      vertex 2.227020e+00 -1.225284e+01 4.119807e+00
      vertex 2.327501e+00 -1.245285e+01 3.744807e+00
      vertex 2.227020e+00 -1.245285e+01 4.119807e+00
    endloop
  endfacet
  facet normal -1.000000e+00 2.551678e-15 0.000000e+00
    outer loop
      vertex 2.327501e+00 -1.245285e+01 3.744807e+00
      vertex 2.227020e+00 -1.225284e+01 4.119807e+00
      vertex 2.327501e+00 -1.225284e+01 3.744807e+00
    endloop
  endfacet
  facet normal -5.000000e-01 6.837201e-16 -8.660254e-01
    outer loop
      vertex 1.952501e+00 -1.245285e+01 4.394326e+00
      vertex 2.227020e+00 -1.225284e+01 4.119807e+00
      vertex 2.227020e+00 -1.245285e+01 4.119807e+00
    endloop
  endfacet
  facet normal -8.660254e-01 1.867958e-15 -5.000000e-01
    outer loop
      vertex 2.227020e+00 -1.225284e+01 4.119807e+00
      vertex 1.952501e+00 -1.245285e+01 4.394326e+00
      vertex 1.952501e+00 -1.225284e+01 4.394326e+00
    endloop
  endfacet
  facet normal -5.000000e-01 6.837201e-16 -8.660254e-01
    outer loop
      vertex 1.952501e+00 -1.225284e+01 4.394326e+00
      vertex 1.577501e+00 -1.245285e+01 4.494807e+00
      vertex 1.577501e+00 -1.225284e+01 4.494807e+00
    endloop
  endfacet
  facet normal -4.024475e-16 -6.837201e-16 -1.000000e+00
    outer loop
      vertex 1.577501e+00 -1.245285e+01 4.494807e+00
      vertex 1.952501e+00 -1.225284e+01 4.394326e+00
      vertex 1.952501e+00 -1.245285e+01 4.394326e+00
    endloop
  endfacet
  facet normal 4.024475e-16 -6.837201e-16 -1.000000e+00
    outer loop
      vertex 1.577501e+00 -1.225284e+01 4.494807e+00
      vertex 1.202501e+00 -1.245285e+01 4.394326e+00
      vertex 1.202501e+00 -1.225284e+01 4.394326e+00
    endloop
  endfacet
  facet normal 5.000000e-01 -1.867958e-15 -8.660254e-01
    outer loop
      vertex 1.202501e+00 -1.245285e+01 4.394326e+00
      vertex 1.577501e+00 -1.225284e+01 4.494807e+00
      vertex 1.577501e+00 -1.245285e+01 4.494807e+00
    endloop
  endfacet
  facet normal 8.660254e-01 -2.551678e-15 -5.000000e-01
    outer loop
      vertex 9.279823e-01 -1.225284e+01 4.119807e+00
      vertex 1.202501e+00 -1.245285e+01 4.394326e+00
      vertex 9.279823e-01 -1.245285e+01 4.119807e+00
    endloop
  endfacet
  facet normal 5.000000e-01 -1.867958e-15 -8.660254e-01
    outer loop
      vertex 1.202501e+00 -1.245285e+01 4.394326e+00
      vertex 9.279823e-01 -1.225284e+01 4.119807e+00
      vertex 1.202501e+00 -1.225284e+01 4.394326e+00
    endloop
  endfacet
  facet normal 1.000000e+00 -2.551678e-15 0.000000e+00
    outer loop
      vertex 8.275013e-01 -1.225284e+01 3.744807e+00
      vertex 9.279823e-01 -1.245285e+01 4.119807e+00
      vertex 8.275013e-01 -1.245285e+01 3.744807e+00
    endloop
  endfacet
  facet normal 8.660254e-01 -2.551678e-15 -5.000000e-01
    outer loop
      vertex 9.279823e-01 -1.245285e+01 4.119807e+00
      vertex 8.275013e-01 -1.225284e+01 3.744807e+00
      vertex 9.279823e-01 -1.225284e+01 4.119807e+00
    endloop
  endfacet
  facet normal 8.660254e-01 -1.867958e-15 5.000000e-01
    outer loop
      vertex 9.279823e-01 -1.225284e+01 3.369807e+00
      vertex 8.275013e-01 -1.245285e+01 3.744807e+00
      vertex 9.279823e-01 -1.245285e+01 3.369807e+00
    endloop
  endfacet
  facet normal 1.000000e+00 -2.551678e-15 0.000000e+00
    outer loop
      vertex 8.275013e-01 -1.245285e+01 3.744807e+00
      vertex 9.279823e-01 -1.225284e+01 3.369807e+00
      vertex 8.275013e-01 -1.225284e+01 3.744807e+00
    endloop
  endfacet
  facet normal 5.000000e-01 -6.837201e-16 8.660254e-01
    outer loop
      vertex 1.202501e+00 -1.225284e+01 3.095288e+00
      vertex 9.279823e-01 -1.245285e+01 3.369807e+00
      vertex 1.202501e+00 -1.245285e+01 3.095288e+00
    endloop
  endfacet
  facet normal 8.660254e-01 -1.867958e-15 5.000000e-01
    outer loop
      vertex 9.279823e-01 -1.245285e+01 3.369807e+00
      vertex 1.202501e+00 -1.225284e+01 3.095288e+00
      vertex 9.279823e-01 -1.225284e+01 3.369807e+00
    endloop
  endfacet
  facet normal -4.024475e-16 6.837201e-16 1.000000e+00
    outer loop
      vertex 1.577501e+00 -1.245285e+01 2.994807e+00
      vertex 1.202501e+00 -1.225284e+01 3.095288e+00
      vertex 1.202501e+00 -1.245285e+01 3.095288e+00
    endloop
  endfacet
  facet normal 5.000000e-01 -6.837201e-16 8.660254e-01
    outer loop
      vertex 1.202501e+00 -1.225284e+01 3.095288e+00
      vertex 1.577501e+00 -1.245285e+01 2.994807e+00
      vertex 1.577501e+00 -1.225284e+01 2.994807e+00
    endloop
  endfacet
  facet normal -5.000000e-01 1.867958e-15 8.660254e-01
    outer loop
      vertex 1.952501e+00 -1.245285e+01 3.095288e+00
      vertex 1.577501e+00 -1.225284e+01 2.994807e+00
      vertex 1.577501e+00 -1.245285e+01 2.994807e+00
    endloop
  endfacet
  facet normal 4.024475e-16 6.837201e-16 1.000000e+00
    outer loop
      vertex 1.577501e+00 -1.225284e+01 2.994807e+00
      vertex 1.952501e+00 -1.245285e+01 3.095288e+00
      vertex 1.952501e+00 -1.225284e+01 3.095288e+00
    endloop
  endfacet
endsolid Default
