solid Default
  facet normal 0.000000e+00 0.000000e+00 1.000000e+00
    outer loop
      vertex 5.322500e+01 -4.616000e+01 7.000000e+00
      vertex -5.322500e+01 4.618000e+01 7.000000e+00
      vertex 4.614500e+01 -5.324000e+01 7.000000e+00
    endloop
  endfacet
  facet normal 0.000000e+00 0.000000e+00 1.000000e+00
    outer loop
      vertex -5.322500e+01 4.618000e+01 7.000000e+00
      vertex 5.322500e+01 -4.616000e+01 7.000000e+00
      vertex -4.617500e+01 5.324000e+01 7.000000e+00
    endloop
  endfacet
  facet normal 0.000000e+00 0.000000e+00 -1.000000e+00
    outer loop
      vertex -5.282500e+01 4.613000e+01 0.000000e+00
      vertex 5.286500e+01 -4.616000e+01 0.000000e+00
      vertex 4.614500e+01 -5.288000e+01 0.000000e+00
    endloop
  endfacet
  facet normal 0.000000e+00 0.000000e+00 -1.000000e+00
    outer loop
      vertex 5.286500e+01 -4.616000e+01 0.000000e+00
      vertex -5.282500e+01 4.613000e+01 0.000000e+00
      vertex -4.612499e+01 5.284000e+01 0.000000e+00
    endloop
  endfacet
  facet normal 7.071068e-01 7.071068e-01 0.000000e+00
    outer loop
      vertex 5.322500e+01 -4.616000e+01 7.500000e-01
      vertex 3.525002e+00 3.540001e+00 7.500000e-01
      vertex 5.322500e+01 -4.616000e+01 7.000000e+00
    endloop
  endfacet
  facet normal 7.071068e-01 7.071068e-01 0.000000e+00
    outer loop
      vertex 5.322500e+01 -4.616000e+01 7.000000e+00
      vertex -4.617500e+01 5.324000e+01 7.500000e-01
      vertex -4.617500e+01 5.324000e+01 7.000000e+00
    endloop
  endfacet
  facet normal 6.695895e-01 -6.695895e-01 -3.214032e-01
    outer loop
      vertex 5.322500e+01 -4.616000e+01 7.500000e-01
      vertex 4.614500e+01 -5.288000e+01 0.000000e+00
      vertex 5.286500e+01 -4.616000e+01 0.000000e+00
    endloop
  endfacet
  facet normal 6.695902e-01 -6.695902e-01 -3.214001e-01
    outer loop
      vertex 5.322500e+01 -4.616000e+01 7.500000e-01
      vertex 4.968500e+01 -4.970000e+01 7.500000e-01
      vertex 4.614500e+01 -5.288000e+01 0.000000e+00
    endloop
  endfacet
  facet normal 7.071068e-01 -7.071068e-01 0.000000e+00
    outer loop
      vertex 5.322500e+01 -4.616000e+01 7.000000e+00
      vertex 4.614500e+01 -5.324000e+01 7.500000e-01
      vertex 5.322500e+01 -4.616000e+01 7.500000e-01
    endloop
  endfacet
  facet normal 7.071068e-01 -7.071068e-01 0.000000e+00
    outer loop
      vertex 4.614500e+01 -5.324000e+01 7.500000e-01
      vertex 5.322500e+01 -4.616000e+01 7.000000e+00
      vertex 4.614500e+01 -5.324000e+01 7.000000e+00
    endloop
  endfacet
  facet normal -7.072847e-01 -7.069288e-01 0.000000e+00
    outer loop
      vertex -5.322500e+01 4.618000e+01 7.000000e+00
      vertex 4.614500e+01 -5.324000e+01 7.500000e-01
      vertex 4.614500e+01 -5.324000e+01 7.000000e+00
    endloop
  endfacet
  facet normal -7.073202e-01 -7.068933e-01 0.000000e+00
    outer loop
      vertex -5.322500e+01 4.618000e+01 7.500000e-01
      vertex -3.544998e+00 -3.529998e+00 7.500000e-01
      vertex -5.322500e+01 4.618000e+01 7.000000e+00
    endloop
  endfacet
  facet normal 6.695895e-01 6.695895e-01 -3.214032e-01
    outer loop
      vertex 5.286500e+01 -4.616000e+01 0.000000e+00
      vertex -4.617500e+01 5.324000e+01 7.500000e-01
      vertex 5.322500e+01 -4.616000e+01 7.500000e-01
    endloop
  endfacet
  facet normal 6.715309e-01 6.714629e-01 -3.133429e-01
    outer loop
      vertex -4.617500e+01 5.324000e+01 7.500000e-01
      vertex 5.286500e+01 -4.616000e+01 0.000000e+00
      vertex -4.612499e+01 5.284000e+01 0.000000e+00
    endloop
  endfacet
  facet normal -6.697752e-01 -6.694382e-01 -3.213311e-01
    outer loop
      vertex -5.322500e+01 4.618000e+01 7.500000e-01
      vertex 4.614500e+01 -5.288000e+01 0.000000e+00
      vertex 4.614500e+01 -5.324000e+01 7.500000e-01
    endloop
  endfacet
  facet normal -6.716123e-01 -6.713413e-01 -3.134291e-01
    outer loop
      vertex 4.614500e+01 -5.288000e+01 0.000000e+00
      vertex -5.322500e+01 4.618000e+01 7.500000e-01
      vertex -5.282500e+01 4.613000e+01 0.000000e+00
    endloop
  endfacet
  facet normal -7.071064e-01 7.071064e-01 1.131001e-03
    outer loop
      vertex -4.617500e+01 5.324000e+01 7.500000e-01
      vertex -4.970499e+01 4.971000e+01 7.500000e-01
      vertex -5.322500e+01 4.618000e+01 7.000000e+00
    endloop
  endfacet
  facet normal -7.076072e-01 7.066061e-01 0.000000e+00
    outer loop
      vertex -4.617500e+01 5.324000e+01 7.500000e-01
      vertex -5.322500e+01 4.618000e+01 7.000000e+00
      vertex -4.617500e+01 5.324000e+01 7.000000e+00
    endloop
  endfacet
  facet normal -6.513721e-01 6.504031e-01 -3.907561e-01
    outer loop
      vertex -5.322500e+01 4.618000e+01 7.500000e-01
      vertex -4.612499e+01 5.284000e+01 0.000000e+00
      vertex -5.282500e+01 4.613000e+01 0.000000e+00
    endloop
  endfacet
  facet normal -6.514590e-01 6.505370e-01 -3.903880e-01
    outer loop
      vertex -4.612499e+01 5.284000e+01 0.000000e+00
      vertex -5.322500e+01 4.618000e+01 7.500000e-01
      vertex -4.617500e+01 5.324000e+01 7.500000e-01
    endloop
  endfacet
  facet normal 0.000000e+00 0.000000e+00 1.000000e+00
    outer loop
      vertex 4.968500e+01 -4.970000e+01 7.500000e-01
      vertex 5.322500e+01 -4.616000e+01 7.500000e-01
      vertex -4.617500e+01 5.324000e+01 7.500000e-01
    endloop
  endfacet
  facet normal 0.000000e+00 0.000000e+00 1.000000e+00
    outer loop
      vertex -1.499939e-02 4.768372e-07 7.500000e-01
      vertex -4.617500e+01 5.324000e+01 7.500000e-01
      vertex -5.322500e+01 4.618000e+01 7.500000e-01
    endloop
  endfacet
  facet normal 0.000000e+00 0.000000e+00 -1.000000e+00
    outer loop
      vertex 3.525002e+00 3.540001e+00 7.500000e-01
      vertex 5.322500e+01 -4.616000e+01 7.500000e-01
      vertex 4.614500e+01 -5.324000e+01 7.500000e-01
    endloop
  endfacet
  facet normal 0.000000e+00 0.000000e+00 -1.000000e+00
    outer loop
      vertex -4.970499e+01 4.971000e+01 7.500000e-01
      vertex -4.617500e+01 5.324000e+01 7.500000e-01
      vertex -3.544998e+00 -3.529998e+00 7.500000e-01
    endloop
  endfacet
  facet normal 7.071068e-01 7.071068e-01 0.000000e+00
    outer loop
      vertex 3.525002e+00 3.540001e+00 7.500000e-01
      vertex -4.617500e+01 5.324000e+01 7.500000e-01
      vertex 5.322500e+01 -4.616000e+01 7.000000e+00
    endloop
  endfacet
  facet normal 0.000000e+00 0.000000e+00 -1.000000e+00
    outer loop
      vertex -4.617500e+01 5.324000e+01 7.500000e-01
      vertex 3.525002e+00 3.540001e+00 7.500000e-01
      vertex 4.614500e+01 -5.324000e+01 7.500000e-01
    endloop
  endfacet
  facet normal 6.695900e-01 -6.695890e-01 -3.214030e-01
    outer loop
      vertex 4.968500e+01 -4.970000e+01 7.500000e-01
      vertex 4.614500e+01 -5.324000e+01 7.500000e-01
      vertex 4.614500e+01 -5.288000e+01 0.000000e+00
    endloop
  endfacet
  facet normal 0.000000e+00 0.000000e+00 1.000000e+00
    outer loop
      vertex -4.617500e+01 5.324000e+01 7.500000e-01
      vertex -1.499939e-02 4.768372e-07 7.500000e-01
      vertex 4.968500e+01 -4.970000e+01 7.500000e-01
    endloop
  endfacet
  facet normal -7.072488e-01 -7.069638e-01 1.131000e-03
    outer loop
      vertex -3.544998e+00 -3.529998e+00 7.500000e-01
      vertex 4.614500e+01 -5.324000e+01 7.500000e-01
      vertex -5.322500e+01 4.618000e+01 7.000000e+00
    endloop
  endfacet
  facet normal 0.000000e+00 0.000000e+00 -1.000000e+00
    outer loop
      vertex 4.614500e+01 -5.324000e+01 7.500000e-01
      vertex -3.544998e+00 -3.529998e+00 7.500000e-01
      vertex -4.617500e+01 5.324000e+01 7.500000e-01
    endloop
  endfacet
  facet normal -7.081086e-01 7.061036e-01 0.000000e+00
    outer loop
      vertex -4.970499e+01 4.971000e+01 7.500000e-01
      vertex -5.322500e+01 4.618000e+01 7.500000e-01
      vertex -5.322500e+01 4.618000e+01 7.000000e+00
    endloop
  endfacet
  facet normal 0.000000e+00 0.000000e+00 -1.000000e+00
    outer loop
      vertex -5.322500e+01 4.618000e+01 7.500000e-01
      vertex -4.970499e+01 4.971000e+01 7.500000e-01
      vertex -3.544998e+00 -3.529998e+00 7.500000e-01
    endloop
  endfacet
  facet normal 0.000000e+00 0.000000e+00 1.000000e+00
    outer loop
      vertex -1.499939e-02 4.768372e-07 7.500000e-01
      vertex 4.614500e+01 -5.324000e+01 7.500000e-01
      vertex 4.968500e+01 -4.970000e+01 7.500000e-01
    endloop
  endfacet
  facet normal 0.000000e+00 0.000000e+00 1.000000e+00
    outer loop
      vertex 4.614500e+01 -5.324000e+01 7.500000e-01
      vertex -1.499939e-02 4.768372e-07 7.500000e-01
      vertex -5.322500e+01 4.618000e+01 7.500000e-01
    endloop
  endfacet
endsolid Default
