solid OpenSCAD_Model
  facet normal 0 0 -1
    outer loop
      vertex -12.5 0 0
      vertex -10.8253 6.25 0
      vertex -10.8253 -6.25 0
    endloop
  endfacet
  facet normal 0 0 -1
    outer loop
      vertex -10.8253 -6.25 0
      vertex -10.8253 6.25 0
      vertex -6.25 10.8253 0
    endloop
  endfacet
  facet normal 0 0 -1
    outer loop
      vertex -10.8253 -6.25 0
      vertex -6.25 10.8253 0
      vertex 0 12.5 0
    endloop
  endfacet
  facet normal 0 0 -1
    outer loop
      vertex -0.979092 4.28968 0
      vertex 0 12.5 0
      vertex 6.25 10.8253 0
    endloop
  endfacet
  facet normal 0 0 -1
    outer loop
      vertex 0.979092 4.28968 0
      vertex 6.25 10.8253 0
      vertex 9.07532 8 0
    endloop
  endfacet
  facet normal 0 0 -1
    outer loop
      vertex 15.5077 5.15 0
      vertex 9.07532 8 0
      vertex 36.5 8 0
    endloop
  endfacet
  facet normal 0 0 -1
    outer loop
      vertex 4.4 0 0
      vertex 10.1958 1.98995 0
      vertex 9.89992 1.01447 0
    endloop
  endfacet
  facet normal 0 0 -1
    outer loop
      vertex 3.96426 1.90909 0
      vertex 13.01 4.80417 0
      vertex 12.111 4.32364 0
    endloop
  endfacet
  facet normal 0 0 -1
    outer loop
      vertex 3.96426 1.90909 0
      vertex 12.111 4.32364 0
      vertex 11.323 3.67696 0
    endloop
  endfacet
  facet normal 0 0 -1
    outer loop
      vertex 15 5.2 0
      vertex 9.07532 8 0
      vertex 15.5077 5.15 0
    endloop
  endfacet
  facet normal 0 0 -1
    outer loop
      vertex 13.9855 5.10008 0
      vertex 9.07532 8 0
      vertex 15 5.2 0
    endloop
  endfacet
  facet normal 0 0 -1
    outer loop
      vertex 13.01 4.80417 0
      vertex 9.07532 8 0
      vertex 13.9855 5.10008 0
    endloop
  endfacet
  facet normal 0 0 -1
    outer loop
      vertex 3.96426 1.90909 0
      vertex 9.07532 8 0
      vertex 13.01 4.80417 0
    endloop
  endfacet
  facet normal 0 0 -1
    outer loop
      vertex 3.96426 -1.90909 0
      vertex 9.89992 -1.01447 0
      vertex 2.74335 -3.44006 0
    endloop
  endfacet
  facet normal 0 0 -1
    outer loop
      vertex 9.89992 -1.01447 0
      vertex 3.96426 -1.90909 0
      vertex 9.8 0 0
    endloop
  endfacet
  facet normal 0 0 -1
    outer loop
      vertex 4.4 0 0
      vertex 10.6764 2.88896 0
      vertex 10.1958 1.98995 0
    endloop
  endfacet
  facet normal 0 0 -1
    outer loop
      vertex 3.96426 1.90909 0
      vertex 10.6764 2.88896 0
      vertex 4.4 0 0
    endloop
  endfacet
  facet normal 0 0 -1
    outer loop
      vertex 3.96426 1.90909 0
      vertex 11.323 3.67696 0
      vertex 10.6764 2.88896 0
    endloop
  endfacet
  facet normal 0 0 -1
    outer loop
      vertex -4.4 0 0
      vertex -10.8253 -6.25 0
      vertex -3.96426 1.90909 0
    endloop
  endfacet
  facet normal 0 0 -1
    outer loop
      vertex 10.6764 -2.88896 0
      vertex 11.323 -3.67696 0
      vertex -10.8253 -6.25 0
    endloop
  endfacet
  facet normal 0 0 -1
    outer loop
      vertex 11.323 -3.67696 0
      vertex 12.111 -4.32364 0
      vertex -10.8253 -6.25 0
    endloop
  endfacet
  facet normal 0 0 -1
    outer loop
      vertex 12.111 -4.32364 0
      vertex 13.01 -4.80417 0
      vertex -10.8253 -6.25 0
    endloop
  endfacet
  facet normal 0 0 -1
    outer loop
      vertex 13.01 -4.80417 0
      vertex 13.9855 -5.10008 0
      vertex -10.8253 -6.25 0
    endloop
  endfacet
  facet normal 0 0 -1
    outer loop
      vertex 13.9855 -5.10008 0
      vertex 14.9 -5.19015 0
      vertex -10.8253 -6.25 0
    endloop
  endfacet
  facet normal 0 0 -1
    outer loop
      vertex -10.8253 -6.25 0
      vertex 14.9 -5.19015 0
      vertex 14.9 -5.25 0
    endloop
  endfacet
  facet normal 0 0 -1
    outer loop
      vertex 14.9 -5.25 0
      vertex 37.3264 -5.25 0
      vertex -10.8253 -6.25 0
    endloop
  endfacet
  facet normal 0 0 -1
    outer loop
      vertex 37.3264 -5.25 0
      vertex 37.4561 -5.34423 0
      vertex -10.8253 -6.25 0
    endloop
  endfacet
  facet normal 0 0 -1
    outer loop
      vertex -10.8253 -6.25 0
      vertex 37.4561 -5.34423 0
      vertex 37.5935 -5.47318 0
    endloop
  endfacet
  facet normal 0 0 -1
    outer loop
      vertex -10.8253 -6.25 0
      vertex 37.5935 -5.47318 0
      vertex 37.7135 -5.61832 0
    endloop
  endfacet
  facet normal 0 0 -1
    outer loop
      vertex -10.8253 -6.25 0
      vertex 37.7135 -5.61832 0
      vertex 37.8145 -5.77737 0
    endloop
  endfacet
  facet normal 0 0 -1
    outer loop
      vertex -10.8253 -6.25 0
      vertex 37.8145 -5.77737 0
      vertex 37.8947 -5.94781 0
    endloop
  endfacet
  facet normal 0 0 -1
    outer loop
      vertex -10.8253 -6.25 0
      vertex 37.8947 -5.94781 0
      vertex 37.9529 -6.12696 0
    endloop
  endfacet
  facet normal 0 0 -1
    outer loop
      vertex -10.8253 -6.25 0
      vertex 37.9529 -6.12696 0
      vertex 37.9882 -6.312 0
    endloop
  endfacet
  facet normal 0 0 -1
    outer loop
      vertex -10.8253 -6.25 0
      vertex 37.9882 -6.312 0
      vertex 38 -6.5 0
    endloop
  endfacet
  facet normal 0 0 -1
    outer loop
      vertex -10.8253 -6.25 0
      vertex 38 -6.5 0
      vertex 37.9882 -6.688 0
    endloop
  endfacet
  facet normal 0 0 -1
    outer loop
      vertex -10.8253 -6.25 0
      vertex 37.9882 -6.688 0
      vertex 37.9529 -6.87303 0
    endloop
  endfacet
  facet normal 0 0 -1
    outer loop
      vertex -10.8253 -6.25 0
      vertex 37.9529 -6.87303 0
      vertex 37.8947 -7.05219 0
    endloop
  endfacet
  facet normal 0 0 -1
    outer loop
      vertex -10.8253 -6.25 0
      vertex 37.8947 -7.05219 0
      vertex 37.8145 -7.22263 0
    endloop
  endfacet
  facet normal 0 0 -1
    outer loop
      vertex -10.8253 -6.25 0
      vertex 37.8145 -7.22263 0
      vertex 37.7135 -7.38168 0
    endloop
  endfacet
  facet normal 0 0 -1
    outer loop
      vertex -10.8253 -6.25 0
      vertex 37.7135 -7.38168 0
      vertex 37.5935 -7.52682 0
    endloop
  endfacet
  facet normal 0 0 -1
    outer loop
      vertex -10.8253 -6.25 0
      vertex 37.5935 -7.52682 0
      vertex 37.4561 -7.65577 0
    endloop
  endfacet
  facet normal 0 0 -1
    outer loop
      vertex -10.8253 -6.25 0
      vertex 37.4561 -7.65577 0
      vertex 37.3037 -7.76649 0
    endloop
  endfacet
  facet normal 0 0 -1
    outer loop
      vertex -10.8253 -6.25 0
      vertex 37.3037 -7.76649 0
      vertex 37.1387 -7.85724 0
    endloop
  endfacet
  facet normal 0 0 -1
    outer loop
      vertex -10.8253 -6.25 0
      vertex 37.1387 -7.85724 0
      vertex 36.9635 -7.92658 0
    endloop
  endfacet
  facet normal 0 0 -1
    outer loop
      vertex -10.8253 -6.25 0
      vertex 36.9635 -7.92658 0
      vertex 36.7811 -7.97343 0
    endloop
  endfacet
  facet normal 0 0 -1
    outer loop
      vertex -10.8253 -6.25 0
      vertex 36.7811 -7.97343 0
      vertex 36.5942 -7.99704 0
    endloop
  endfacet
  facet normal 0 0 -1
    outer loop
      vertex -10.8253 -6.25 0
      vertex 36.5942 -7.99704 0
      vertex 36.5 -7.99704 0
    endloop
  endfacet
  facet normal 0 0 -1
    outer loop
      vertex -10.8253 -6.25 0
      vertex 36.5 -7.99704 0
      vertex 36.5 -8 0
    endloop
  endfacet
  facet normal 0 0 -1
    outer loop
      vertex -10.8253 -6.25 0
      vertex 36.5 -8 0
      vertex 9.07532 -8 0
    endloop
  endfacet
  facet normal 0 0 -1
    outer loop
      vertex -10.8253 -6.25 0
      vertex 9.07532 -8 0
      vertex 6.25 -10.8253 0
    endloop
  endfacet
  facet normal 0 0 -1
    outer loop
      vertex 6.25 -10.8253 0
      vertex 0 -12.5 0
      vertex -10.8253 -6.25 0
    endloop
  endfacet
  facet normal 0 0 -1
    outer loop
      vertex -10.8253 -6.25 0
      vertex 0 -12.5 0
      vertex -6.25 -10.8253 0
    endloop
  endfacet
  facet normal 0 0 -1
    outer loop
      vertex -3.96426 -1.90909 0
      vertex -10.8253 -6.25 0
      vertex -4.4 0 0
    endloop
  endfacet
  facet normal 0 0 -1
    outer loop
      vertex 0.979092 4.28968 0
      vertex 9.07532 8 0
      vertex 2.74335 3.44006 0
    endloop
  endfacet
  facet normal 0 0 -1
    outer loop
      vertex -0.979092 -4.28968 0
      vertex -10.8253 -6.25 0
      vertex -2.74335 -3.44006 0
    endloop
  endfacet
  facet normal 0 0 -1
    outer loop
      vertex 2.74335 -3.44006 0
      vertex 10.1958 -1.98995 0
      vertex 10.6764 -2.88896 0
    endloop
  endfacet
  facet normal 0 0 -1
    outer loop
      vertex -10.8253 -6.25 0
      vertex -0.979092 -4.28968 0
      vertex 0.979092 -4.28968 0
    endloop
  endfacet
  facet normal 0 0 -1
    outer loop
      vertex -10.8253 -6.25 0
      vertex 0.979092 -4.28968 0
      vertex 10.6764 -2.88896 0
    endloop
  endfacet
  facet normal 0 0 -1
    outer loop
      vertex 2.74335 -3.44006 0
      vertex 10.6764 -2.88896 0
      vertex 0.979092 -4.28968 0
    endloop
  endfacet
  facet normal 0 0 -1
    outer loop
      vertex 4.4 0 0
      vertex 9.8 0 0
      vertex 3.96426 -1.90909 0
    endloop
  endfacet
  facet normal 0 0 -1
    outer loop
      vertex 4.4 0 0
      vertex 9.89992 1.01447 0
      vertex 9.8 0 0
    endloop
  endfacet
  facet normal 0 0 -1
    outer loop
      vertex 2.74335 3.44006 0
      vertex 9.07532 8 0
      vertex 3.96426 1.90909 0
    endloop
  endfacet
  facet normal 0 0 -1
    outer loop
      vertex -2.74335 -3.44006 0
      vertex -10.8253 -6.25 0
      vertex -3.96426 -1.90909 0
    endloop
  endfacet
  facet normal 0 0 -1
    outer loop
      vertex -0.979092 4.28968 0
      vertex 6.25 10.8253 0
      vertex 0.979092 4.28968 0
    endloop
  endfacet
  facet normal 0 0 -1
    outer loop
      vertex -2.74335 3.44006 0
      vertex 0 12.5 0
      vertex -0.979092 4.28968 0
    endloop
  endfacet
  facet normal 0 0 -1
    outer loop
      vertex -10.8253 -6.25 0
      vertex 0 12.5 0
      vertex -2.74335 3.44006 0
    endloop
  endfacet
  facet normal 0 0 -1
    outer loop
      vertex -10.8253 -6.25 0
      vertex -2.74335 3.44006 0
      vertex -3.96426 1.90909 0
    endloop
  endfacet
  facet normal 0 0 -1
    outer loop
      vertex 15.5077 5.15 0
      vertex 36.5 8 0
      vertex 36.5 7.99704 0
    endloop
  endfacet
  facet normal 0 0 -1
    outer loop
      vertex 15.5077 5.15 0
      vertex 36.5 7.99704 0
      vertex 36.5942 7.99704 0
    endloop
  endfacet
  facet normal 0 0 -1
    outer loop
      vertex 15.5077 5.15 0
      vertex 36.5942 7.99704 0
      vertex 36.7811 7.97343 0
    endloop
  endfacet
  facet normal 0 0 -1
    outer loop
      vertex 15.5077 5.15 0
      vertex 36.7811 7.97343 0
      vertex 36.9635 7.92658 0
    endloop
  endfacet
  facet normal 0 0 -1
    outer loop
      vertex 15.5077 5.15 0
      vertex 36.9635 7.92658 0
      vertex 37.1387 7.85724 0
    endloop
  endfacet
  facet normal 0 0 -1
    outer loop
      vertex 15.5077 5.15 0
      vertex 37.1387 7.85724 0
      vertex 37.3037 7.76649 0
    endloop
  endfacet
  facet normal 0 0 -1
    outer loop
      vertex 15.5077 5.15 0
      vertex 37.3037 7.76649 0
      vertex 37.4561 7.65577 0
    endloop
  endfacet
  facet normal 0 0 -1
    outer loop
      vertex 15.5077 5.15 0
      vertex 37.4561 7.65577 0
      vertex 37.5935 7.52682 0
    endloop
  endfacet
  facet normal 0 0 -1
    outer loop
      vertex 15.5077 5.15 0
      vertex 37.5935 7.52682 0
      vertex 37.7135 7.38168 0
    endloop
  endfacet
  facet normal 0 0 -1
    outer loop
      vertex 15.5077 5.15 0
      vertex 37.7135 7.38168 0
      vertex 37.8145 7.22263 0
    endloop
  endfacet
  facet normal 0 0 -1
    outer loop
      vertex 15.5077 5.15 0
      vertex 37.8145 7.22263 0
      vertex 37.8947 7.05219 0
    endloop
  endfacet
  facet normal 0 0 -1
    outer loop
      vertex 15.5077 5.15 0
      vertex 37.8947 7.05219 0
      vertex 37.9529 6.87303 0
    endloop
  endfacet
  facet normal 0 0 -1
    outer loop
      vertex 15.5077 5.15 0
      vertex 37.9529 6.87303 0
      vertex 37.9882 6.688 0
    endloop
  endfacet
  facet normal 0 0 -1
    outer loop
      vertex 15.5077 5.15 0
      vertex 37.9882 6.688 0
      vertex 38 6.5 0
    endloop
  endfacet
  facet normal 0 0 -1
    outer loop
      vertex 15.5077 5.15 0
      vertex 38 6.5 0
      vertex 37.9882 6.312 0
    endloop
  endfacet
  facet normal 0 0 -1
    outer loop
      vertex 15.5077 5.15 0
      vertex 37.9882 6.312 0
      vertex 37.9529 6.12696 0
    endloop
  endfacet
  facet normal 0 0 -1
    outer loop
      vertex 15.5077 5.15 0
      vertex 37.9529 6.12696 0
      vertex 37.8947 5.94781 0
    endloop
  endfacet
  facet normal 0 0 -1
    outer loop
      vertex 15.5077 5.15 0
      vertex 37.8947 5.94781 0
      vertex 37.8145 5.77737 0
    endloop
  endfacet
  facet normal 0 0 -1
    outer loop
      vertex 15.5077 5.15 0
      vertex 37.8145 5.77737 0
      vertex 37.7135 5.61832 0
    endloop
  endfacet
  facet normal 0 0 -1
    outer loop
      vertex 15.5077 5.15 0
      vertex 37.7135 5.61832 0
      vertex 37.5935 5.47318 0
    endloop
  endfacet
  facet normal 0 0 -1
    outer loop
      vertex 15.5077 5.15 0
      vertex 37.5935 5.47318 0
      vertex 37.4561 5.34423 0
    endloop
  endfacet
  facet normal 0 0 -1
    outer loop
      vertex 15.5077 5.15 0
      vertex 37.4561 5.34423 0
      vertex 37.3037 5.23351 0
    endloop
  endfacet
  facet normal 0 0 -1
    outer loop
      vertex 15.5077 5.15 0
      vertex 37.3037 5.23351 0
      vertex 37.1518 5.15 0
    endloop
  endfacet
  facet normal 0 0 -1
    outer loop
      vertex 10.1958 -1.98995 0
      vertex 2.74335 -3.44006 0
      vertex 9.89992 -1.01447 0
    endloop
  endfacet
  facet normal -0.965926 0.258819 0
    outer loop
      vertex -12.5 0 0
      vertex -12.5 0 2.5
      vertex -10.8253 6.25 0
    endloop
  endfacet
  facet normal -0.965926 0.258819 0
    outer loop
      vertex -10.8253 6.25 0
      vertex -12.5 0 2.5
      vertex -10.8253 6.25 2.5
    endloop
  endfacet
  facet normal -0.965926 -0.258819 0
    outer loop
      vertex -12.5 0 0
      vertex -10.8253 -6.25 0
      vertex -12.5 0 2.5
    endloop
  endfacet
  facet normal -0.965926 -0.258819 0
    outer loop
      vertex -12.5 0 2.5
      vertex -10.8253 -6.25 0
      vertex -10.8253 -6.25 2.5
    endloop
  endfacet
  facet normal -0.707107 -0.707107 0
    outer loop
      vertex -10.8253 -6.25 2.5
      vertex -10.8253 -6.25 0
      vertex -6.25 -10.8253 0
    endloop
  endfacet
  facet normal -0.707107 -0.707107 0
    outer loop
      vertex -6.25 -10.8253 2.5
      vertex -10.8253 -6.25 2.5
      vertex -6.25 -10.8253 0
    endloop
  endfacet
  facet normal -0.258819 -0.965926 0
    outer loop
      vertex -6.25 -10.8253 2.5
      vertex -6.25 -10.8253 0
      vertex 0 -12.5 0
    endloop
  endfacet
  facet normal -0.258819 -0.965926 0
    outer loop
      vertex 0 -12.5 2.5
      vertex -6.25 -10.8253 2.5
      vertex 0 -12.5 0
    endloop
  endfacet
  facet normal 0.258819 -0.965926 0
    outer loop
      vertex 0 -12.5 2.5
      vertex 0 -12.5 0
      vertex 6.25 -10.8253 0
    endloop
  endfacet
  facet normal 0.258819 -0.965926 0
    outer loop
      vertex 6.25 -10.8253 2.5
      vertex 0 -12.5 2.5
      vertex 6.25 -10.8253 0
    endloop
  endfacet
  facet normal 0.707107 -0.707107 0
    outer loop
      vertex 6.25 -10.8253 2.5
      vertex 6.25 -10.8253 0
      vertex 9.07532 -8 0
    endloop
  endfacet
  facet normal 0.707107 -0.707107 0
    outer loop
      vertex 9.07532 -8 2.5
      vertex 6.25 -10.8253 2.5
      vertex 9.07532 -8 0
    endloop
  endfacet
  facet normal 0 -1 0
    outer loop
      vertex 5.3812 -8 12
      vertex 5.3812 -8 2.5
      vertex 9.07532 -8 2.5
    endloop
  endfacet
  facet normal 0 -1 0
    outer loop
      vertex 36.5 -8 0
      vertex 5.3812 -8 12
      vertex 9.07532 -8 2.5
    endloop
  endfacet
  facet normal 0 -1 0
    outer loop
      vertex 9.07532 -8 0
      vertex 36.5 -8 0
      vertex 9.07532 -8 2.5
    endloop
  endfacet
  facet normal 0 -1 0
    outer loop
      vertex 36.5 -8 0
      vertex 36.5 -8 12
      vertex 5.3812 -8 12
    endloop
  endfacet
  facet normal 1 0 0
    outer loop
      vertex 36.5 -8 12
      vertex 36.5 -8 0
      vertex 36.5 -7.99704 0
    endloop
  endfacet
  facet normal 1 0 0
    outer loop
      vertex 36.5 -7.99704 12
      vertex 36.5 -8 12
      vertex 36.5 -7.99704 0
    endloop
  endfacet
  facet normal 0 -1 0
    outer loop
      vertex 36.5 -7.99704 12
      vertex 36.5 -7.99704 0
      vertex 36.5942 -7.99704 0
    endloop
  endfacet
  facet normal 0 -1 0
    outer loop
      vertex 36.5942 -7.99704 12
      vertex 36.5 -7.99704 12
      vertex 36.5942 -7.99704 0
    endloop
  endfacet
  facet normal 0.125332 -0.992115 0
    outer loop
      vertex 36.5942 -7.99704 12
      vertex 36.5942 -7.99704 0
      vertex 36.7811 -7.97343 0
    endloop
  endfacet
  facet normal 0.125332 -0.992115 0
    outer loop
      vertex 36.7811 -7.97343 12
      vertex 36.5942 -7.99704 12
      vertex 36.7811 -7.97343 0
    endloop
  endfacet
  facet normal 0.24869 -0.968583 0
    outer loop
      vertex 36.7811 -7.97343 12
      vertex 36.7811 -7.97343 0
      vertex 36.9635 -7.92658 0
    endloop
  endfacet
  facet normal 0.24869 -0.968583 0
    outer loop
      vertex 36.9635 -7.92658 12
      vertex 36.7811 -7.97343 12
      vertex 36.9635 -7.92658 0
    endloop
  endfacet
  facet normal 0.368123 -0.929777 0
    outer loop
      vertex 36.9635 -7.92658 12
      vertex 36.9635 -7.92658 0
      vertex 37.1387 -7.85724 0
    endloop
  endfacet
  facet normal 0.368123 -0.929777 0
    outer loop
      vertex 37.1387 -7.85724 12
      vertex 36.9635 -7.92658 12
      vertex 37.1387 -7.85724 0
    endloop
  endfacet
  facet normal 0.481756 -0.876306 0
    outer loop
      vertex 37.1387 -7.85724 12
      vertex 37.1387 -7.85724 0
      vertex 37.3037 -7.76649 0
    endloop
  endfacet
  facet normal 0.481756 -0.876306 0
    outer loop
      vertex 37.3037 -7.76649 12
      vertex 37.1387 -7.85724 12
      vertex 37.3037 -7.76649 0
    endloop
  endfacet
  facet normal 0.587785 -0.809017 0
    outer loop
      vertex 37.3037 -7.76649 12
      vertex 37.3037 -7.76649 0
      vertex 37.4561 -7.65577 0
    endloop
  endfacet
  facet normal 0.587785 -0.809017 0
    outer loop
      vertex 37.4561 -7.65577 12
      vertex 37.3037 -7.76649 12
      vertex 37.4561 -7.65577 0
    endloop
  endfacet
  facet normal 0.684546 -0.728969 0
    outer loop
      vertex 37.4561 -7.65577 12
      vertex 37.4561 -7.65577 0
      vertex 37.5935 -7.52682 0
    endloop
  endfacet
  facet normal 0.684546 -0.728969 0
    outer loop
      vertex 37.5935 -7.52682 12
      vertex 37.4561 -7.65577 12
      vertex 37.5935 -7.52682 0
    endloop
  endfacet
  facet normal 0.770515 -0.637422 0
    outer loop
      vertex 37.5935 -7.52682 12
      vertex 37.5935 -7.52682 0
      vertex 37.7135 -7.38168 0
    endloop
  endfacet
  facet normal 0.770515 -0.637422 0
    outer loop
      vertex 37.7135 -7.38168 12
      vertex 37.5935 -7.52682 12
      vertex 37.7135 -7.38168 0
    endloop
  endfacet
  facet normal 0.844326 -0.535829 0
    outer loop
      vertex 37.7135 -7.38168 12
      vertex 37.7135 -7.38168 0
      vertex 37.8145 -7.22263 0
    endloop
  endfacet
  facet normal 0.844326 -0.535829 0
    outer loop
      vertex 37.8145 -7.22263 12
      vertex 37.7135 -7.38168 12
      vertex 37.8145 -7.22263 0
    endloop
  endfacet
  facet normal 0.904827 -0.42578 0
    outer loop
      vertex 37.8145 -7.22263 12
      vertex 37.8145 -7.22263 0
      vertex 37.8947 -7.05219 0
    endloop
  endfacet
  facet normal 0.904827 -0.42578 0
    outer loop
      vertex 37.8947 -7.05219 12
      vertex 37.8145 -7.22263 12
      vertex 37.8947 -7.05219 0
    endloop
  endfacet
  facet normal 0.951057 -0.309017 0
    outer loop
      vertex 37.8947 -7.05219 12
      vertex 37.8947 -7.05219 0
      vertex 37.9529 -6.87303 0
    endloop
  endfacet
  facet normal 0.951057 -0.309017 0
    outer loop
      vertex 37.9529 -6.87303 12
      vertex 37.8947 -7.05219 12
      vertex 37.9529 -6.87303 0
    endloop
  endfacet
  facet normal 0.982288 -0.18738 0
    outer loop
      vertex 37.9529 -6.87303 12
      vertex 37.9529 -6.87303 0
      vertex 37.9882 -6.688 0
    endloop
  endfacet
  facet normal 0.982288 -0.18738 0
    outer loop
      vertex 37.9882 -6.688 12
      vertex 37.9529 -6.87303 12
      vertex 37.9882 -6.688 0
    endloop
  endfacet
  facet normal 0.998027 -0.0627907 0
    outer loop
      vertex 37.9882 -6.688 12
      vertex 37.9882 -6.688 0
      vertex 38 -6.5 0
    endloop
  endfacet
  facet normal 0.998027 -0.0627907 0
    outer loop
      vertex 38 -6.5 12
      vertex 37.9882 -6.688 12
      vertex 38 -6.5 0
    endloop
  endfacet
  facet normal 0.998027 0.0627907 0
    outer loop
      vertex 38 -6.5 0
      vertex 37.9882 -6.312 0
      vertex 37.9882 -6.312 12
    endloop
  endfacet
  facet normal 0.998027 0.0627907 0
    outer loop
      vertex 38 -6.5 12
      vertex 38 -6.5 0
      vertex 37.9882 -6.312 12
    endloop
  endfacet
  facet normal 0.982288 0.18738 0
    outer loop
      vertex 37.9882 -6.312 0
      vertex 37.9529 -6.12696 0
      vertex 37.9529 -6.12696 12
    endloop
  endfacet
  facet normal 0.982288 0.18738 0
    outer loop
      vertex 37.9882 -6.312 12
      vertex 37.9882 -6.312 0
      vertex 37.9529 -6.12696 12
    endloop
  endfacet
  facet normal 0.951057 0.309017 0
    outer loop
      vertex 37.9529 -6.12696 0
      vertex 37.8947 -5.94781 0
      vertex 37.8947 -5.94781 12
    endloop
  endfacet
  facet normal 0.951057 0.309017 0
    outer loop
      vertex 37.9529 -6.12696 12
      vertex 37.9529 -6.12696 0
      vertex 37.8947 -5.94781 12
    endloop
  endfacet
  facet normal 0.904827 0.42578 0
    outer loop
      vertex 37.8947 -5.94781 0
      vertex 37.8145 -5.77737 0
      vertex 37.8145 -5.77737 12
    endloop
  endfacet
  facet normal 0.904827 0.42578 0
    outer loop
      vertex 37.8947 -5.94781 12
      vertex 37.8947 -5.94781 0
      vertex 37.8145 -5.77737 12
    endloop
  endfacet
  facet normal 0.844326 0.535829 0
    outer loop
      vertex 37.8145 -5.77737 0
      vertex 37.7135 -5.61832 0
      vertex 37.7135 -5.61832 12
    endloop
  endfacet
  facet normal 0.844326 0.535829 0
    outer loop
      vertex 37.8145 -5.77737 12
      vertex 37.8145 -5.77737 0
      vertex 37.7135 -5.61832 12
    endloop
  endfacet
  facet normal 0.770515 0.637422 0
    outer loop
      vertex 37.7135 -5.61832 0
      vertex 37.5935 -5.47318 0
      vertex 37.5935 -5.47318 12
    endloop
  endfacet
  facet normal 0.770515 0.637422 0
    outer loop
      vertex 37.7135 -5.61832 12
      vertex 37.7135 -5.61832 0
      vertex 37.5935 -5.47318 12
    endloop
  endfacet
  facet normal 0.684546 0.728969 0
    outer loop
      vertex 37.4561 -5.34423 0
      vertex 37.4561 -5.34423 12
      vertex 37.5935 -5.47318 0
    endloop
  endfacet
  facet normal 0.684546 0.728969 0
    outer loop
      vertex 37.5935 -5.47318 0
      vertex 37.4561 -5.34423 12
      vertex 37.5935 -5.47318 12
    endloop
  endfacet
  facet normal 0.587785 0.809017 0
    outer loop
      vertex 37.3264 -5.25 0
      vertex 37.3264 -5.25 12
      vertex 37.4561 -5.34423 0
    endloop
  endfacet
  facet normal 0.587785 0.809017 0
    outer loop
      vertex 37.4561 -5.34423 0
      vertex 37.3264 -5.25 12
      vertex 37.4561 -5.34423 12
    endloop
  endfacet
  facet normal 0 1 0
    outer loop
      vertex 37.3264 -5.25 12
      vertex 37.3264 -5.25 0
      vertex 14.9 -5.25 12
    endloop
  endfacet
  facet normal 0 1 0
    outer loop
      vertex 14.9 -5.25 12
      vertex 37.3264 -5.25 0
      vertex 14.9 -5.25 0
    endloop
  endfacet
  facet normal 1 0 0
    outer loop
      vertex 14.9 -5.19015 0
      vertex 14.9 -5.19015 12
      vertex 14.9 -5.25 12
    endloop
  endfacet
  facet normal 1 0 0
    outer loop
      vertex 14.9 -5.25 0
      vertex 14.9 -5.19015 0
      vertex 14.9 -5.25 12
    endloop
  endfacet
  facet normal 0.0980176 0.995185 0
    outer loop
      vertex 14.9 -5.19015 12
      vertex 14.9 -5.19015 0
      vertex 13.9855 -5.10008 12
    endloop
  endfacet
  facet normal 0.0980176 0.995185 0
    outer loop
      vertex 13.9855 -5.10008 12
      vertex 14.9 -5.19015 0
      vertex 13.9855 -5.10008 0
    endloop
  endfacet
  facet normal 0.290284 0.956941 0
    outer loop
      vertex 13.9855 -5.10008 12
      vertex 13.9855 -5.10008 0
      vertex 13.01 -4.80417 12
    endloop
  endfacet
  facet normal 0.290284 0.956941 0
    outer loop
      vertex 13.01 -4.80417 12
      vertex 13.9855 -5.10008 0
      vertex 13.01 -4.80417 0
    endloop
  endfacet
  facet normal 0.471397 0.881921 0
    outer loop
      vertex 13.01 -4.80417 12
      vertex 13.01 -4.80417 0
      vertex 12.111 -4.32364 12
    endloop
  endfacet
  facet normal 0.471397 0.881921 0
    outer loop
      vertex 12.111 -4.32364 12
      vertex 13.01 -4.80417 0
      vertex 12.111 -4.32364 0
    endloop
  endfacet
  facet normal 0.634393 0.77301 0
    outer loop
      vertex 12.111 -4.32364 12
      vertex 12.111 -4.32364 0
      vertex 11.323 -3.67696 12
    endloop
  endfacet
  facet normal 0.634393 0.77301 0
    outer loop
      vertex 11.323 -3.67696 12
      vertex 12.111 -4.32364 0
      vertex 11.323 -3.67696 0
    endloop
  endfacet
  facet normal 0.77301 0.634393 0
    outer loop
      vertex 10.6764 -2.88896 12
      vertex 11.323 -3.67696 12
      vertex 11.323 -3.67696 0
    endloop
  endfacet
  facet normal 0.77301 0.634393 0
    outer loop
      vertex 10.6764 -2.88896 0
      vertex 10.6764 -2.88896 12
      vertex 11.323 -3.67696 0
    endloop
  endfacet
  facet normal 0.881921 0.471397 0
    outer loop
      vertex 10.1958 -1.98995 12
      vertex 10.6764 -2.88896 12
      vertex 10.6764 -2.88896 0
    endloop
  endfacet
  facet normal 0.881921 0.471397 0
    outer loop
      vertex 10.1958 -1.98995 0
      vertex 10.1958 -1.98995 12
      vertex 10.6764 -2.88896 0
    endloop
  endfacet
  facet normal 0.956941 0.290284 0
    outer loop
      vertex 9.89992 -1.01447 12
      vertex 10.1958 -1.98995 12
      vertex 10.1958 -1.98995 0
    endloop
  endfacet
  facet normal 0.956941 0.290284 0
    outer loop
      vertex 9.89992 -1.01447 0
      vertex 9.89992 -1.01447 12
      vertex 10.1958 -1.98995 0
    endloop
  endfacet
  facet normal 0.995185 0.0980176 0
    outer loop
      vertex 9.8 0 12
      vertex 9.89992 -1.01447 12
      vertex 9.89992 -1.01447 0
    endloop
  endfacet
  facet normal 0.995185 0.0980176 0
    outer loop
      vertex 9.8 0 0
      vertex 9.8 0 12
      vertex 9.89992 -1.01447 0
    endloop
  endfacet
  facet normal 0.995185 -0.0980176 0
    outer loop
      vertex 9.89992 1.01447 0
      vertex 9.89992 1.01447 12
      vertex 9.8 0 12
    endloop
  endfacet
  facet normal 0.995185 -0.0980176 0
    outer loop
      vertex 9.8 0 0
      vertex 9.89992 1.01447 0
      vertex 9.8 0 12
    endloop
  endfacet
  facet normal 0.956941 -0.290284 0
    outer loop
      vertex 10.1958 1.98995 0
      vertex 10.1958 1.98995 12
      vertex 9.89992 1.01447 12
    endloop
  endfacet
  facet normal 0.956941 -0.290284 0
    outer loop
      vertex 9.89992 1.01447 0
      vertex 10.1958 1.98995 0
      vertex 9.89992 1.01447 12
    endloop
  endfacet
  facet normal 0.881921 -0.471397 0
    outer loop
      vertex 10.6764 2.88896 0
      vertex 10.6764 2.88896 12
      vertex 10.1958 1.98995 12
    endloop
  endfacet
  facet normal 0.881921 -0.471397 0
    outer loop
      vertex 10.1958 1.98995 0
      vertex 10.6764 2.88896 0
      vertex 10.1958 1.98995 12
    endloop
  endfacet
  facet normal 0.77301 -0.634393 0
    outer loop
      vertex 11.323 3.67696 0
      vertex 11.323 3.67696 12
      vertex 10.6764 2.88896 12
    endloop
  endfacet
  facet normal 0.77301 -0.634393 0
    outer loop
      vertex 10.6764 2.88896 0
      vertex 11.323 3.67696 0
      vertex 10.6764 2.88896 12
    endloop
  endfacet
  facet normal 0.634393 -0.77301 0
    outer loop
      vertex 12.111 4.32364 0
      vertex 12.111 4.32364 12
      vertex 11.323 3.67696 12
    endloop
  endfacet
  facet normal 0.634393 -0.77301 0
    outer loop
      vertex 11.323 3.67696 0
      vertex 12.111 4.32364 0
      vertex 11.323 3.67696 12
    endloop
  endfacet
  facet normal 0.471397 -0.881921 0
    outer loop
      vertex 13.01 4.80417 0
      vertex 13.01 4.80417 12
      vertex 12.111 4.32364 12
    endloop
  endfacet
  facet normal 0.471397 -0.881921 0
    outer loop
      vertex 12.111 4.32364 0
      vertex 13.01 4.80417 0
      vertex 12.111 4.32364 12
    endloop
  endfacet
  facet normal 0.290284 -0.956941 0
    outer loop
      vertex 13.9855 5.10008 0
      vertex 13.9855 5.10008 12
      vertex 13.01 4.80417 12
    endloop
  endfacet
  facet normal 0.290284 -0.956941 0
    outer loop
      vertex 13.01 4.80417 0
      vertex 13.9855 5.10008 0
      vertex 13.01 4.80417 12
    endloop
  endfacet
  facet normal 0.0980176 -0.995185 0
    outer loop
      vertex 15 5.2 0
      vertex 15 5.2 12
      vertex 13.9855 5.10008 12
    endloop
  endfacet
  facet normal 0.0980176 -0.995185 0
    outer loop
      vertex 13.9855 5.10008 0
      vertex 15 5.2 0
      vertex 13.9855 5.10008 12
    endloop
  endfacet
  facet normal -0.0980176 -0.995185 0
    outer loop
      vertex 15.5077 5.15 0
      vertex 15.5077 5.15 12
      vertex 15 5.2 12
    endloop
  endfacet
  facet normal -0.0980176 -0.995185 0
    outer loop
      vertex 15 5.2 0
      vertex 15.5077 5.15 0
      vertex 15 5.2 12
    endloop
  endfacet
  facet normal 0 -1 0
    outer loop
      vertex 37.1518 5.15 0
      vertex 37.1518 5.15 12
      vertex 15.5077 5.15 12
    endloop
  endfacet
  facet normal 0 -1 0
    outer loop
      vertex 15.5077 5.15 0
      vertex 37.1518 5.15 0
      vertex 15.5077 5.15 12
    endloop
  endfacet
  facet normal 0.481756 -0.876306 0
    outer loop
      vertex 37.1518 5.15 12
      vertex 37.1518 5.15 0
      vertex 37.3037 5.23351 0
    endloop
  endfacet
  facet normal 0.481756 -0.876306 0
    outer loop
      vertex 37.3037 5.23351 12
      vertex 37.1518 5.15 12
      vertex 37.3037 5.23351 0
    endloop
  endfacet
  facet normal 0.587785 -0.809017 0
    outer loop
      vertex 37.3037 5.23351 12
      vertex 37.3037 5.23351 0
      vertex 37.4561 5.34423 0
    endloop
  endfacet
  facet normal 0.587785 -0.809017 0
    outer loop
      vertex 37.4561 5.34423 12
      vertex 37.3037 5.23351 12
      vertex 37.4561 5.34423 0
    endloop
  endfacet
  facet normal 0.684546 -0.728969 0
    outer loop
      vertex 37.4561 5.34423 12
      vertex 37.4561 5.34423 0
      vertex 37.5935 5.47318 0
    endloop
  endfacet
  facet normal 0.684546 -0.728969 0
    outer loop
      vertex 37.5935 5.47318 12
      vertex 37.4561 5.34423 12
      vertex 37.5935 5.47318 0
    endloop
  endfacet
  facet normal 0.770515 -0.637422 0
    outer loop
      vertex 37.5935 5.47318 12
      vertex 37.5935 5.47318 0
      vertex 37.7135 5.61832 0
    endloop
  endfacet
  facet normal 0.770515 -0.637422 0
    outer loop
      vertex 37.7135 5.61832 12
      vertex 37.5935 5.47318 12
      vertex 37.7135 5.61832 0
    endloop
  endfacet
  facet normal 0.844326 -0.535829 0
    outer loop
      vertex 37.7135 5.61832 12
      vertex 37.7135 5.61832 0
      vertex 37.8145 5.77737 0
    endloop
  endfacet
  facet normal 0.844326 -0.535829 0
    outer loop
      vertex 37.8145 5.77737 12
      vertex 37.7135 5.61832 12
      vertex 37.8145 5.77737 0
    endloop
  endfacet
  facet normal 0.904827 -0.42578 0
    outer loop
      vertex 37.8145 5.77737 12
      vertex 37.8145 5.77737 0
      vertex 37.8947 5.94781 0
    endloop
  endfacet
  facet normal 0.904827 -0.42578 0
    outer loop
      vertex 37.8947 5.94781 12
      vertex 37.8145 5.77737 12
      vertex 37.8947 5.94781 0
    endloop
  endfacet
  facet normal 0.951057 -0.309017 0
    outer loop
      vertex 37.8947 5.94781 12
      vertex 37.8947 5.94781 0
      vertex 37.9529 6.12696 0
    endloop
  endfacet
  facet normal 0.951057 -0.309017 0
    outer loop
      vertex 37.9529 6.12696 12
      vertex 37.8947 5.94781 12
      vertex 37.9529 6.12696 0
    endloop
  endfacet
  facet normal 0.982288 -0.18738 0
    outer loop
      vertex 37.9529 6.12696 12
      vertex 37.9529 6.12696 0
      vertex 37.9882 6.312 0
    endloop
  endfacet
  facet normal 0.982288 -0.18738 0
    outer loop
      vertex 37.9882 6.312 12
      vertex 37.9529 6.12696 12
      vertex 37.9882 6.312 0
    endloop
  endfacet
  facet normal 0.998027 -0.0627907 0
    outer loop
      vertex 37.9882 6.312 12
      vertex 37.9882 6.312 0
      vertex 38 6.5 0
    endloop
  endfacet
  facet normal 0.998027 -0.0627907 0
    outer loop
      vertex 38 6.5 12
      vertex 37.9882 6.312 12
      vertex 38 6.5 0
    endloop
  endfacet
  facet normal 0.998027 0.0627907 0
    outer loop
      vertex 38 6.5 0
      vertex 37.9882 6.688 0
      vertex 37.9882 6.688 12
    endloop
  endfacet
  facet normal 0.998027 0.0627907 0
    outer loop
      vertex 38 6.5 12
      vertex 38 6.5 0
      vertex 37.9882 6.688 12
    endloop
  endfacet
  facet normal 0.982288 0.18738 0
    outer loop
      vertex 37.9882 6.688 0
      vertex 37.9529 6.87303 0
      vertex 37.9529 6.87303 12
    endloop
  endfacet
  facet normal 0.982288 0.18738 0
    outer loop
      vertex 37.9882 6.688 12
      vertex 37.9882 6.688 0
      vertex 37.9529 6.87303 12
    endloop
  endfacet
  facet normal 0.951057 0.309017 0
    outer loop
      vertex 37.9529 6.87303 0
      vertex 37.8947 7.05219 0
      vertex 37.8947 7.05219 12
    endloop
  endfacet
  facet normal 0.951057 0.309017 0
    outer loop
      vertex 37.9529 6.87303 12
      vertex 37.9529 6.87303 0
      vertex 37.8947 7.05219 12
    endloop
  endfacet
  facet normal 0.904827 0.42578 0
    outer loop
      vertex 37.8947 7.05219 0
      vertex 37.8145 7.22263 0
      vertex 37.8145 7.22263 12
    endloop
  endfacet
  facet normal 0.904827 0.42578 0
    outer loop
      vertex 37.8947 7.05219 12
      vertex 37.8947 7.05219 0
      vertex 37.8145 7.22263 12
    endloop
  endfacet
  facet normal 0.844326 0.535829 0
    outer loop
      vertex 37.8145 7.22263 0
      vertex 37.7135 7.38168 0
      vertex 37.7135 7.38168 12
    endloop
  endfacet
  facet normal 0.844326 0.535829 0
    outer loop
      vertex 37.8145 7.22263 12
      vertex 37.8145 7.22263 0
      vertex 37.7135 7.38168 12
    endloop
  endfacet
  facet normal 0.770515 0.637422 0
    outer loop
      vertex 37.7135 7.38168 0
      vertex 37.5935 7.52682 0
      vertex 37.5935 7.52682 12
    endloop
  endfacet
  facet normal 0.770515 0.637422 0
    outer loop
      vertex 37.7135 7.38168 12
      vertex 37.7135 7.38168 0
      vertex 37.5935 7.52682 12
    endloop
  endfacet
  facet normal 0.684546 0.728969 0
    outer loop
      vertex 37.4561 7.65577 0
      vertex 37.4561 7.65577 12
      vertex 37.5935 7.52682 0
    endloop
  endfacet
  facet normal 0.684546 0.728969 0
    outer loop
      vertex 37.5935 7.52682 0
      vertex 37.4561 7.65577 12
      vertex 37.5935 7.52682 12
    endloop
  endfacet
  facet normal 0.587785 0.809017 0
    outer loop
      vertex 37.3037 7.76649 0
      vertex 37.3037 7.76649 12
      vertex 37.4561 7.65577 0
    endloop
  endfacet
  facet normal 0.587785 0.809017 0
    outer loop
      vertex 37.4561 7.65577 0
      vertex 37.3037 7.76649 12
      vertex 37.4561 7.65577 12
    endloop
  endfacet
  facet normal 0.481756 0.876306 0
    outer loop
      vertex 37.1387 7.85724 0
      vertex 37.1387 7.85724 12
      vertex 37.3037 7.76649 0
    endloop
  endfacet
  facet normal 0.481756 0.876306 0
    outer loop
      vertex 37.3037 7.76649 0
      vertex 37.1387 7.85724 12
      vertex 37.3037 7.76649 12
    endloop
  endfacet
  facet normal 0.368123 0.929777 0
    outer loop
      vertex 36.9635 7.92658 0
      vertex 36.9635 7.92658 12
      vertex 37.1387 7.85724 0
    endloop
  endfacet
  facet normal 0.368123 0.929777 0
    outer loop
      vertex 37.1387 7.85724 0
      vertex 36.9635 7.92658 12
      vertex 37.1387 7.85724 12
    endloop
  endfacet
  facet normal 0.24869 0.968583 0
    outer loop
      vertex 36.7811 7.97343 0
      vertex 36.7811 7.97343 12
      vertex 36.9635 7.92658 0
    endloop
  endfacet
  facet normal 0.24869 0.968583 0
    outer loop
      vertex 36.9635 7.92658 0
      vertex 36.7811 7.97343 12
      vertex 36.9635 7.92658 12
    endloop
  endfacet
  facet normal 0.125332 0.992115 0
    outer loop
      vertex 36.5942 7.99704 0
      vertex 36.5942 7.99704 12
      vertex 36.7811 7.97343 0
    endloop
  endfacet
  facet normal 0.125332 0.992115 0
    outer loop
      vertex 36.7811 7.97343 0
      vertex 36.5942 7.99704 12
      vertex 36.7811 7.97343 12
    endloop
  endfacet
  facet normal 0 1 0
    outer loop
      vertex 36.5 7.99704 0
      vertex 36.5 7.99704 12
      vertex 36.5942 7.99704 0
    endloop
  endfacet
  facet normal 0 1 0
    outer loop
      vertex 36.5942 7.99704 0
      vertex 36.5 7.99704 12
      vertex 36.5942 7.99704 12
    endloop
  endfacet
  facet normal 1 0 0
    outer loop
      vertex 36.5 7.99704 12
      vertex 36.5 7.99704 0
      vertex 36.5 8 0
    endloop
  endfacet
  facet normal 1 0 0
    outer loop
      vertex 36.5 8 12
      vertex 36.5 7.99704 12
      vertex 36.5 8 0
    endloop
  endfacet
  facet normal 0 1 0
    outer loop
      vertex 5.3812 8 2.5
      vertex 5.3812 8 12
      vertex 9.07532 8 2.5
    endloop
  endfacet
  facet normal 0 1 0
    outer loop
      vertex 9.07532 8 2.5
      vertex 5.3812 8 12
      vertex 36.5 8 12
    endloop
  endfacet
  facet normal 0 1 0
    outer loop
      vertex 9.07532 8 2.5
      vertex 36.5 8 12
      vertex 36.5 8 0
    endloop
  endfacet
  facet normal 0 1 0
    outer loop
      vertex 9.07532 8 2.5
      vertex 36.5 8 0
      vertex 9.07532 8 0
    endloop
  endfacet
  facet normal 0.707107 0.707107 0
    outer loop
      vertex 6.25 10.8253 0
      vertex 6.25 10.8253 2.5
      vertex 9.07532 8 0
    endloop
  endfacet
  facet normal 0.707107 0.707107 0
    outer loop
      vertex 9.07532 8 0
      vertex 6.25 10.8253 2.5
      vertex 9.07532 8 2.5
    endloop
  endfacet
  facet normal 0.258819 0.965926 0
    outer loop
      vertex 0 12.5 0
      vertex 0 12.5 2.5
      vertex 6.25 10.8253 0
    endloop
  endfacet
  facet normal 0.258819 0.965926 0
    outer loop
      vertex 6.25 10.8253 0
      vertex 0 12.5 2.5
      vertex 6.25 10.8253 2.5
    endloop
  endfacet
  facet normal -0.258819 0.965926 0
    outer loop
      vertex -6.25 10.8253 0
      vertex -6.25 10.8253 2.5
      vertex 0 12.5 0
    endloop
  endfacet
  facet normal -0.258819 0.965926 0
    outer loop
      vertex 0 12.5 0
      vertex -6.25 10.8253 2.5
      vertex 0 12.5 2.5
    endloop
  endfacet
  facet normal -0.707107 0.707107 0
    outer loop
      vertex -10.8253 6.25 0
      vertex -10.8253 6.25 2.5
      vertex -6.25 10.8253 0
    endloop
  endfacet
  facet normal -0.707107 0.707107 0
    outer loop
      vertex -6.25 10.8253 0
      vertex -10.8253 6.25 2.5
      vertex -6.25 10.8253 2.5
    endloop
  endfacet
  facet normal 0.974928 -0.222521 0
    outer loop
      vertex -3.96426 1.90909 0
      vertex -3.96426 1.90909 2
      vertex -4.4 0 2
    endloop
  endfacet
  facet normal 0.974928 -0.222521 0
    outer loop
      vertex -4.4 0 0
      vertex -3.96426 1.90909 0
      vertex -4.4 0 2
    endloop
  endfacet
  facet normal 0.974928 0.222521 0
    outer loop
      vertex -4.4 0 2
      vertex -3.96426 -1.90909 2
      vertex -3.96426 -1.90909 0
    endloop
  endfacet
  facet normal 0.974928 0.222521 0
    outer loop
      vertex -4.4 0 0
      vertex -4.4 0 2
      vertex -3.96426 -1.90909 0
    endloop
  endfacet
  facet normal 0.781832 -0.62349 0
    outer loop
      vertex -2.74335 3.44006 0
      vertex -2.74335 3.44006 2
      vertex -3.96426 1.90909 2
    endloop
  endfacet
  facet normal 0.781832 -0.62349 0
    outer loop
      vertex -3.96426 1.90909 0
      vertex -2.74335 3.44006 0
      vertex -3.96426 1.90909 2
    endloop
  endfacet
  facet normal 0.433884 -0.900969 0
    outer loop
      vertex -0.979092 4.28968 0
      vertex -0.979092 4.28968 2
      vertex -2.74335 3.44006 2
    endloop
  endfacet
  facet normal 0.433884 -0.900969 0
    outer loop
      vertex -2.74335 3.44006 0
      vertex -0.979092 4.28968 0
      vertex -2.74335 3.44006 2
    endloop
  endfacet
  facet normal 0 -1 0
    outer loop
      vertex 0.979092 4.28968 0
      vertex 0.979092 4.28968 2
      vertex -0.979092 4.28968 2
    endloop
  endfacet
  facet normal 0 -1 0
    outer loop
      vertex -0.979092 4.28968 0
      vertex 0.979092 4.28968 0
      vertex -0.979092 4.28968 2
    endloop
  endfacet
  facet normal -0.433884 -0.900969 0
    outer loop
      vertex 2.74335 3.44006 0
      vertex 2.74335 3.44006 2
      vertex 0.979092 4.28968 2
    endloop
  endfacet
  facet normal -0.433884 -0.900969 0
    outer loop
      vertex 0.979092 4.28968 0
      vertex 2.74335 3.44006 0
      vertex 0.979092 4.28968 2
    endloop
  endfacet
  facet normal -0.781832 -0.62349 0
    outer loop
      vertex 3.96426 1.90909 2
      vertex 2.74335 3.44006 2
      vertex 3.96426 1.90909 0
    endloop
  endfacet
  facet normal -0.781832 -0.62349 0
    outer loop
      vertex 3.96426 1.90909 0
      vertex 2.74335 3.44006 2
      vertex 2.74335 3.44006 0
    endloop
  endfacet
  facet normal -0.974928 -0.222521 0
    outer loop
      vertex 4.4 0 2
      vertex 3.96426 1.90909 2
      vertex 4.4 0 0
    endloop
  endfacet
  facet normal -0.974928 -0.222521 0
    outer loop
      vertex 4.4 0 0
      vertex 3.96426 1.90909 2
      vertex 3.96426 1.90909 0
    endloop
  endfacet
  facet normal -0.974928 0.222521 0
    outer loop
      vertex 4.4 0 2
      vertex 4.4 0 0
      vertex 3.96426 -1.90909 2
    endloop
  endfacet
  facet normal -0.974928 0.222521 0
    outer loop
      vertex 3.96426 -1.90909 2
      vertex 4.4 0 0
      vertex 3.96426 -1.90909 0
    endloop
  endfacet
  facet normal -0.781832 0.62349 0
    outer loop
      vertex 3.96426 -1.90909 2
      vertex 3.96426 -1.90909 0
      vertex 2.74335 -3.44006 2
    endloop
  endfacet
  facet normal -0.781832 0.62349 0
    outer loop
      vertex 2.74335 -3.44006 2
      vertex 3.96426 -1.90909 0
      vertex 2.74335 -3.44006 0
    endloop
  endfacet
  facet normal -0.433884 0.900969 0
    outer loop
      vertex 2.74335 -3.44006 2
      vertex 2.74335 -3.44006 0
      vertex 0.979092 -4.28968 2
    endloop
  endfacet
  facet normal -0.433884 0.900969 0
    outer loop
      vertex 0.979092 -4.28968 2
      vertex 2.74335 -3.44006 0
      vertex 0.979092 -4.28968 0
    endloop
  endfacet
  facet normal 0 1 0
    outer loop
      vertex 0.979092 -4.28968 2
      vertex 0.979092 -4.28968 0
      vertex -0.979092 -4.28968 2
    endloop
  endfacet
  facet normal 0 1 0
    outer loop
      vertex -0.979092 -4.28968 2
      vertex 0.979092 -4.28968 0
      vertex -0.979092 -4.28968 0
    endloop
  endfacet
  facet normal 0.433884 0.900969 0
    outer loop
      vertex -0.979092 -4.28968 2
      vertex -0.979092 -4.28968 0
      vertex -2.74335 -3.44006 2
    endloop
  endfacet
  facet normal 0.433884 0.900969 0
    outer loop
      vertex -2.74335 -3.44006 2
      vertex -0.979092 -4.28968 0
      vertex -2.74335 -3.44006 0
    endloop
  endfacet
  facet normal 0.781832 0.62349 0
    outer loop
      vertex -3.96426 -1.90909 2
      vertex -2.74335 -3.44006 2
      vertex -2.74335 -3.44006 0
    endloop
  endfacet
  facet normal 0.781832 0.62349 0
    outer loop
      vertex -3.96426 -1.90909 0
      vertex -3.96426 -1.90909 2
      vertex -2.74335 -3.44006 0
    endloop
  endfacet
  facet normal 0 0 1
    outer loop
      vertex -10.8253 6.25 2.5
      vertex -12.5 0 2.5
      vertex -10.8253 -6.25 2.5
    endloop
  endfacet
  facet normal 0 0 1
    outer loop
      vertex -10 0 2.5
      vertex -10.8253 6.25 2.5
      vertex -10.8253 -6.25 2.5
    endloop
  endfacet
  facet normal 0 0 1
    outer loop
      vertex -5 -8.66025 2.5
      vertex -10 0 2.5
      vertex -6.25 -10.8253 2.5
    endloop
  endfacet
  facet normal 0 0 1
    outer loop
      vertex 9.07532 -8 2.5
      vertex 5.3812 -8 2.5
      vertex 6.25 -10.8253 2.5
    endloop
  endfacet
  facet normal 0 0 1
    outer loop
      vertex 5.3812 -8 2.5
      vertex 5 -8.66025 2.5
      vertex 6.25 -10.8253 2.5
    endloop
  endfacet
  facet normal 0 0 1
    outer loop
      vertex 0 -12.5 2.5
      vertex -5 -8.66025 2.5
      vertex -6.25 -10.8253 2.5
    endloop
  endfacet
  facet normal 0 0 1
    outer loop
      vertex -6.25 -10.8253 2.5
      vertex -10 0 2.5
      vertex -10.8253 -6.25 2.5
    endloop
  endfacet
  facet normal 0 0 1
    outer loop
      vertex 0 12.5 2.5
      vertex -10.8253 6.25 2.5
      vertex -5 8.66025 2.5
    endloop
  endfacet
  facet normal 0 0 1
    outer loop
      vertex 6.25 10.8253 2.5
      vertex -5 8.66025 2.5
      vertex 5 8.66025 2.5
    endloop
  endfacet
  facet normal 0 0 1
    outer loop
      vertex 9.07532 8 2.5
      vertex 5 8.66025 2.5
      vertex 5.3812 8 2.5
    endloop
  endfacet
  facet normal 0 0 1
    outer loop
      vertex 6.25 10.8253 2.5
      vertex 5 8.66025 2.5
      vertex 9.07532 8 2.5
    endloop
  endfacet
  facet normal 0 0 1
    outer loop
      vertex 0 12.5 2.5
      vertex -5 8.66025 2.5
      vertex 6.25 10.8253 2.5
    endloop
  endfacet
  facet normal 0 0 1
    outer loop
      vertex -6.25 10.8253 2.5
      vertex -10.8253 6.25 2.5
      vertex 0 12.5 2.5
    endloop
  endfacet
  facet normal 0 0 1
    outer loop
      vertex 5 -8.66025 2.5
      vertex 0 -12.5 2.5
      vertex 6.25 -10.8253 2.5
    endloop
  endfacet
  facet normal 0 0 1
    outer loop
      vertex 5 -8.66025 2.5
      vertex -5 -8.66025 2.5
      vertex 0 -12.5 2.5
    endloop
  endfacet
  facet normal 0 0 1
    outer loop
      vertex -10 0 2.5
      vertex -5 8.66025 2.5
      vertex -10.8253 6.25 2.5
    endloop
  endfacet
  facet normal 0 0 1
    outer loop
      vertex -7.7 0 12
      vertex -10 0 12
      vertex -5 -8.66025 12
    endloop
  endfacet
  facet normal 0 0 1
    outer loop
      vertex 3.85 6.6684 12
      vertex 11.323 3.67696 12
      vertex 12.111 4.32364 12
    endloop
  endfacet
  facet normal 0 0 1
    outer loop
      vertex 36.5 7.99704 12
      vertex 37.7135 7.38168 12
      vertex 37.5935 7.52682 12
    endloop
  endfacet
  facet normal 0 0 1
    outer loop
      vertex 36.5 7.99704 12
      vertex 37.8145 7.22263 12
      vertex 37.7135 7.38168 12
    endloop
  endfacet
  facet normal 0 0 1
    outer loop
      vertex 36.5 7.99704 12
      vertex 37.8947 7.05219 12
      vertex 37.8145 7.22263 12
    endloop
  endfacet
  facet normal 0 0 1
    outer loop
      vertex 36.5 7.99704 12
      vertex 37.9529 6.87303 12
      vertex 37.8947 7.05219 12
    endloop
  endfacet
  facet normal 0 0 1
    outer loop
      vertex 36.5 7.99704 12
      vertex 37.9882 6.688 12
      vertex 37.9529 6.87303 12
    endloop
  endfacet
  facet normal 0 0 1
    outer loop
      vertex 36.5 7.99704 12
      vertex 38 6.5 12
      vertex 37.9882 6.688 12
    endloop
  endfacet
  facet normal 0 0 1
    outer loop
      vertex 36.5 7.99704 12
      vertex 37.9882 6.312 12
      vertex 38 6.5 12
    endloop
  endfacet
  facet normal 0 0 1
    outer loop
      vertex 36.5 7.99704 12
      vertex 37.9529 6.12696 12
      vertex 37.9882 6.312 12
    endloop
  endfacet
  facet normal 0 0 1
    outer loop
      vertex 36.5 7.99704 12
      vertex 37.8947 5.94781 12
      vertex 37.9529 6.12696 12
    endloop
  endfacet
  facet normal 0 0 1
    outer loop
      vertex 36.5 7.99704 12
      vertex 5.3812 8 12
      vertex 37.8947 5.94781 12
    endloop
  endfacet
  facet normal 0 0 1
    outer loop
      vertex 36.5 8 12
      vertex 5.3812 8 12
      vertex 36.5 7.99704 12
    endloop
  endfacet
  facet normal 0 0 1
    outer loop
      vertex 36.5 -8 12
      vertex 14.9 -5.25 12
      vertex 5.3812 -8 12
    endloop
  endfacet
  facet normal 0 0 1
    outer loop
      vertex 10.1958 -1.98995 12
      vertex 9.89992 -1.01447 12
      vertex 7.7 0 12
    endloop
  endfacet
  facet normal 0 0 1
    outer loop
      vertex 36.5 7.99704 12
      vertex 37.1387 7.85724 12
      vertex 36.9635 7.92658 12
    endloop
  endfacet
  facet normal 0 0 1
    outer loop
      vertex 7.7 0 12
      vertex 5 -8.66025 12
      vertex 5.3812 -8 12
    endloop
  endfacet
  facet normal 0 0 1
    outer loop
      vertex 14.9 -5.25 12
      vertex 13.9855 -5.10008 12
      vertex 5.3812 -8 12
    endloop
  endfacet
  facet normal 0 0 1
    outer loop
      vertex 13.9855 -5.10008 12
      vertex 13.01 -4.80417 12
      vertex 5.3812 -8 12
    endloop
  endfacet
  facet normal 0 0 1
    outer loop
      vertex 13.01 -4.80417 12
      vertex 12.111 -4.32364 12
      vertex 5.3812 -8 12
    endloop
  endfacet
  facet normal 0 0 1
    outer loop
      vertex 14.9 -5.19015 12
      vertex 13.9855 -5.10008 12
      vertex 14.9 -5.25 12
    endloop
  endfacet
  facet normal 0 0 1
    outer loop
      vertex 36.5 7.99704 12
      vertex 37.3037 7.76649 12
      vertex 37.1387 7.85724 12
    endloop
  endfacet
  facet normal 0 0 1
    outer loop
      vertex 36.5 7.99704 12
      vertex 37.4561 7.65577 12
      vertex 37.3037 7.76649 12
    endloop
  endfacet
  facet normal 0 0 1
    outer loop
      vertex 36.5 7.99704 12
      vertex 37.5935 7.52682 12
      vertex 37.4561 7.65577 12
    endloop
  endfacet
  facet normal 0 0 1
    outer loop
      vertex 13.9855 5.10008 12
      vertex -5 8.66025 12
      vertex 13.01 4.80417 12
    endloop
  endfacet
  facet normal 0 0 1
    outer loop
      vertex 15 5.2 12
      vertex -5 8.66025 12
      vertex 13.9855 5.10008 12
    endloop
  endfacet
  facet normal 0 0 1
    outer loop
      vertex 15.5077 5.15 12
      vertex -5 8.66025 12
      vertex 15 5.2 12
    endloop
  endfacet
  facet normal 0 0 1
    outer loop
      vertex 37.1518 5.15 12
      vertex -5 8.66025 12
      vertex 15.5077 5.15 12
    endloop
  endfacet
  facet normal 0 0 1
    outer loop
      vertex 37.3037 5.23351 12
      vertex -5 8.66025 12
      vertex 37.1518 5.15 12
    endloop
  endfacet
  facet normal 0 0 1
    outer loop
      vertex 37.4561 5.34423 12
      vertex -5 8.66025 12
      vertex 37.3037 5.23351 12
    endloop
  endfacet
  facet normal 0 0 1
    outer loop
      vertex 37.5935 5.47318 12
      vertex -5 8.66025 12
      vertex 37.4561 5.34423 12
    endloop
  endfacet
  facet normal 0 0 1
    outer loop
      vertex 37.7135 5.61832 12
      vertex -5 8.66025 12
      vertex 37.5935 5.47318 12
    endloop
  endfacet
  facet normal 0 0 1
    outer loop
      vertex 37.8145 5.77737 12
      vertex -5 8.66025 12
      vertex 37.7135 5.61832 12
    endloop
  endfacet
  facet normal 0 0 1
    outer loop
      vertex 5.3812 8 12
      vertex -5 8.66025 12
      vertex 37.8145 5.77737 12
    endloop
  endfacet
  facet normal 0 0 1
    outer loop
      vertex 5.3812 8 12
      vertex 5 8.66025 12
      vertex -5 8.66025 12
    endloop
  endfacet
  facet normal 0 0 1
    outer loop
      vertex -7.7 0 12
      vertex -3.85 6.6684 12
      vertex -5 8.66025 12
    endloop
  endfacet
  facet normal 0 0 1
    outer loop
      vertex 3.85 6.6684 12
      vertex 9.8 0 12
      vertex 9.89992 1.01447 12
    endloop
  endfacet
  facet normal 0 0 1
    outer loop
      vertex 3.85 6.6684 12
      vertex 9.89992 -1.01447 12
      vertex 9.8 0 12
    endloop
  endfacet
  facet normal 0 0 1
    outer loop
      vertex 3.85 6.6684 12
      vertex 7.7 0 12
      vertex 9.89992 -1.01447 12
    endloop
  endfacet
  facet normal 0 0 1
    outer loop
      vertex 7.7 0 12
      vertex 10.6764 -2.88896 12
      vertex 10.1958 -1.98995 12
    endloop
  endfacet
  facet normal 0 0 1
    outer loop
      vertex 7.7 0 12
      vertex 11.323 -3.67696 12
      vertex 10.6764 -2.88896 12
    endloop
  endfacet
  facet normal 0 0 1
    outer loop
      vertex 11.323 -3.67696 12
      vertex 5.3812 -8 12
      vertex 12.111 -4.32364 12
    endloop
  endfacet
  facet normal 0 0 1
    outer loop
      vertex 7.7 0 12
      vertex 5.3812 -8 12
      vertex 11.323 -3.67696 12
    endloop
  endfacet
  facet normal 0 0 1
    outer loop
      vertex -3.85 6.6684 12
      vertex 3.85 6.6684 12
      vertex -5 8.66025 12
    endloop
  endfacet
  facet normal 0 0 1
    outer loop
      vertex -3.85 -6.6684 12
      vertex -7.7 0 12
      vertex -5 -8.66025 12
    endloop
  endfacet
  facet normal 0 0 1
    outer loop
      vertex 36.5942 7.99704 12
      vertex 36.5 7.99704 12
      vertex 36.7811 7.97343 12
    endloop
  endfacet
  facet normal 0 0 1
    outer loop
      vertex 36.5 7.99704 12
      vertex 36.9635 7.92658 12
      vertex 36.7811 7.97343 12
    endloop
  endfacet
  facet normal 0 0 1
    outer loop
      vertex 3.85 6.6684 12
      vertex 9.89992 1.01447 12
      vertex 10.1958 1.98995 12
    endloop
  endfacet
  facet normal 0 0 1
    outer loop
      vertex 37.8947 5.94781 12
      vertex 5.3812 8 12
      vertex 37.8145 5.77737 12
    endloop
  endfacet
  facet normal 0 0 1
    outer loop
      vertex 5 -8.66025 12
      vertex -3.85 -6.6684 12
      vertex -5 -8.66025 12
    endloop
  endfacet
  facet normal 0 0 1
    outer loop
      vertex 3.85 6.6684 12
      vertex 10.1958 1.98995 12
      vertex 10.6764 2.88896 12
    endloop
  endfacet
  facet normal 0 0 1
    outer loop
      vertex -5 8.66025 12
      vertex -10 0 12
      vertex -7.7 0 12
    endloop
  endfacet
  facet normal 0 0 1
    outer loop
      vertex 13.01 4.80417 12
      vertex 3.85 6.6684 12
      vertex 12.111 4.32364 12
    endloop
  endfacet
  facet normal 0 0 1
    outer loop
      vertex 13.01 4.80417 12
      vertex -5 8.66025 12
      vertex 3.85 6.6684 12
    endloop
  endfacet
  facet normal 0 0 1
    outer loop
      vertex 5 -8.66025 12
      vertex 3.85 -6.6684 12
      vertex -3.85 -6.6684 12
    endloop
  endfacet
  facet normal 0 0 1
    outer loop
      vertex 3.85 6.6684 12
      vertex 10.6764 2.88896 12
      vertex 11.323 3.67696 12
    endloop
  endfacet
  facet normal 0 0 1
    outer loop
      vertex 7.7 0 12
      vertex 3.85 -6.6684 12
      vertex 5 -8.66025 12
    endloop
  endfacet
  facet normal 0 0 1
    outer loop
      vertex 37.3264 -5.25 12
      vertex 37.5935 -5.47318 12
      vertex 37.4561 -5.34423 12
    endloop
  endfacet
  facet normal 0 0 1
    outer loop
      vertex 37.3264 -5.25 12
      vertex 37.7135 -5.61832 12
      vertex 37.5935 -5.47318 12
    endloop
  endfacet
  facet normal 0 0 1
    outer loop
      vertex 37.3264 -5.25 12
      vertex 37.8145 -5.77737 12
      vertex 37.7135 -5.61832 12
    endloop
  endfacet
  facet normal 0 0 1
    outer loop
      vertex 37.3264 -5.25 12
      vertex 37.8947 -5.94781 12
      vertex 37.8145 -5.77737 12
    endloop
  endfacet
  facet normal 0 0 1
    outer loop
      vertex 37.3264 -5.25 12
      vertex 37.9529 -6.12696 12
      vertex 37.8947 -5.94781 12
    endloop
  endfacet
  facet normal 0 0 1
    outer loop
      vertex 37.3264 -5.25 12
      vertex 37.9882 -6.312 12
      vertex 37.9529 -6.12696 12
    endloop
  endfacet
  facet normal 0 0 1
    outer loop
      vertex 37.3264 -5.25 12
      vertex 38 -6.5 12
      vertex 37.9882 -6.312 12
    endloop
  endfacet
  facet normal 0 0 1
    outer loop
      vertex 37.3264 -5.25 12
      vertex 37.9882 -6.688 12
      vertex 38 -6.5 12
    endloop
  endfacet
  facet normal 0 0 1
    outer loop
      vertex 37.3264 -5.25 12
      vertex 37.9529 -6.87303 12
      vertex 37.9882 -6.688 12
    endloop
  endfacet
  facet normal 0 0 1
    outer loop
      vertex 37.3264 -5.25 12
      vertex 37.8947 -7.05219 12
      vertex 37.9529 -6.87303 12
    endloop
  endfacet
  facet normal 0 0 1
    outer loop
      vertex 37.3264 -5.25 12
      vertex 37.8145 -7.22263 12
      vertex 37.8947 -7.05219 12
    endloop
  endfacet
  facet normal 0 0 1
    outer loop
      vertex 37.3264 -5.25 12
      vertex 37.7135 -7.38168 12
      vertex 37.8145 -7.22263 12
    endloop
  endfacet
  facet normal 0 0 1
    outer loop
      vertex 37.3264 -5.25 12
      vertex 37.5935 -7.52682 12
      vertex 37.7135 -7.38168 12
    endloop
  endfacet
  facet normal 0 0 1
    outer loop
      vertex 37.3264 -5.25 12
      vertex 37.4561 -7.65577 12
      vertex 37.5935 -7.52682 12
    endloop
  endfacet
  facet normal 0 0 1
    outer loop
      vertex 37.3264 -5.25 12
      vertex 37.3037 -7.76649 12
      vertex 37.4561 -7.65577 12
    endloop
  endfacet
  facet normal 0 0 1
    outer loop
      vertex 37.3264 -5.25 12
      vertex 37.1387 -7.85724 12
      vertex 37.3037 -7.76649 12
    endloop
  endfacet
  facet normal 0 0 1
    outer loop
      vertex 37.3264 -5.25 12
      vertex 36.9635 -7.92658 12
      vertex 37.1387 -7.85724 12
    endloop
  endfacet
  facet normal 0 0 1
    outer loop
      vertex 37.3264 -5.25 12
      vertex 36.7811 -7.97343 12
      vertex 36.9635 -7.92658 12
    endloop
  endfacet
  facet normal 0 0 1
    outer loop
      vertex 37.3264 -5.25 12
      vertex 36.5942 -7.99704 12
      vertex 36.7811 -7.97343 12
    endloop
  endfacet
  facet normal 0 0 1
    outer loop
      vertex 37.3264 -5.25 12
      vertex 36.5 -7.99704 12
      vertex 36.5942 -7.99704 12
    endloop
  endfacet
  facet normal 0 0 1
    outer loop
      vertex 36.5 -7.99704 12
      vertex 14.9 -5.25 12
      vertex 36.5 -8 12
    endloop
  endfacet
  facet normal 0 0 1
    outer loop
      vertex 37.3264 -5.25 12
      vertex 14.9 -5.25 12
      vertex 36.5 -7.99704 12
    endloop
  endfacet
  facet normal 0.866025 -0.5 0
    outer loop
      vertex 5 -8.66025 12
      vertex 5 -8.66025 2.5
      vertex 5.3812 -8 2.5
    endloop
  endfacet
  facet normal 0.866025 -0.5 0
    outer loop
      vertex 5.3812 -8 12
      vertex 5 -8.66025 12
      vertex 5.3812 -8 2.5
    endloop
  endfacet
  facet normal 0.866025 0.5 0
    outer loop
      vertex 5.3812 8 2.5
      vertex 5 8.66025 2.5
      vertex 5 8.66025 12
    endloop
  endfacet
  facet normal 0.866025 0.5 0
    outer loop
      vertex 5.3812 8 12
      vertex 5.3812 8 2.5
      vertex 5 8.66025 12
    endloop
  endfacet
  facet normal 0 0 1
    outer loop
      vertex 2.74335 -3.44006 2
      vertex 3.85 -6.6684 2
      vertex 7.7 0 2
    endloop
  endfacet
  facet normal 0 0 1
    outer loop
      vertex 0.979092 -4.28968 2
      vertex -0.979092 -4.28968 2
      vertex -3.85 -6.6684 2
    endloop
  endfacet
  facet normal 0 0 1
    outer loop
      vertex 0.979092 4.28968 2
      vertex 2.74335 3.44006 2
      vertex 3.85 6.6684 2
    endloop
  endfacet
  facet normal 0 0 1
    outer loop
      vertex -7.7 0 2
      vertex -4.4 0 2
      vertex -3.85 6.6684 2
    endloop
  endfacet
  facet normal 0 0 1
    outer loop
      vertex -7.7 0 2
      vertex -3.85 -6.6684 2
      vertex -4.4 0 2
    endloop
  endfacet
  facet normal 0 0 1
    outer loop
      vertex -4.4 0 2
      vertex -3.96426 1.90909 2
      vertex -3.85 6.6684 2
    endloop
  endfacet
  facet normal 0 0 1
    outer loop
      vertex -3.85 6.6684 2
      vertex -2.74335 3.44006 2
      vertex 3.85 6.6684 2
    endloop
  endfacet
  facet normal 0 0 1
    outer loop
      vertex -2.74335 3.44006 2
      vertex -0.979092 4.28968 2
      vertex 3.85 6.6684 2
    endloop
  endfacet
  facet normal 0 0 1
    outer loop
      vertex -0.979092 4.28968 2
      vertex 0.979092 4.28968 2
      vertex 3.85 6.6684 2
    endloop
  endfacet
  facet normal 0 0 1
    outer loop
      vertex 3.85 6.6684 2
      vertex 2.74335 3.44006 2
      vertex 7.7 0 2
    endloop
  endfacet
  facet normal 0 0 1
    outer loop
      vertex 2.74335 3.44006 2
      vertex 3.96426 1.90909 2
      vertex 7.7 0 2
    endloop
  endfacet
  facet normal 0 0 1
    outer loop
      vertex 3.96426 1.90909 2
      vertex 4.4 0 2
      vertex 7.7 0 2
    endloop
  endfacet
  facet normal 0 0 1
    outer loop
      vertex 4.4 0 2
      vertex 3.96426 -1.90909 2
      vertex 7.7 0 2
    endloop
  endfacet
  facet normal 0 0 1
    outer loop
      vertex -3.85 -6.6684 2
      vertex 3.85 -6.6684 2
      vertex 2.74335 -3.44006 2
    endloop
  endfacet
  facet normal 0 0 1
    outer loop
      vertex -3.85 -6.6684 2
      vertex 2.74335 -3.44006 2
      vertex 0.979092 -4.28968 2
    endloop
  endfacet
  facet normal 0 0 1
    outer loop
      vertex -2.74335 -3.44006 2
      vertex -3.96426 -1.90909 2
      vertex -3.85 -6.6684 2
    endloop
  endfacet
  facet normal 0 0 1
    outer loop
      vertex -4.4 0 2
      vertex -3.85 -6.6684 2
      vertex -3.96426 -1.90909 2
    endloop
  endfacet
  facet normal 0 0 1
    outer loop
      vertex -3.96426 1.90909 2
      vertex -2.74335 3.44006 2
      vertex -3.85 6.6684 2
    endloop
  endfacet
  facet normal 0 0 1
    outer loop
      vertex 3.96426 -1.90909 2
      vertex 2.74335 -3.44006 2
      vertex 7.7 0 2
    endloop
  endfacet
  facet normal 0 0 1
    outer loop
      vertex -0.979092 -4.28968 2
      vertex -2.74335 -3.44006 2
      vertex -3.85 -6.6684 2
    endloop
  endfacet
  facet normal 0 1 0
    outer loop
      vertex -5 8.66025 2.5
      vertex -5 8.66025 12
      vertex 5 8.66025 2.5
    endloop
  endfacet
  facet normal 0 1 0
    outer loop
      vertex 5 8.66025 2.5
      vertex -5 8.66025 12
      vertex 5 8.66025 12
    endloop
  endfacet
  facet normal -0.866025 0.5 0
    outer loop
      vertex -10 0 2.5
      vertex -10 0 12
      vertex -5 8.66025 2.5
    endloop
  endfacet
  facet normal -0.866025 0.5 0
    outer loop
      vertex -5 8.66025 2.5
      vertex -10 0 12
      vertex -5 8.66025 12
    endloop
  endfacet
  facet normal -0.866025 -0.5 0
    outer loop
      vertex -10 0 2.5
      vertex -5 -8.66025 2.5
      vertex -10 0 12
    endloop
  endfacet
  facet normal -0.866025 -0.5 0
    outer loop
      vertex -10 0 12
      vertex -5 -8.66025 2.5
      vertex -5 -8.66025 12
    endloop
  endfacet
  facet normal 0 -1 0
    outer loop
      vertex -5 -8.66025 12
      vertex -5 -8.66025 2.5
      vertex 5 -8.66025 2.5
    endloop
  endfacet
  facet normal 0 -1 0
    outer loop
      vertex 5 -8.66025 12
      vertex -5 -8.66025 12
      vertex 5 -8.66025 2.5
    endloop
  endfacet
  facet normal 0.866025 0.5 0
    outer loop
      vertex -7.7 0 12
      vertex -3.85 -6.6684 12
      vertex -3.85 -6.6684 2
    endloop
  endfacet
  facet normal 0.866025 0.5 0
    outer loop
      vertex -7.7 0 2
      vertex -7.7 0 12
      vertex -3.85 -6.6684 2
    endloop
  endfacet
  facet normal 0 1 0
    outer loop
      vertex 3.85 -6.6684 12
      vertex 3.85 -6.6684 2
      vertex -3.85 -6.6684 12
    endloop
  endfacet
  facet normal 0 1 0
    outer loop
      vertex -3.85 -6.6684 12
      vertex 3.85 -6.6684 2
      vertex -3.85 -6.6684 2
    endloop
  endfacet
  facet normal -0.866025 0.5 0
    outer loop
      vertex 7.7 0 12
      vertex 7.7 0 2
      vertex 3.85 -6.6684 12
    endloop
  endfacet
  facet normal -0.866025 0.5 0
    outer loop
      vertex 3.85 -6.6684 12
      vertex 7.7 0 2
      vertex 3.85 -6.6684 2
    endloop
  endfacet
  facet normal -0.866025 -0.5 0
    outer loop
      vertex 7.7 0 12
      vertex 3.85 6.6684 12
      vertex 7.7 0 2
    endloop
  endfacet
  facet normal -0.866025 -0.5 0
    outer loop
      vertex 7.7 0 2
      vertex 3.85 6.6684 12
      vertex 3.85 6.6684 2
    endloop
  endfacet
  facet normal 0 -1 0
    outer loop
      vertex 3.85 6.6684 2
      vertex 3.85 6.6684 12
      vertex -3.85 6.6684 12
    endloop
  endfacet
  facet normal 0 -1 0
    outer loop
      vertex -3.85 6.6684 2
      vertex 3.85 6.6684 2
      vertex -3.85 6.6684 12
    endloop
  endfacet
  facet normal 0.866025 -0.5 0
    outer loop
      vertex -3.85 6.6684 2
      vertex -3.85 6.6684 12
      vertex -7.7 0 12
    endloop
  endfacet
  facet normal 0.866025 -0.5 0
    outer loop
      vertex -7.7 0 2
      vertex -3.85 6.6684 2
      vertex -7.7 0 12
    endloop
  endfacet
endsolid OpenSCAD_Model
