  0
SECTION
  2
BLOCKS
  0
ENDSEC
  0
SECTION
  2
ENTITIES
  0
LINE
  8
0
 10
-33.905
 11
-32.669
 20
8.913
 21
12.718
  0
LINE
  8
0
 10
-32.669
 11
-3.73
 20
12.718
 21
3.315
  0
LINE
  8
0
 10
-3.73
 11
-3.536
 20
3.315
 21
3.536
  0
LINE
  8
0
 10
-3.536
 11
-3.044
 20
3.536
 21
3.967
  0
LINE
  8
0
 10
-3.044
 11
-2.5
 20
3.967
 21
4.33
  0
LINE
  8
0
 10
-2.5
 11
-2
 20
4.33
 21
4.576
  0
LINE
  8
0
 10
-2
 11
-2
 20
4.576
 21
35
  0
LINE
  8
0
 10
-2
 11
2
 20
35
 21
35
  0
LINE
  8
0
 10
2
 11
2
 20
35
 21
4.576
  0
LINE
  8
0
 10
2
 11
2.5
 20
4.576
 21
4.33
  0
LINE
  8
0
 10
2.5
 11
3.044
 20
4.33
 21
3.967
  0
LINE
  8
0
 10
3.044
 11
3.536
 20
3.967
 21
3.536
  0
LINE
  8
0
 10
3.536
 11
3.73
 20
3.536
 21
3.315
  0
LINE
  8
0
 10
3.73
 11
32.669
 20
3.315
 21
12.718
  0
LINE
  8
0
 10
32.669
 11
33.905
 20
12.718
 21
8.913
  0
LINE
  8
0
 10
33.905
 11
4.968
 20
8.913
 21
-0.489
  0
LINE
  8
0
 10
4.968
 11
4.957
 20
-0.489
 21
-0.653
  0
LINE
  8
0
 10
4.957
 11
4.83
 20
-0.653
 21
-1.294
  0
LINE
  8
0
 10
4.83
 11
4.619
 20
-1.294
 21
-1.913
  0
LINE
  8
0
 10
4.619
 11
4.33
 20
-1.913
 21
-2.5
  0
LINE
  8
0
 10
4.33
 11
4.31
 20
-2.5
 21
-2.53
  0
LINE
  8
0
 10
4.31
 11
22.191
 20
-2.53
 21
-27.14
  0
LINE
  8
0
 10
22.191
 11
18.954
 20
-27.14
 21
-29.491
  0
LINE
  8
0
 10
18.954
 11
1.069
 20
-29.491
 21
-4.874
  0
LINE
  8
0
 10
1.069
 11
0.653
 20
-4.874
 21
-4.957
  0
LINE
  8
0
 10
0.653
 11
0
 20
-4.957
 21
-5
  0
LINE
  8
0
 10
0
 11
-0.653
 20
-5
 21
-4.957
  0
LINE
  8
0
 10
-0.653
 11
-1.069
 20
-4.957
 21
-4.874
  0
LINE
  8
0
 10
-1.069
 11
-18.954
 20
-4.874
 21
-29.491
  0
LINE
  8
0
 10
-18.954
 11
-22.191
 20
-29.491
 21
-27.14
  0
LINE
  8
0
 10
-22.191
 11
-4.31
 20
-27.14
 21
-2.53
  0
LINE
  8
0
 10
-4.31
 11
-4.33
 20
-2.53
 21
-2.5
  0
LINE
  8
0
 10
-4.33
 11
-4.619
 20
-2.5
 21
-1.913
  0
LINE
  8
0
 10
-4.619
 11
-4.83
 20
-1.913
 21
-1.294
  0
LINE
  8
0
 10
-4.83
 11
-4.957
 20
-1.294
 21
-0.653
  0
LINE
  8
0
 10
-4.957
 11
-4.968
 20
-0.653
 21
-0.489
  0
LINE
  8
0
 10
-4.968
 11
-33.905
 20
-0.489
 21
8.913
  0
ENDSEC
  0
SECTION
  2
OBJECTS
  0
DICTIONARY
  0
ENDSEC
  0
EOF
