  0
SECTION
  2
BLOCKS
  0
ENDSEC
  0
SECTION
  2
ENTITIES
  0
LINE
  8
0
 10
-22.651
 11
-4.963
 20
-10.768
 21
-0.556
  0
LINE
  8
0
 10
-4.963
 11
-5
 20
-0.556
 21
0
  0
LINE
  8
0
 10
-5
 11
-4.957
 20
0
 21
0.653
  0
LINE
  8
0
 10
-4.957
 11
-4.83
 20
0.653
 21
1.294
  0
LINE
  8
0
 10
-4.83
 11
-4.619
 20
1.294
 21
1.913
  0
LINE
  8
0
 10
-4.619
 11
-4.33
 20
1.913
 21
2.5
  0
LINE
  8
0
 10
-4.33
 11
-3.967
 20
2.5
 21
3.044
  0
LINE
  8
0
 10
-3.967
 11
-3.536
 20
3.044
 21
3.536
  0
LINE
  8
0
 10
-3.536
 11
-3.044
 20
3.536
 21
3.967
  0
LINE
  8
0
 10
-3.044
 11
-2.5
 20
3.967
 21
4.33
  0
LINE
  8
0
 10
-2.5
 11
-2
 20
4.33
 21
4.576
  0
LINE
  8
0
 10
-2
 11
-2
 20
4.576
 21
25
  0
LINE
  8
0
 10
-2
 11
2
 20
25
 21
25
  0
LINE
  8
0
 10
2
 11
2
 20
25
 21
4.576
  0
LINE
  8
0
 10
2
 11
2.5
 20
4.576
 21
4.33
  0
LINE
  8
0
 10
2.5
 11
3.044
 20
4.33
 21
3.967
  0
LINE
  8
0
 10
3.044
 11
3.536
 20
3.967
 21
3.536
  0
LINE
  8
0
 10
3.536
 11
3.967
 20
3.536
 21
3.044
  0
LINE
  8
0
 10
3.967
 11
4.33
 20
3.044
 21
2.5
  0
LINE
  8
0
 10
4.33
 11
4.619
 20
2.5
 21
1.913
  0
LINE
  8
0
 10
4.619
 11
4.83
 20
1.913
 21
1.294
  0
LINE
  8
0
 10
4.83
 11
4.957
 20
1.294
 21
0.653
  0
LINE
  8
0
 10
4.957
 11
5
 20
0.653
 21
0
  0
LINE
  8
0
 10
5
 11
4.963
 20
0
 21
-0.556
  0
LINE
  8
0
 10
4.963
 11
22.651
 20
-0.556
 21
-10.768
  0
LINE
  8
0
 10
22.651
 11
20.651
 20
-10.768
 21
-14.232
  0
LINE
  8
0
 10
20.651
 11
2.964
 20
-14.232
 21
-4.021
  0
LINE
  8
0
 10
2.964
 11
2.5
 20
-4.021
 21
-4.33
  0
LINE
  8
0
 10
2.5
 11
1.913
 20
-4.33
 21
-4.619
  0
LINE
  8
0
 10
1.913
 11
1.294
 20
-4.619
 21
-4.83
  0
LINE
  8
0
 10
1.294
 11
0.653
 20
-4.83
 21
-4.957
  0
LINE
  8
0
 10
0.653
 11
0
 20
-4.957
 21
-5
  0
LINE
  8
0
 10
0
 11
-0.653
 20
-5
 21
-4.957
  0
LINE
  8
0
 10
-0.653
 11
-1.294
 20
-4.957
 21
-4.83
  0
LINE
  8
0
 10
-1.294
 11
-1.913
 20
-4.83
 21
-4.619
  0
LINE
  8
0
 10
-1.913
 11
-2.5
 20
-4.619
 21
-4.33
  0
LINE
  8
0
 10
-2.5
 11
-2.964
 20
-4.33
 21
-4.021
  0
LINE
  8
0
 10
-2.964
 11
-20.651
 20
-4.021
 21
-14.232
  0
LINE
  8
0
 10
-20.651
 11
-22.651
 20
-14.232
 21
-10.768
  0
ENDSEC
  0
SECTION
  2
OBJECTS
  0
DICTIONARY
  0
ENDSEC
  0
EOF
