solid OpenSCAD_Model
  facet normal -1 0 0
    outer loop
      vertex 0 0 0
      vertex 0 0 0.5
      vertex 0 3 0
    endloop
  endfacet
  facet normal -1 0 0
    outer loop
      vertex 0 3 0
      vertex 0 0 0.5
      vertex 0 3 0.5
    endloop
  endfacet
  facet normal 0 -1 0
    outer loop
      vertex 0 0 0.5
      vertex 0 0 0
      vertex 25 0 0
    endloop
  endfacet
  facet normal 0 -1 0
    outer loop
      vertex 25 0 0.5
      vertex 0 0 0.5
      vertex 25 0 0
    endloop
  endfacet
  facet normal 0 0 -1
    outer loop
      vertex 0 0 0
      vertex 0 3 0
      vertex 25 0 0
    endloop
  endfacet
  facet normal 0 0 -1
    outer loop
      vertex 25 0 0
      vertex 0 3 0
      vertex 25 3 0
    endloop
  endfacet
  facet normal 0 1 0
    outer loop
      vertex 0 3 0
      vertex 0 3 0.5
      vertex 25 3 0
    endloop
  endfacet
  facet normal 0 1 0
    outer loop
      vertex 25 3 0
      vertex 0 3 0.5
      vertex 25 3 0.5
    endloop
  endfacet
  facet normal 0 0 1
    outer loop
      vertex 0 3 0.5
      vertex 0 0 0.5
      vertex 25 0 0.5
    endloop
  endfacet
  facet normal 0 0 1
    outer loop
      vertex 25 3 0.5
      vertex 0 3 0.5
      vertex 25 0 0.5
    endloop
  endfacet
  facet normal 1 0 0
    outer loop
      vertex 25 0 0.5
      vertex 25 0 0
      vertex 25 3 0
    endloop
  endfacet
  facet normal 1 0 0
    outer loop
      vertex 25 3 0.5
      vertex 25 0 0.5
      vertex 25 3 0
    endloop
  endfacet
  facet normal -1 0 0
    outer loop
      vertex 0 6 0
      vertex 0 6 0.5
      vertex 0 9 0
    endloop
  endfacet
  facet normal -1 0 0
    outer loop
      vertex 0 9 0
      vertex 0 6 0.5
      vertex 0 9 0.5
    endloop
  endfacet
  facet normal 0 -1 0
    outer loop
      vertex 0 6 0.5
      vertex 0 6 0
      vertex 25 6 0
    endloop
  endfacet
  facet normal 0 -1 0
    outer loop
      vertex 25 6 0.5
      vertex 0 6 0.5
      vertex 25 6 0
    endloop
  endfacet
  facet normal 0 0 -1
    outer loop
      vertex 0 6 0
      vertex 0 9 0
      vertex 25 6 0
    endloop
  endfacet
  facet normal 0 0 -1
    outer loop
      vertex 25 6 0
      vertex 0 9 0
      vertex 25 9 0
    endloop
  endfacet
  facet normal 0 1 0
    outer loop
      vertex 0 9 0
      vertex 0 9 0.5
      vertex 25 9 0
    endloop
  endfacet
  facet normal 0 1 0
    outer loop
      vertex 25 9 0
      vertex 0 9 0.5
      vertex 25 9 0.5
    endloop
  endfacet
  facet normal 0 0 1
    outer loop
      vertex 0 9 0.5
      vertex 0 6 0.5
      vertex 25 6 0.5
    endloop
  endfacet
  facet normal 0 0 1
    outer loop
      vertex 25 9 0.5
      vertex 0 9 0.5
      vertex 25 6 0.5
    endloop
  endfacet
  facet normal 1 0 0
    outer loop
      vertex 25 6 0.5
      vertex 25 6 0
      vertex 25 9 0
    endloop
  endfacet
  facet normal 1 0 0
    outer loop
      vertex 25 9 0.5
      vertex 25 6 0.5
      vertex 25 9 0
    endloop
  endfacet
  facet normal -1 0 0
    outer loop
      vertex 0 12 0
      vertex 0 12 0.75
      vertex 0 15 0
    endloop
  endfacet
  facet normal -1 0 0
    outer loop
      vertex 0 15 0
      vertex 0 12 0.75
      vertex 0 15 0.75
    endloop
  endfacet
  facet normal 0 -1 0
    outer loop
      vertex 0 12 0.75
      vertex 0 12 0
      vertex 25 12 0
    endloop
  endfacet
  facet normal 0 -1 0
    outer loop
      vertex 25 12 0.75
      vertex 0 12 0.75
      vertex 25 12 0
    endloop
  endfacet
  facet normal 0 0 -1
    outer loop
      vertex 0 12 0
      vertex 0 15 0
      vertex 25 12 0
    endloop
  endfacet
  facet normal 0 0 -1
    outer loop
      vertex 25 12 0
      vertex 0 15 0
      vertex 25 15 0
    endloop
  endfacet
  facet normal 0 1 0
    outer loop
      vertex 0 15 0
      vertex 0 15 0.75
      vertex 25 15 0
    endloop
  endfacet
  facet normal 0 1 0
    outer loop
      vertex 25 15 0
      vertex 0 15 0.75
      vertex 25 15 0.75
    endloop
  endfacet
  facet normal 0 0 1
    outer loop
      vertex 0 15 0.75
      vertex 0 12 0.75
      vertex 25 12 0.75
    endloop
  endfacet
  facet normal 0 0 1
    outer loop
      vertex 25 15 0.75
      vertex 0 15 0.75
      vertex 25 12 0.75
    endloop
  endfacet
  facet normal 1 0 0
    outer loop
      vertex 25 12 0.75
      vertex 25 12 0
      vertex 25 15 0
    endloop
  endfacet
  facet normal 1 0 0
    outer loop
      vertex 25 15 0.75
      vertex 25 12 0.75
      vertex 25 15 0
    endloop
  endfacet
  facet normal -1 0 0
    outer loop
      vertex 0 18 0
      vertex 0 18 0.75
      vertex 0 21 0
    endloop
  endfacet
  facet normal -1 0 0
    outer loop
      vertex 0 21 0
      vertex 0 18 0.75
      vertex 0 21 0.75
    endloop
  endfacet
  facet normal 0 -1 0
    outer loop
      vertex 0 18 0.75
      vertex 0 18 0
      vertex 25 18 0
    endloop
  endfacet
  facet normal 0 -1 0
    outer loop
      vertex 25 18 0.75
      vertex 0 18 0.75
      vertex 25 18 0
    endloop
  endfacet
  facet normal 0 0 -1
    outer loop
      vertex 0 18 0
      vertex 0 21 0
      vertex 25 18 0
    endloop
  endfacet
  facet normal 0 0 -1
    outer loop
      vertex 25 18 0
      vertex 0 21 0
      vertex 25 21 0
    endloop
  endfacet
  facet normal 0 1 0
    outer loop
      vertex 0 21 0
      vertex 0 21 0.75
      vertex 25 21 0
    endloop
  endfacet
  facet normal 0 1 0
    outer loop
      vertex 25 21 0
      vertex 0 21 0.75
      vertex 25 21 0.75
    endloop
  endfacet
  facet normal 0 0 1
    outer loop
      vertex 0 21 0.75
      vertex 0 18 0.75
      vertex 25 18 0.75
    endloop
  endfacet
  facet normal 0 0 1
    outer loop
      vertex 25 21 0.75
      vertex 0 21 0.75
      vertex 25 18 0.75
    endloop
  endfacet
  facet normal 1 0 0
    outer loop
      vertex 25 18 0.75
      vertex 25 18 0
      vertex 25 21 0
    endloop
  endfacet
  facet normal 1 0 0
    outer loop
      vertex 25 21 0.75
      vertex 25 18 0.75
      vertex 25 21 0
    endloop
  endfacet
endsolid OpenSCAD_Model
