solid OpenSCAD_Model
  facet normal -1 0 0
    outer loop
      vertex -35 -3.5 0
      vertex -35 -3.5 5
      vertex -35 13.5 0
    endloop
  endfacet
  facet normal -1 0 0
    outer loop
      vertex -35 13.5 0
      vertex -35 -3.5 5
      vertex -35 1.5 5
    endloop
  endfacet
  facet normal -1 0 0
    outer loop
      vertex -35 8.5 5
      vertex -35 1.5 5
      vertex -35 1.5 70
    endloop
  endfacet
  facet normal -1 0 0
    outer loop
      vertex -35 13.5 0
      vertex -35 1.5 5
      vertex -35 8.5 5
    endloop
  endfacet
  facet normal -1 0 0
    outer loop
      vertex -35 13.5 5
      vertex -35 13.5 0
      vertex -35 8.5 5
    endloop
  endfacet
  facet normal -1 0 0
    outer loop
      vertex -35 8.5 5
      vertex -35 1.5 70
      vertex -35 8.5 70
    endloop
  endfacet
  facet normal 0 -1 0
    outer loop
      vertex -35 -3.5 5
      vertex -35 -3.5 0
      vertex -34.7135 -3.5 0
    endloop
  endfacet
  facet normal 0 -1 0
    outer loop
      vertex -34.7135 -3.5 5
      vertex -35 -3.5 5
      vertex -34.7135 -3.5 0
    endloop
  endfacet
  facet normal 0 0 -1
    outer loop
      vertex -35 -3.5 0
      vertex -35 13.5 0
      vertex -34.7135 -3.5 0
    endloop
  endfacet
  facet normal 0 0 -1
    outer loop
      vertex -34.7135 -3.5 0
      vertex -35 13.5 0
      vertex -34.7135 13.5 0
    endloop
  endfacet
  facet normal 0 0 -1
    outer loop
      vertex -34.7135 13.5 0
      vertex -34.7135 14.3817 0
      vertex -33.5 14.776 0
    endloop
  endfacet
  facet normal 0 0 -1
    outer loop
      vertex -34.7135 13.5 0
      vertex -33.5 14.776 0
      vertex -34.7135 -3.5 0
    endloop
  endfacet
  facet normal 0 0 -1
    outer loop
      vertex -33.5 14.776 0
      vertex -33.5 15 0
      vertex 33.5 15 0
    endloop
  endfacet
  facet normal 0 0 -1
    outer loop
      vertex -33.5 14.776 0
      vertex 33.5 15 0
      vertex -34.7135 -3.5 0
    endloop
  endfacet
  facet normal 0 0 -1
    outer loop
      vertex -34.7135 -3.5 0
      vertex 33.5 15 0
      vertex 33.5 14.776 0
    endloop
  endfacet
  facet normal 0 0 -1
    outer loop
      vertex 33.5 14.776 0
      vertex 33.9635 14.9266 0
      vertex 35 13.5 0
    endloop
  endfacet
  facet normal 0 0 -1
    outer loop
      vertex 33.5 14.776 0
      vertex 35 13.5 0
      vertex -34.7135 -3.5 0
    endloop
  endfacet
  facet normal 0 0 -1
    outer loop
      vertex -34.7135 -3.5 0
      vertex 35 13.5 0
      vertex 35 -3.5 0
    endloop
  endfacet
  facet normal 0 0 -1
    outer loop
      vertex 33.5 -4.77598 0
      vertex 35 -3.5 0
      vertex 33.9635 -4.92658 0
    endloop
  endfacet
  facet normal 0 0 -1
    outer loop
      vertex 33.5 -5 0
      vertex -34.7135 -3.5 0
      vertex 33.5 -4.77598 0
    endloop
  endfacet
  facet normal 0 0 -1
    outer loop
      vertex -34.7135 -3.5 0
      vertex 35 -3.5 0
      vertex 33.5 -4.77598 0
    endloop
  endfacet
  facet normal 0 0 -1
    outer loop
      vertex 33.5 -5 0
      vertex -33.5 -5 0
      vertex -33.5 -4.77598 0
    endloop
  endfacet
  facet normal 0 0 -1
    outer loop
      vertex -34.7135 -4.38168 0
      vertex -34.7135 -3.5 0
      vertex -33.5 -4.77598 0
    endloop
  endfacet
  facet normal 0 0 -1
    outer loop
      vertex -34.7135 -3.5 0
      vertex 33.5 -5 0
      vertex -33.5 -4.77598 0
    endloop
  endfacet
  facet normal 0 1 0
    outer loop
      vertex -35 13.5 0
      vertex -35 13.5 5
      vertex -34.7135 13.5 0
    endloop
  endfacet
  facet normal 0 1 0
    outer loop
      vertex -34.7135 13.5 0
      vertex -35 13.5 5
      vertex -34.7135 13.5 5
    endloop
  endfacet
  facet normal 0 0 1
    outer loop
      vertex -33.5 0.224024 5
      vertex -34.7135 0.618322 5
      vertex -33.5 0 5
    endloop
  endfacet
  facet normal 0 0 1
    outer loop
      vertex -35 1.5 5
      vertex -35 -3.5 5
      vertex -34.7135 -3.5 5
    endloop
  endfacet
  facet normal 0 0 1
    outer loop
      vertex -33.5 -4.77598 5
      vertex -35 1.5 5
      vertex -34.7135 -3.5 5
    endloop
  endfacet
  facet normal 0 0 1
    outer loop
      vertex -34.7135 -4.38168 5
      vertex -33.5 -4.77598 5
      vertex -34.7135 -3.5 5
    endloop
  endfacet
  facet normal 0 0 1
    outer loop
      vertex -33.5 -5 5
      vertex 33.5 -5 5
      vertex -33.5 -4.77598 5
    endloop
  endfacet
  facet normal 0 0 1
    outer loop
      vertex 33.9635 -4.92658 5
      vertex 35 -3.5 5
      vertex 33.5 -4.77598 5
    endloop
  endfacet
  facet normal 0 0 1
    outer loop
      vertex 35 -3.5 5
      vertex 35 1.5 5
      vertex 33.9635 0.073415 5
    endloop
  endfacet
  facet normal 0 0 1
    outer loop
      vertex -15 8.5 5
      vertex 35 13.5 5
      vertex 33.5 14.776 5
    endloop
  endfacet
  facet normal 0 0 1
    outer loop
      vertex 35 -3.5 5
      vertex 33.9635 0.073415 5
      vertex 33.5 0 5
    endloop
  endfacet
  facet normal 0 0 1
    outer loop
      vertex -16.5 0 5
      vertex -33.5 0 5
      vertex 33.5 -5 5
    endloop
  endfacet
  facet normal 0 0 1
    outer loop
      vertex 35 -3.5 5
      vertex 33.5 0 5
      vertex 16.5 0 5
    endloop
  endfacet
  facet normal 0 0 1
    outer loop
      vertex 15.2865 0.618322 5
      vertex 15 1.5 5
      vertex -15 1.5 5
    endloop
  endfacet
  facet normal 0 0 1
    outer loop
      vertex 15.2865 0.618322 5
      vertex 15.2865 1.5 5
      vertex 15 1.5 5
    endloop
  endfacet
  facet normal 0 0 1
    outer loop
      vertex 15 8.5 5
      vertex 15.2865 8.5 5
      vertex 15.2865 9.38168 5
    endloop
  endfacet
  facet normal 0 0 1
    outer loop
      vertex -15 1.5 5
      vertex 16.5 0.224024 5
      vertex 15.2865 0.618322 5
    endloop
  endfacet
  facet normal 0 0 1
    outer loop
      vertex -15 1.5 5
      vertex 16.5 0 5
      vertex 16.5 0.224024 5
    endloop
  endfacet
  facet normal 0 0 1
    outer loop
      vertex 16.5 10 5
      vertex 33.5 10 5
      vertex 35 13.5 5
    endloop
  endfacet
  facet normal 0 0 1
    outer loop
      vertex -15 1.5 5
      vertex -16.0365 0.073415 5
      vertex 35 -3.5 5
    endloop
  endfacet
  facet normal 0 0 1
    outer loop
      vertex 33.5 10 5
      vertex 33.9635 9.92658 5
      vertex 35 13.5 5
    endloop
  endfacet
  facet normal 0 0 1
    outer loop
      vertex 33.9635 9.92658 5
      vertex 35 8.5 5
      vertex 35 13.5 5
    endloop
  endfacet
  facet normal 0 0 1
    outer loop
      vertex 33.5 14.776 5
      vertex 35 13.5 5
      vertex 33.9635 14.9266 5
    endloop
  endfacet
  facet normal 0 0 1
    outer loop
      vertex -15 8.5 5
      vertex 33.5 14.776 5
      vertex 33.5 15 5
    endloop
  endfacet
  facet normal 0 0 1
    outer loop
      vertex -15 1.5 5
      vertex 35 -3.5 5
      vertex 16.5 0 5
    endloop
  endfacet
  facet normal 0 0 1
    outer loop
      vertex -33.5 14.776 5
      vertex 33.5 15 5
      vertex -33.5 15 5
    endloop
  endfacet
  facet normal 0 0 1
    outer loop
      vertex -15 8.5 5
      vertex 16.5 10 5
      vertex 35 13.5 5
    endloop
  endfacet
  facet normal 0 0 1
    outer loop
      vertex -33.5 10 5
      vertex 33.5 15 5
      vertex -33.5 14.776 5
    endloop
  endfacet
  facet normal 0 0 1
    outer loop
      vertex -35 8.5 5
      vertex -34.7135 8.5 5
      vertex -34.7135 9.38168 5
    endloop
  endfacet
  facet normal 0 0 1
    outer loop
      vertex -34.7135 9.38168 5
      vertex -33.5 10 5
      vertex -33.5 14.776 5
    endloop
  endfacet
  facet normal 0 0 1
    outer loop
      vertex -35 8.5 5
      vertex -34.7135 9.38168 5
      vertex -34.7135 13.5 5
    endloop
  endfacet
  facet normal 0 0 1
    outer loop
      vertex -34.7135 13.5 5
      vertex -35 13.5 5
      vertex -35 8.5 5
    endloop
  endfacet
  facet normal 0 0 1
    outer loop
      vertex -34.7135 9.38168 5
      vertex -33.5 9.77598 5
      vertex -33.5 10 5
    endloop
  endfacet
  facet normal 0 0 1
    outer loop
      vertex -16.0365 9.92658 5
      vertex -15 8.5 5
      vertex 33.5 15 5
    endloop
  endfacet
  facet normal 0 0 1
    outer loop
      vertex -33.5 10 5
      vertex -16.5 10 5
      vertex 33.5 15 5
    endloop
  endfacet
  facet normal 0 0 1
    outer loop
      vertex -16.0365 9.92658 5
      vertex 33.5 15 5
      vertex -16.5 10 5
    endloop
  endfacet
  facet normal 0 0 1
    outer loop
      vertex -16.5 9.77598 5
      vertex -16.0365 9.92658 5
      vertex -16.5 10 5
    endloop
  endfacet
  facet normal 0 0 1
    outer loop
      vertex 15 1.5 5
      vertex 15 8.5 5
      vertex -15 1.5 5
    endloop
  endfacet
  facet normal 0 0 1
    outer loop
      vertex 33.5 -4.77598 5
      vertex 35 -3.5 5
      vertex -16.0365 0.073415 5
    endloop
  endfacet
  facet normal 0 0 1
    outer loop
      vertex -16.5 0.224024 5
      vertex -16.5 0 5
      vertex -16.0365 0.073415 5
    endloop
  endfacet
  facet normal 0 0 1
    outer loop
      vertex -16.5 0 5
      vertex 33.5 -5 5
      vertex 33.5 -4.77598 5
    endloop
  endfacet
  facet normal 0 0 1
    outer loop
      vertex -34.7135 0.618322 5
      vertex -34.7135 1.5 5
      vertex -35 1.5 5
    endloop
  endfacet
  facet normal 0 0 1
    outer loop
      vertex 33.5 -4.77598 5
      vertex -16.0365 0.073415 5
      vertex -16.5 0 5
    endloop
  endfacet
  facet normal 0 0 1
    outer loop
      vertex -33.5 -4.77598 5
      vertex 33.5 -5 5
      vertex -33.5 0 5
    endloop
  endfacet
  facet normal 0 0 1
    outer loop
      vertex -33.5 -4.77598 5
      vertex -34.7135 0.618322 5
      vertex -35 1.5 5
    endloop
  endfacet
  facet normal 0 0 1
    outer loop
      vertex -33.5 -4.77598 5
      vertex -33.5 0 5
      vertex -34.7135 0.618322 5
    endloop
  endfacet
  facet normal 0 0 1
    outer loop
      vertex 33.5 9.77598 5
      vertex 33.9635 9.92658 5
      vertex 33.5 10 5
    endloop
  endfacet
  facet normal 0 0 1
    outer loop
      vertex 33.5 0.224024 5
      vertex 33.5 0 5
      vertex 33.9635 0.073415 5
    endloop
  endfacet
  facet normal 0 0 1
    outer loop
      vertex -33.5 14.776 5
      vertex -34.7135 13.5 5
      vertex -34.7135 9.38168 5
    endloop
  endfacet
  facet normal 0 0 1
    outer loop
      vertex -33.5 14.776 5
      vertex -34.7135 14.3817 5
      vertex -34.7135 13.5 5
    endloop
  endfacet
  facet normal 0 0 1
    outer loop
      vertex -15 8.5 5
      vertex 16.5 9.77598 5
      vertex 16.5 10 5
    endloop
  endfacet
  facet normal 0 0 1
    outer loop
      vertex -15 8.5 5
      vertex 15.2865 9.38168 5
      vertex 16.5 9.77598 5
    endloop
  endfacet
  facet normal 0 0 1
    outer loop
      vertex -15 8.5 5
      vertex 15 8.5 5
      vertex 15.2865 9.38168 5
    endloop
  endfacet
  facet normal 0 0 1
    outer loop
      vertex -15 8.5 5
      vertex -15 1.5 5
      vertex 15 8.5 5
    endloop
  endfacet
  facet normal 0 1 0
    outer loop
      vertex -35 8.5 5
      vertex -35 8.5 70
      vertex -34.7135 8.5 5
    endloop
  endfacet
  facet normal 0 1 0
    outer loop
      vertex -34.7135 8.5 5
      vertex -35 8.5 70
      vertex -34.7135 8.5 70
    endloop
  endfacet
  facet normal 0 0 1
    outer loop
      vertex -33.5 0.224024 70
      vertex -28.971 0 70
      vertex -35 8.5 70
    endloop
  endfacet
  facet normal 0 0 1
    outer loop
      vertex -35 8.5 70
      vertex -35 1.5 70
      vertex -34.7135 1.5 70
    endloop
  endfacet
  facet normal 0 0 1
    outer loop
      vertex -33.5 0.224024 70
      vertex -35 8.5 70
      vertex -34.7135 1.5 70
    endloop
  endfacet
  facet normal 0 0 1
    outer loop
      vertex -34.7135 0.618322 70
      vertex -33.5 0.224024 70
      vertex -34.7135 1.5 70
    endloop
  endfacet
  facet normal 0 0 1
    outer loop
      vertex -33.5 0 70
      vertex -28.971 0 70
      vertex -33.5 0.224024 70
    endloop
  endfacet
  facet normal 0 0 1
    outer loop
      vertex -34.7135 9.38168 70
      vertex -28.971 10 70
      vertex -33.5 9.77598 70
    endloop
  endfacet
  facet normal 0 0 1
    outer loop
      vertex -28.971 10 70
      vertex -33.5 10 70
      vertex -33.5 9.77598 70
    endloop
  endfacet
  facet normal 0 0 1
    outer loop
      vertex -28.971 0 70
      vertex -34.7135 8.5 70
      vertex -35 8.5 70
    endloop
  endfacet
  facet normal 0 0 1
    outer loop
      vertex -28.971 0 70
      vertex -28.971 10 70
      vertex -34.7135 8.5 70
    endloop
  endfacet
  facet normal 0 0 1
    outer loop
      vertex -34.7135 9.38168 70
      vertex -34.7135 8.5 70
      vertex -28.971 10 70
    endloop
  endfacet
  facet normal 0 -1 0
    outer loop
      vertex -35 1.5 70
      vertex -35 1.5 5
      vertex -34.7135 1.5 5
    endloop
  endfacet
  facet normal 0 -1 0
    outer loop
      vertex -34.7135 1.5 70
      vertex -35 1.5 70
      vertex -34.7135 1.5 5
    endloop
  endfacet
  facet normal -1 0 0
    outer loop
      vertex -34.7135 -4.38168 0
      vertex -34.7135 -4.38168 5
      vertex -34.7135 -3.5 0
    endloop
  endfacet
  facet normal -1 0 0
    outer loop
      vertex -34.7135 -3.5 0
      vertex -34.7135 -4.38168 5
      vertex -34.7135 -3.5 5
    endloop
  endfacet
  facet normal -0.309017 -0.951056 0
    outer loop
      vertex -34.7135 -4.38168 5
      vertex -34.7135 -4.38168 0
      vertex -33.5 -4.77598 0
    endloop
  endfacet
  facet normal -0.309017 -0.951056 0
    outer loop
      vertex -33.5 -4.77598 5
      vertex -34.7135 -4.38168 5
      vertex -33.5 -4.77598 0
    endloop
  endfacet
  facet normal -1 0 0
    outer loop
      vertex -33.5 -5 0
      vertex -33.5 -5 5
      vertex -33.5 -4.77598 0
    endloop
  endfacet
  facet normal -1 0 0
    outer loop
      vertex -33.5 -4.77598 0
      vertex -33.5 -5 5
      vertex -33.5 -4.77598 5
    endloop
  endfacet
  facet normal 0 -1 0
    outer loop
      vertex -33.5 -5 5
      vertex -33.5 -5 0
      vertex 33.5 -5 0
    endloop
  endfacet
  facet normal 0 -1 0
    outer loop
      vertex 33.5 -5 5
      vertex -33.5 -5 5
      vertex 33.5 -5 0
    endloop
  endfacet
  facet normal 1 0 0
    outer loop
      vertex 33.5 -5 5
      vertex 33.5 -5 0
      vertex 33.5 -4.77598 0
    endloop
  endfacet
  facet normal 1 0 0
    outer loop
      vertex 33.5 -4.77598 5
      vertex 33.5 -5 5
      vertex 33.5 -4.77598 0
    endloop
  endfacet
  facet normal -0.309017 -0.951056 0
    outer loop
      vertex 33.5 -4.77598 5
      vertex 33.5 -4.77598 0
      vertex 33.9635 -4.92658 0
    endloop
  endfacet
  facet normal -0.309017 -0.951056 0
    outer loop
      vertex 33.9635 -4.92658 5
      vertex 33.5 -4.77598 5
      vertex 33.9635 -4.92658 0
    endloop
  endfacet
  facet normal 0.809017 -0.587785 0
    outer loop
      vertex 33.9635 -4.92658 5
      vertex 33.9635 -4.92658 0
      vertex 35 -3.5 0
    endloop
  endfacet
  facet normal 0.809017 -0.587785 0
    outer loop
      vertex 35 -3.5 5
      vertex 33.9635 -4.92658 5
      vertex 35 -3.5 0
    endloop
  endfacet
  facet normal 1 0 0
    outer loop
      vertex 35 -3.5 5
      vertex 35 -3.5 0
      vertex 35 13.5 0
    endloop
  endfacet
  facet normal 1 0 0
    outer loop
      vertex 35 1.5 5
      vertex 35 -3.5 5
      vertex 35 13.5 0
    endloop
  endfacet
  facet normal 1 0 0
    outer loop
      vertex 35 8.5 5
      vertex 35 1.5 5
      vertex 35 13.5 0
    endloop
  endfacet
  facet normal 1 0 0
    outer loop
      vertex 35 13.5 5
      vertex 35 8.5 5
      vertex 35 13.5 0
    endloop
  endfacet
  facet normal 1 0 0
    outer loop
      vertex 35 8.5 70
      vertex 35 1.5 5
      vertex 35 8.5 5
    endloop
  endfacet
  facet normal 1 0 0
    outer loop
      vertex 35 1.5 70
      vertex 35 1.5 5
      vertex 35 8.5 70
    endloop
  endfacet
  facet normal 0.809017 0.587785 0
    outer loop
      vertex 35 13.5 0
      vertex 33.9635 14.9266 0
      vertex 33.9635 14.9266 5
    endloop
  endfacet
  facet normal 0.809017 0.587785 0
    outer loop
      vertex 35 13.5 5
      vertex 35 13.5 0
      vertex 33.9635 14.9266 5
    endloop
  endfacet
  facet normal -0.309017 0.951056 0
    outer loop
      vertex 33.5 14.776 0
      vertex 33.5 14.776 5
      vertex 33.9635 14.9266 0
    endloop
  endfacet
  facet normal -0.309017 0.951056 0
    outer loop
      vertex 33.9635 14.9266 0
      vertex 33.5 14.776 5
      vertex 33.9635 14.9266 5
    endloop
  endfacet
  facet normal 1 0 0
    outer loop
      vertex 33.5 14.776 5
      vertex 33.5 14.776 0
      vertex 33.5 15 0
    endloop
  endfacet
  facet normal 1 0 0
    outer loop
      vertex 33.5 15 5
      vertex 33.5 14.776 5
      vertex 33.5 15 0
    endloop
  endfacet
  facet normal 0 1 0
    outer loop
      vertex -33.5 15 0
      vertex -33.5 15 5
      vertex 33.5 15 0
    endloop
  endfacet
  facet normal 0 1 0
    outer loop
      vertex 33.5 15 0
      vertex -33.5 15 5
      vertex 33.5 15 5
    endloop
  endfacet
  facet normal -1 0 0
    outer loop
      vertex -33.5 14.776 0
      vertex -33.5 14.776 5
      vertex -33.5 15 0
    endloop
  endfacet
  facet normal -1 0 0
    outer loop
      vertex -33.5 15 0
      vertex -33.5 14.776 5
      vertex -33.5 15 5
    endloop
  endfacet
  facet normal -0.309017 0.951056 0
    outer loop
      vertex -34.7135 14.3817 0
      vertex -34.7135 14.3817 5
      vertex -33.5 14.776 0
    endloop
  endfacet
  facet normal -0.309017 0.951056 0
    outer loop
      vertex -33.5 14.776 0
      vertex -34.7135 14.3817 5
      vertex -33.5 14.776 5
    endloop
  endfacet
  facet normal -1 0 0
    outer loop
      vertex -34.7135 13.5 0
      vertex -34.7135 13.5 5
      vertex -34.7135 14.3817 0
    endloop
  endfacet
  facet normal -1 0 0
    outer loop
      vertex -34.7135 14.3817 0
      vertex -34.7135 13.5 5
      vertex -34.7135 14.3817 5
    endloop
  endfacet
  facet normal -1 0 0
    outer loop
      vertex -34.7135 0.618322 5
      vertex -34.7135 0.618322 70
      vertex -34.7135 1.5 5
    endloop
  endfacet
  facet normal -1 0 0
    outer loop
      vertex -34.7135 1.5 5
      vertex -34.7135 0.618322 70
      vertex -34.7135 1.5 70
    endloop
  endfacet
  facet normal -0.309017 -0.951056 0
    outer loop
      vertex -34.7135 0.618322 70
      vertex -34.7135 0.618322 5
      vertex -33.5 0.224024 5
    endloop
  endfacet
  facet normal -0.309017 -0.951056 0
    outer loop
      vertex -33.5 0.224024 70
      vertex -34.7135 0.618322 70
      vertex -33.5 0.224024 5
    endloop
  endfacet
  facet normal -1 0 0
    outer loop
      vertex -33.5 0 5
      vertex -33.5 0 70
      vertex -33.5 0.224024 5
    endloop
  endfacet
  facet normal -1 0 0
    outer loop
      vertex -33.5 0.224024 5
      vertex -33.5 0 70
      vertex -33.5 0.224024 70
    endloop
  endfacet
  facet normal 0 -1 0
    outer loop
      vertex -33.5 0 70
      vertex -33.5 0 5
      vertex -16.5 0 5
    endloop
  endfacet
  facet normal 0 -1 0
    outer loop
      vertex -26.4539 0 67.1664
      vertex -33.5 0 70
      vertex -16.5 0 5
    endloop
  endfacet
  facet normal 0 -1 0
    outer loop
      vertex -16.5 0 70
      vertex -21.1465 0 70
      vertex -16.5 0 5
    endloop
  endfacet
  facet normal 0 -1 0
    outer loop
      vertex -21.1465 0 70
      vertex -21.3696 0 69.0946
      vertex -16.5 0 5
    endloop
  endfacet
  facet normal 0 -1 0
    outer loop
      vertex -21.3696 0 69.0946
      vertex -22.6709 0 67.6258
      vertex -16.5 0 5
    endloop
  endfacet
  facet normal 0 -1 0
    outer loop
      vertex -22.6709 0 67.6258
      vertex -24.5058 0 66.9299
      vertex -16.5 0 5
    endloop
  endfacet
  facet normal 0 -1 0
    outer loop
      vertex -24.5058 0 66.9299
      vertex -26.4539 0 67.1664
      vertex -16.5 0 5
    endloop
  endfacet
  facet normal 0 -1 0
    outer loop
      vertex -26.4539 0 67.1664
      vertex -28.0689 0 68.2812
      vertex -33.5 0 70
    endloop
  endfacet
  facet normal 0 -1 0
    outer loop
      vertex -28.0689 0 68.2812
      vertex -28.971 0 70
      vertex -33.5 0 70
    endloop
  endfacet
  facet normal 1 0 0
    outer loop
      vertex -16.5 0 70
      vertex -16.5 0 5
      vertex -16.5 0.224024 5
    endloop
  endfacet
  facet normal 1 0 0
    outer loop
      vertex -16.5 0.224024 70
      vertex -16.5 0 70
      vertex -16.5 0.224024 5
    endloop
  endfacet
  facet normal -0.309017 -0.951056 0
    outer loop
      vertex -16.5 0.224024 70
      vertex -16.5 0.224024 5
      vertex -16.0365 0.073415 5
    endloop
  endfacet
  facet normal -0.309017 -0.951056 0
    outer loop
      vertex -16.0365 0.073415 70
      vertex -16.5 0.224024 70
      vertex -16.0365 0.073415 5
    endloop
  endfacet
  facet normal 0.809017 -0.587785 0
    outer loop
      vertex -16.0365 0.073415 70
      vertex -16.0365 0.073415 5
      vertex -15 1.5 5
    endloop
  endfacet
  facet normal 0.809017 -0.587785 0
    outer loop
      vertex -15 1.5 70
      vertex -16.0365 0.073415 70
      vertex -15 1.5 5
    endloop
  endfacet
  facet normal 1 0 0
    outer loop
      vertex -15 1.5 70
      vertex -15 1.5 5
      vertex -15 8.5 5
    endloop
  endfacet
  facet normal 1 0 0
    outer loop
      vertex -15 8.5 70
      vertex -15 1.5 70
      vertex -15 8.5 5
    endloop
  endfacet
  facet normal 0.809017 0.587785 0
    outer loop
      vertex -15 8.5 5
      vertex -16.0365 9.92658 5
      vertex -16.0365 9.92658 70
    endloop
  endfacet
  facet normal 0.809017 0.587785 0
    outer loop
      vertex -15 8.5 70
      vertex -15 8.5 5
      vertex -16.0365 9.92658 70
    endloop
  endfacet
  facet normal -0.309017 0.951056 0
    outer loop
      vertex -16.5 9.77598 5
      vertex -16.5 9.77598 70
      vertex -16.0365 9.92658 5
    endloop
  endfacet
  facet normal -0.309017 0.951056 0
    outer loop
      vertex -16.0365 9.92658 5
      vertex -16.5 9.77598 70
      vertex -16.0365 9.92658 70
    endloop
  endfacet
  facet normal 1 0 0
    outer loop
      vertex -16.5 9.77598 70
      vertex -16.5 9.77598 5
      vertex -16.5 10 5
    endloop
  endfacet
  facet normal 1 0 0
    outer loop
      vertex -16.5 10 70
      vertex -16.5 9.77598 70
      vertex -16.5 10 5
    endloop
  endfacet
  facet normal 0 1 0
    outer loop
      vertex -33.5 10 5
      vertex -33.5 10 70
      vertex -16.5 10 5
    endloop
  endfacet
  facet normal 0 1 0
    outer loop
      vertex -16.5 10 5
      vertex -33.5 10 70
      vertex -28.971 10 70
    endloop
  endfacet
  facet normal 0 1 0
    outer loop
      vertex -16.5 10 5
      vertex -28.971 10 70
      vertex -28.0689 10 68.2812
    endloop
  endfacet
  facet normal 0 1 0
    outer loop
      vertex -16.5 10 5
      vertex -28.0689 10 68.2812
      vertex -26.4539 10 67.1664
    endloop
  endfacet
  facet normal 0 1 0
    outer loop
      vertex -26.4539 10 67.1664
      vertex -24.5058 10 66.9299
      vertex -16.5 10 5
    endloop
  endfacet
  facet normal 0 1 0
    outer loop
      vertex -24.5058 10 66.9299
      vertex -22.6709 10 67.6258
      vertex -16.5 10 5
    endloop
  endfacet
  facet normal 0 1 0
    outer loop
      vertex -22.6709 10 67.6258
      vertex -21.3696 10 69.0946
      vertex -16.5 10 5
    endloop
  endfacet
  facet normal 0 1 0
    outer loop
      vertex -21.3696 10 69.0946
      vertex -21.1465 10 70
      vertex -16.5 10 5
    endloop
  endfacet
  facet normal 0 1 0
    outer loop
      vertex -16.5 10 5
      vertex -21.1465 10 70
      vertex -16.5 10 70
    endloop
  endfacet
  facet normal -1 0 0
    outer loop
      vertex -33.5 9.77598 5
      vertex -33.5 9.77598 70
      vertex -33.5 10 5
    endloop
  endfacet
  facet normal -1 0 0
    outer loop
      vertex -33.5 10 5
      vertex -33.5 9.77598 70
      vertex -33.5 10 70
    endloop
  endfacet
  facet normal -0.309017 0.951056 0
    outer loop
      vertex -34.7135 9.38168 5
      vertex -34.7135 9.38168 70
      vertex -33.5 9.77598 5
    endloop
  endfacet
  facet normal -0.309017 0.951056 0
    outer loop
      vertex -33.5 9.77598 5
      vertex -34.7135 9.38168 70
      vertex -33.5 9.77598 70
    endloop
  endfacet
  facet normal -1 0 0
    outer loop
      vertex -34.7135 8.5 5
      vertex -34.7135 8.5 70
      vertex -34.7135 9.38168 5
    endloop
  endfacet
  facet normal -1 0 0
    outer loop
      vertex -34.7135 9.38168 5
      vertex -34.7135 8.5 70
      vertex -34.7135 9.38168 70
    endloop
  endfacet
  facet normal 0.809017 0.587785 0
    outer loop
      vertex 35 8.5 5
      vertex 33.9635 9.92658 5
      vertex 33.9635 9.92658 70
    endloop
  endfacet
  facet normal 0.809017 0.587785 0
    outer loop
      vertex 35 8.5 70
      vertex 35 8.5 5
      vertex 33.9635 9.92658 70
    endloop
  endfacet
  facet normal -0.309017 0.951056 0
    outer loop
      vertex 33.5 9.77598 5
      vertex 33.5 9.77598 70
      vertex 33.9635 9.92658 5
    endloop
  endfacet
  facet normal -0.309017 0.951056 0
    outer loop
      vertex 33.9635 9.92658 5
      vertex 33.5 9.77598 70
      vertex 33.9635 9.92658 70
    endloop
  endfacet
  facet normal 1 0 0
    outer loop
      vertex 33.5 9.77598 70
      vertex 33.5 9.77598 5
      vertex 33.5 10 5
    endloop
  endfacet
  facet normal 1 0 0
    outer loop
      vertex 33.5 10 70
      vertex 33.5 9.77598 70
      vertex 33.5 10 5
    endloop
  endfacet
  facet normal 0 1 0
    outer loop
      vertex 16.5 10 5
      vertex 16.5 10 70
      vertex 33.5 10 5
    endloop
  endfacet
  facet normal 0 1 0
    outer loop
      vertex 33.5 10 5
      vertex 16.5 10 70
      vertex 21.029 10 70
    endloop
  endfacet
  facet normal 0 1 0
    outer loop
      vertex 33.5 10 5
      vertex 21.029 10 70
      vertex 21.9311 10 68.2812
    endloop
  endfacet
  facet normal 0 1 0
    outer loop
      vertex 33.5 10 5
      vertex 21.9311 10 68.2812
      vertex 23.5461 10 67.1664
    endloop
  endfacet
  facet normal 0 1 0
    outer loop
      vertex 23.5461 10 67.1664
      vertex 25.4942 10 66.9299
      vertex 33.5 10 5
    endloop
  endfacet
  facet normal 0 1 0
    outer loop
      vertex 25.4942 10 66.9299
      vertex 27.3291 10 67.6258
      vertex 33.5 10 5
    endloop
  endfacet
  facet normal 0 1 0
    outer loop
      vertex 27.3291 10 67.6258
      vertex 28.6304 10 69.0946
      vertex 33.5 10 5
    endloop
  endfacet
  facet normal 0 1 0
    outer loop
      vertex 28.6304 10 69.0946
      vertex 28.8535 10 70
      vertex 33.5 10 5
    endloop
  endfacet
  facet normal 0 1 0
    outer loop
      vertex 33.5 10 5
      vertex 28.8535 10 70
      vertex 33.5 10 70
    endloop
  endfacet
  facet normal -1 0 0
    outer loop
      vertex 16.5 9.77598 5
      vertex 16.5 9.77598 70
      vertex 16.5 10 5
    endloop
  endfacet
  facet normal -1 0 0
    outer loop
      vertex 16.5 10 5
      vertex 16.5 9.77598 70
      vertex 16.5 10 70
    endloop
  endfacet
  facet normal -0.309017 0.951056 0
    outer loop
      vertex 15.2865 9.38168 5
      vertex 15.2865 9.38168 70
      vertex 16.5 9.77598 5
    endloop
  endfacet
  facet normal -0.309017 0.951056 0
    outer loop
      vertex 16.5 9.77598 5
      vertex 15.2865 9.38168 70
      vertex 16.5 9.77598 70
    endloop
  endfacet
  facet normal -1 0 0
    outer loop
      vertex 15.2865 8.5 5
      vertex 15.2865 8.5 70
      vertex 15.2865 9.38168 5
    endloop
  endfacet
  facet normal -1 0 0
    outer loop
      vertex 15.2865 9.38168 5
      vertex 15.2865 8.5 70
      vertex 15.2865 9.38168 70
    endloop
  endfacet
  facet normal 0 1 0
    outer loop
      vertex 15 8.5 5
      vertex 15 8.5 70
      vertex 15.2865 8.5 5
    endloop
  endfacet
  facet normal 0 1 0
    outer loop
      vertex 15.2865 8.5 5
      vertex 15 8.5 70
      vertex 15.2865 8.5 70
    endloop
  endfacet
  facet normal -1 0 0
    outer loop
      vertex 15 1.5 5
      vertex 15 1.5 70
      vertex 15 8.5 5
    endloop
  endfacet
  facet normal -1 0 0
    outer loop
      vertex 15 8.5 5
      vertex 15 1.5 70
      vertex 15 8.5 70
    endloop
  endfacet
  facet normal 0 -1 0
    outer loop
      vertex 15 1.5 70
      vertex 15 1.5 5
      vertex 15.2865 1.5 5
    endloop
  endfacet
  facet normal 0 -1 0
    outer loop
      vertex 15.2865 1.5 70
      vertex 15 1.5 70
      vertex 15.2865 1.5 5
    endloop
  endfacet
  facet normal -1 0 0
    outer loop
      vertex 15.2865 0.618322 5
      vertex 15.2865 0.618322 70
      vertex 15.2865 1.5 5
    endloop
  endfacet
  facet normal -1 0 0
    outer loop
      vertex 15.2865 1.5 5
      vertex 15.2865 0.618322 70
      vertex 15.2865 1.5 70
    endloop
  endfacet
  facet normal -0.309017 -0.951056 0
    outer loop
      vertex 15.2865 0.618322 70
      vertex 15.2865 0.618322 5
      vertex 16.5 0.224024 5
    endloop
  endfacet
  facet normal -0.309017 -0.951056 0
    outer loop
      vertex 16.5 0.224024 70
      vertex 15.2865 0.618322 70
      vertex 16.5 0.224024 5
    endloop
  endfacet
  facet normal -1 0 0
    outer loop
      vertex 16.5 0 5
      vertex 16.5 0 70
      vertex 16.5 0.224024 5
    endloop
  endfacet
  facet normal -1 0 0
    outer loop
      vertex 16.5 0.224024 5
      vertex 16.5 0 70
      vertex 16.5 0.224024 70
    endloop
  endfacet
  facet normal 0 -1 0
    outer loop
      vertex 16.5 0 70
      vertex 16.5 0 5
      vertex 33.5 0 5
    endloop
  endfacet
  facet normal 0 -1 0
    outer loop
      vertex 23.5461 0 67.1664
      vertex 16.5 0 70
      vertex 33.5 0 5
    endloop
  endfacet
  facet normal 0 -1 0
    outer loop
      vertex 33.5 0 70
      vertex 28.8535 0 70
      vertex 33.5 0 5
    endloop
  endfacet
  facet normal 0 -1 0
    outer loop
      vertex 28.8535 0 70
      vertex 28.6304 0 69.0946
      vertex 33.5 0 5
    endloop
  endfacet
  facet normal 0 -1 0
    outer loop
      vertex 28.6304 0 69.0946
      vertex 27.3291 0 67.6258
      vertex 33.5 0 5
    endloop
  endfacet
  facet normal 0 -1 0
    outer loop
      vertex 27.3291 0 67.6258
      vertex 25.4942 0 66.9299
      vertex 33.5 0 5
    endloop
  endfacet
  facet normal 0 -1 0
    outer loop
      vertex 25.4942 0 66.9299
      vertex 23.5461 0 67.1664
      vertex 33.5 0 5
    endloop
  endfacet
  facet normal 0 -1 0
    outer loop
      vertex 23.5461 0 67.1664
      vertex 21.9311 0 68.2812
      vertex 16.5 0 70
    endloop
  endfacet
  facet normal 0 -1 0
    outer loop
      vertex 21.9311 0 68.2812
      vertex 21.029 0 70
      vertex 16.5 0 70
    endloop
  endfacet
  facet normal 1 0 0
    outer loop
      vertex 33.5 0 70
      vertex 33.5 0 5
      vertex 33.5 0.224024 5
    endloop
  endfacet
  facet normal 1 0 0
    outer loop
      vertex 33.5 0.224024 70
      vertex 33.5 0 70
      vertex 33.5 0.224024 5
    endloop
  endfacet
  facet normal -0.309017 -0.951056 0
    outer loop
      vertex 33.5 0.224024 70
      vertex 33.5 0.224024 5
      vertex 33.9635 0.073415 5
    endloop
  endfacet
  facet normal -0.309017 -0.951056 0
    outer loop
      vertex 33.9635 0.073415 70
      vertex 33.5 0.224024 70
      vertex 33.9635 0.073415 5
    endloop
  endfacet
  facet normal 0.809017 -0.587785 0
    outer loop
      vertex 33.9635 0.073415 70
      vertex 33.9635 0.073415 5
      vertex 35 1.5 5
    endloop
  endfacet
  facet normal 0.809017 -0.587785 0
    outer loop
      vertex 35 1.5 70
      vertex 33.9635 0.073415 70
      vertex 35 1.5 5
    endloop
  endfacet
  facet normal 0.885456 1.03189e-016 0.464723
    outer loop
      vertex -28.971 0 70
      vertex -28.0689 0 68.2812
      vertex -28.0689 10 68.2812
    endloop
  endfacet
  facet normal 0.885456 1.03189e-016 0.464723
    outer loop
      vertex -28.971 10 70
      vertex -28.971 0 70
      vertex -28.0689 10 68.2812
    endloop
  endfacet
  facet normal 0 0 1
    outer loop
      vertex 28.8535 10 70
      vertex 28.8535 0 70
      vertex 33.5 0 70
    endloop
  endfacet
  facet normal 0 0 1
    outer loop
      vertex 33.9635 0.073415 70
      vertex 28.8535 10 70
      vertex 33.5 0.224024 70
    endloop
  endfacet
  facet normal 0 0 1
    outer loop
      vertex 33.5 0.224024 70
      vertex 28.8535 10 70
      vertex 33.5 0 70
    endloop
  endfacet
  facet normal 0 0 1
    outer loop
      vertex 35 1.5 70
      vertex 28.8535 10 70
      vertex 33.9635 0.073415 70
    endloop
  endfacet
  facet normal 0 0 1
    outer loop
      vertex 35 8.5 70
      vertex 28.8535 10 70
      vertex 35 1.5 70
    endloop
  endfacet
  facet normal 0 0 1
    outer loop
      vertex 33.5 9.77598 70
      vertex 28.8535 10 70
      vertex 35 8.5 70
    endloop
  endfacet
  facet normal 0 0 1
    outer loop
      vertex 33.9635 9.92658 70
      vertex 33.5 9.77598 70
      vertex 35 8.5 70
    endloop
  endfacet
  facet normal 0 0 1
    outer loop
      vertex 33.5 9.77598 70
      vertex 33.5 10 70
      vertex 28.8535 10 70
    endloop
  endfacet
  facet normal 0.568065 1.82739e-016 0.822984
    outer loop
      vertex -26.4539 0 67.1664
      vertex -26.4539 10 67.1664
      vertex -28.0689 10 68.2812
    endloop
  endfacet
  facet normal 0.568065 1.82739e-016 0.822984
    outer loop
      vertex -28.0689 0 68.2812
      vertex -26.4539 0 67.1664
      vertex -28.0689 10 68.2812
    endloop
  endfacet
  facet normal 0.120536 2.20426e-016 0.992709
    outer loop
      vertex -24.5058 0 66.9299
      vertex -24.5058 10 66.9299
      vertex -26.4539 10 67.1664
    endloop
  endfacet
  facet normal 0.120536 2.20426e-016 0.992709
    outer loop
      vertex -26.4539 0 67.1664
      vertex -24.5058 0 66.9299
      vertex -26.4539 10 67.1664
    endloop
  endfacet
  facet normal -0.354605 2.07615e-016 0.935016
    outer loop
      vertex -22.6709 0 67.6258
      vertex -22.6709 10 67.6258
      vertex -24.5058 10 66.9299
    endloop
  endfacet
  facet normal -0.354605 2.07615e-016 0.935016
    outer loop
      vertex -24.5058 0 66.9299
      vertex -22.6709 0 67.6258
      vertex -24.5058 10 66.9299
    endloop
  endfacet
  facet normal -0.748511 1.47243e-016 0.663123
    outer loop
      vertex -21.3696 10 69.0946
      vertex -22.6709 10 67.6258
      vertex -21.3696 0 69.0946
    endloop
  endfacet
  facet normal -0.748511 1.47243e-016 0.663123
    outer loop
      vertex -21.3696 0 69.0946
      vertex -22.6709 10 67.6258
      vertex -22.6709 0 67.6258
    endloop
  endfacet
  facet normal -0.970942 5.31387e-017 0.239316
    outer loop
      vertex -21.1465 10 70
      vertex -21.3696 10 69.0946
      vertex -21.1465 0 70
    endloop
  endfacet
  facet normal -0.970942 5.31387e-017 0.239316
    outer loop
      vertex -21.1465 0 70
      vertex -21.3696 10 69.0946
      vertex -21.3696 0 69.0946
    endloop
  endfacet
  facet normal 0 0 1
    outer loop
      vertex -21.1465 10 70
      vertex -21.1465 0 70
      vertex -16.5 0 70
    endloop
  endfacet
  facet normal 0 0 1
    outer loop
      vertex -16.0365 0.073415 70
      vertex -21.1465 10 70
      vertex -16.5 0.224024 70
    endloop
  endfacet
  facet normal 0 0 1
    outer loop
      vertex -16.5 0.224024 70
      vertex -21.1465 10 70
      vertex -16.5 0 70
    endloop
  endfacet
  facet normal 0 0 1
    outer loop
      vertex -15 1.5 70
      vertex -21.1465 10 70
      vertex -16.0365 0.073415 70
    endloop
  endfacet
  facet normal 0 0 1
    outer loop
      vertex -15 8.5 70
      vertex -21.1465 10 70
      vertex -15 1.5 70
    endloop
  endfacet
  facet normal 0 0 1
    outer loop
      vertex -16.5 9.77598 70
      vertex -21.1465 10 70
      vertex -15 8.5 70
    endloop
  endfacet
  facet normal 0 0 1
    outer loop
      vertex -16.0365 9.92658 70
      vertex -16.5 9.77598 70
      vertex -15 8.5 70
    endloop
  endfacet
  facet normal 0 0 1
    outer loop
      vertex -16.5 9.77598 70
      vertex -16.5 10 70
      vertex -21.1465 10 70
    endloop
  endfacet
  facet normal -0.970942 5.31387e-017 0.239316
    outer loop
      vertex 28.8535 10 70
      vertex 28.6304 10 69.0946
      vertex 28.8535 0 70
    endloop
  endfacet
  facet normal -0.970942 5.31387e-017 0.239316
    outer loop
      vertex 28.8535 0 70
      vertex 28.6304 10 69.0946
      vertex 28.6304 0 69.0946
    endloop
  endfacet
  facet normal -0.748511 1.47243e-016 0.663123
    outer loop
      vertex 28.6304 10 69.0946
      vertex 27.3291 10 67.6258
      vertex 28.6304 0 69.0946
    endloop
  endfacet
  facet normal -0.748511 1.47243e-016 0.663123
    outer loop
      vertex 28.6304 0 69.0946
      vertex 27.3291 10 67.6258
      vertex 27.3291 0 67.6258
    endloop
  endfacet
  facet normal -0.354605 2.07615e-016 0.935016
    outer loop
      vertex 27.3291 0 67.6258
      vertex 27.3291 10 67.6258
      vertex 25.4942 10 66.9299
    endloop
  endfacet
  facet normal -0.354605 2.07615e-016 0.935016
    outer loop
      vertex 25.4942 0 66.9299
      vertex 27.3291 0 67.6258
      vertex 25.4942 10 66.9299
    endloop
  endfacet
  facet normal 0.120536 2.20426e-016 0.992709
    outer loop
      vertex 25.4942 0 66.9299
      vertex 25.4942 10 66.9299
      vertex 23.5461 10 67.1664
    endloop
  endfacet
  facet normal 0.120536 2.20426e-016 0.992709
    outer loop
      vertex 23.5461 0 67.1664
      vertex 25.4942 0 66.9299
      vertex 23.5461 10 67.1664
    endloop
  endfacet
  facet normal 0.568065 1.82739e-016 0.822984
    outer loop
      vertex 23.5461 0 67.1664
      vertex 23.5461 10 67.1664
      vertex 21.9311 10 68.2812
    endloop
  endfacet
  facet normal 0.568065 1.82739e-016 0.822984
    outer loop
      vertex 21.9311 0 68.2812
      vertex 23.5461 0 67.1664
      vertex 21.9311 10 68.2812
    endloop
  endfacet
  facet normal 0.885456 1.03189e-016 0.464723
    outer loop
      vertex 21.029 0 70
      vertex 21.9311 0 68.2812
      vertex 21.9311 10 68.2812
    endloop
  endfacet
  facet normal 0.885456 1.03189e-016 0.464723
    outer loop
      vertex 21.029 10 70
      vertex 21.029 0 70
      vertex 21.9311 10 68.2812
    endloop
  endfacet
  facet normal 0 0 1
    outer loop
      vertex 16.5 0.224024 70
      vertex 21.029 0 70
      vertex 15 8.5 70
    endloop
  endfacet
  facet normal 0 0 1
    outer loop
      vertex 15 8.5 70
      vertex 15 1.5 70
      vertex 15.2865 1.5 70
    endloop
  endfacet
  facet normal 0 0 1
    outer loop
      vertex 16.5 0.224024 70
      vertex 15 8.5 70
      vertex 15.2865 1.5 70
    endloop
  endfacet
  facet normal 0 0 1
    outer loop
      vertex 15.2865 0.618322 70
      vertex 16.5 0.224024 70
      vertex 15.2865 1.5 70
    endloop
  endfacet
  facet normal 0 0 1
    outer loop
      vertex 16.5 0 70
      vertex 21.029 0 70
      vertex 16.5 0.224024 70
    endloop
  endfacet
  facet normal 0 0 1
    outer loop
      vertex 15.2865 9.38168 70
      vertex 21.029 10 70
      vertex 16.5 9.77598 70
    endloop
  endfacet
  facet normal 0 0 1
    outer loop
      vertex 21.029 10 70
      vertex 16.5 10 70
      vertex 16.5 9.77598 70
    endloop
  endfacet
  facet normal 0 0 1
    outer loop
      vertex 21.029 0 70
      vertex 15.2865 8.5 70
      vertex 15 8.5 70
    endloop
  endfacet
  facet normal 0 0 1
    outer loop
      vertex 21.029 0 70
      vertex 21.029 10 70
      vertex 15.2865 8.5 70
    endloop
  endfacet
  facet normal 0 0 1
    outer loop
      vertex 15.2865 9.38168 70
      vertex 15.2865 8.5 70
      vertex 21.029 10 70
    endloop
  endfacet
endsolid OpenSCAD_Model
