solid OpenSCAD_Model
  facet normal 0 0 -1
    outer loop
      vertex -7.1 0 0
      vertex -3.55 6.14878 0
      vertex -3.55 -6.14878 0
    endloop
  endfacet
  facet normal 0 0 -1
    outer loop
      vertex -0.480313 3.34065 0
      vertex -3.55 6.14878 0
      vertex 3.55 6.14878 0
    endloop
  endfacet
  facet normal 0 0 -1
    outer loop
      vertex 3.375 0 0
      vertex 3.55 6.14878 0
      vertex 7.1 0 0
    endloop
  endfacet
  facet normal 0 0 -1
    outer loop
      vertex -3.55 -6.14878 0
      vertex 7.1 0 0
      vertex 3.55 -6.14878 0
    endloop
  endfacet
  facet normal 0 0 -1
    outer loop
      vertex -3.55 -6.14878 0
      vertex -3.55 6.14878 0
      vertex -3.23829 0.950847 0
    endloop
  endfacet
  facet normal 0 0 -1
    outer loop
      vertex -3.55 -6.14878 0
      vertex -3.23829 0.950847 0
      vertex -3.23829 -0.950847 0
    endloop
  endfacet
  facet normal 0 0 -1
    outer loop
      vertex -3.55 -6.14878 0
      vertex -3.23829 -0.950847 0
      vertex -2.21015 -2.55065 0
    endloop
  endfacet
  facet normal 0 0 -1
    outer loop
      vertex 2.83923 -1.82466 0
      vertex 7.1 0 0
      vertex 1.40203 -3.07001 0
    endloop
  endfacet
  facet normal 0 0 -1
    outer loop
      vertex -3.55 -6.14878 0
      vertex -0.480313 -3.34065 0
      vertex 1.40203 -3.07001 0
    endloop
  endfacet
  facet normal 0 0 -1
    outer loop
      vertex -3.55 -6.14878 0
      vertex 1.40203 -3.07001 0
      vertex 7.1 0 0
    endloop
  endfacet
  facet normal 0 0 -1
    outer loop
      vertex 1.40203 3.07001 0
      vertex 3.55 6.14878 0
      vertex 2.83923 1.82466 0
    endloop
  endfacet
  facet normal 0 0 -1
    outer loop
      vertex 2.83923 1.82466 0
      vertex 3.55 6.14878 0
      vertex 3.375 0 0
    endloop
  endfacet
  facet normal 0 0 -1
    outer loop
      vertex 2.83923 -1.82466 0
      vertex 3.375 0 0
      vertex 7.1 0 0
    endloop
  endfacet
  facet normal 0 0 -1
    outer loop
      vertex -0.480313 3.34065 0
      vertex 3.55 6.14878 0
      vertex 1.40203 3.07001 0
    endloop
  endfacet
  facet normal 0 0 -1
    outer loop
      vertex -2.21015 2.55065 0
      vertex -3.55 6.14878 0
      vertex -0.480313 3.34065 0
    endloop
  endfacet
  facet normal 0 0 -1
    outer loop
      vertex -3.23829 0.950847 0
      vertex -3.55 6.14878 0
      vertex -2.21015 2.55065 0
    endloop
  endfacet
  facet normal 0 0 -1
    outer loop
      vertex -0.480313 -3.34065 0
      vertex -3.55 -6.14878 0
      vertex -2.21015 -2.55065 0
    endloop
  endfacet
  facet normal -0.866025 0.5 0
    outer loop
      vertex -7.1 0 0
      vertex -7.1 0 8.5
      vertex -3.55 6.14878 0
    endloop
  endfacet
  facet normal -0.866025 0.5 0
    outer loop
      vertex -3.55 6.14878 0
      vertex -7.1 0 8.5
      vertex -3.55 6.14878 8.5
    endloop
  endfacet
  facet normal -0.866025 -0.5 0
    outer loop
      vertex -7.1 0 0
      vertex -3.55 -6.14878 0
      vertex -7.1 0 8.5
    endloop
  endfacet
  facet normal -0.866025 -0.5 0
    outer loop
      vertex -7.1 0 8.5
      vertex -3.55 -6.14878 0
      vertex -3.55 -6.14878 8.5
    endloop
  endfacet
  facet normal 0 -1 0
    outer loop
      vertex -3.55 -6.14878 8.5
      vertex -3.55 -6.14878 0
      vertex 3.55 -6.14878 0
    endloop
  endfacet
  facet normal 0 -1 0
    outer loop
      vertex 3.55 -6.14878 8.5
      vertex -3.55 -6.14878 8.5
      vertex 3.55 -6.14878 0
    endloop
  endfacet
  facet normal 0.866025 -0.5 0
    outer loop
      vertex 3.55 -6.14878 8.5
      vertex 3.55 -6.14878 0
      vertex 7.1 0 0
    endloop
  endfacet
  facet normal 0.866025 -0.5 0
    outer loop
      vertex 7.1 0 8.5
      vertex 3.55 -6.14878 8.5
      vertex 7.1 0 0
    endloop
  endfacet
  facet normal 0.866025 0.5 0
    outer loop
      vertex 7.1 0 0
      vertex 3.55 6.14878 0
      vertex 3.55 6.14878 8.5
    endloop
  endfacet
  facet normal 0.866025 0.5 0
    outer loop
      vertex 7.1 0 8.5
      vertex 7.1 0 0
      vertex 3.55 6.14878 8.5
    endloop
  endfacet
  facet normal 0 1 0
    outer loop
      vertex -3.55 6.14878 0
      vertex -3.55 6.14878 8.5
      vertex 3.55 6.14878 0
    endloop
  endfacet
  facet normal 0 1 0
    outer loop
      vertex 3.55 6.14878 0
      vertex -3.55 6.14878 8.5
      vertex 3.55 6.14878 8.5
    endloop
  endfacet
  facet normal 1 0 0
    outer loop
      vertex -3.23829 0.950847 0
      vertex -3.23829 0.950847 3.3
      vertex -3.23829 -0.950847 3.3
    endloop
  endfacet
  facet normal 1 0 0
    outer loop
      vertex -3.23829 -0.950847 0
      vertex -3.23829 0.950847 0
      vertex -3.23829 -0.950847 3.3
    endloop
  endfacet
  facet normal 0.841254 -0.540641 0
    outer loop
      vertex -2.21015 2.55065 0
      vertex -2.21015 2.55065 3.3
      vertex -3.23829 0.950847 3.3
    endloop
  endfacet
  facet normal 0.841254 -0.540641 0
    outer loop
      vertex -3.23829 0.950847 0
      vertex -2.21015 2.55065 0
      vertex -3.23829 0.950847 3.3
    endloop
  endfacet
  facet normal 0.415415 -0.909632 0
    outer loop
      vertex -0.480313 3.34065 0
      vertex -0.480313 3.34065 3.3
      vertex -2.21015 2.55065 3.3
    endloop
  endfacet
  facet normal 0.415415 -0.909632 0
    outer loop
      vertex -2.21015 2.55065 0
      vertex -0.480313 3.34065 0
      vertex -2.21015 2.55065 3.3
    endloop
  endfacet
  facet normal -0.142315 -0.989821 0
    outer loop
      vertex 1.40203 3.07001 0
      vertex 1.40203 3.07001 3.3
      vertex -0.480313 3.34065 3.3
    endloop
  endfacet
  facet normal -0.142315 -0.989821 0
    outer loop
      vertex -0.480313 3.34065 0
      vertex 1.40203 3.07001 0
      vertex -0.480313 3.34065 3.3
    endloop
  endfacet
  facet normal -0.654861 -0.75575 0
    outer loop
      vertex 2.83923 1.82466 0
      vertex 2.83923 1.82466 3.3
      vertex 1.40203 3.07001 3.3
    endloop
  endfacet
  facet normal -0.654861 -0.75575 0
    outer loop
      vertex 1.40203 3.07001 0
      vertex 2.83923 1.82466 0
      vertex 1.40203 3.07001 3.3
    endloop
  endfacet
  facet normal -0.959493 -0.281732 0
    outer loop
      vertex 3.375 0 3.3
      vertex 2.83923 1.82466 3.3
      vertex 3.375 0 0
    endloop
  endfacet
  facet normal -0.959493 -0.281732 0
    outer loop
      vertex 3.375 0 0
      vertex 2.83923 1.82466 3.3
      vertex 2.83923 1.82466 0
    endloop
  endfacet
  facet normal -0.959493 0.281732 0
    outer loop
      vertex 3.375 0 3.3
      vertex 3.375 0 0
      vertex 2.83923 -1.82466 3.3
    endloop
  endfacet
  facet normal -0.959493 0.281732 0
    outer loop
      vertex 2.83923 -1.82466 3.3
      vertex 3.375 0 0
      vertex 2.83923 -1.82466 0
    endloop
  endfacet
  facet normal -0.654861 0.75575 0
    outer loop
      vertex 2.83923 -1.82466 3.3
      vertex 2.83923 -1.82466 0
      vertex 1.40203 -3.07001 3.3
    endloop
  endfacet
  facet normal -0.654861 0.75575 0
    outer loop
      vertex 1.40203 -3.07001 3.3
      vertex 2.83923 -1.82466 0
      vertex 1.40203 -3.07001 0
    endloop
  endfacet
  facet normal -0.142315 0.989821 0
    outer loop
      vertex 1.40203 -3.07001 3.3
      vertex 1.40203 -3.07001 0
      vertex -0.480313 -3.34065 3.3
    endloop
  endfacet
  facet normal -0.142315 0.989821 0
    outer loop
      vertex -0.480313 -3.34065 3.3
      vertex 1.40203 -3.07001 0
      vertex -0.480313 -3.34065 0
    endloop
  endfacet
  facet normal 0.415415 0.909632 0
    outer loop
      vertex -0.480313 -3.34065 3.3
      vertex -0.480313 -3.34065 0
      vertex -2.21015 -2.55065 3.3
    endloop
  endfacet
  facet normal 0.415415 0.909632 0
    outer loop
      vertex -2.21015 -2.55065 3.3
      vertex -0.480313 -3.34065 0
      vertex -2.21015 -2.55065 0
    endloop
  endfacet
  facet normal 0.841254 0.540641 0
    outer loop
      vertex -3.23829 -0.950847 3.3
      vertex -2.21015 -2.55065 3.3
      vertex -2.21015 -2.55065 0
    endloop
  endfacet
  facet normal 0.841254 0.540641 0
    outer loop
      vertex -3.23829 -0.950847 0
      vertex -3.23829 -0.950847 3.3
      vertex -2.21015 -2.55065 0
    endloop
  endfacet
  facet normal 0 0 1
    outer loop
      vertex -5.9 0 8.5
      vertex -7.1 0 8.5
      vertex -3.55 -6.14878 8.5
    endloop
  endfacet
  facet normal 0 0 1
    outer loop
      vertex 5.9 0 8.5
      vertex 2.95 -5.10955 8.5
      vertex 3.55 -6.14878 8.5
    endloop
  endfacet
  facet normal 0 0 1
    outer loop
      vertex 3.55 -6.14878 8.5
      vertex -2.95 -5.10955 8.5
      vertex -3.55 -6.14878 8.5
    endloop
  endfacet
  facet normal 0 0 1
    outer loop
      vertex -3.55 6.14878 8.5
      vertex -7.1 0 8.5
      vertex -5.9 0 8.5
    endloop
  endfacet
  facet normal 0 0 1
    outer loop
      vertex 2.95 5.10955 8.5
      vertex 5.9 0 8.5
      vertex 7.1 0 8.5
    endloop
  endfacet
  facet normal 0 0 1
    outer loop
      vertex 3.55 6.14878 8.5
      vertex 2.95 5.10955 8.5
      vertex 7.1 0 8.5
    endloop
  endfacet
  facet normal 0 0 1
    outer loop
      vertex 3.55 6.14878 8.5
      vertex -3.55 6.14878 8.5
      vertex 2.95 5.10955 8.5
    endloop
  endfacet
  facet normal 0 0 1
    outer loop
      vertex 7.1 0 8.5
      vertex 5.9 0 8.5
      vertex 3.55 -6.14878 8.5
    endloop
  endfacet
  facet normal 0 0 1
    outer loop
      vertex 3.55 -6.14878 8.5
      vertex 2.95 -5.10955 8.5
      vertex -2.95 -5.10955 8.5
    endloop
  endfacet
  facet normal 0 0 1
    outer loop
      vertex -2.95 5.10955 8.5
      vertex 2.95 5.10955 8.5
      vertex -3.55 6.14878 8.5
    endloop
  endfacet
  facet normal 0 0 1
    outer loop
      vertex -2.95 -5.10955 8.5
      vertex -5.9 0 8.5
      vertex -3.55 -6.14878 8.5
    endloop
  endfacet
  facet normal 0 0 1
    outer loop
      vertex -5.9 0 8.5
      vertex -2.95 5.10955 8.5
      vertex -3.55 6.14878 8.5
    endloop
  endfacet
  facet normal 0 0 1
    outer loop
      vertex 2.83923 -1.82466 3.3
      vertex 2.95 -5.10955 3.3
      vertex 5.9 0 3.3
    endloop
  endfacet
  facet normal 0 0 1
    outer loop
      vertex 1.40203 -3.07001 3.3
      vertex -0.480313 -3.34065 3.3
      vertex -2.95 -5.10955 3.3
    endloop
  endfacet
  facet normal 0 0 1
    outer loop
      vertex 1.40203 3.07001 3.3
      vertex 2.83923 1.82466 3.3
      vertex 2.95 5.10955 3.3
    endloop
  endfacet
  facet normal 0 0 1
    outer loop
      vertex -5.9 0 3.3
      vertex -3.23829 0.950847 3.3
      vertex -2.95 5.10955 3.3
    endloop
  endfacet
  facet normal 0 0 1
    outer loop
      vertex -2.95 5.10955 3.3
      vertex -2.21015 2.55065 3.3
      vertex 2.95 5.10955 3.3
    endloop
  endfacet
  facet normal 0 0 1
    outer loop
      vertex -2.21015 -2.55065 3.3
      vertex -3.23829 -0.950847 3.3
      vertex -2.95 -5.10955 3.3
    endloop
  endfacet
  facet normal 0 0 1
    outer loop
      vertex -2.21015 2.55065 3.3
      vertex -0.480313 3.34065 3.3
      vertex 2.95 5.10955 3.3
    endloop
  endfacet
  facet normal 0 0 1
    outer loop
      vertex -0.480313 3.34065 3.3
      vertex 1.40203 3.07001 3.3
      vertex 2.95 5.10955 3.3
    endloop
  endfacet
  facet normal 0 0 1
    outer loop
      vertex 2.95 5.10955 3.3
      vertex 2.83923 1.82466 3.3
      vertex 5.9 0 3.3
    endloop
  endfacet
  facet normal 0 0 1
    outer loop
      vertex 2.83923 1.82466 3.3
      vertex 3.375 0 3.3
      vertex 5.9 0 3.3
    endloop
  endfacet
  facet normal 0 0 1
    outer loop
      vertex 1.40203 -3.07001 3.3
      vertex 2.95 -5.10955 3.3
      vertex 2.83923 -1.82466 3.3
    endloop
  endfacet
  facet normal 0 0 1
    outer loop
      vertex -2.95 -5.10955 3.3
      vertex 2.95 -5.10955 3.3
      vertex 1.40203 -3.07001 3.3
    endloop
  endfacet
  facet normal 0 0 1
    outer loop
      vertex -5.9 0 3.3
      vertex -3.23829 -0.950847 3.3
      vertex -3.23829 0.950847 3.3
    endloop
  endfacet
  facet normal 0 0 1
    outer loop
      vertex -5.9 0 3.3
      vertex -2.95 -5.10955 3.3
      vertex -3.23829 -0.950847 3.3
    endloop
  endfacet
  facet normal 0 0 1
    outer loop
      vertex -3.23829 0.950847 3.3
      vertex -2.21015 2.55065 3.3
      vertex -2.95 5.10955 3.3
    endloop
  endfacet
  facet normal 0 0 1
    outer loop
      vertex 3.375 0 3.3
      vertex 2.83923 -1.82466 3.3
      vertex 5.9 0 3.3
    endloop
  endfacet
  facet normal 0 0 1
    outer loop
      vertex -0.480313 -3.34065 3.3
      vertex -2.21015 -2.55065 3.3
      vertex -2.95 -5.10955 3.3
    endloop
  endfacet
  facet normal 0 1 0
    outer loop
      vertex 2.95 -5.10955 8.5
      vertex 2.95 -5.10955 3.3
      vertex -2.95 -5.10955 8.5
    endloop
  endfacet
  facet normal 0 1 0
    outer loop
      vertex -2.95 -5.10955 8.5
      vertex 2.95 -5.10955 3.3
      vertex -2.95 -5.10955 3.3
    endloop
  endfacet
  facet normal 0.866025 0.5 0
    outer loop
      vertex -5.9 0 8.5
      vertex -2.95 -5.10955 8.5
      vertex -2.95 -5.10955 3.3
    endloop
  endfacet
  facet normal 0.866025 0.5 0
    outer loop
      vertex -5.9 0 3.3
      vertex -5.9 0 8.5
      vertex -2.95 -5.10955 3.3
    endloop
  endfacet
  facet normal -0.866025 0.5 0
    outer loop
      vertex 5.9 0 8.5
      vertex 5.9 0 3.3
      vertex 2.95 -5.10955 8.5
    endloop
  endfacet
  facet normal -0.866025 0.5 0
    outer loop
      vertex 2.95 -5.10955 8.5
      vertex 5.9 0 3.3
      vertex 2.95 -5.10955 3.3
    endloop
  endfacet
  facet normal -0.866025 -0.5 0
    outer loop
      vertex 5.9 0 8.5
      vertex 2.95 5.10955 8.5
      vertex 5.9 0 3.3
    endloop
  endfacet
  facet normal -0.866025 -0.5 0
    outer loop
      vertex 5.9 0 3.3
      vertex 2.95 5.10955 8.5
      vertex 2.95 5.10955 3.3
    endloop
  endfacet
  facet normal 0 -1 0
    outer loop
      vertex 2.95 5.10955 3.3
      vertex 2.95 5.10955 8.5
      vertex -2.95 5.10955 8.5
    endloop
  endfacet
  facet normal 0 -1 0
    outer loop
      vertex -2.95 5.10955 3.3
      vertex 2.95 5.10955 3.3
      vertex -2.95 5.10955 8.5
    endloop
  endfacet
  facet normal 0.866025 -0.5 0
    outer loop
      vertex -2.95 5.10955 3.3
      vertex -2.95 5.10955 8.5
      vertex -5.9 0 8.5
    endloop
  endfacet
  facet normal 0.866025 -0.5 0
    outer loop
      vertex -5.9 0 3.3
      vertex -2.95 5.10955 3.3
      vertex -5.9 0 8.5
    endloop
  endfacet
  facet normal 0 0 -1
    outer loop
      vertex 12.9 0 0
      vertex 16.45 6.14878 0
      vertex 16.45 -6.14878 0
    endloop
  endfacet
  facet normal 0 0 -1
    outer loop
      vertex 19.5197 3.34065 0
      vertex 16.45 6.14878 0
      vertex 23.55 6.14878 0
    endloop
  endfacet
  facet normal 0 0 -1
    outer loop
      vertex 23.375 0 0
      vertex 23.55 6.14878 0
      vertex 27.1 0 0
    endloop
  endfacet
  facet normal 0 0 -1
    outer loop
      vertex 16.45 -6.14878 0
      vertex 27.1 0 0
      vertex 23.55 -6.14878 0
    endloop
  endfacet
  facet normal 0 0 -1
    outer loop
      vertex 16.45 -6.14878 0
      vertex 16.45 6.14878 0
      vertex 16.7617 0.950847 0
    endloop
  endfacet
  facet normal 0 0 -1
    outer loop
      vertex 16.45 -6.14878 0
      vertex 16.7617 0.950847 0
      vertex 16.7617 -0.950847 0
    endloop
  endfacet
  facet normal 0 0 -1
    outer loop
      vertex 16.45 -6.14878 0
      vertex 16.7617 -0.950847 0
      vertex 17.7898 -2.55065 0
    endloop
  endfacet
  facet normal 0 0 -1
    outer loop
      vertex 22.8392 -1.82466 0
      vertex 27.1 0 0
      vertex 21.402 -3.07001 0
    endloop
  endfacet
  facet normal 0 0 -1
    outer loop
      vertex 16.45 -6.14878 0
      vertex 19.5197 -3.34065 0
      vertex 21.402 -3.07001 0
    endloop
  endfacet
  facet normal 0 0 -1
    outer loop
      vertex 16.45 -6.14878 0
      vertex 21.402 -3.07001 0
      vertex 27.1 0 0
    endloop
  endfacet
  facet normal 0 0 -1
    outer loop
      vertex 21.402 3.07001 0
      vertex 23.55 6.14878 0
      vertex 22.8392 1.82466 0
    endloop
  endfacet
  facet normal 0 0 -1
    outer loop
      vertex 22.8392 1.82466 0
      vertex 23.55 6.14878 0
      vertex 23.375 0 0
    endloop
  endfacet
  facet normal 0 0 -1
    outer loop
      vertex 22.8392 -1.82466 0
      vertex 23.375 0 0
      vertex 27.1 0 0
    endloop
  endfacet
  facet normal 0 0 -1
    outer loop
      vertex 19.5197 3.34065 0
      vertex 23.55 6.14878 0
      vertex 21.402 3.07001 0
    endloop
  endfacet
  facet normal 0 0 -1
    outer loop
      vertex 17.7898 2.55065 0
      vertex 16.45 6.14878 0
      vertex 19.5197 3.34065 0
    endloop
  endfacet
  facet normal 0 0 -1
    outer loop
      vertex 16.7617 0.950847 0
      vertex 16.45 6.14878 0
      vertex 17.7898 2.55065 0
    endloop
  endfacet
  facet normal 0 0 -1
    outer loop
      vertex 19.5197 -3.34065 0
      vertex 16.45 -6.14878 0
      vertex 17.7898 -2.55065 0
    endloop
  endfacet
  facet normal -0.866025 0.5 0
    outer loop
      vertex 12.9 0 0
      vertex 12.9 0 8.5
      vertex 16.45 6.14878 0
    endloop
  endfacet
  facet normal -0.866025 0.5 0
    outer loop
      vertex 16.45 6.14878 0
      vertex 12.9 0 8.5
      vertex 16.45 6.14878 8.5
    endloop
  endfacet
  facet normal -0.866025 -0.5 0
    outer loop
      vertex 12.9 0 0
      vertex 16.45 -6.14878 0
      vertex 12.9 0 8.5
    endloop
  endfacet
  facet normal -0.866025 -0.5 0
    outer loop
      vertex 12.9 0 8.5
      vertex 16.45 -6.14878 0
      vertex 16.45 -6.14878 8.5
    endloop
  endfacet
  facet normal 0 -1 0
    outer loop
      vertex 16.45 -6.14878 8.5
      vertex 16.45 -6.14878 0
      vertex 23.55 -6.14878 0
    endloop
  endfacet
  facet normal 0 -1 0
    outer loop
      vertex 23.55 -6.14878 8.5
      vertex 16.45 -6.14878 8.5
      vertex 23.55 -6.14878 0
    endloop
  endfacet
  facet normal 0.866025 -0.5 0
    outer loop
      vertex 23.55 -6.14878 8.5
      vertex 23.55 -6.14878 0
      vertex 27.1 0 0
    endloop
  endfacet
  facet normal 0.866025 -0.5 0
    outer loop
      vertex 27.1 0 8.5
      vertex 23.55 -6.14878 8.5
      vertex 27.1 0 0
    endloop
  endfacet
  facet normal 0.866025 0.5 0
    outer loop
      vertex 27.1 0 0
      vertex 23.55 6.14878 0
      vertex 23.55 6.14878 8.5
    endloop
  endfacet
  facet normal 0.866025 0.5 0
    outer loop
      vertex 27.1 0 8.5
      vertex 27.1 0 0
      vertex 23.55 6.14878 8.5
    endloop
  endfacet
  facet normal 0 1 0
    outer loop
      vertex 16.45 6.14878 0
      vertex 16.45 6.14878 8.5
      vertex 23.55 6.14878 0
    endloop
  endfacet
  facet normal 0 1 0
    outer loop
      vertex 23.55 6.14878 0
      vertex 16.45 6.14878 8.5
      vertex 23.55 6.14878 8.5
    endloop
  endfacet
  facet normal 1 0 0
    outer loop
      vertex 16.7617 0.950847 0
      vertex 16.7617 0.950847 3.3
      vertex 16.7617 -0.950847 3.3
    endloop
  endfacet
  facet normal 1 0 0
    outer loop
      vertex 16.7617 -0.950847 0
      vertex 16.7617 0.950847 0
      vertex 16.7617 -0.950847 3.3
    endloop
  endfacet
  facet normal 0.841254 -0.540641 0
    outer loop
      vertex 17.7898 2.55065 0
      vertex 17.7898 2.55065 3.3
      vertex 16.7617 0.950847 3.3
    endloop
  endfacet
  facet normal 0.841254 -0.540641 0
    outer loop
      vertex 16.7617 0.950847 0
      vertex 17.7898 2.55065 0
      vertex 16.7617 0.950847 3.3
    endloop
  endfacet
  facet normal 0.415415 -0.909632 0
    outer loop
      vertex 19.5197 3.34065 0
      vertex 19.5197 3.34065 3.3
      vertex 17.7898 2.55065 3.3
    endloop
  endfacet
  facet normal 0.415415 -0.909632 0
    outer loop
      vertex 17.7898 2.55065 0
      vertex 19.5197 3.34065 0
      vertex 17.7898 2.55065 3.3
    endloop
  endfacet
  facet normal -0.142315 -0.989821 0
    outer loop
      vertex 21.402 3.07001 0
      vertex 21.402 3.07001 3.3
      vertex 19.5197 3.34065 3.3
    endloop
  endfacet
  facet normal -0.142315 -0.989821 0
    outer loop
      vertex 19.5197 3.34065 0
      vertex 21.402 3.07001 0
      vertex 19.5197 3.34065 3.3
    endloop
  endfacet
  facet normal -0.654861 -0.75575 0
    outer loop
      vertex 22.8392 1.82466 0
      vertex 22.8392 1.82466 3.3
      vertex 21.402 3.07001 3.3
    endloop
  endfacet
  facet normal -0.654861 -0.75575 0
    outer loop
      vertex 21.402 3.07001 0
      vertex 22.8392 1.82466 0
      vertex 21.402 3.07001 3.3
    endloop
  endfacet
  facet normal -0.959493 -0.281732 0
    outer loop
      vertex 23.375 0 3.3
      vertex 22.8392 1.82466 3.3
      vertex 23.375 0 0
    endloop
  endfacet
  facet normal -0.959493 -0.281732 0
    outer loop
      vertex 23.375 0 0
      vertex 22.8392 1.82466 3.3
      vertex 22.8392 1.82466 0
    endloop
  endfacet
  facet normal -0.959493 0.281732 0
    outer loop
      vertex 23.375 0 3.3
      vertex 23.375 0 0
      vertex 22.8392 -1.82466 3.3
    endloop
  endfacet
  facet normal -0.959493 0.281732 0
    outer loop
      vertex 22.8392 -1.82466 3.3
      vertex 23.375 0 0
      vertex 22.8392 -1.82466 0
    endloop
  endfacet
  facet normal -0.654861 0.75575 0
    outer loop
      vertex 22.8392 -1.82466 3.3
      vertex 22.8392 -1.82466 0
      vertex 21.402 -3.07001 3.3
    endloop
  endfacet
  facet normal -0.654861 0.75575 0
    outer loop
      vertex 21.402 -3.07001 3.3
      vertex 22.8392 -1.82466 0
      vertex 21.402 -3.07001 0
    endloop
  endfacet
  facet normal -0.142315 0.989821 0
    outer loop
      vertex 21.402 -3.07001 3.3
      vertex 21.402 -3.07001 0
      vertex 19.5197 -3.34065 3.3
    endloop
  endfacet
  facet normal -0.142315 0.989821 0
    outer loop
      vertex 19.5197 -3.34065 3.3
      vertex 21.402 -3.07001 0
      vertex 19.5197 -3.34065 0
    endloop
  endfacet
  facet normal 0.415415 0.909632 0
    outer loop
      vertex 19.5197 -3.34065 3.3
      vertex 19.5197 -3.34065 0
      vertex 17.7898 -2.55065 3.3
    endloop
  endfacet
  facet normal 0.415415 0.909632 0
    outer loop
      vertex 17.7898 -2.55065 3.3
      vertex 19.5197 -3.34065 0
      vertex 17.7898 -2.55065 0
    endloop
  endfacet
  facet normal 0.841254 0.540641 0
    outer loop
      vertex 16.7617 -0.950847 3.3
      vertex 17.7898 -2.55065 3.3
      vertex 17.7898 -2.55065 0
    endloop
  endfacet
  facet normal 0.841254 0.540641 0
    outer loop
      vertex 16.7617 -0.950847 0
      vertex 16.7617 -0.950847 3.3
      vertex 17.7898 -2.55065 0
    endloop
  endfacet
  facet normal 0 0 1
    outer loop
      vertex 14.1 0 8.5
      vertex 12.9 0 8.5
      vertex 16.45 -6.14878 8.5
    endloop
  endfacet
  facet normal 0 0 1
    outer loop
      vertex 25.9 0 8.5
      vertex 22.95 -5.10955 8.5
      vertex 23.55 -6.14878 8.5
    endloop
  endfacet
  facet normal 0 0 1
    outer loop
      vertex 23.55 -6.14878 8.5
      vertex 17.05 -5.10955 8.5
      vertex 16.45 -6.14878 8.5
    endloop
  endfacet
  facet normal 0 0 1
    outer loop
      vertex 16.45 6.14878 8.5
      vertex 12.9 0 8.5
      vertex 14.1 0 8.5
    endloop
  endfacet
  facet normal 0 0 1
    outer loop
      vertex 22.95 5.10955 8.5
      vertex 25.9 0 8.5
      vertex 27.1 0 8.5
    endloop
  endfacet
  facet normal 0 0 1
    outer loop
      vertex 23.55 6.14878 8.5
      vertex 22.95 5.10955 8.5
      vertex 27.1 0 8.5
    endloop
  endfacet
  facet normal 0 0 1
    outer loop
      vertex 23.55 6.14878 8.5
      vertex 16.45 6.14878 8.5
      vertex 22.95 5.10955 8.5
    endloop
  endfacet
  facet normal 0 0 1
    outer loop
      vertex 27.1 0 8.5
      vertex 25.9 0 8.5
      vertex 23.55 -6.14878 8.5
    endloop
  endfacet
  facet normal 0 0 1
    outer loop
      vertex 23.55 -6.14878 8.5
      vertex 22.95 -5.10955 8.5
      vertex 17.05 -5.10955 8.5
    endloop
  endfacet
  facet normal 0 0 1
    outer loop
      vertex 17.05 5.10955 8.5
      vertex 22.95 5.10955 8.5
      vertex 16.45 6.14878 8.5
    endloop
  endfacet
  facet normal 0 0 1
    outer loop
      vertex 17.05 -5.10955 8.5
      vertex 14.1 0 8.5
      vertex 16.45 -6.14878 8.5
    endloop
  endfacet
  facet normal 0 0 1
    outer loop
      vertex 14.1 0 8.5
      vertex 17.05 5.10955 8.5
      vertex 16.45 6.14878 8.5
    endloop
  endfacet
  facet normal 0 0 1
    outer loop
      vertex 22.8392 -1.82466 3.3
      vertex 22.95 -5.10955 3.3
      vertex 25.9 0 3.3
    endloop
  endfacet
  facet normal 0 0 1
    outer loop
      vertex 21.402 -3.07001 3.3
      vertex 19.5197 -3.34065 3.3
      vertex 17.05 -5.10955 3.3
    endloop
  endfacet
  facet normal 0 0 1
    outer loop
      vertex 21.402 3.07001 3.3
      vertex 22.8392 1.82466 3.3
      vertex 22.95 5.10955 3.3
    endloop
  endfacet
  facet normal 0 0 1
    outer loop
      vertex 14.1 0 3.3
      vertex 16.7617 0.950847 3.3
      vertex 17.05 5.10955 3.3
    endloop
  endfacet
  facet normal 0 0 1
    outer loop
      vertex 17.05 5.10955 3.3
      vertex 17.7898 2.55065 3.3
      vertex 22.95 5.10955 3.3
    endloop
  endfacet
  facet normal 0 0 1
    outer loop
      vertex 17.7898 -2.55065 3.3
      vertex 16.7617 -0.950847 3.3
      vertex 17.05 -5.10955 3.3
    endloop
  endfacet
  facet normal 0 0 1
    outer loop
      vertex 17.7898 2.55065 3.3
      vertex 19.5197 3.34065 3.3
      vertex 22.95 5.10955 3.3
    endloop
  endfacet
  facet normal 0 0 1
    outer loop
      vertex 19.5197 3.34065 3.3
      vertex 21.402 3.07001 3.3
      vertex 22.95 5.10955 3.3
    endloop
  endfacet
  facet normal 0 0 1
    outer loop
      vertex 22.95 5.10955 3.3
      vertex 22.8392 1.82466 3.3
      vertex 25.9 0 3.3
    endloop
  endfacet
  facet normal 0 0 1
    outer loop
      vertex 22.8392 1.82466 3.3
      vertex 23.375 0 3.3
      vertex 25.9 0 3.3
    endloop
  endfacet
  facet normal 0 0 1
    outer loop
      vertex 21.402 -3.07001 3.3
      vertex 22.95 -5.10955 3.3
      vertex 22.8392 -1.82466 3.3
    endloop
  endfacet
  facet normal 0 0 1
    outer loop
      vertex 17.05 -5.10955 3.3
      vertex 22.95 -5.10955 3.3
      vertex 21.402 -3.07001 3.3
    endloop
  endfacet
  facet normal 0 0 1
    outer loop
      vertex 14.1 0 3.3
      vertex 16.7617 -0.950847 3.3
      vertex 16.7617 0.950847 3.3
    endloop
  endfacet
  facet normal 0 0 1
    outer loop
      vertex 14.1 0 3.3
      vertex 17.05 -5.10955 3.3
      vertex 16.7617 -0.950847 3.3
    endloop
  endfacet
  facet normal 0 0 1
    outer loop
      vertex 16.7617 0.950847 3.3
      vertex 17.7898 2.55065 3.3
      vertex 17.05 5.10955 3.3
    endloop
  endfacet
  facet normal 0 0 1
    outer loop
      vertex 23.375 0 3.3
      vertex 22.8392 -1.82466 3.3
      vertex 25.9 0 3.3
    endloop
  endfacet
  facet normal 0 0 1
    outer loop
      vertex 19.5197 -3.34065 3.3
      vertex 17.7898 -2.55065 3.3
      vertex 17.05 -5.10955 3.3
    endloop
  endfacet
  facet normal 0 1 0
    outer loop
      vertex 22.95 -5.10955 8.5
      vertex 22.95 -5.10955 3.3
      vertex 17.05 -5.10955 8.5
    endloop
  endfacet
  facet normal 0 1 0
    outer loop
      vertex 17.05 -5.10955 8.5
      vertex 22.95 -5.10955 3.3
      vertex 17.05 -5.10955 3.3
    endloop
  endfacet
  facet normal 0.866025 0.5 0
    outer loop
      vertex 14.1 0 8.5
      vertex 17.05 -5.10955 8.5
      vertex 17.05 -5.10955 3.3
    endloop
  endfacet
  facet normal 0.866025 0.5 0
    outer loop
      vertex 14.1 0 3.3
      vertex 14.1 0 8.5
      vertex 17.05 -5.10955 3.3
    endloop
  endfacet
  facet normal -0.866025 0.5 0
    outer loop
      vertex 25.9 0 8.5
      vertex 25.9 0 3.3
      vertex 22.95 -5.10955 8.5
    endloop
  endfacet
  facet normal -0.866025 0.5 0
    outer loop
      vertex 22.95 -5.10955 8.5
      vertex 25.9 0 3.3
      vertex 22.95 -5.10955 3.3
    endloop
  endfacet
  facet normal -0.866025 -0.5 0
    outer loop
      vertex 25.9 0 8.5
      vertex 22.95 5.10955 8.5
      vertex 25.9 0 3.3
    endloop
  endfacet
  facet normal -0.866025 -0.5 0
    outer loop
      vertex 25.9 0 3.3
      vertex 22.95 5.10955 8.5
      vertex 22.95 5.10955 3.3
    endloop
  endfacet
  facet normal 0 -1 0
    outer loop
      vertex 22.95 5.10955 3.3
      vertex 22.95 5.10955 8.5
      vertex 17.05 5.10955 8.5
    endloop
  endfacet
  facet normal 0 -1 0
    outer loop
      vertex 17.05 5.10955 3.3
      vertex 22.95 5.10955 3.3
      vertex 17.05 5.10955 8.5
    endloop
  endfacet
  facet normal 0.866025 -0.5 0
    outer loop
      vertex 17.05 5.10955 3.3
      vertex 17.05 5.10955 8.5
      vertex 14.1 0 8.5
    endloop
  endfacet
  facet normal 0.866025 -0.5 0
    outer loop
      vertex 14.1 0 3.3
      vertex 17.05 5.10955 3.3
      vertex 14.1 0 8.5
    endloop
  endfacet
  facet normal 0 0 -1
    outer loop
      vertex 12.9 20 0
      vertex 16.45 26.1488 0
      vertex 16.45 13.8512 0
    endloop
  endfacet
  facet normal 0 0 -1
    outer loop
      vertex 19.5197 23.3406 0
      vertex 16.45 26.1488 0
      vertex 23.55 26.1488 0
    endloop
  endfacet
  facet normal 0 0 -1
    outer loop
      vertex 23.375 20 0
      vertex 23.55 26.1488 0
      vertex 27.1 20 0
    endloop
  endfacet
  facet normal 0 0 -1
    outer loop
      vertex 16.45 13.8512 0
      vertex 27.1 20 0
      vertex 23.55 13.8512 0
    endloop
  endfacet
  facet normal 0 0 -1
    outer loop
      vertex 16.45 13.8512 0
      vertex 16.45 26.1488 0
      vertex 16.7617 20.9508 0
    endloop
  endfacet
  facet normal 0 0 -1
    outer loop
      vertex 16.45 13.8512 0
      vertex 16.7617 20.9508 0
      vertex 16.7617 19.0492 0
    endloop
  endfacet
  facet normal 0 0 -1
    outer loop
      vertex 16.45 13.8512 0
      vertex 16.7617 19.0492 0
      vertex 17.7898 17.4493 0
    endloop
  endfacet
  facet normal 0 0 -1
    outer loop
      vertex 22.8392 18.1753 0
      vertex 27.1 20 0
      vertex 21.402 16.93 0
    endloop
  endfacet
  facet normal 0 0 -1
    outer loop
      vertex 16.45 13.8512 0
      vertex 19.5197 16.6594 0
      vertex 21.402 16.93 0
    endloop
  endfacet
  facet normal 0 0 -1
    outer loop
      vertex 16.45 13.8512 0
      vertex 21.402 16.93 0
      vertex 27.1 20 0
    endloop
  endfacet
  facet normal 0 0 -1
    outer loop
      vertex 21.402 23.07 0
      vertex 23.55 26.1488 0
      vertex 22.8392 21.8247 0
    endloop
  endfacet
  facet normal 0 0 -1
    outer loop
      vertex 22.8392 21.8247 0
      vertex 23.55 26.1488 0
      vertex 23.375 20 0
    endloop
  endfacet
  facet normal 0 0 -1
    outer loop
      vertex 22.8392 18.1753 0
      vertex 23.375 20 0
      vertex 27.1 20 0
    endloop
  endfacet
  facet normal 0 0 -1
    outer loop
      vertex 19.5197 23.3406 0
      vertex 23.55 26.1488 0
      vertex 21.402 23.07 0
    endloop
  endfacet
  facet normal 0 0 -1
    outer loop
      vertex 17.7898 22.5507 0
      vertex 16.45 26.1488 0
      vertex 19.5197 23.3406 0
    endloop
  endfacet
  facet normal 0 0 -1
    outer loop
      vertex 16.7617 20.9508 0
      vertex 16.45 26.1488 0
      vertex 17.7898 22.5507 0
    endloop
  endfacet
  facet normal 0 0 -1
    outer loop
      vertex 19.5197 16.6594 0
      vertex 16.45 13.8512 0
      vertex 17.7898 17.4493 0
    endloop
  endfacet
  facet normal -0.866025 0.5 0
    outer loop
      vertex 12.9 20 0
      vertex 12.9 20 8.5
      vertex 16.45 26.1488 0
    endloop
  endfacet
  facet normal -0.866025 0.5 0
    outer loop
      vertex 16.45 26.1488 0
      vertex 12.9 20 8.5
      vertex 16.45 26.1488 8.5
    endloop
  endfacet
  facet normal -0.866025 -0.5 0
    outer loop
      vertex 12.9 20 0
      vertex 16.45 13.8512 0
      vertex 12.9 20 8.5
    endloop
  endfacet
  facet normal -0.866025 -0.5 0
    outer loop
      vertex 12.9 20 8.5
      vertex 16.45 13.8512 0
      vertex 16.45 13.8512 8.5
    endloop
  endfacet
  facet normal 0 -1 0
    outer loop
      vertex 16.45 13.8512 8.5
      vertex 16.45 13.8512 0
      vertex 23.55 13.8512 0
    endloop
  endfacet
  facet normal 0 -1 0
    outer loop
      vertex 23.55 13.8512 8.5
      vertex 16.45 13.8512 8.5
      vertex 23.55 13.8512 0
    endloop
  endfacet
  facet normal 0.866025 -0.5 0
    outer loop
      vertex 23.55 13.8512 8.5
      vertex 23.55 13.8512 0
      vertex 27.1 20 0
    endloop
  endfacet
  facet normal 0.866025 -0.5 0
    outer loop
      vertex 27.1 20 8.5
      vertex 23.55 13.8512 8.5
      vertex 27.1 20 0
    endloop
  endfacet
  facet normal 0.866025 0.5 0
    outer loop
      vertex 27.1 20 0
      vertex 23.55 26.1488 0
      vertex 23.55 26.1488 8.5
    endloop
  endfacet
  facet normal 0.866025 0.5 0
    outer loop
      vertex 27.1 20 8.5
      vertex 27.1 20 0
      vertex 23.55 26.1488 8.5
    endloop
  endfacet
  facet normal 0 1 0
    outer loop
      vertex 16.45 26.1488 0
      vertex 16.45 26.1488 8.5
      vertex 23.55 26.1488 0
    endloop
  endfacet
  facet normal 0 1 0
    outer loop
      vertex 23.55 26.1488 0
      vertex 16.45 26.1488 8.5
      vertex 23.55 26.1488 8.5
    endloop
  endfacet
  facet normal 1 0 0
    outer loop
      vertex 16.7617 20.9508 0
      vertex 16.7617 20.9508 3.3
      vertex 16.7617 19.0492 3.3
    endloop
  endfacet
  facet normal 1 0 0
    outer loop
      vertex 16.7617 19.0492 0
      vertex 16.7617 20.9508 0
      vertex 16.7617 19.0492 3.3
    endloop
  endfacet
  facet normal 0.841254 -0.540641 0
    outer loop
      vertex 17.7898 22.5507 0
      vertex 17.7898 22.5507 3.3
      vertex 16.7617 20.9508 3.3
    endloop
  endfacet
  facet normal 0.841254 -0.540641 0
    outer loop
      vertex 16.7617 20.9508 0
      vertex 17.7898 22.5507 0
      vertex 16.7617 20.9508 3.3
    endloop
  endfacet
  facet normal 0.415415 -0.909632 0
    outer loop
      vertex 19.5197 23.3406 0
      vertex 19.5197 23.3406 3.3
      vertex 17.7898 22.5507 3.3
    endloop
  endfacet
  facet normal 0.415415 -0.909632 0
    outer loop
      vertex 17.7898 22.5507 0
      vertex 19.5197 23.3406 0
      vertex 17.7898 22.5507 3.3
    endloop
  endfacet
  facet normal -0.142315 -0.989821 0
    outer loop
      vertex 21.402 23.07 0
      vertex 21.402 23.07 3.3
      vertex 19.5197 23.3406 3.3
    endloop
  endfacet
  facet normal -0.142315 -0.989821 0
    outer loop
      vertex 19.5197 23.3406 0
      vertex 21.402 23.07 0
      vertex 19.5197 23.3406 3.3
    endloop
  endfacet
  facet normal -0.654861 -0.75575 0
    outer loop
      vertex 22.8392 21.8247 0
      vertex 22.8392 21.8247 3.3
      vertex 21.402 23.07 3.3
    endloop
  endfacet
  facet normal -0.654861 -0.75575 0
    outer loop
      vertex 21.402 23.07 0
      vertex 22.8392 21.8247 0
      vertex 21.402 23.07 3.3
    endloop
  endfacet
  facet normal -0.959493 -0.281732 0
    outer loop
      vertex 23.375 20 3.3
      vertex 22.8392 21.8247 3.3
      vertex 23.375 20 0
    endloop
  endfacet
  facet normal -0.959493 -0.281732 0
    outer loop
      vertex 23.375 20 0
      vertex 22.8392 21.8247 3.3
      vertex 22.8392 21.8247 0
    endloop
  endfacet
  facet normal -0.959493 0.281732 0
    outer loop
      vertex 23.375 20 3.3
      vertex 23.375 20 0
      vertex 22.8392 18.1753 3.3
    endloop
  endfacet
  facet normal -0.959493 0.281732 0
    outer loop
      vertex 22.8392 18.1753 3.3
      vertex 23.375 20 0
      vertex 22.8392 18.1753 0
    endloop
  endfacet
  facet normal -0.654861 0.75575 0
    outer loop
      vertex 22.8392 18.1753 3.3
      vertex 22.8392 18.1753 0
      vertex 21.402 16.93 3.3
    endloop
  endfacet
  facet normal -0.654861 0.75575 0
    outer loop
      vertex 21.402 16.93 3.3
      vertex 22.8392 18.1753 0
      vertex 21.402 16.93 0
    endloop
  endfacet
  facet normal -0.142315 0.989821 0
    outer loop
      vertex 21.402 16.93 3.3
      vertex 21.402 16.93 0
      vertex 19.5197 16.6594 3.3
    endloop
  endfacet
  facet normal -0.142315 0.989821 0
    outer loop
      vertex 19.5197 16.6594 3.3
      vertex 21.402 16.93 0
      vertex 19.5197 16.6594 0
    endloop
  endfacet
  facet normal 0.415415 0.909632 0
    outer loop
      vertex 19.5197 16.6594 3.3
      vertex 19.5197 16.6594 0
      vertex 17.7898 17.4493 3.3
    endloop
  endfacet
  facet normal 0.415415 0.909632 0
    outer loop
      vertex 17.7898 17.4493 3.3
      vertex 19.5197 16.6594 0
      vertex 17.7898 17.4493 0
    endloop
  endfacet
  facet normal 0.841254 0.540641 0
    outer loop
      vertex 16.7617 19.0492 3.3
      vertex 17.7898 17.4493 3.3
      vertex 17.7898 17.4493 0
    endloop
  endfacet
  facet normal 0.841254 0.540641 0
    outer loop
      vertex 16.7617 19.0492 0
      vertex 16.7617 19.0492 3.3
      vertex 17.7898 17.4493 0
    endloop
  endfacet
  facet normal 0 0 1
    outer loop
      vertex 14.1 20 8.5
      vertex 12.9 20 8.5
      vertex 16.45 13.8512 8.5
    endloop
  endfacet
  facet normal 0 0 1
    outer loop
      vertex 25.9 20 8.5
      vertex 22.95 14.8905 8.5
      vertex 23.55 13.8512 8.5
    endloop
  endfacet
  facet normal 0 0 1
    outer loop
      vertex 23.55 13.8512 8.5
      vertex 17.05 14.8905 8.5
      vertex 16.45 13.8512 8.5
    endloop
  endfacet
  facet normal 0 0 1
    outer loop
      vertex 16.45 26.1488 8.5
      vertex 12.9 20 8.5
      vertex 14.1 20 8.5
    endloop
  endfacet
  facet normal 0 0 1
    outer loop
      vertex 22.95 25.1095 8.5
      vertex 25.9 20 8.5
      vertex 27.1 20 8.5
    endloop
  endfacet
  facet normal 0 0 1
    outer loop
      vertex 23.55 26.1488 8.5
      vertex 22.95 25.1095 8.5
      vertex 27.1 20 8.5
    endloop
  endfacet
  facet normal 0 0 1
    outer loop
      vertex 23.55 26.1488 8.5
      vertex 16.45 26.1488 8.5
      vertex 22.95 25.1095 8.5
    endloop
  endfacet
  facet normal 0 0 1
    outer loop
      vertex 27.1 20 8.5
      vertex 25.9 20 8.5
      vertex 23.55 13.8512 8.5
    endloop
  endfacet
  facet normal 0 0 1
    outer loop
      vertex 23.55 13.8512 8.5
      vertex 22.95 14.8905 8.5
      vertex 17.05 14.8905 8.5
    endloop
  endfacet
  facet normal 0 0 1
    outer loop
      vertex 17.05 25.1095 8.5
      vertex 22.95 25.1095 8.5
      vertex 16.45 26.1488 8.5
    endloop
  endfacet
  facet normal 0 0 1
    outer loop
      vertex 17.05 14.8905 8.5
      vertex 14.1 20 8.5
      vertex 16.45 13.8512 8.5
    endloop
  endfacet
  facet normal 0 0 1
    outer loop
      vertex 14.1 20 8.5
      vertex 17.05 25.1095 8.5
      vertex 16.45 26.1488 8.5
    endloop
  endfacet
  facet normal 0 0 1
    outer loop
      vertex 22.8392 18.1753 3.3
      vertex 22.95 14.8905 3.3
      vertex 25.9 20 3.3
    endloop
  endfacet
  facet normal 0 0 1
    outer loop
      vertex 21.402 16.93 3.3
      vertex 19.5197 16.6594 3.3
      vertex 17.05 14.8905 3.3
    endloop
  endfacet
  facet normal 0 0 1
    outer loop
      vertex 21.402 23.07 3.3
      vertex 22.8392 21.8247 3.3
      vertex 22.95 25.1095 3.3
    endloop
  endfacet
  facet normal 0 0 1
    outer loop
      vertex 14.1 20 3.3
      vertex 16.7617 20.9508 3.3
      vertex 17.05 25.1095 3.3
    endloop
  endfacet
  facet normal 0 0 1
    outer loop
      vertex 17.05 25.1095 3.3
      vertex 17.7898 22.5507 3.3
      vertex 22.95 25.1095 3.3
    endloop
  endfacet
  facet normal 0 0 1
    outer loop
      vertex 17.7898 17.4493 3.3
      vertex 16.7617 19.0492 3.3
      vertex 17.05 14.8905 3.3
    endloop
  endfacet
  facet normal 0 0 1
    outer loop
      vertex 17.7898 22.5507 3.3
      vertex 19.5197 23.3406 3.3
      vertex 22.95 25.1095 3.3
    endloop
  endfacet
  facet normal 0 0 1
    outer loop
      vertex 19.5197 23.3406 3.3
      vertex 21.402 23.07 3.3
      vertex 22.95 25.1095 3.3
    endloop
  endfacet
  facet normal 0 0 1
    outer loop
      vertex 22.95 25.1095 3.3
      vertex 22.8392 21.8247 3.3
      vertex 25.9 20 3.3
    endloop
  endfacet
  facet normal 0 0 1
    outer loop
      vertex 22.8392 21.8247 3.3
      vertex 23.375 20 3.3
      vertex 25.9 20 3.3
    endloop
  endfacet
  facet normal 0 0 1
    outer loop
      vertex 21.402 16.93 3.3
      vertex 22.95 14.8905 3.3
      vertex 22.8392 18.1753 3.3
    endloop
  endfacet
  facet normal 0 0 1
    outer loop
      vertex 17.05 14.8905 3.3
      vertex 22.95 14.8905 3.3
      vertex 21.402 16.93 3.3
    endloop
  endfacet
  facet normal 0 0 1
    outer loop
      vertex 14.1 20 3.3
      vertex 16.7617 19.0492 3.3
      vertex 16.7617 20.9508 3.3
    endloop
  endfacet
  facet normal 0 0 1
    outer loop
      vertex 14.1 20 3.3
      vertex 17.05 14.8905 3.3
      vertex 16.7617 19.0492 3.3
    endloop
  endfacet
  facet normal 0 0 1
    outer loop
      vertex 16.7617 20.9508 3.3
      vertex 17.7898 22.5507 3.3
      vertex 17.05 25.1095 3.3
    endloop
  endfacet
  facet normal 0 0 1
    outer loop
      vertex 23.375 20 3.3
      vertex 22.8392 18.1753 3.3
      vertex 25.9 20 3.3
    endloop
  endfacet
  facet normal 0 0 1
    outer loop
      vertex 19.5197 16.6594 3.3
      vertex 17.7898 17.4493 3.3
      vertex 17.05 14.8905 3.3
    endloop
  endfacet
  facet normal 0 1 0
    outer loop
      vertex 22.95 14.8905 8.5
      vertex 22.95 14.8905 3.3
      vertex 17.05 14.8905 8.5
    endloop
  endfacet
  facet normal 0 1 0
    outer loop
      vertex 17.05 14.8905 8.5
      vertex 22.95 14.8905 3.3
      vertex 17.05 14.8905 3.3
    endloop
  endfacet
  facet normal 0.866025 0.5 0
    outer loop
      vertex 14.1 20 8.5
      vertex 17.05 14.8905 8.5
      vertex 17.05 14.8905 3.3
    endloop
  endfacet
  facet normal 0.866025 0.5 0
    outer loop
      vertex 14.1 20 3.3
      vertex 14.1 20 8.5
      vertex 17.05 14.8905 3.3
    endloop
  endfacet
  facet normal -0.866025 0.5 0
    outer loop
      vertex 25.9 20 8.5
      vertex 25.9 20 3.3
      vertex 22.95 14.8905 8.5
    endloop
  endfacet
  facet normal -0.866025 0.5 0
    outer loop
      vertex 22.95 14.8905 8.5
      vertex 25.9 20 3.3
      vertex 22.95 14.8905 3.3
    endloop
  endfacet
  facet normal -0.866025 -0.5 0
    outer loop
      vertex 25.9 20 8.5
      vertex 22.95 25.1095 8.5
      vertex 25.9 20 3.3
    endloop
  endfacet
  facet normal -0.866025 -0.5 0
    outer loop
      vertex 25.9 20 3.3
      vertex 22.95 25.1095 8.5
      vertex 22.95 25.1095 3.3
    endloop
  endfacet
  facet normal 0 -1 0
    outer loop
      vertex 22.95 25.1095 3.3
      vertex 22.95 25.1095 8.5
      vertex 17.05 25.1095 8.5
    endloop
  endfacet
  facet normal 0 -1 0
    outer loop
      vertex 17.05 25.1095 3.3
      vertex 22.95 25.1095 3.3
      vertex 17.05 25.1095 8.5
    endloop
  endfacet
  facet normal 0.866025 -0.5 0
    outer loop
      vertex 17.05 25.1095 3.3
      vertex 17.05 25.1095 8.5
      vertex 14.1 20 8.5
    endloop
  endfacet
  facet normal 0.866025 -0.5 0
    outer loop
      vertex 14.1 20 3.3
      vertex 17.05 25.1095 3.3
      vertex 14.1 20 8.5
    endloop
  endfacet
  facet normal 0 0 -1
    outer loop
      vertex -7.1 20 0
      vertex -3.55 26.1488 0
      vertex -3.55 13.8512 0
    endloop
  endfacet
  facet normal 0 0 -1
    outer loop
      vertex -0.480313 23.3406 0
      vertex -3.55 26.1488 0
      vertex 3.55 26.1488 0
    endloop
  endfacet
  facet normal 0 0 -1
    outer loop
      vertex 3.375 20 0
      vertex 3.55 26.1488 0
      vertex 7.1 20 0
    endloop
  endfacet
  facet normal 0 0 -1
    outer loop
      vertex -3.55 13.8512 0
      vertex 7.1 20 0
      vertex 3.55 13.8512 0
    endloop
  endfacet
  facet normal 0 0 -1
    outer loop
      vertex -3.55 13.8512 0
      vertex -3.55 26.1488 0
      vertex -3.23829 20.9508 0
    endloop
  endfacet
  facet normal 0 0 -1
    outer loop
      vertex -3.55 13.8512 0
      vertex -3.23829 20.9508 0
      vertex -3.23829 19.0492 0
    endloop
  endfacet
  facet normal 0 0 -1
    outer loop
      vertex -3.55 13.8512 0
      vertex -3.23829 19.0492 0
      vertex -2.21015 17.4493 0
    endloop
  endfacet
  facet normal 0 0 -1
    outer loop
      vertex 2.83923 18.1753 0
      vertex 7.1 20 0
      vertex 1.40203 16.93 0
    endloop
  endfacet
  facet normal 0 0 -1
    outer loop
      vertex -3.55 13.8512 0
      vertex -0.480313 16.6594 0
      vertex 1.40203 16.93 0
    endloop
  endfacet
  facet normal 0 0 -1
    outer loop
      vertex -3.55 13.8512 0
      vertex 1.40203 16.93 0
      vertex 7.1 20 0
    endloop
  endfacet
  facet normal 0 0 -1
    outer loop
      vertex 1.40203 23.07 0
      vertex 3.55 26.1488 0
      vertex 2.83923 21.8247 0
    endloop
  endfacet
  facet normal 0 0 -1
    outer loop
      vertex 2.83923 21.8247 0
      vertex 3.55 26.1488 0
      vertex 3.375 20 0
    endloop
  endfacet
  facet normal 0 0 -1
    outer loop
      vertex 2.83923 18.1753 0
      vertex 3.375 20 0
      vertex 7.1 20 0
    endloop
  endfacet
  facet normal 0 0 -1
    outer loop
      vertex -0.480313 23.3406 0
      vertex 3.55 26.1488 0
      vertex 1.40203 23.07 0
    endloop
  endfacet
  facet normal 0 0 -1
    outer loop
      vertex -2.21015 22.5507 0
      vertex -3.55 26.1488 0
      vertex -0.480313 23.3406 0
    endloop
  endfacet
  facet normal 0 0 -1
    outer loop
      vertex -3.23829 20.9508 0
      vertex -3.55 26.1488 0
      vertex -2.21015 22.5507 0
    endloop
  endfacet
  facet normal 0 0 -1
    outer loop
      vertex -0.480313 16.6594 0
      vertex -3.55 13.8512 0
      vertex -2.21015 17.4493 0
    endloop
  endfacet
  facet normal -0.866025 0.5 0
    outer loop
      vertex -7.1 20 0
      vertex -7.1 20 8.5
      vertex -3.55 26.1488 0
    endloop
  endfacet
  facet normal -0.866025 0.5 0
    outer loop
      vertex -3.55 26.1488 0
      vertex -7.1 20 8.5
      vertex -3.55 26.1488 8.5
    endloop
  endfacet
  facet normal -0.866025 -0.5 0
    outer loop
      vertex -7.1 20 0
      vertex -3.55 13.8512 0
      vertex -7.1 20 8.5
    endloop
  endfacet
  facet normal -0.866025 -0.5 0
    outer loop
      vertex -7.1 20 8.5
      vertex -3.55 13.8512 0
      vertex -3.55 13.8512 8.5
    endloop
  endfacet
  facet normal 0 -1 0
    outer loop
      vertex -3.55 13.8512 8.5
      vertex -3.55 13.8512 0
      vertex 3.55 13.8512 0
    endloop
  endfacet
  facet normal 0 -1 0
    outer loop
      vertex 3.55 13.8512 8.5
      vertex -3.55 13.8512 8.5
      vertex 3.55 13.8512 0
    endloop
  endfacet
  facet normal 0.866025 -0.5 0
    outer loop
      vertex 3.55 13.8512 8.5
      vertex 3.55 13.8512 0
      vertex 7.1 20 0
    endloop
  endfacet
  facet normal 0.866025 -0.5 0
    outer loop
      vertex 7.1 20 8.5
      vertex 3.55 13.8512 8.5
      vertex 7.1 20 0
    endloop
  endfacet
  facet normal 0.866025 0.5 0
    outer loop
      vertex 7.1 20 0
      vertex 3.55 26.1488 0
      vertex 3.55 26.1488 8.5
    endloop
  endfacet
  facet normal 0.866025 0.5 0
    outer loop
      vertex 7.1 20 8.5
      vertex 7.1 20 0
      vertex 3.55 26.1488 8.5
    endloop
  endfacet
  facet normal 0 1 0
    outer loop
      vertex -3.55 26.1488 0
      vertex -3.55 26.1488 8.5
      vertex 3.55 26.1488 0
    endloop
  endfacet
  facet normal 0 1 0
    outer loop
      vertex 3.55 26.1488 0
      vertex -3.55 26.1488 8.5
      vertex 3.55 26.1488 8.5
    endloop
  endfacet
  facet normal 1 0 0
    outer loop
      vertex -3.23829 20.9508 0
      vertex -3.23829 20.9508 3.3
      vertex -3.23829 19.0492 3.3
    endloop
  endfacet
  facet normal 1 0 0
    outer loop
      vertex -3.23829 19.0492 0
      vertex -3.23829 20.9508 0
      vertex -3.23829 19.0492 3.3
    endloop
  endfacet
  facet normal 0.841254 -0.540641 0
    outer loop
      vertex -2.21015 22.5507 0
      vertex -2.21015 22.5507 3.3
      vertex -3.23829 20.9508 3.3
    endloop
  endfacet
  facet normal 0.841254 -0.540641 0
    outer loop
      vertex -3.23829 20.9508 0
      vertex -2.21015 22.5507 0
      vertex -3.23829 20.9508 3.3
    endloop
  endfacet
  facet normal 0.415415 -0.909632 0
    outer loop
      vertex -0.480313 23.3406 0
      vertex -0.480313 23.3406 3.3
      vertex -2.21015 22.5507 3.3
    endloop
  endfacet
  facet normal 0.415415 -0.909632 0
    outer loop
      vertex -2.21015 22.5507 0
      vertex -0.480313 23.3406 0
      vertex -2.21015 22.5507 3.3
    endloop
  endfacet
  facet normal -0.142315 -0.989821 0
    outer loop
      vertex 1.40203 23.07 0
      vertex 1.40203 23.07 3.3
      vertex -0.480313 23.3406 3.3
    endloop
  endfacet
  facet normal -0.142315 -0.989821 0
    outer loop
      vertex -0.480313 23.3406 0
      vertex 1.40203 23.07 0
      vertex -0.480313 23.3406 3.3
    endloop
  endfacet
  facet normal -0.654861 -0.75575 0
    outer loop
      vertex 2.83923 21.8247 0
      vertex 2.83923 21.8247 3.3
      vertex 1.40203 23.07 3.3
    endloop
  endfacet
  facet normal -0.654861 -0.75575 0
    outer loop
      vertex 1.40203 23.07 0
      vertex 2.83923 21.8247 0
      vertex 1.40203 23.07 3.3
    endloop
  endfacet
  facet normal -0.959493 -0.281732 0
    outer loop
      vertex 3.375 20 3.3
      vertex 2.83923 21.8247 3.3
      vertex 3.375 20 0
    endloop
  endfacet
  facet normal -0.959493 -0.281732 0
    outer loop
      vertex 3.375 20 0
      vertex 2.83923 21.8247 3.3
      vertex 2.83923 21.8247 0
    endloop
  endfacet
  facet normal -0.959493 0.281732 0
    outer loop
      vertex 3.375 20 3.3
      vertex 3.375 20 0
      vertex 2.83923 18.1753 3.3
    endloop
  endfacet
  facet normal -0.959493 0.281732 0
    outer loop
      vertex 2.83923 18.1753 3.3
      vertex 3.375 20 0
      vertex 2.83923 18.1753 0
    endloop
  endfacet
  facet normal -0.654861 0.75575 0
    outer loop
      vertex 2.83923 18.1753 3.3
      vertex 2.83923 18.1753 0
      vertex 1.40203 16.93 3.3
    endloop
  endfacet
  facet normal -0.654861 0.75575 0
    outer loop
      vertex 1.40203 16.93 3.3
      vertex 2.83923 18.1753 0
      vertex 1.40203 16.93 0
    endloop
  endfacet
  facet normal -0.142315 0.989821 0
    outer loop
      vertex 1.40203 16.93 3.3
      vertex 1.40203 16.93 0
      vertex -0.480313 16.6594 3.3
    endloop
  endfacet
  facet normal -0.142315 0.989821 0
    outer loop
      vertex -0.480313 16.6594 3.3
      vertex 1.40203 16.93 0
      vertex -0.480313 16.6594 0
    endloop
  endfacet
  facet normal 0.415415 0.909632 0
    outer loop
      vertex -0.480313 16.6594 3.3
      vertex -0.480313 16.6594 0
      vertex -2.21015 17.4493 3.3
    endloop
  endfacet
  facet normal 0.415415 0.909632 0
    outer loop
      vertex -2.21015 17.4493 3.3
      vertex -0.480313 16.6594 0
      vertex -2.21015 17.4493 0
    endloop
  endfacet
  facet normal 0.841254 0.540641 0
    outer loop
      vertex -3.23829 19.0492 3.3
      vertex -2.21015 17.4493 3.3
      vertex -2.21015 17.4493 0
    endloop
  endfacet
  facet normal 0.841254 0.540641 0
    outer loop
      vertex -3.23829 19.0492 0
      vertex -3.23829 19.0492 3.3
      vertex -2.21015 17.4493 0
    endloop
  endfacet
  facet normal 0 0 1
    outer loop
      vertex -5.9 20 8.5
      vertex -7.1 20 8.5
      vertex -3.55 13.8512 8.5
    endloop
  endfacet
  facet normal 0 0 1
    outer loop
      vertex 5.9 20 8.5
      vertex 2.95 14.8905 8.5
      vertex 3.55 13.8512 8.5
    endloop
  endfacet
  facet normal 0 0 1
    outer loop
      vertex 3.55 13.8512 8.5
      vertex -2.95 14.8905 8.5
      vertex -3.55 13.8512 8.5
    endloop
  endfacet
  facet normal 0 0 1
    outer loop
      vertex -3.55 26.1488 8.5
      vertex -7.1 20 8.5
      vertex -5.9 20 8.5
    endloop
  endfacet
  facet normal 0 0 1
    outer loop
      vertex 2.95 25.1095 8.5
      vertex 5.9 20 8.5
      vertex 7.1 20 8.5
    endloop
  endfacet
  facet normal 0 0 1
    outer loop
      vertex 3.55 26.1488 8.5
      vertex 2.95 25.1095 8.5
      vertex 7.1 20 8.5
    endloop
  endfacet
  facet normal 0 0 1
    outer loop
      vertex 3.55 26.1488 8.5
      vertex -3.55 26.1488 8.5
      vertex 2.95 25.1095 8.5
    endloop
  endfacet
  facet normal 0 0 1
    outer loop
      vertex 7.1 20 8.5
      vertex 5.9 20 8.5
      vertex 3.55 13.8512 8.5
    endloop
  endfacet
  facet normal 0 0 1
    outer loop
      vertex 3.55 13.8512 8.5
      vertex 2.95 14.8905 8.5
      vertex -2.95 14.8905 8.5
    endloop
  endfacet
  facet normal 0 0 1
    outer loop
      vertex -2.95 25.1095 8.5
      vertex 2.95 25.1095 8.5
      vertex -3.55 26.1488 8.5
    endloop
  endfacet
  facet normal 0 0 1
    outer loop
      vertex -2.95 14.8905 8.5
      vertex -5.9 20 8.5
      vertex -3.55 13.8512 8.5
    endloop
  endfacet
  facet normal 0 0 1
    outer loop
      vertex -5.9 20 8.5
      vertex -2.95 25.1095 8.5
      vertex -3.55 26.1488 8.5
    endloop
  endfacet
  facet normal 0 0 1
    outer loop
      vertex 2.83923 18.1753 3.3
      vertex 2.95 14.8905 3.3
      vertex 5.9 20 3.3
    endloop
  endfacet
  facet normal 0 0 1
    outer loop
      vertex 1.40203 16.93 3.3
      vertex -0.480313 16.6594 3.3
      vertex -2.95 14.8905 3.3
    endloop
  endfacet
  facet normal 0 0 1
    outer loop
      vertex 1.40203 23.07 3.3
      vertex 2.83923 21.8247 3.3
      vertex 2.95 25.1095 3.3
    endloop
  endfacet
  facet normal 0 0 1
    outer loop
      vertex -5.9 20 3.3
      vertex -3.23829 20.9508 3.3
      vertex -2.95 25.1095 3.3
    endloop
  endfacet
  facet normal 0 0 1
    outer loop
      vertex -2.95 25.1095 3.3
      vertex -2.21015 22.5507 3.3
      vertex 2.95 25.1095 3.3
    endloop
  endfacet
  facet normal 0 0 1
    outer loop
      vertex -2.21015 17.4493 3.3
      vertex -3.23829 19.0492 3.3
      vertex -2.95 14.8905 3.3
    endloop
  endfacet
  facet normal 0 0 1
    outer loop
      vertex -2.21015 22.5507 3.3
      vertex -0.480313 23.3406 3.3
      vertex 2.95 25.1095 3.3
    endloop
  endfacet
  facet normal 0 0 1
    outer loop
      vertex -0.480313 23.3406 3.3
      vertex 1.40203 23.07 3.3
      vertex 2.95 25.1095 3.3
    endloop
  endfacet
  facet normal 0 0 1
    outer loop
      vertex 2.95 25.1095 3.3
      vertex 2.83923 21.8247 3.3
      vertex 5.9 20 3.3
    endloop
  endfacet
  facet normal 0 0 1
    outer loop
      vertex 2.83923 21.8247 3.3
      vertex 3.375 20 3.3
      vertex 5.9 20 3.3
    endloop
  endfacet
  facet normal 0 0 1
    outer loop
      vertex 1.40203 16.93 3.3
      vertex 2.95 14.8905 3.3
      vertex 2.83923 18.1753 3.3
    endloop
  endfacet
  facet normal 0 0 1
    outer loop
      vertex -2.95 14.8905 3.3
      vertex 2.95 14.8905 3.3
      vertex 1.40203 16.93 3.3
    endloop
  endfacet
  facet normal 0 0 1
    outer loop
      vertex -5.9 20 3.3
      vertex -3.23829 19.0492 3.3
      vertex -3.23829 20.9508 3.3
    endloop
  endfacet
  facet normal 0 0 1
    outer loop
      vertex -5.9 20 3.3
      vertex -2.95 14.8905 3.3
      vertex -3.23829 19.0492 3.3
    endloop
  endfacet
  facet normal 0 0 1
    outer loop
      vertex -3.23829 20.9508 3.3
      vertex -2.21015 22.5507 3.3
      vertex -2.95 25.1095 3.3
    endloop
  endfacet
  facet normal 0 0 1
    outer loop
      vertex 3.375 20 3.3
      vertex 2.83923 18.1753 3.3
      vertex 5.9 20 3.3
    endloop
  endfacet
  facet normal 0 0 1
    outer loop
      vertex -0.480313 16.6594 3.3
      vertex -2.21015 17.4493 3.3
      vertex -2.95 14.8905 3.3
    endloop
  endfacet
  facet normal 0 1 0
    outer loop
      vertex 2.95 14.8905 8.5
      vertex 2.95 14.8905 3.3
      vertex -2.95 14.8905 8.5
    endloop
  endfacet
  facet normal 0 1 0
    outer loop
      vertex -2.95 14.8905 8.5
      vertex 2.95 14.8905 3.3
      vertex -2.95 14.8905 3.3
    endloop
  endfacet
  facet normal 0.866025 0.5 0
    outer loop
      vertex -5.9 20 8.5
      vertex -2.95 14.8905 8.5
      vertex -2.95 14.8905 3.3
    endloop
  endfacet
  facet normal 0.866025 0.5 0
    outer loop
      vertex -5.9 20 3.3
      vertex -5.9 20 8.5
      vertex -2.95 14.8905 3.3
    endloop
  endfacet
  facet normal -0.866025 0.5 0
    outer loop
      vertex 5.9 20 8.5
      vertex 5.9 20 3.3
      vertex 2.95 14.8905 8.5
    endloop
  endfacet
  facet normal -0.866025 0.5 0
    outer loop
      vertex 2.95 14.8905 8.5
      vertex 5.9 20 3.3
      vertex 2.95 14.8905 3.3
    endloop
  endfacet
  facet normal -0.866025 -0.5 0
    outer loop
      vertex 5.9 20 8.5
      vertex 2.95 25.1095 8.5
      vertex 5.9 20 3.3
    endloop
  endfacet
  facet normal -0.866025 -0.5 0
    outer loop
      vertex 5.9 20 3.3
      vertex 2.95 25.1095 8.5
      vertex 2.95 25.1095 3.3
    endloop
  endfacet
  facet normal 0 -1 0
    outer loop
      vertex 2.95 25.1095 3.3
      vertex 2.95 25.1095 8.5
      vertex -2.95 25.1095 8.5
    endloop
  endfacet
  facet normal 0 -1 0
    outer loop
      vertex -2.95 25.1095 3.3
      vertex 2.95 25.1095 3.3
      vertex -2.95 25.1095 8.5
    endloop
  endfacet
  facet normal 0.866025 -0.5 0
    outer loop
      vertex -2.95 25.1095 3.3
      vertex -2.95 25.1095 8.5
      vertex -5.9 20 8.5
    endloop
  endfacet
  facet normal 0.866025 -0.5 0
    outer loop
      vertex -5.9 20 3.3
      vertex -2.95 25.1095 3.3
      vertex -5.9 20 8.5
    endloop
  endfacet
endsolid OpenSCAD_Model
