999
DXF created by Inkscape
  0
SECTION
  2
HEADER
  9
$ACADVER
  1
AC1014
  9
$HANDSEED
  5
FFFF
  9
$MEASUREMENT
 70
     1
  0
ENDSEC
  0
SECTION
  2
TABLES
  0
TABLE
  2
VPORT
  5
8
330
0
100
AcDbSymbolTable
 70
     4
  0
VPORT
  5
2E
330
8
100
AcDbSymbolTableRecord
100
AcDbViewportTableRecord
  2
*ACTIVE
 70
     0
 10
0.0
 20
0.0
 11
1.0
 21
1.0
 12
210.0
 22
148.5
 13
0.0
 23
0.0
 14
10.0
 24
10.0
 15
10.0
 25
10.0
 16
0.0
 26
0.0
 36
1.0
 17
0.0
 27
0.0
 37
0.0
 40
341.0
 41
1.24
 42
50.0
 43
0.0
 44
0.0
 50
0.0
 51
0.0
 71
     0
 72
   100
 73
     1
 74
     3
 75
     0
 76
     0
 77
     0
 78
     0
  0
ENDTAB
  0
TABLE
  2
LTYPE
  5
5
330
0
100
AcDbSymbolTable
 70
     1
  0
LTYPE
  5
14
330
5
100
AcDbSymbolTableRecord
100
AcDbLinetypeTableRecord
  2
BYBLOCK
 70
     0
  3

 72
    65
 73
     0
 40
0.0
  0
LTYPE
  5
15
330
5
100
AcDbSymbolTableRecord
100
AcDbLinetypeTableRecord
  2
BYLAYER
 70
     0
  3

 72
    65
 73
     0
 40
0.0
  0
LTYPE
  5
16
330
5
100
AcDbSymbolTableRecord
100
AcDbLinetypeTableRecord
  2
CONTINUOUS
 70
     0
  3
Solid line
 72
    65
 73
     0
 40
0.0
  0
ENDTAB
  0
TABLE
  2
LAYER
  5
2
100
AcDbSymbolTable
 70
2
  0
LAYER
  5
50
100
AcDbSymbolTableRecord
100
AcDbLayerTableRecord
  2
0
 70
0
  6
CONTINUOUS
  0
LAYER
  5
51
100
AcDbSymbolTableRecord
100
AcDbLayerTableRecord
  2
Layer_1
 70
0
  6
CONTINUOUS
  0
ENDTAB
  0
TABLE
  2
STYLE
  5
3
330
0
100
AcDbSymbolTable
 70
     1
  0
STYLE
  5
11
330
3
100
AcDbSymbolTableRecord
100
AcDbTextStyleTableRecord
  2
STANDARD
 70
     0
 40
0.0
 41
1.0
 50
0.0
 71
     0
 42
2.5
  3
txt
  4

  0
ENDTAB
  0
TABLE
  2
VIEW
  5
6
330
0
100
AcDbSymbolTable
 70
     0
  0
ENDTAB
  0
TABLE
  2
UCS
  5
7
330
0
100
AcDbSymbolTable
 70
     0
  0
ENDTAB
  0
TABLE
  2
APPID
  5
9
330
0
100
AcDbSymbolTable
 70
     2
  0
APPID
  5
12
330
9
100
AcDbSymbolTableRecord
100
AcDbRegAppTableRecord
  2
ACAD
 70
     0
  0
ENDTAB
  0
TABLE
  2
DIMSTYLE
  5
A
330
0
100
AcDbSymbolTable
 70
     1
  0
DIMSTYLE
105
27
330
A
100
AcDbSymbolTableRecord
100
AcDbDimStyleTableRecord
  2
ISO-25
 70
     0
  3

  4

  5

  6

  7

 40
1.0
 41
2.5
 42
0.625
 43
3.75
 44
1.25
 45
0.0
 46
0.0
 47
0.0
 48
0.0
140
2.5
141
2.5
142
0.0
143
0.03937007874016
144
1.0
145
0.0
146
1.0
147
0.625
 71
     0
 72
     0
 73
     0
 74
     0
 75
     0
 76
     0
 77
     1
 78
     8
170
     0
171
     3
172
     1
173
     0
174
     0
175
     0
176
     0
177
     0
178
     0
270
     2
271
     2
272
     2
273
     2
274
     3
340
11
275
     0
280
     0
281
     0
282
     0
283
     0
284
     8
285
     0
286
     0
287
     3
288
     0
  0
ENDTAB
  0
TABLE
  2
BLOCK_RECORD
  5
1
330
0
100
AcDbSymbolTable
 70
     1
  0
BLOCK_RECORD
  5
1F
330
1
100
AcDbSymbolTableRecord
100
AcDbBlockTableRecord
  2
*MODEL_SPACE
  0
BLOCK_RECORD
  5
1B
330
1
100
AcDbSymbolTableRecord
100
AcDbBlockTableRecord
  2
*PAPER_SPACE
  0
ENDTAB
  0
ENDSEC
  0
SECTION
  2
BLOCKS
  0
BLOCK
  5
20
330
1F
100
AcDbEntity
  8
0
100
AcDbBlockBegin
  2
*MODEL_SPACE
 70
     0
 10
0.0
 20
0.0
 30
0.0
  3
*MODEL_SPACE
  1

  0
ENDBLK
  5
21
330
1F
100
AcDbEntity
  8
0
100
AcDbBlockEnd
  0
BLOCK
  5
1C
330
1B
100
AcDbEntity
 67
     1
  8
0
100
AcDbBlockBegin
  2
*PAPER_SPACE
  1

  0
ENDBLK
  5
1D
330
1B
100
AcDbEntity
 67
     1
  8
0
100
AcDbBlockEnd
  0
ENDSEC
  0
SECTION
  2
ENTITIES
  0
LWPOLYLINE
  5
100
100
AcDbEntity
  8
Layer_1
 62
7
100
AcDbPolyline
 90
169
 70
0
 10
21.020831
 20
7.733366
 30
0.0
 10
21.127794
 20
7.675694
 30
0.0
 10
21.220495
 20
7.611818
 30
0.0
 10
21.298936
 20
7.541745
 30
0.0
 10
21.363116
 20
7.465469
 30
0.0
 10
21.413038
 20
7.382995
 30
0.0
 10
21.448697
 20
7.294318
 30
0.0
 10
21.470090
 20
7.199444
 30
0.0
 10
21.477230
 20
7.098366
 30
0.0
 10
21.439706
 20
6.757918
 30
0.0
 10
21.327150
 20
6.391430
 30
0.0
 10
21.139560
 20
5.998896
 30
0.0
 10
20.876940
 20
5.580315
 30
0.0
 10
20.539287
 20
5.135691
 30
0.0
 10
20.126602
 20
4.665023
 30
0.0
 10
19.638885
 20
4.168312
 30
0.0
 10
19.076137
 20
3.645555
 30
0.0
 10
18.041776
 20
2.794443
 30
0.0
 10
16.972690
 20
2.056813
 30
0.0
 10
15.868879
 20
1.432664
 30
0.0
 10
14.730344
 20
0.922000
 30
0.0
 10
13.557084
 20
0.524815
 30
0.0
 10
12.349096
 20
0.241111
 30
0.0
 10
11.106387
 20
0.070889
 30
0.0
 10
9.828950
 20
0.014148
 30
0.0
 10
8.808544
 20
0.061276
 30
0.0
 10
7.840849
 20
0.202664
 30
0.0
 10
6.925865
 20
0.438308
 30
0.0
 10
6.063592
 20
0.768212
 30
0.0
 10
5.254030
 20
1.192369
 30
0.0
 10
4.497178
 20
1.710789
 30
0.0
 10
3.793037
 20
2.323465
 30
0.0
 10
3.141606
 20
3.030398
 30
0.0
 10
2.560245
 20
3.821667
 30
0.0
 10
2.056399
 20
4.677427
 30
0.0
 10
1.630068
 20
5.597680
 30
0.0
 10
1.281252
 20
6.582427
 30
0.0
 10
1.009951
 20
7.631664
 30
0.0
 10
0.816165
 20
8.745395
 30
0.0
 10
0.699894
 20
9.923619
 30
0.0
 10
0.661137
 20
11.166337
 30
0.0
 10
0.734002
 20
12.950100
 30
0.0
 10
0.952594
 20
14.660067
 30
0.0
 10
1.316912
 20
16.296242
 30
0.0
 10
1.826958
 20
17.858627
 30
0.0
 10
2.482731
 20
19.347220
 30
0.0
 10
3.284232
 20
20.762016
 30
0.0
 10
4.231461
 20
22.103026
 30
0.0
 10
5.324419
 20
23.370241
 30
0.0
 10
6.525268
 20
24.523655
 30
0.0
 10
7.796193
 20
25.523280
 30
0.0
 10
9.137195
 20
26.369114
 30
0.0
 10
10.548272
 20
27.061166
 30
0.0
 10
12.029423
 20
27.599426
 30
0.0
 10
13.580649
 20
27.983900
 30
0.0
 10
15.201951
 20
28.214588
 30
0.0
 10
16.893326
 20
28.291491
 30
0.0
 10
17.775437
 20
28.270719
 30
0.0
 10
18.665608
 20
28.208391
 30
0.0
 10
19.563845
 20
28.104519
 30
0.0
 10
20.470145
 20
27.959101
 30
0.0
 10
21.384509
 20
27.772137
 30
0.0
 10
22.306935
 20
27.543627
 30
0.0
 10
23.237425
 20
27.273572
 30
0.0
 10
24.175980
 20
26.961973
 30
0.0
 10
24.009788
 20
26.597345
 30
0.0
 10
23.843598
 20
26.232716
 30
0.0
 10
23.677406
 20
25.868085
 30
0.0
 10
23.511214
 20
25.503457
 30
0.0
 10
23.345025
 20
25.138829
 30
0.0
 10
23.178832
 20
24.774198
 30
0.0
 10
23.012643
 20
24.409569
 30
0.0
 10
22.846451
 20
24.044941
 30
0.0
 10
22.799323
 20
23.938281
 30
0.0
 10
22.752191
 20
23.831621
 30
0.0
 10
22.705063
 20
23.724960
 30
0.0
 10
22.657935
 20
23.618300
 30
0.0
 10
22.610807
 20
23.511640
 30
0.0
 10
22.563675
 20
23.404980
 30
0.0
 10
22.516547
 20
23.298319
 30
0.0
 10
22.469419
 20
23.191659
 30
0.0
 10
22.346937
 20
22.954457
 30
0.0
 10
22.217637
 20
22.748883
 30
0.0
 10
22.081519
 20
22.574939
 30
0.0
 10
21.938579
 20
22.432620
 30
0.0
 10
21.788823
 20
22.321929
 30
0.0
 10
21.632246
 20
22.242867
 30
0.0
 10
21.468851
 20
22.195434
 30
0.0
 10
21.298637
 20
22.179630
 30
0.0
 10
21.261734
 20
22.180477
 30
0.0
 10
21.220490
 20
22.183299
 30
0.0
 10
21.174908
 20
22.187956
 30
0.0
 10
21.124986
 20
22.194475
 30
0.0
 10
21.070728
 20
22.202857
 30
0.0
 10
21.012131
 20
22.213102
 30
0.0
 10
20.949195
 20
22.225209
 30
0.0
 10
20.881919
 20
22.239179
 30
0.0
 10
20.947025
 20
22.389550
 30
0.0
 10
21.003449
 20
22.533102
 30
0.0
 10
21.051196
 20
22.669836
 30
0.0
 10
21.090261
 20
22.799748
 30
0.0
 10
21.120648
 20
22.922842
 30
0.0
 10
21.142351
 20
23.039118
 30
0.0
 10
21.155389
 20
23.148575
 30
0.0
 10
21.159736
 20
23.251211
 30
0.0
 10
21.131824
 20
23.578315
 30
0.0
 10
21.048103
 20
23.894878
 30
0.0
 10
20.908572
 20
24.200903
 30
0.0
 10
20.713235
 20
24.496387
 30
0.0
 10
20.462088
 20
24.781332
 30
0.0
 10
20.155135
 20
25.055737
 30
0.0
 10
19.792372
 20
25.319603
 30
0.0
 10
19.373799
 20
25.572929
 30
0.0
 10
18.922966
 20
25.805463
 30
0.0
 10
18.453535
 20
26.006995
 30
0.0
 10
17.965499
 20
26.177525
 30
0.0
 10
17.458862
 20
26.317050
 30
0.0
 10
16.933624
 20
26.425573
 30
0.0
 10
16.389785
 20
26.503091
 30
0.0
 10
15.827344
 20
26.549607
 30
0.0
 10
15.246299
 20
26.565129
 30
0.0
 10
14.064042
 20
26.505278
 30
0.0
 10
12.938216
 20
26.325748
 30
0.0
 10
11.868822
 20
26.026539
 30
0.0
 10
10.855860
 20
25.607648
 30
0.0
 10
9.899330
 20
25.069078
 30
0.0
 10
8.999232
 20
24.410825
 30
0.0
 10
8.155565
 20
23.632894
 30
0.0
 10
7.368331
 20
22.735283
 30
0.0
 10
6.661395
 20
21.741850
 30
0.0
 10
6.048717
 20
20.676483
 30
0.0
 10
5.530298
 20
19.539187
 30
0.0
 10
5.106138
 20
18.329958
 30
0.0
 10
4.776236
 20
17.048799
 30
0.0
 10
4.540592
 20
15.695704
 30
0.0
 10
4.399207
 20
14.270680
 30
0.0
 10
4.352081
 20
12.773722
 30
0.0
 10
4.385258
 20
11.618129
 30
0.0
 10
4.484787
 20
10.522692
 30
0.0
 10
4.650667
 20
9.487405
 30
0.0
 10
4.882900
 20
8.512271
 30
0.0
 10
5.181485
 20
7.597287
 30
0.0
 10
5.546424
 20
6.742458
 30
0.0
 10
5.977716
 20
5.947780
 30
0.0
 10
6.475362
 20
5.213254
 30
0.0
 10
7.028508
 20
4.552831
 30
0.0
 10
7.626301
 20
3.980465
 30
0.0
 10
8.268741
 20
3.496152
 30
0.0
 10
8.955829
 20
3.099898
 30
0.0
 10
9.687565
 20
2.791697
 30
0.0
 10
10.463952
 20
2.571552
 30
0.0
 10
11.284988
 20
2.439467
 30
0.0
 10
12.150674
 20
2.395440
 30
0.0
 10
12.790320
 20
2.419316
 30
0.0
 10
13.429347
 20
2.490938
 30
0.0
 10
14.067756
 20
2.610310
 30
0.0
 10
14.705545
 20
2.777434
 30
0.0
 10
15.342715
 20
2.992303
 30
0.0
 10
15.979267
 20
3.254923
 30
0.0
 10
16.615201
 20
3.565291
 30
0.0
 10
17.250518
 20
3.923408
 30
0.0
 10
17.869389
 20
4.321522
 30
0.0
 10
18.446093
 20
4.741960
 30
0.0
 10
18.980630
 20
5.184724
 30
0.0
 10
19.473001
 20
5.649812
 30
0.0
 10
19.923207
 20
6.137224
 30
0.0
 10
20.331247
 20
6.646960
 30
0.0
 10
20.697123
 20
7.179022
 30
0.0
 10
21.020831
 20
7.733408
 30
0.0
  0
LWPOLYLINE
  5
101
100
AcDbEntity
  8
Layer_1
 62
7
100
AcDbPolyline
 90
97
 70
0
 10
37.272861
 20
7.118212
 30
0.0
 10
37.389128
 20
7.032013
 30
0.0
 10
37.489895
 20
6.942094
 30
0.0
 10
37.575160
 20
6.848455
 30
0.0
 10
37.644923
 20
6.751097
 30
0.0
 10
37.699183
 20
6.650019
 30
0.0
 10
37.737943
 20
6.545219
 30
0.0
 10
37.761198
 20
6.436701
 30
0.0
 10
37.768959
 20
6.324462
 30
0.0
 10
37.749119
 20
6.157028
 30
0.0
 10
37.689584
 20
5.962309
 30
0.0
 10
37.590363
 20
5.740307
 30
0.0
 10
37.451456
 20
5.491020
 30
0.0
 10
37.272863
 20
5.214448
 30
0.0
 10
37.054584
 20
4.910590
 30
0.0
 10
36.796619
 20
4.579448
 30
0.0
 10
36.498968
 20
4.221023
 30
0.0
 10
35.651883
 20
3.300149
 30
0.0
 10
34.807283
 20
2.502058
 30
0.0
 10
33.965160
 20
1.826751
 30
0.0
 10
33.125523
 20
1.274228
 30
0.0
 10
32.288365
 20
0.844485
 30
0.0
 10
31.453690
 20
0.537529
 30
0.0
 10
30.621492
 20
0.353354
 30
0.0
 10
29.791779
 20
0.291962
 30
0.0
 10
29.296925
 20
0.317079
 30
0.0
 10
28.824394
 20
0.392424
 30
0.0
 10
28.374188
 20
0.517996
 30
0.0
 10
27.946308
 20
0.693801
 30
0.0
 10
27.540752
 20
0.919833
 30
0.0
 10
27.157519
 20
1.196094
 30
0.0
 10
26.796611
 20
1.522586
 30
0.0
 10
26.458029
 20
1.899308
 30
0.0
 10
26.151073
 20
2.315097
 30
0.0
 10
25.885042
 20
2.758790
 30
0.0
 10
25.659938
 20
3.230389
 30
0.0
 10
25.475763
 20
3.729894
 30
0.0
 10
25.332515
 20
4.257302
 30
0.0
 10
25.230198
 20
4.812617
 30
0.0
 10
25.168807
 20
5.395838
 30
0.0
 10
25.148346
 20
6.006965
 30
0.0
 10
25.201677
 20
7.139607
 30
0.0
 10
25.361669
 20
8.275348
 30
0.0
 10
25.628318
 20
9.414191
 30
0.0
 10
26.001628
 20
10.556136
 30
0.0
 10
26.481597
 20
11.701182
 30
0.0
 10
27.068227
 20
12.849329
 30
0.0
 10
27.761520
 20
14.000582
 30
0.0
 10
28.561471
 20
15.154933
 30
0.0
 10
29.418469
 20
16.243232
 30
0.0
 10
30.272990
 20
17.186427
 30
0.0
 10
31.125028
 20
17.984515
 30
0.0
 10
31.974587
 20
18.637498
 30
0.0
 10
32.821669
 20
19.145374
 30
0.0
 10
33.666269
 20
19.508145
 30
0.0
 10
34.508389
 20
19.725809
 30
0.0
 10
35.348032
 20
19.798369
 30
0.0
 10
35.915434
 20
19.757746
 30
0.0
 10
36.407183
 20
19.635888
 30
0.0
 10
36.823281
 20
19.432798
 30
0.0
 10
37.163725
 20
19.148473
 30
0.0
 10
37.428515
 20
18.782916
 30
0.0
 10
37.617654
 20
18.336125
 30
0.0
 10
37.731139
 20
17.808098
 30
0.0
 10
37.768971
 20
17.198840
 30
0.0
 10
37.724628
 20
16.471748
 30
0.0
 10
37.591608
 20
15.748996
 30
0.0
 10
37.369914
 20
15.030588
 30
0.0
 10
37.059546
 20
14.316524
 30
0.0
 10
36.660500
 20
13.606800
 30
0.0
 10
36.172781
 20
12.901419
 30
0.0
 10
35.596384
 20
12.200379
 30
0.0
 10
34.931314
 20
11.503683
 30
0.0
 10
34.207323
 20
10.835505
 30
0.0
 10
33.444268
 20
10.220034
 30
0.0
 10
32.642144
 20
9.657278
 30
0.0
 10
31.800956
 20
9.147231
 30
0.0
 10
30.920699
 20
8.689896
 30
0.0
 10
30.001377
 20
8.285268
 30
0.0
 10
29.042987
 20
7.933354
 30
0.0
 10
28.045532
 20
7.634151
 30
0.0
 10
28.191257
 20
6.513288
 30
0.0
 10
28.430000
 20
5.541874
 30
0.0
 10
28.761764
 20
4.719907
 30
0.0
 10
29.186542
 20
4.047391
 30
0.0
 10
29.704341
 20
3.524323
 30
0.0
 10
30.315157
 20
3.150703
 30
0.0
 10
31.018991
 20
2.926532
 30
0.0
 10
31.815846
 20
2.851808
 30
0.0
 10
32.630364
 20
2.918471
 30
0.0
 10
33.407060
 20
3.118460
 30
0.0
 10
34.145926
 20
3.451773
 30
0.0
 10
34.846969
 20
3.918410
 30
0.0
 10
35.510182
 20
4.518372
 30
0.0
 10
36.135573
 20
5.251662
 30
0.0
 10
36.723137
 20
6.118276
 30
0.0
 10
37.272875
 20
7.118215
 30
0.0
  0
LWPOLYLINE
  5
102
100
AcDbEntity
  8
Layer_1
 62
7
100
AcDbPolyline
 90
49
 70
0
 10
28.124893
 20
10.055087
 30
0.0
 10
28.267209
 20
10.008574
 30
0.0
 10
28.406423
 20
9.968264
 30
0.0
 10
28.542539
 20
9.934157
 30
0.0
 10
28.675553
 20
9.906246
 30
0.0
 10
28.805466
 20
9.884543
 30
0.0
 10
28.932282
 20
9.869049
 30
0.0
 10
29.055997
 20
9.859764
 30
0.0
 10
29.176611
 20
9.856659
 30
0.0
 10
29.782152
 20
9.880225
 30
0.0
 10
30.368472
 20
9.950916
 30
0.0
 10
30.935569
 20
10.068735
 30
0.0
 10
31.483441
 20
10.233688
 30
0.0
 10
32.012092
 20
10.445767
 30
0.0
 10
32.521520
 20
10.704977
 30
0.0
 10
33.011726
 20
11.011318
 30
0.0
 10
33.482706
 20
11.364787
 30
0.0
 10
33.915235
 20
11.749876
 30
0.0
 10
34.290091
 20
12.151089
 30
0.0
 10
34.607280
 20
12.568425
 30
0.0
 10
34.866798
 20
13.001887
 30
0.0
 10
35.068649
 20
13.451473
 30
0.0
 10
35.212827
 20
13.917182
 30
0.0
 10
35.299334
 20
14.399017
 30
0.0
 10
35.328174
 20
14.896976
 30
0.0
 10
35.291274
 20
15.441123
 30
0.0
 10
35.180581
 20
15.912716
 30
0.0
 10
34.996095
 20
16.311761
 30
0.0
 10
34.737814
 20
16.638250
 30
0.0
 10
34.405742
 20
16.892191
 30
0.0
 10
33.999876
 20
17.073578
 30
0.0
 10
33.520219
 20
17.182411
 30
0.0
 10
32.966768
 20
17.218694
 30
0.0
 10
32.545085
 20
17.186752
 30
0.0
 10
32.133326
 20
17.090940
 30
0.0
 10
31.731489
 20
16.931259
 30
0.0
 10
31.339576
 20
16.707705
 30
0.0
 10
30.957582
 20
16.420282
 30
0.0
 10
30.585515
 20
16.068988
 30
0.0
 10
30.223367
 20
15.653822
 30
0.0
 10
29.871143
 20
15.174787
 30
0.0
 10
29.544340
 20
14.652024
 30
0.0
 10
29.248543
 20
14.095775
 30
0.0
 10
28.983751
 20
13.506044
 30
0.0
 10
28.749967
 20
12.882826
 30
0.0
 10
28.547190
 20
12.226121
 30
0.0
 10
28.375418
 20
11.535935
 30
0.0
 10
28.234652
 20
10.812261
 30
0.0
 10
28.124893
 20
10.055101
 30
0.0
  0
LWPOLYLINE
  5
103
100
AcDbEntity
  8
Layer_1
 62
7
100
AcDbPolyline
 90
121
 70
0
 10
54.120206
 20
19.282430
 30
0.0
 10
53.837434
 20
18.942606
 30
0.0
 10
53.554659
 20
18.602782
 30
0.0
 10
53.271886
 20
18.262958
 30
0.0
 10
52.989111
 20
17.923132
 30
0.0
 10
52.706338
 20
17.583308
 30
0.0
 10
52.423565
 20
17.243484
 30
0.0
 10
52.140790
 20
16.903660
 30
0.0
 10
51.858018
 20
16.563837
 30
0.0
 10
51.463310
 20
16.717309
 30
0.0
 10
51.072943
 20
16.850320
 30
0.0
 10
50.686919
 20
16.962871
 30
0.0
 10
50.305237
 20
17.054957
 30
0.0
 10
49.927894
 20
17.126579
 30
0.0
 10
49.554895
 20
17.177743
 30
0.0
 10
49.186240
 20
17.208444
 30
0.0
 10
48.821924
 20
17.218688
 30
0.0
 10
48.189092
 20
17.184266
 30
0.0
 10
47.590366
 20
17.081012
 30
0.0
 10
47.025749
 20
16.908927
 30
0.0
 10
46.495239
 20
16.668011
 30
0.0
 10
45.998836
 20
16.358263
 30
0.0
 10
45.536539
 20
15.979685
 30
0.0
 10
45.108351
 20
15.532275
 30
0.0
 10
44.714268
 20
15.016031
 30
0.0
 10
44.365449
 20
14.439940
 30
0.0
 10
44.063141
 20
13.812997
 30
0.0
 10
43.807344
 20
13.135206
 30
0.0
 10
43.598053
 20
12.406571
 30
0.0
 10
43.435273
 20
11.627084
 30
0.0
 10
43.319000
 20
10.796747
 30
0.0
 10
43.249238
 20
9.915565
 30
0.0
 10
43.225983
 20
8.983531
 30
0.0
 10
43.242719
 20
8.325276
 30
0.0
 10
43.292948
 20
7.699886
 30
0.0
 10
43.376661
 20
7.107363
 30
0.0
 10
43.493865
 20
6.547708
 30
0.0
 10
43.644552
 20
6.020918
 30
0.0
 10
43.828728
 20
5.526995
 30
0.0
 10
44.046389
 20
5.065940
 30
0.0
 10
44.297538
 20
4.637749
 30
0.0
 10
44.580618
 20
4.251726
 30
0.0
 10
44.884165
 20
3.917174
 30
0.0
 10
45.208176
 20
3.634088
 30
0.0
 10
45.552651
 20
3.402477
 30
0.0
 10
45.917590
 20
3.222331
 30
0.0
 10
46.302992
 20
3.093658
 30
0.0
 10
46.708862
 20
3.016453
 30
0.0
 10
47.135195
 20
2.990715
 30
0.0
 10
47.854526
 20
3.051178
 30
0.0
 10
48.534174
 20
3.232562
 30
0.0
 10
49.174132
 20
3.534867
 30
0.0
 10
49.774405
 20
3.958099
 30
0.0
 10
50.334991
 20
4.502249
 30
0.0
 10
50.855889
 20
5.167325
 30
0.0
 10
51.337103
 20
5.953323
 30
0.0
 10
51.778631
 20
6.860244
 30
0.0
 10
51.880945
 20
6.742108
 30
0.0
 10
51.969619
 20
6.625836
 30
0.0
 10
52.044651
 20
6.511425
 30
0.0
 10
52.106043
 20
6.398872
 30
0.0
 10
52.153792
 20
6.288182
 30
0.0
 10
52.187901
 20
6.179354
 30
0.0
 10
52.208363
 20
6.072384
 30
0.0
 10
52.215192
 20
5.967276
 30
0.0
 10
52.174880
 20
5.549626
 30
0.0
 10
52.053953
 20
5.120194
 30
0.0
 10
51.852415
 20
4.678979
 30
0.0
 10
51.570261
 20
4.225984
 30
0.0
 10
51.207492
 20
3.761207
 30
0.0
 10
50.764110
 20
3.284646
 30
0.0
 10
50.240114
 20
2.796306
 30
0.0
 10
49.635503
 20
2.296183
 30
0.0
 10
49.002050
 20
1.826443
 30
0.0
 10
48.381621
 20
1.419335
 30
0.0
 10
47.774214
 20
1.074860
 30
0.0
 10
47.179834
 20
0.793019
 30
0.0
 10
46.598473
 20
0.573809
 30
0.0
 10
46.030137
 20
0.417229
 30
0.0
 10
45.474825
 20
0.323280
 30
0.0
 10
44.932535
 20
0.291965
 30
0.0
 10
44.428069
 20
0.317703
 30
0.0
 10
43.946547
 20
0.394908
 30
0.0
 10
43.487970
 20
0.523581
 30
0.0
 10
43.052337
 20
0.703724
 30
0.0
 10
42.639649
 20
0.935338
 30
0.0
 10
42.249906
 20
1.218421
 30
0.0
 10
41.883107
 20
1.552973
 30
0.0
 10
41.539253
 20
1.938996
 30
0.0
 10
41.232294
 20
2.370907
 30
0.0
 10
40.966263
 20
2.833203
 30
0.0
 10
40.741160
 20
3.325887
 30
0.0
 10
40.556987
 20
3.848955
 30
0.0
 10
40.413740
 20
4.402410
 30
0.0
 10
40.311420
 20
4.986251
 30
0.0
 10
40.250031
 20
5.600480
 30
0.0
 10
40.229570
 20
6.245092
 30
0.0
 10
40.284141
 20
7.515400
 30
0.0
 10
40.447852
 20
8.756560
 30
0.0
 10
40.720705
 20
9.968577
 30
0.0
 10
41.102695
 20
11.151449
 30
0.0
 10
41.593830
 20
12.305180
 30
0.0
 10
42.194102
 20
13.429762
 30
0.0
 10
42.903516
 20
14.525202
 30
0.0
 10
43.722070
 20
15.591496
 30
0.0
 10
44.607283
 20
16.577479
 30
0.0
 10
45.516682
 20
17.431997
 30
0.0
 10
46.450264
 20
18.155051
 30
0.0
 10
47.408036
 20
18.746642
 30
0.0
 10
48.389992
 20
19.206769
 30
0.0
 10
49.396134
 20
19.535434
 30
0.0
 10
50.426462
 20
19.732633
 30
0.0
 10
51.480974
 20
19.798371
 30
0.0
 10
51.860792
 20
19.790300
 30
0.0
 10
52.226349
 20
19.766113
 30
0.0
 10
52.577642
 20
19.725804
 30
0.0
 10
52.914674
 20
19.669371
 30
0.0
 10
53.237446
 20
19.596820
 30
0.0
 10
53.545958
 20
19.508145
 30
0.0
 10
53.840208
 20
19.403348
 30
0.0
 10
54.120195
 20
19.282433
 30
0.0
  0
LWPOLYLINE
  5
104
100
AcDbEntity
  8
Layer_1
 62
7
100
AcDbPolyline
 90
97
 70
0
 10
67.911611
 20
7.118212
 30
0.0
 10
68.027878
 20
7.032013
 30
0.0
 10
68.128645
 20
6.942094
 30
0.0
 10
68.213910
 20
6.848455
 30
0.0
 10
68.283673
 20
6.751097
 30
0.0
 10
68.337933
 20
6.650019
 30
0.0
 10
68.376693
 20
6.545219
 30
0.0
 10
68.399948
 20
6.436701
 30
0.0
 10
68.407709
 20
6.324462
 30
0.0
 10
68.387869
 20
6.157028
 30
0.0
 10
68.328334
 20
5.962309
 30
0.0
 10
68.229113
 20
5.740307
 30
0.0
 10
68.090206
 20
5.491020
 30
0.0
 10
67.911613
 20
5.214448
 30
0.0
 10
67.693334
 20
4.910590
 30
0.0
 10
67.435369
 20
4.579448
 30
0.0
 10
67.137718
 20
4.221023
 30
0.0
 10
66.290633
 20
3.300149
 30
0.0
 10
65.446033
 20
2.502058
 30
0.0
 10
64.603910
 20
1.826751
 30
0.0
 10
63.764273
 20
1.274228
 30
0.0
 10
62.927115
 20
0.844485
 30
0.0
 10
62.092440
 20
0.537529
 30
0.0
 10
61.260242
 20
0.353354
 30
0.0
 10
60.430529
 20
0.291962
 30
0.0
 10
59.935675
 20
0.317079
 30
0.0
 10
59.463144
 20
0.392424
 30
0.0
 10
59.012938
 20
0.517996
 30
0.0
 10
58.585058
 20
0.693801
 30
0.0
 10
58.179502
 20
0.919833
 30
0.0
 10
57.796269
 20
1.196094
 30
0.0
 10
57.435361
 20
1.522586
 30
0.0
 10
57.096779
 20
1.899308
 30
0.0
 10
56.789823
 20
2.315097
 30
0.0
 10
56.523792
 20
2.758790
 30
0.0
 10
56.298688
 20
3.230389
 30
0.0
 10
56.114513
 20
3.729894
 30
0.0
 10
55.971265
 20
4.257302
 30
0.0
 10
55.868948
 20
4.812617
 30
0.0
 10
55.807557
 20
5.395838
 30
0.0
 10
55.787096
 20
6.006965
 30
0.0
 10
55.840427
 20
7.139607
 30
0.0
 10
56.000419
 20
8.275348
 30
0.0
 10
56.267068
 20
9.414191
 30
0.0
 10
56.640378
 20
10.556136
 30
0.0
 10
57.120347
 20
11.701182
 30
0.0
 10
57.706977
 20
12.849329
 30
0.0
 10
58.400270
 20
14.000582
 30
0.0
 10
59.200221
 20
15.154933
 30
0.0
 10
60.057219
 20
16.243232
 30
0.0
 10
60.911740
 20
17.186427
 30
0.0
 10
61.763778
 20
17.984515
 30
0.0
 10
62.613337
 20
18.637498
 30
0.0
 10
63.460419
 20
19.145374
 30
0.0
 10
64.305019
 20
19.508145
 30
0.0
 10
65.147139
 20
19.725809
 30
0.0
 10
65.986782
 20
19.798369
 30
0.0
 10
66.554184
 20
19.757746
 30
0.0
 10
67.045933
 20
19.635888
 30
0.0
 10
67.462031
 20
19.432798
 30
0.0
 10
67.802475
 20
19.148473
 30
0.0
 10
68.067265
 20
18.782916
 30
0.0
 10
68.256404
 20
18.336125
 30
0.0
 10
68.369889
 20
17.808098
 30
0.0
 10
68.407721
 20
17.198840
 30
0.0
 10
68.363378
 20
16.471748
 30
0.0
 10
68.230358
 20
15.748996
 30
0.0
 10
68.008664
 20
15.030588
 30
0.0
 10
67.698296
 20
14.316524
 30
0.0
 10
67.299250
 20
13.606800
 30
0.0
 10
66.811531
 20
12.901419
 30
0.0
 10
66.235134
 20
12.200379
 30
0.0
 10
65.570064
 20
11.503683
 30
0.0
 10
64.846073
 20
10.835505
 30
0.0
 10
64.083018
 20
10.220034
 30
0.0
 10
63.280894
 20
9.657278
 30
0.0
 10
62.439706
 20
9.147231
 30
0.0
 10
61.559449
 20
8.689896
 30
0.0
 10
60.640127
 20
8.285268
 30
0.0
 10
59.681737
 20
7.933354
 30
0.0
 10
58.684282
 20
7.634151
 30
0.0
 10
58.830007
 20
6.513288
 30
0.0
 10
59.068750
 20
5.541874
 30
0.0
 10
59.400514
 20
4.719907
 30
0.0
 10
59.825292
 20
4.047391
 30
0.0
 10
60.343091
 20
3.524323
 30
0.0
 10
60.953907
 20
3.150703
 30
0.0
 10
61.657741
 20
2.926532
 30
0.0
 10
62.454596
 20
2.851808
 30
0.0
 10
63.269114
 20
2.918471
 30
0.0
 10
64.045810
 20
3.118460
 30
0.0
 10
64.784676
 20
3.451773
 30
0.0
 10
65.485719
 20
3.918410
 30
0.0
 10
66.148932
 20
4.518372
 30
0.0
 10
66.774323
 20
5.251662
 30
0.0
 10
67.361887
 20
6.118276
 30
0.0
 10
67.911625
 20
7.118215
 30
0.0
  0
LWPOLYLINE
  5
105
100
AcDbEntity
  8
Layer_1
 62
7
100
AcDbPolyline
 90
49
 70
0
 10
58.763643
 20
10.055087
 30
0.0
 10
58.905959
 20
10.008574
 30
0.0
 10
59.045173
 20
9.968264
 30
0.0
 10
59.181289
 20
9.934157
 30
0.0
 10
59.314303
 20
9.906246
 30
0.0
 10
59.444216
 20
9.884543
 30
0.0
 10
59.571032
 20
9.869049
 30
0.0
 10
59.694747
 20
9.859764
 30
0.0
 10
59.815361
 20
9.856659
 30
0.0
 10
60.420902
 20
9.880225
 30
0.0
 10
61.007222
 20
9.950916
 30
0.0
 10
61.574319
 20
10.068735
 30
0.0
 10
62.122191
 20
10.233688
 30
0.0
 10
62.650842
 20
10.445767
 30
0.0
 10
63.160270
 20
10.704977
 30
0.0
 10
63.650476
 20
11.011318
 30
0.0
 10
64.121456
 20
11.364787
 30
0.0
 10
64.553985
 20
11.749876
 30
0.0
 10
64.928841
 20
12.151089
 30
0.0
 10
65.246030
 20
12.568425
 30
0.0
 10
65.505548
 20
13.001887
 30
0.0
 10
65.707399
 20
13.451473
 30
0.0
 10
65.851577
 20
13.917182
 30
0.0
 10
65.938084
 20
14.399017
 30
0.0
 10
65.966924
 20
14.896976
 30
0.0
 10
65.930024
 20
15.441123
 30
0.0
 10
65.819331
 20
15.912716
 30
0.0
 10
65.634845
 20
16.311761
 30
0.0
 10
65.376564
 20
16.638250
 30
0.0
 10
65.044492
 20
16.892191
 30
0.0
 10
64.638626
 20
17.073578
 30
0.0
 10
64.158969
 20
17.182411
 30
0.0
 10
63.605518
 20
17.218694
 30
0.0
 10
63.183835
 20
17.186752
 30
0.0
 10
62.772076
 20
17.090940
 30
0.0
 10
62.370239
 20
16.931259
 30
0.0
 10
61.978326
 20
16.707705
 30
0.0
 10
61.596332
 20
16.420282
 30
0.0
 10
61.224265
 20
16.068988
 30
0.0
 10
60.862117
 20
15.653822
 30
0.0
 10
60.509893
 20
15.174787
 30
0.0
 10
60.183090
 20
14.652024
 30
0.0
 10
59.887293
 20
14.095775
 30
0.0
 10
59.622501
 20
13.506044
 30
0.0
 10
59.388717
 20
12.882826
 30
0.0
 10
59.185940
 20
12.226121
 30
0.0
 10
59.014168
 20
11.535935
 30
0.0
 10
58.873402
 20
10.812261
 30
0.0
 10
58.763643
 20
10.055101
 30
0.0
  0
ENDSEC
  0
SECTION
  2
OBJECTS
  0
DICTIONARY
  5
C
330
0
100
AcDbDictionary
  3
ACAD_GROUP
350
D
  3
ACAD_MLINESTYLE
350
17
  0
DICTIONARY
  5
D
330
C
100
AcDbDictionary
  0
DICTIONARY
  5
1A
330
C
100
AcDbDictionary
  0
DICTIONARY
  5
17
330
C
100
AcDbDictionary
  3
STANDARD
350
18
  0
DICTIONARY
  5
19
330
C
100
AcDbDictionary
  0
ENDSEC
  0
EOF
