999
DXF created by Inkscape
  0
SECTION
  2
HEADER
  9
$ACADVER
  1
AC1014
  9
$HANDSEED
  5
FFFF
  9
$MEASUREMENT
 70
     1
  0
ENDSEC
  0
SECTION
  2
TABLES
  0
TABLE
  2
VPORT
  5
8
330
0
100
AcDbSymbolTable
 70
     4
  0
VPORT
  5
2E
330
8
100
AcDbSymbolTableRecord
100
AcDbViewportTableRecord
  2
*ACTIVE
 70
     0
 10
0.0
 20
0.0
 11
1.0
 21
1.0
 12
210.0
 22
148.5
 13
0.0
 23
0.0
 14
10.0
 24
10.0
 15
10.0
 25
10.0
 16
0.0
 26
0.0
 36
1.0
 17
0.0
 27
0.0
 37
0.0
 40
341.0
 41
1.24
 42
50.0
 43
0.0
 44
0.0
 50
0.0
 51
0.0
 71
     0
 72
   100
 73
     1
 74
     3
 75
     0
 76
     0
 77
     0
 78
     0
  0
ENDTAB
  0
TABLE
  2
LTYPE
  5
5
330
0
100
AcDbSymbolTable
 70
     1
  0
LTYPE
  5
14
330
5
100
AcDbSymbolTableRecord
100
AcDbLinetypeTableRecord
  2
BYBLOCK
 70
     0
  3

 72
    65
 73
     0
 40
0.0
  0
LTYPE
  5
15
330
5
100
AcDbSymbolTableRecord
100
AcDbLinetypeTableRecord
  2
BYLAYER
 70
     0
  3

 72
    65
 73
     0
 40
0.0
  0
LTYPE
  5
16
330
5
100
AcDbSymbolTableRecord
100
AcDbLinetypeTableRecord
  2
CONTINUOUS
 70
     0
  3
Solid line
 72
    65
 73
     0
 40
0.0
  0
ENDTAB
  0
TABLE
  2
LAYER
  5
2
100
AcDbSymbolTable
 70
2
  0
LAYER
  5
50
100
AcDbSymbolTableRecord
100
AcDbLayerTableRecord
  2
0
 70
0
  6
CONTINUOUS
  0
LAYER
  5
51
100
AcDbSymbolTableRecord
100
AcDbLayerTableRecord
  2
Layer_1
 70
0
  6
CONTINUOUS
  0
ENDTAB
  0
TABLE
  2
STYLE
  5
3
330
0
100
AcDbSymbolTable
 70
     1
  0
STYLE
  5
11
330
3
100
AcDbSymbolTableRecord
100
AcDbTextStyleTableRecord
  2
STANDARD
 70
     0
 40
0.0
 41
1.0
 50
0.0
 71
     0
 42
2.5
  3
txt
  4

  0
ENDTAB
  0
TABLE
  2
VIEW
  5
6
330
0
100
AcDbSymbolTable
 70
     0
  0
ENDTAB
  0
TABLE
  2
UCS
  5
7
330
0
100
AcDbSymbolTable
 70
     0
  0
ENDTAB
  0
TABLE
  2
APPID
  5
9
330
0
100
AcDbSymbolTable
 70
     2
  0
APPID
  5
12
330
9
100
AcDbSymbolTableRecord
100
AcDbRegAppTableRecord
  2
ACAD
 70
     0
  0
ENDTAB
  0
TABLE
  2
DIMSTYLE
  5
A
330
0
100
AcDbSymbolTable
 70
     1
  0
DIMSTYLE
105
27
330
A
100
AcDbSymbolTableRecord
100
AcDbDimStyleTableRecord
  2
ISO-25
 70
     0
  3

  4

  5

  6

  7

 40
1.0
 41
2.5
 42
0.625
 43
3.75
 44
1.25
 45
0.0
 46
0.0
 47
0.0
 48
0.0
140
2.5
141
2.5
142
0.0
143
0.03937007874016
144
1.0
145
0.0
146
1.0
147
0.625
 71
     0
 72
     0
 73
     0
 74
     0
 75
     0
 76
     0
 77
     1
 78
     8
170
     0
171
     3
172
     1
173
     0
174
     0
175
     0
176
     0
177
     0
178
     0
270
     2
271
     2
272
     2
273
     2
274
     3
340
11
275
     0
280
     0
281
     0
282
     0
283
     0
284
     8
285
     0
286
     0
287
     3
288
     0
  0
ENDTAB
  0
TABLE
  2
BLOCK_RECORD
  5
1
330
0
100
AcDbSymbolTable
 70
     1
  0
BLOCK_RECORD
  5
1F
330
1
100
AcDbSymbolTableRecord
100
AcDbBlockTableRecord
  2
*MODEL_SPACE
  0
BLOCK_RECORD
  5
1B
330
1
100
AcDbSymbolTableRecord
100
AcDbBlockTableRecord
  2
*PAPER_SPACE
  0
ENDTAB
  0
ENDSEC
  0
SECTION
  2
BLOCKS
  0
BLOCK
  5
20
330
1F
100
AcDbEntity
  8
0
100
AcDbBlockBegin
  2
*MODEL_SPACE
 70
     0
 10
0.0
 20
0.0
 30
0.0
  3
*MODEL_SPACE
  1

  0
ENDBLK
  5
21
330
1F
100
AcDbEntity
  8
0
100
AcDbBlockEnd
  0
BLOCK
  5
1C
330
1B
100
AcDbEntity
 67
     1
  8
0
100
AcDbBlockBegin
  2
*PAPER_SPACE
  1

  0
ENDBLK
  5
1D
330
1B
100
AcDbEntity
 67
     1
  8
0
100
AcDbBlockEnd
  0
ENDSEC
  0
SECTION
  2
ENTITIES
  0
LWPOLYLINE
  5
100
100
AcDbEntity
  8
Layer_1
 62
7
100
AcDbPolyline
 90
50
 70
0
 10
53.627796
 20
3.608084
 30
0.0
 10
54.238446
 20
3.696815
 30
0.0
 10
54.746412
 20
3.930805
 30
0.0
 10
55.158248
 20
4.261598
 30
0.0
 10
55.480503
 20
4.640792
 30
0.0
 10
55.719740
 20
5.019985
 30
0.0
 10
55.882509
 20
5.350778
 30
0.0
 10
55.975363
 20
5.584769
 30
0.0
 10
56.004858
 20
5.673527
 30
0.0
 10
56.013607
 20
5.914319
 30
0.0
 10
56.022356
 20
6.155055
 30
0.0
 10
56.031105
 20
6.395847
 30
0.0
 10
56.039853
 20
6.636611
 30
0.0
 10
56.048602
 20
6.877375
 30
0.0
 10
56.057351
 20
7.118167
 30
0.0
 10
56.066100
 20
7.358930
 30
0.0
 10
56.074849
 20
7.599722
 30
0.0
 10
56.058198
 20
7.500013
 30
0.0
 10
55.998389
 20
7.237123
 30
0.0
 10
55.880683
 20
6.865408
 30
0.0
 10
55.690333
 20
6.439337
 30
0.0
 10
55.412589
 20
6.013267
 30
0.0
 10
55.032707
 20
5.641580
 30
0.0
 10
54.535939
 20
5.378690
 30
0.0
 10
53.907538
 20
5.278981
 30
0.0
 10
53.288144
 20
5.318887
 30
0.0
 10
52.815137
 20
5.424015
 30
0.0
 10
52.468845
 20
5.572689
 30
0.0
 10
52.229611
 20
5.743123
 30
0.0
 10
52.077767
 20
5.913557
 30
0.0
 10
51.993650
 20
6.062232
 30
0.0
 10
51.957602
 20
6.167388
 30
0.0
 10
51.949954
 20
6.207266
 30
0.0
 10
51.858192
 20
6.075299
 30
0.0
 10
51.766428
 20
5.943275
 30
0.0
 10
51.674669
 20
5.811308
 30
0.0
 10
51.582907
 20
5.679285
 30
0.0
 10
51.491145
 20
5.547318
 30
0.0
 10
51.399381
 20
5.415351
 30
0.0
 10
51.307622
 20
5.283327
 30
0.0
 10
51.215860
 20
5.151360
 30
0.0
 10
51.246857
 20
5.085038
 30
0.0
 10
51.343673
 20
4.910201
 30
0.0
 10
51.512038
 20
4.663031
 30
0.0
 10
51.757690
 20
4.379708
 30
0.0
 10
52.086366
 20
4.096385
 30
0.0
 10
52.503798
 20
3.849243
 30
0.0
 10
53.015724
 20
3.674406
 30
0.0
 10
53.627878
 20
3.608084
 30
0.0
 10
53.627836
 20
3.608084
 30
0.0
  0
LWPOLYLINE
  5
101
100
AcDbEntity
  8
Layer_1
 62
7
100
AcDbPolyline
 90
50
 70
0
 10
38.805268
 20
3.851134
 30
0.0
 10
39.312362
 20
3.950137
 30
0.0
 10
39.734182
 20
4.211249
 30
0.0
 10
40.076179
 20
4.580368
 30
0.0
 10
40.343785
 20
5.003475
 30
0.0
 10
40.542450
 20
5.426639
 30
0.0
 10
40.677615
 20
5.795758
 30
0.0
 10
40.754723
 20
6.056870
 30
0.0
 10
40.779220
 20
6.155873
 30
0.0
 10
40.786473
 20
6.424549
 30
0.0
 10
40.793726
 20
6.693225
 30
0.0
 10
40.800980
 20
6.961900
 30
0.0
 10
40.808233
 20
7.230576
 30
0.0
 10
40.815486
 20
7.499223
 30
0.0
 10
40.822739
 20
7.767927
 30
0.0
 10
40.829992
 20
8.036574
 30
0.0
 10
40.837245
 20
8.305278
 30
0.0
 10
40.823416
 20
8.193998
 30
0.0
 10
40.773751
 20
7.900656
 30
0.0
 10
40.676006
 20
7.485902
 30
0.0
 10
40.517933
 20
7.010442
 30
0.0
 10
40.287293
 20
6.535011
 30
0.0
 10
39.971833
 20
6.120229
 30
0.0
 10
39.559309
 20
5.826887
 30
0.0
 10
39.037474
 20
5.715635
 30
0.0
 10
38.523122
 20
5.760141
 30
0.0
 10
38.130330
 20
5.877461
 30
0.0
 10
37.842763
 20
6.043408
 30
0.0
 10
37.644101
 20
6.233541
 30
0.0
 10
37.518007
 20
6.423731
 30
0.0
 10
37.448157
 20
6.589649
 30
0.0
 10
37.418222
 20
6.706969
 30
0.0
 10
37.411872
 20
6.751503
 30
0.0
 10
37.335672
 20
6.604212
 30
0.0
 10
37.259469
 20
6.456920
 30
0.0
 10
37.183269
 20
6.309628
 30
0.0
 10
37.107069
 20
6.162336
 30
0.0
 10
37.030869
 20
6.015073
 30
0.0
 10
36.954672
 20
5.867809
 30
0.0
 10
36.878469
 20
5.720489
 30
0.0
 10
36.802269
 20
5.573226
 30
0.0
 10
36.828008
 20
5.499199
 30
0.0
 10
36.908404
 20
5.304127
 30
0.0
 10
37.048217
 20
5.028311
 30
0.0
 10
37.252210
 20
4.712166
 30
0.0
 10
37.525147
 20
4.396020
 30
0.0
 10
37.871789
 20
4.120205
 30
0.0
 10
38.296901
 20
3.925104
 30
0.0
 10
38.805242
 20
3.851134
 30
0.0
 10
38.805206
 20
3.851134
 30
0.0
  0
LWPOLYLINE
  5
102
100
AcDbEntity
  8
Layer_1
 62
7
100
AcDbPolyline
 90
50
 70
0
 10
23.150289
 20
4.202642
 30
0.0
 10
23.878955
 20
4.304157
 30
0.0
 10
24.485090
 20
4.571817
 30
0.0
 10
24.976516
 20
4.950248
 30
0.0
 10
25.361054
 20
5.384052
 30
0.0
 10
25.646524
 20
5.817856
 30
0.0
 10
25.840748
 20
6.196288
 30
0.0
 10
25.951547
 20
6.463947
 30
0.0
 10
25.986742
 20
6.565463
 30
0.0
 10
25.997170
 20
6.840911
 30
0.0
 10
26.007598
 20
7.116360
 30
0.0
 10
26.018026
 20
7.391809
 30
0.0
 10
26.028454
 20
7.667230
 30
0.0
 10
26.038883
 20
7.942707
 30
0.0
 10
26.049311
 20
8.218128
 30
0.0
 10
26.059739
 20
8.493605
 30
0.0
 10
26.070167
 20
8.769025
 30
0.0
 10
26.050287
 20
8.654923
 30
0.0
 10
25.978920
 20
8.354187
 30
0.0
 10
25.838466
 20
7.928991
 30
0.0
 10
25.611328
 20
7.441565
 30
0.0
 10
25.279909
 20
6.954167
 30
0.0
 10
24.826611
 20
6.528971
 30
0.0
 10
24.233836
 20
6.228235
 30
0.0
 10
23.483988
 20
6.114133
 30
0.0
 10
22.779074
 20
6.168461
 30
0.0
 10
22.297659
 20
6.309882
 30
0.0
 10
21.986983
 20
6.506027
 30
0.0
 10
21.794286
 20
6.724608
 30
0.0
 10
21.666808
 20
6.933255
 30
0.0
 10
21.551789
 20
7.099596
 30
0.0
 10
21.396468
 20
7.191319
 30
0.0
 10
21.148086
 20
7.176079
 30
0.0
 10
20.968134
 20
7.087969
 30
0.0
 10
20.802103
 20
6.934129
 30
0.0
 10
20.653099
 20
6.738437
 30
0.0
 10
20.524226
 20
6.524794
 30
0.0
 10
20.418587
 20
6.317079
 30
0.0
 10
20.339287
 20
6.139109
 30
0.0
 10
20.289431
 20
6.014847
 30
0.0
 10
20.272122
 20
5.968111
 30
0.0
 10
20.309109
 20
5.892250
 30
0.0
 10
20.424634
 20
5.692267
 30
0.0
 10
20.625538
 20
5.409480
 30
0.0
 10
20.918667
 20
5.085348
 30
0.0
 10
21.310862
 20
4.761244
 30
0.0
 10
21.808969
 20
4.478457
 30
0.0
 10
22.419830
 20
4.278475
 30
0.0
 10
23.150288
 20
4.202613
 30
0.0
 10
23.150293
 20
4.202557
 30
0.0
  0
LWPOLYLINE
  5
103
100
AcDbEntity
  8
Layer_1
 62
7
100
AcDbPolyline
 90
97
 70
0
 10
67.911610
 20
7.118223
 30
0.0
 10
68.027877
 20
7.032004
 30
0.0
 10
68.128645
 20
6.942088
 30
0.0
 10
68.213910
 20
6.848447
 30
0.0
 10
68.283672
 20
6.751108
 30
0.0
 10
68.337932
 20
6.650016
 30
0.0
 10
68.376693
 20
6.545227
 30
0.0
 10
68.399948
 20
6.436713
 30
0.0
 10
68.407709
 20
6.324473
 30
0.0
 10
68.387869
 20
6.157031
 30
0.0
 10
68.328334
 20
5.962297
 30
0.0
 10
68.229113
 20
5.740301
 30
0.0
 10
68.090206
 20
5.491014
 30
0.0
 10
67.911613
 20
5.214437
 30
0.0
 10
67.693334
 20
4.910596
 30
0.0
 10
67.435369
 20
4.579437
 30
0.0
 10
67.137717
 20
4.221014
 30
0.0
 10
66.290633
 20
3.300151
 30
0.0
 10
65.446032
 20
2.502055
 30
0.0
 10
64.603909
 20
1.826754
 30
0.0
 10
63.764273
 20
1.274219
 30
0.0
 10
62.927114
 20
0.844479
 30
0.0
 10
62.092439
 20
0.537535
 30
0.0
 10
61.260242
 20
0.353356
 30
0.0
 10
60.430529
 20
0.291973
 30
0.0
 10
59.935674
 20
0.317091
 30
0.0
 10
59.463144
 20
0.392416
 30
0.0
 10
59.012938
 20
0.518005
 30
0.0
 10
58.585058
 20
0.693801
 30
0.0
 10
58.179502
 20
0.919833
 30
0.0
 10
57.796269
 20
1.196100
 30
0.0
 10
57.435361
 20
1.522575
 30
0.0
 10
57.096779
 20
1.899313
 30
0.0
 10
56.789822
 20
2.315083
 30
0.0
 10
56.523791
 20
2.758793
 30
0.0
 10
56.298688
 20
3.230386
 30
0.0
 10
56.114513
 20
3.729891
 30
0.0
 10
55.971265
 20
4.257308
 30
0.0
 10
55.868948
 20
4.812609
 30
0.0
 10
55.807556
 20
5.395849
 30
0.0
 10
55.787095
 20
6.006973
 30
0.0
 10
55.840427
 20
7.139615
 30
0.0
 10
56.000419
 20
8.275362
 30
0.0
 10
56.267068
 20
9.414185
 30
0.0
 10
56.640377
 20
10.556141
 30
0.0
 10
57.120347
 20
11.701173
 30
0.0
 10
57.706977
 20
12.849338
 30
0.0
 10
58.400270
 20
14.000579
 30
0.0
 10
59.200220
 20
15.154933
 30
0.0
 10
60.057219
 20
16.243232
 30
0.0
 10
60.911740
 20
17.186427
 30
0.0
 10
61.763777
 20
17.984515
 30
0.0
 10
62.613337
 20
18.637498
 30
0.0
 10
63.460418
 20
19.145374
 30
0.0
 10
64.305019
 20
19.508145
 30
0.0
 10
65.147139
 20
19.725809
 30
0.0
 10
65.986781
 20
19.798369
 30
0.0
 10
66.554183
 20
19.757746
 30
0.0
 10
67.045933
 20
19.635888
 30
0.0
 10
67.462030
 20
19.432798
 30
0.0
 10
67.802475
 20
19.148473
 30
0.0
 10
68.067264
 20
18.782916
 30
0.0
 10
68.256404
 20
18.336125
 30
0.0
 10
68.369888
 20
17.808098
 30
0.0
 10
68.407720
 20
17.198840
 30
0.0
 10
68.363378
 20
16.471748
 30
0.0
 10
68.230358
 20
15.748996
 30
0.0
 10
68.008664
 20
15.030588
 30
0.0
 10
67.698295
 20
14.316527
 30
0.0
 10
67.299250
 20
13.606794
 30
0.0
 10
66.811531
 20
12.901408
 30
0.0
 10
66.235134
 20
12.200368
 30
0.0
 10
65.570063
 20
11.503674
 30
0.0
 10
64.846073
 20
10.835513
 30
0.0
 10
64.083017
 20
10.220043
 30
0.0
 10
63.280894
 20
9.657292
 30
0.0
 10
62.439705
 20
9.147231
 30
0.0
 10
61.559448
 20
8.689890
 30
0.0
 10
60.640127
 20
8.285268
 30
0.0
 10
59.681737
 20
7.933365
 30
0.0
 10
58.684281
 20
7.634153
 30
0.0
 10
58.830007
 20
6.513280
 30
0.0
 10
59.068750
 20
5.541871
 30
0.0
 10
59.400513
 20
4.719899
 30
0.0
 10
59.825292
 20
4.047391
 30
0.0
 10
60.343090
 20
3.524321
 30
0.0
 10
60.953907
 20
3.150715
 30
0.0
 10
61.657741
 20
2.926517
 30
0.0
 10
62.454595
 20
2.851813
 30
0.0
 10
63.269114
 20
2.918474
 30
0.0
 10
64.045809
 20
3.118457
 30
0.0
 10
64.784676
 20
3.451761
 30
0.0
 10
65.485718
 20
3.918416
 30
0.0
 10
66.148932
 20
4.518364
 30
0.0
 10
66.774322
 20
5.251662
 30
0.0
 10
67.361887
 20
6.118281
 30
0.0
 10
67.911624
 20
7.118223
 30
0.0
  0
LWPOLYLINE
  5
104
100
AcDbEntity
  8
Layer_1
 62
7
100
AcDbPolyline
 90
49
 70
0
 10
58.763642
 20
10.055084
 30
0.0
 10
58.905958
 20
10.008574
 30
0.0
 10
59.045173
 20
9.968272
 30
0.0
 10
59.181289
 20
9.934152
 30
0.0
 10
59.314303
 20
9.906212
 30
0.0
 10
59.444215
 20
9.884481
 30
0.0
 10
59.571032
 20
9.868958
 30
0.0
 10
59.694747
 20
9.859645
 30
0.0
 10
59.815360
 20
9.856541
 30
0.0
 10
60.420902
 20
9.879965
 30
0.0
 10
61.007221
 20
9.950662
 30
0.0
 10
61.574319
 20
10.068489
 30
0.0
 10
62.122191
 20
10.233448
 30
0.0
 10
62.650841
 20
10.445510
 30
0.0
 10
63.160269
 20
10.704731
 30
0.0
 10
63.650475
 20
11.011055
 30
0.0
 10
64.121456
 20
11.364539
 30
0.0
 10
64.553984
 20
11.749631
 30
0.0
 10
64.928840
 20
12.150838
 30
0.0
 10
65.246030
 20
12.568160
 30
0.0
 10
65.505547
 20
13.001625
 30
0.0
 10
65.707398
 20
13.451233
 30
0.0
 10
65.851577
 20
13.916928
 30
0.0
 10
65.938084
 20
14.398766
 30
0.0
 10
65.966924
 20
14.896722
 30
0.0
 10
65.930024
 20
15.440869
 30
0.0
 10
65.819330
 20
15.912462
 30
0.0
 10
65.634845
 20
16.311507
 30
0.0
 10
65.376563
 20
16.637996
 30
0.0
 10
65.044492
 20
16.891937
 30
0.0
 10
64.638626
 20
17.073324
 30
0.0
 10
64.158969
 20
17.182157
 30
0.0
 10
63.605517
 20
17.218440
 30
0.0
 10
63.183835
 20
17.186498
 30
0.0
 10
62.772076
 20
17.090686
 30
0.0
 10
62.370239
 20
16.931005
 30
0.0
 10
61.978326
 20
16.707451
 30
0.0
 10
61.596332
 20
16.420028
 30
0.0
 10
61.224264
 20
16.068734
 30
0.0
 10
60.862117
 20
15.653568
 30
0.0
 10
60.509892
 20
15.174533
 30
0.0
 10
60.183090
 20
14.651778
 30
0.0
 10
59.887293
 20
14.095518
 30
0.0
 10
59.622501
 20
13.505787
 30
0.0
 10
59.388716
 20
12.882584
 30
0.0
 10
59.185940
 20
12.225881
 30
0.0
 10
59.014168
 20
11.535678
 30
0.0
 10
58.873401
 20
10.812004
 30
0.0
 10
58.763642
 20
10.054858
 30
0.0
  0
LWPOLYLINE
  5
105
100
AcDbEntity
  8
Layer_1
 62
7
100
AcDbPolyline
 90
121
 70
0
 10
54.120206
 20
19.282176
 30
0.0
 10
53.837434
 20
18.942352
 30
0.0
 10
53.554658
 20
18.602528
 30
0.0
 10
53.271886
 20
18.262704
 30
0.0
 10
52.989110
 20
17.922878
 30
0.0
 10
52.706338
 20
17.583054
 30
0.0
 10
52.423565
 20
17.243230
 30
0.0
 10
52.140790
 20
16.903406
 30
0.0
 10
51.858017
 20
16.563583
 30
0.0
 10
51.463310
 20
16.717055
 30
0.0
 10
51.072943
 20
16.850066
 30
0.0
 10
50.686919
 20
16.962617
 30
0.0
 10
50.305236
 20
17.054703
 30
0.0
 10
49.927894
 20
17.126325
 30
0.0
 10
49.554895
 20
17.177489
 30
0.0
 10
49.186239
 20
17.208190
 30
0.0
 10
48.821924
 20
17.218434
 30
0.0
 10
48.189092
 20
17.184012
 30
0.0
 10
47.590366
 20
17.080758
 30
0.0
 10
47.025749
 20
16.908673
 30
0.0
 10
46.495239
 20
16.667757
 30
0.0
 10
45.998836
 20
16.358009
 30
0.0
 10
45.536539
 20
15.979431
 30
0.0
 10
45.108351
 20
15.532021
 30
0.0
 10
44.714267
 20
15.015777
 30
0.0
 10
44.365449
 20
14.439688
 30
0.0
 10
44.063141
 20
13.812732
 30
0.0
 10
43.807343
 20
13.134947
 30
0.0
 10
43.598053
 20
12.406305
 30
0.0
 10
43.435273
 20
11.626836
 30
0.0
 10
43.319000
 20
10.796482
 30
0.0
 10
43.249238
 20
9.915299
 30
0.0
 10
43.225982
 20
8.983289
 30
0.0
 10
43.242718
 20
8.325033
 30
0.0
 10
43.292948
 20
7.699629
 30
0.0
 10
43.376661
 20
7.107103
 30
0.0
 10
43.493865
 20
6.547457
 30
0.0
 10
43.644552
 20
6.020661
 30
0.0
 10
43.828727
 20
5.526744
 30
0.0
 10
44.046388
 20
5.065677
 30
0.0
 10
44.297538
 20
4.637490
 30
0.0
 10
44.580618
 20
4.251466
 30
0.0
 10
44.884165
 20
3.916920
 30
0.0
 10
45.208176
 20
3.633823
 30
0.0
 10
45.552651
 20
3.402231
 30
0.0
 10
45.917589
 20
3.222089
 30
0.0
 10
46.302992
 20
3.093395
 30
0.0
 10
46.708862
 20
3.016208
 30
0.0
 10
47.135195
 20
2.990525
 30
0.0
 10
47.854526
 20
3.050977
 30
0.0
 10
48.534173
 20
3.232362
 30
0.0
 10
49.174132
 20
3.534678
 30
0.0
 10
49.774404
 20
3.957899
 30
0.0
 10
50.334991
 20
4.502051
 30
0.0
 10
50.855888
 20
5.167136
 30
0.0
 10
51.337103
 20
5.953125
 30
0.0
 10
51.778631
 20
6.860046
 30
0.0
 10
51.880945
 20
6.741908
 30
0.0
 10
51.969619
 20
6.625632
 30
0.0
 10
52.044651
 20
6.511219
 30
0.0
 10
52.106043
 20
6.398669
 30
0.0
 10
52.153792
 20
6.287982
 30
0.0
 10
52.187901
 20
6.179157
 30
0.0
 10
52.208362
 20
6.072195
 30
0.0
 10
52.215192
 20
5.967067
 30
0.0
 10
52.174879
 20
5.549434
 30
0.0
 10
52.053953
 20
5.120005
 30
0.0
 10
51.852415
 20
4.678779
 30
0.0
 10
51.570261
 20
4.225784
 30
0.0
 10
51.207492
 20
3.761020
 30
0.0
 10
50.764110
 20
3.284460
 30
0.0
 10
50.240113
 20
2.796103
 30
0.0
 10
49.635503
 20
2.295977
 30
0.0
 10
49.002050
 20
1.826246
 30
0.0
 10
48.381621
 20
1.419140
 30
0.0
 10
47.774214
 20
1.074660
 30
0.0
 10
47.179834
 20
0.792833
 30
0.0
 10
46.598473
 20
0.573603
 30
0.0
 10
46.030137
 20
0.417026
 30
0.0
 10
45.474825
 20
0.323074
 30
0.0
 10
44.932535
 20
0.291775
 30
0.0
 10
44.428069
 20
0.317458
 30
0.0
 10
43.946547
 20
0.394645
 30
0.0
 10
43.487969
 20
0.523339
 30
0.0
 10
43.052337
 20
0.703481
 30
0.0
 10
42.639649
 20
0.935073
 30
0.0
 10
42.249906
 20
1.218170
 30
0.0
 10
41.883107
 20
1.552716
 30
0.0
 10
41.539253
 20
1.938740
 30
0.0
 10
41.232294
 20
2.370653
 30
0.0
 10
40.966263
 20
2.832961
 30
0.0
 10
40.741160
 20
3.325636
 30
0.0
 10
40.556987
 20
3.848707
 30
0.0
 10
40.413740
 20
4.402145
 30
0.0
 10
40.311420
 20
4.986006
 30
0.0
 10
40.250031
 20
5.600234
 30
0.0
 10
40.229570
 20
6.244830
 30
0.0
 10
40.284140
 20
7.515140
 30
0.0
 10
40.447852
 20
8.756297
 30
0.0
 10
40.720704
 20
9.968329
 30
0.0
 10
41.102695
 20
11.151207
 30
0.0
 10
41.593829
 20
12.304931
 30
0.0
 10
42.194102
 20
13.429502
 30
0.0
 10
42.903515
 20
14.524948
 30
0.0
 10
43.722070
 20
15.591242
 30
0.0
 10
44.607282
 20
16.577225
 30
0.0
 10
45.516681
 20
17.431743
 30
0.0
 10
46.450264
 20
18.154797
 30
0.0
 10
47.408036
 20
18.746388
 30
0.0
 10
48.389992
 20
19.206515
 30
0.0
 10
49.396134
 20
19.535180
 30
0.0
 10
50.426462
 20
19.732379
 30
0.0
 10
51.480974
 20
19.798117
 30
0.0
 10
51.860791
 20
19.790046
 30
0.0
 10
52.226348
 20
19.765859
 30
0.0
 10
52.577642
 20
19.725550
 30
0.0
 10
52.914674
 20
19.669117
 30
0.0
 10
53.237446
 20
19.596566
 30
0.0
 10
53.545957
 20
19.507891
 30
0.0
 10
53.840208
 20
19.403094
 30
0.0
 10
54.120195
 20
19.282179
 30
0.0
  0
LWPOLYLINE
  5
106
100
AcDbEntity
  8
Layer_1
 62
7
100
AcDbPolyline
 90
97
 70
0
 10
37.272860
 20
7.117969
 30
0.0
 10
37.389127
 20
7.031750
 30
0.0
 10
37.489895
 20
6.941834
 30
0.0
 10
37.575160
 20
6.848193
 30
0.0
 10
37.644922
 20
6.750854
 30
0.0
 10
37.699182
 20
6.649762
 30
0.0
 10
37.737943
 20
6.544973
 30
0.0
 10
37.761198
 20
6.436459
 30
0.0
 10
37.768959
 20
6.324219
 30
0.0
 10
37.749119
 20
6.156777
 30
0.0
 10
37.689584
 20
5.962043
 30
0.0
 10
37.590363
 20
5.740047
 30
0.0
 10
37.451456
 20
5.490760
 30
0.0
 10
37.272863
 20
5.214183
 30
0.0
 10
37.054584
 20
4.910342
 30
0.0
 10
36.796619
 20
4.579183
 30
0.0
 10
36.498967
 20
4.220760
 30
0.0
 10
35.651883
 20
3.299897
 30
0.0
 10
34.807282
 20
2.501801
 30
0.0
 10
33.965159
 20
1.826500
 30
0.0
 10
33.125523
 20
1.273965
 30
0.0
 10
32.288364
 20
0.844225
 30
0.0
 10
31.453689
 20
0.537281
 30
0.0
 10
30.621492
 20
0.353102
 30
0.0
 10
29.791779
 20
0.291719
 30
0.0
 10
29.296924
 20
0.316837
 30
0.0
 10
28.824394
 20
0.392162
 30
0.0
 10
28.374188
 20
0.517751
 30
0.0
 10
27.946308
 20
0.693547
 30
0.0
 10
27.540752
 20
0.919579
 30
0.0
 10
27.157519
 20
1.195846
 30
0.0
 10
26.796611
 20
1.522321
 30
0.0
 10
26.458029
 20
1.899059
 30
0.0
 10
26.151073
 20
2.314829
 30
0.0
 10
25.885042
 20
2.758539
 30
0.0
 10
25.659938
 20
3.230132
 30
0.0
 10
25.475763
 20
3.729637
 30
0.0
 10
25.332515
 20
4.257054
 30
0.0
 10
25.230198
 20
4.812355
 30
0.0
 10
25.168807
 20
5.395595
 30
0.0
 10
25.148346
 20
6.006719
 30
0.0
 10
25.201677
 20
7.139361
 30
0.0
 10
25.361669
 20
8.275108
 30
0.0
 10
25.628318
 20
9.413931
 30
0.0
 10
26.001628
 20
10.555887
 30
0.0
 10
26.481597
 20
11.700919
 30
0.0
 10
27.068227
 20
12.849084
 30
0.0
 10
27.761520
 20
14.000325
 30
0.0
 10
28.561470
 20
15.154679
 30
0.0
 10
29.418469
 20
16.242978
 30
0.0
 10
30.272990
 20
17.186173
 30
0.0
 10
31.125027
 20
17.984261
 30
0.0
 10
31.974587
 20
18.637244
 30
0.0
 10
32.821668
 20
19.145120
 30
0.0
 10
33.666269
 20
19.507891
 30
0.0
 10
34.508389
 20
19.725555
 30
0.0
 10
35.348031
 20
19.798115
 30
0.0
 10
35.915433
 20
19.757492
 30
0.0
 10
36.407183
 20
19.635634
 30
0.0
 10
36.823280
 20
19.432544
 30
0.0
 10
37.163725
 20
19.148219
 30
0.0
 10
37.428514
 20
18.782662
 30
0.0
 10
37.617654
 20
18.335871
 30
0.0
 10
37.731138
 20
17.807844
 30
0.0
 10
37.768970
 20
17.198586
 30
0.0
 10
37.724628
 20
16.471494
 30
0.0
 10
37.591608
 20
15.748742
 30
0.0
 10
37.369914
 20
15.030334
 30
0.0
 10
37.059545
 20
14.316273
 30
0.0
 10
36.660500
 20
13.606540
 30
0.0
 10
36.172781
 20
12.901154
 30
0.0
 10
35.596384
 20
12.200114
 30
0.0
 10
34.931313
 20
11.503420
 30
0.0
 10
34.207323
 20
10.835259
 30
0.0
 10
33.444267
 20
10.219789
 30
0.0
 10
32.642144
 20
9.657038
 30
0.0
 10
31.800955
 20
9.146977
 30
0.0
 10
30.920698
 20
8.689636
 30
0.0
 10
30.001377
 20
8.285014
 30
0.0
 10
29.042987
 20
7.933111
 30
0.0
 10
28.045532
 20
7.633899
 30
0.0
 10
28.191257
 20
6.513026
 30
0.0
 10
28.430000
 20
5.541617
 30
0.0
 10
28.761763
 20
4.719645
 30
0.0
 10
29.186542
 20
4.047137
 30
0.0
 10
29.704340
 20
3.524067
 30
0.0
 10
30.315157
 20
3.150461
 30
0.0
 10
31.018991
 20
2.926263
 30
0.0
 10
31.815845
 20
2.851559
 30
0.0
 10
32.630364
 20
2.918220
 30
0.0
 10
33.407059
 20
3.118203
 30
0.0
 10
34.145926
 20
3.451507
 30
0.0
 10
34.846968
 20
3.918162
 30
0.0
 10
35.510182
 20
4.518110
 30
0.0
 10
36.135572
 20
5.251408
 30
0.0
 10
36.723137
 20
6.118027
 30
0.0
 10
37.272874
 20
7.117969
 30
0.0
  0
LWPOLYLINE
  5
107
100
AcDbEntity
  8
Layer_1
 62
7
100
AcDbPolyline
 90
49
 70
0
 10
28.124893
 20
10.054830
 30
0.0
 10
28.267208
 20
10.008320
 30
0.0
 10
28.406423
 20
9.968018
 30
0.0
 10
28.542539
 20
9.933898
 30
0.0
 10
28.675553
 20
9.905958
 30
0.0
 10
28.805465
 20
9.884227
 30
0.0
 10
28.932282
 20
9.868704
 30
0.0
 10
29.055997
 20
9.859391
 30
0.0
 10
29.176610
 20
9.856287
 30
0.0
 10
29.782152
 20
9.879711
 30
0.0
 10
30.368471
 20
9.950408
 30
0.0
 10
30.935569
 20
10.068235
 30
0.0
 10
31.483441
 20
10.233194
 30
0.0
 10
32.012091
 20
10.445256
 30
0.0
 10
32.521519
 20
10.704477
 30
0.0
 10
33.011725
 20
11.010801
 30
0.0
 10
33.482706
 20
11.364285
 30
0.0
 10
33.915234
 20
11.749377
 30
0.0
 10
34.290090
 20
12.150584
 30
0.0
 10
34.607280
 20
12.567906
 30
0.0
 10
34.866797
 20
13.001371
 30
0.0
 10
35.068648
 20
13.450979
 30
0.0
 10
35.212827
 20
13.916674
 30
0.0
 10
35.299334
 20
14.398512
 30
0.0
 10
35.328174
 20
14.896468
 30
0.0
 10
35.291274
 20
15.440615
 30
0.0
 10
35.180580
 20
15.912208
 30
0.0
 10
34.996095
 20
16.311253
 30
0.0
 10
34.737813
 20
16.637742
 30
0.0
 10
34.405742
 20
16.891683
 30
0.0
 10
33.999876
 20
17.073070
 30
0.0
 10
33.520219
 20
17.181903
 30
0.0
 10
32.966767
 20
17.218186
 30
0.0
 10
32.545085
 20
17.186244
 30
0.0
 10
32.133326
 20
17.090432
 30
0.0
 10
31.731489
 20
16.930751
 30
0.0
 10
31.339576
 20
16.707197
 30
0.0
 10
30.957582
 20
16.419774
 30
0.0
 10
30.585514
 20
16.068480
 30
0.0
 10
30.223367
 20
15.653314
 30
0.0
 10
29.871142
 20
15.174279
 30
0.0
 10
29.544340
 20
14.651524
 30
0.0
 10
29.248543
 20
14.095264
 30
0.0
 10
28.983751
 20
13.505533
 30
0.0
 10
28.749966
 20
12.882330
 30
0.0
 10
28.547190
 20
12.225627
 30
0.0
 10
28.375418
 20
11.535424
 30
0.0
 10
28.234651
 20
10.811750
 30
0.0
 10
28.124893
 20
10.054604
 30
0.0
  0
LWPOLYLINE
  5
108
100
AcDbEntity
  8
Layer_1
 62
7
100
AcDbPolyline
 90
169
 70
0
 10
21.020831
 20
7.732847
 30
0.0
 10
21.127794
 20
7.675189
 30
0.0
 10
21.220495
 20
7.611322
 30
0.0
 10
21.298936
 20
7.541246
 30
0.0
 10
21.363116
 20
7.464961
 30
0.0
 10
21.413038
 20
7.382496
 30
0.0
 10
21.448697
 20
7.293822
 30
0.0
 10
21.470090
 20
7.198939
 30
0.0
 10
21.477230
 20
7.097847
 30
0.0
 10
21.439706
 20
6.757402
 30
0.0
 10
21.327150
 20
6.390908
 30
0.0
 10
21.139560
 20
5.998393
 30
0.0
 10
20.876940
 20
5.579801
 30
0.0
 10
20.539287
 20
5.135189
 30
0.0
 10
20.126602
 20
4.664527
 30
0.0
 10
19.638885
 20
4.167815
 30
0.0
 10
19.076137
 20
3.645055
 30
0.0
 10
18.041776
 20
2.793929
 30
0.0
 10
16.972690
 20
2.056313
 30
0.0
 10
15.868879
 20
1.432151
 30
0.0
 10
14.730344
 20
0.921498
 30
0.0
 10
13.557084
 20
0.524298
 30
0.0
 10
12.349096
 20
0.240609
 30
0.0
 10
11.106387
 20
0.070372
 30
0.0
 10
9.828950
 20
0.013645
 30
0.0
 10
8.808544
 20
0.060777
 30
0.0
 10
7.840849
 20
0.202170
 30
0.0
 10
6.925865
 20
0.437797
 30
0.0
 10
6.063592
 20
0.767715
 30
0.0
 10
5.254030
 20
1.191867
 30
0.0
 10
4.497178
 20
1.710281
 30
0.0
 10
3.793037
 20
2.322957
 30
0.0
 10
3.141606
 20
3.029895
 30
0.0
 10
2.560245
 20
3.821162
 30
0.0
 10
2.056399
 20
4.676916
 30
0.0
 10
1.630068
 20
5.597158
 30
0.0
 10
1.281252
 20
6.581916
 30
0.0
 10
1.009951
 20
7.631162
 30
0.0
 10
0.816165
 20
8.744895
 30
0.0
 10
0.699894
 20
9.923117
 30
0.0
 10
0.661137
 20
11.165826
 30
0.0
 10
0.734002
 20
12.949583
 30
0.0
 10
0.952594
 20
14.659568
 30
0.0
 10
1.316912
 20
16.295734
 30
0.0
 10
1.826958
 20
17.858119
 30
0.0
 10
2.482731
 20
19.346712
 30
0.0
 10
3.284232
 20
20.761508
 30
0.0
 10
4.231461
 20
22.102518
 30
0.0
 10
5.324419
 20
23.369733
 30
0.0
 10
6.525268
 20
24.523147
 30
0.0
 10
7.796193
 20
25.522772
 30
0.0
 10
9.137195
 20
26.368606
 30
0.0
 10
10.548272
 20
27.060658
 30
0.0
 10
12.029423
 20
27.598918
 30
0.0
 10
13.580649
 20
27.983392
 30
0.0
 10
15.201951
 20
28.214080
 30
0.0
 10
16.893326
 20
28.290983
 30
0.0
 10
17.775437
 20
28.270211
 30
0.0
 10
18.665608
 20
28.207883
 30
0.0
 10
19.563845
 20
28.104011
 30
0.0
 10
20.470145
 20
27.958593
 30
0.0
 10
21.384509
 20
27.771629
 30
0.0
 10
22.306935
 20
27.543119
 30
0.0
 10
23.237425
 20
27.273064
 30
0.0
 10
24.175980
 20
26.961465
 30
0.0
 10
24.009788
 20
26.596837
 30
0.0
 10
23.843598
 20
26.232208
 30
0.0
 10
23.677406
 20
25.867577
 30
0.0
 10
23.511214
 20
25.502949
 30
0.0
 10
23.345025
 20
25.138321
 30
0.0
 10
23.178832
 20
24.773690
 30
0.0
 10
23.012643
 20
24.409061
 30
0.0
 10
22.846451
 20
24.044433
 30
0.0
 10
22.799323
 20
23.937773
 30
0.0
 10
22.752191
 20
23.831113
 30
0.0
 10
22.705063
 20
23.724452
 30
0.0
 10
22.657935
 20
23.617792
 30
0.0
 10
22.610807
 20
23.511132
 30
0.0
 10
22.563675
 20
23.404472
 30
0.0
 10
22.516547
 20
23.297811
 30
0.0
 10
22.469419
 20
23.191151
 30
0.0
 10
22.346937
 20
22.953949
 30
0.0
 10
22.217637
 20
22.748375
 30
0.0
 10
22.081519
 20
22.574431
 30
0.0
 10
21.938579
 20
22.432112
 30
0.0
 10
21.788823
 20
22.321421
 30
0.0
 10
21.632246
 20
22.242359
 30
0.0
 10
21.468851
 20
22.194926
 30
0.0
 10
21.298637
 20
22.179122
 30
0.0
 10
21.261734
 20
22.179969
 30
0.0
 10
21.220490
 20
22.182791
 30
0.0
 10
21.174908
 20
22.187448
 30
0.0
 10
21.124986
 20
22.193967
 30
0.0
 10
21.070728
 20
22.202349
 30
0.0
 10
21.012131
 20
22.212594
 30
0.0
 10
20.949195
 20
22.224701
 30
0.0
 10
20.881919
 20
22.238671
 30
0.0
 10
20.947025
 20
22.389042
 30
0.0
 10
21.003449
 20
22.532594
 30
0.0
 10
21.051196
 20
22.669328
 30
0.0
 10
21.090261
 20
22.799240
 30
0.0
 10
21.120648
 20
22.922334
 30
0.0
 10
21.142351
 20
23.038610
 30
0.0
 10
21.155389
 20
23.148067
 30
0.0
 10
21.159736
 20
23.250703
 30
0.0
 10
21.131824
 20
23.577807
 30
0.0
 10
21.048103
 20
23.894370
 30
0.0
 10
20.908572
 20
24.200395
 30
0.0
 10
20.713235
 20
24.495879
 30
0.0
 10
20.462088
 20
24.780824
 30
0.0
 10
20.155135
 20
25.055229
 30
0.0
 10
19.792372
 20
25.319095
 30
0.0
 10
19.373799
 20
25.572421
 30
0.0
 10
18.922966
 20
25.804955
 30
0.0
 10
18.453535
 20
26.006487
 30
0.0
 10
17.965499
 20
26.177017
 30
0.0
 10
17.458862
 20
26.316542
 30
0.0
 10
16.933624
 20
26.425065
 30
0.0
 10
16.389785
 20
26.502583
 30
0.0
 10
15.827344
 20
26.549099
 30
0.0
 10
15.246299
 20
26.564621
 30
0.0
 10
14.064042
 20
26.504770
 30
0.0
 10
12.938216
 20
26.325240
 30
0.0
 10
11.868822
 20
26.026031
 30
0.0
 10
10.855860
 20
25.607140
 30
0.0
 10
9.899330
 20
25.068570
 30
0.0
 10
8.999232
 20
24.410317
 30
0.0
 10
8.155565
 20
23.632386
 30
0.0
 10
7.368331
 20
22.734775
 30
0.0
 10
6.661395
 20
21.741342
 30
0.0
 10
6.048717
 20
20.675975
 30
0.0
 10
5.530298
 20
19.538679
 30
0.0
 10
5.106138
 20
18.329450
 30
0.0
 10
4.776236
 20
17.048291
 30
0.0
 10
4.540592
 20
15.695196
 30
0.0
 10
4.399207
 20
14.270186
 30
0.0
 10
4.352081
 20
12.773223
 30
0.0
 10
4.385258
 20
11.617635
 30
0.0
 10
4.484787
 20
10.522190
 30
0.0
 10
4.650667
 20
9.486886
 30
0.0
 10
4.882900
 20
8.511752
 30
0.0
 10
5.181485
 20
7.596787
 30
0.0
 10
5.546424
 20
6.741936
 30
0.0
 10
5.977716
 20
5.947283
 30
0.0
 10
6.475362
 20
5.212743
 30
0.0
 10
7.028508
 20
4.552315
 30
0.0
 10
7.626301
 20
3.979968
 30
0.0
 10
8.268741
 20
3.495647
 30
0.0
 10
8.955829
 20
3.099379
 30
0.0
 10
9.687565
 20
2.791192
 30
0.0
 10
10.463952
 20
2.571030
 30
0.0
 10
11.284988
 20
2.438950
 30
0.0
 10
12.150674
 20
2.394924
 30
0.0
 10
12.790320
 20
2.418913
 30
0.0
 10
13.429347
 20
2.490541
 30
0.0
 10
14.067756
 20
2.609921
 30
0.0
 10
14.705545
 20
2.777053
 30
0.0
 10
15.342715
 20
2.991908
 30
0.0
 10
15.979267
 20
3.254516
 30
0.0
 10
16.615201
 20
3.564904
 30
0.0
 10
17.250518
 20
3.923016
 30
0.0
 10
17.869389
 20
4.321119
 30
0.0
 10
18.446093
 20
4.741573
 30
0.0
 10
18.980630
 20
5.184323
 30
0.0
 10
19.473001
 20
5.649426
 30
0.0
 10
19.923207
 20
6.136823
 30
0.0
 10
20.331247
 20
6.646573
 30
0.0
 10
20.697123
 20
7.178619
 30
0.0
 10
21.020831
 20
7.733016
 30
0.0
  0
ENDSEC
  0
SECTION
  2
OBJECTS
  0
DICTIONARY
  5
C
330
0
100
AcDbDictionary
  3
ACAD_GROUP
350
D
  3
ACAD_MLINESTYLE
350
17
  0
DICTIONARY
  5
D
330
C
100
AcDbDictionary
  0
DICTIONARY
  5
1A
330
C
100
AcDbDictionary
  0
DICTIONARY
  5
17
330
C
100
AcDbDictionary
  3
STANDARD
350
18
  0
DICTIONARY
  5
19
330
C
100
AcDbDictionary
  0
ENDSEC
  0
EOF
