999
DXF created by Inkscape
  0
SECTION
  2
HEADER
  9
$ACADVER
  1
AC1014
  9
$HANDSEED
  5
FFFF
  9
$MEASUREMENT
 70
     1
  0
ENDSEC
  0
SECTION
  2
TABLES
  0
TABLE
  2
VPORT
  5
8
330
0
100
AcDbSymbolTable
 70
     4
  0
VPORT
  5
2E
330
8
100
AcDbSymbolTableRecord
100
AcDbViewportTableRecord
  2
*ACTIVE
 70
     0
 10
0.0
 20
0.0
 11
1.0
 21
1.0
 12
210.0
 22
148.5
 13
0.0
 23
0.0
 14
10.0
 24
10.0
 15
10.0
 25
10.0
 16
0.0
 26
0.0
 36
1.0
 17
0.0
 27
0.0
 37
0.0
 40
341.0
 41
1.24
 42
50.0
 43
0.0
 44
0.0
 50
0.0
 51
0.0
 71
     0
 72
   100
 73
     1
 74
     3
 75
     0
 76
     0
 77
     0
 78
     0
  0
ENDTAB
  0
TABLE
  2
LTYPE
  5
5
330
0
100
AcDbSymbolTable
 70
     1
  0
LTYPE
  5
14
330
5
100
AcDbSymbolTableRecord
100
AcDbLinetypeTableRecord
  2
BYBLOCK
 70
     0
  3

 72
    65
 73
     0
 40
0.0
  0
LTYPE
  5
15
330
5
100
AcDbSymbolTableRecord
100
AcDbLinetypeTableRecord
  2
BYLAYER
 70
     0
  3

 72
    65
 73
     0
 40
0.0
  0
LTYPE
  5
16
330
5
100
AcDbSymbolTableRecord
100
AcDbLinetypeTableRecord
  2
CONTINUOUS
 70
     0
  3
Solid line
 72
    65
 73
     0
 40
0.0
  0
ENDTAB
  0
TABLE
  2
LAYER
  5
2
100
AcDbSymbolTable
 70
2
  0
LAYER
  5
50
100
AcDbSymbolTableRecord
100
AcDbLayerTableRecord
  2
0
 70
0
  6
CONTINUOUS
  0
LAYER
  5
51
100
AcDbSymbolTableRecord
100
AcDbLayerTableRecord
  2
Layer_1
 70
0
  6
CONTINUOUS
  0
ENDTAB
  0
TABLE
  2
STYLE
  5
3
330
0
100
AcDbSymbolTable
 70
     1
  0
STYLE
  5
11
330
3
100
AcDbSymbolTableRecord
100
AcDbTextStyleTableRecord
  2
STANDARD
 70
     0
 40
0.0
 41
1.0
 50
0.0
 71
     0
 42
2.5
  3
txt
  4

  0
ENDTAB
  0
TABLE
  2
VIEW
  5
6
330
0
100
AcDbSymbolTable
 70
     0
  0
ENDTAB
  0
TABLE
  2
UCS
  5
7
330
0
100
AcDbSymbolTable
 70
     0
  0
ENDTAB
  0
TABLE
  2
APPID
  5
9
330
0
100
AcDbSymbolTable
 70
     2
  0
APPID
  5
12
330
9
100
AcDbSymbolTableRecord
100
AcDbRegAppTableRecord
  2
ACAD
 70
     0
  0
ENDTAB
  0
TABLE
  2
DIMSTYLE
  5
A
330
0
100
AcDbSymbolTable
 70
     1
  0
DIMSTYLE
105
27
330
A
100
AcDbSymbolTableRecord
100
AcDbDimStyleTableRecord
  2
ISO-25
 70
     0
  3

  4

  5

  6

  7

 40
1.0
 41
2.5
 42
0.625
 43
3.75
 44
1.25
 45
0.0
 46
0.0
 47
0.0
 48
0.0
140
2.5
141
2.5
142
0.0
143
0.03937007874016
144
1.0
145
0.0
146
1.0
147
0.625
 71
     0
 72
     0
 73
     0
 74
     0
 75
     0
 76
     0
 77
     1
 78
     8
170
     0
171
     3
172
     1
173
     0
174
     0
175
     0
176
     0
177
     0
178
     0
270
     2
271
     2
272
     2
273
     2
274
     3
340
11
275
     0
280
     0
281
     0
282
     0
283
     0
284
     8
285
     0
286
     0
287
     3
288
     0
  0
ENDTAB
  0
TABLE
  2
BLOCK_RECORD
  5
1
330
0
100
AcDbSymbolTable
 70
     1
  0
BLOCK_RECORD
  5
1F
330
1
100
AcDbSymbolTableRecord
100
AcDbBlockTableRecord
  2
*MODEL_SPACE
  0
BLOCK_RECORD
  5
1B
330
1
100
AcDbSymbolTableRecord
100
AcDbBlockTableRecord
  2
*PAPER_SPACE
  0
ENDTAB
  0
ENDSEC
  0
SECTION
  2
BLOCKS
  0
BLOCK
  5
20
330
1F
100
AcDbEntity
  8
0
100
AcDbBlockBegin
  2
*MODEL_SPACE
 70
     0
 10
0.0
 20
0.0
 30
0.0
  3
*MODEL_SPACE
  1

  0
ENDBLK
  5
21
330
1F
100
AcDbEntity
  8
0
100
AcDbBlockEnd
  0
BLOCK
  5
1C
330
1B
100
AcDbEntity
 67
     1
  8
0
100
AcDbBlockBegin
  2
*PAPER_SPACE
  1

  0
ENDBLK
  5
1D
330
1B
100
AcDbEntity
 67
     1
  8
0
100
AcDbBlockEnd
  0
ENDSEC
  0
SECTION
  2
ENTITIES
  0
LWPOLYLINE
  5
100
100
AcDbEntity
  8
Layer_1
 62
7
100
AcDbPolyline
 90
486
 70
0
 10
19.438056
 20
33.932847
 30
0.0
 10
17.436042
 20
33.844653
 30
0.0
 10
15.513403
 20
33.571250
 30
0.0
 10
13.678958
 20
33.112639
 30
0.0
 10
11.915069
 20
32.477639
 30
0.0
 10
10.248194
 20
31.657431
 30
0.0
 10
8.660694
 20
30.652014
 30
0.0
 10
7.152569
 20
29.470209
 30
0.0
 10
5.723819
 20
28.103195
 30
0.0
 10
4.427361
 20
26.603889
 30
0.0
 10
3.307292
 20
25.007570
 30
0.0
 10
2.354792
 20
23.331875
 30
0.0
 10
1.578680
 20
21.567986
 30
0.0
 10
0.978958
 20
19.715903
 30
0.0
 10
0.546805
 20
17.775625
 30
0.0
 10
0.282222
 20
15.747153
 30
0.0
 10
0.202847
 20
13.639306
 30
0.0
 10
0.246944
 20
12.166458
 30
0.0
 10
0.379236
 20
10.764167
 30
0.0
 10
0.608542
 20
9.450070
 30
0.0
 10
0.934861
 20
8.206528
 30
0.0
 10
1.349375
 20
7.033542
 30
0.0
 10
1.852083
 20
5.948750
 30
0.0
 10
2.451805
 20
4.934514
 30
0.0
 10
3.139722
 20
3.990833
 30
0.0
 10
3.915833
 20
3.152986
 30
0.0
 10
4.744861
 20
2.429792
 30
0.0
 10
5.644444
 20
1.812431
 30
0.0
 10
6.279444
 20
1.468472
 30
0.0
 10
0.379236
 20
1.468472
 30
0.0
 10
0.379236
 20
1.018681
 30
0.0
 10
0.379236
 20
0.568889
 30
0.0
 10
0.379236
 20
0.110278
 30
0.0
 10
0.379236
 20
-0.339514
 30
0.0
 10
0.379236
 20
-0.798125
 30
0.0
 10
0.379236
 20
-1.247917
 30
0.0
 10
0.379236
 20
-1.706528
 30
0.0
 10
0.379236
 20
-2.156319
 30
0.0
 10
10.556875
 20
-2.156319
 30
0.0
 10
20.734514
 20
-2.156319
 30
0.0
 10
30.920972
 20
-2.156319
 30
0.0
 10
41.098611
 20
-2.156319
 30
0.0
 10
51.276250
 20
-2.156319
 30
0.0
 10
61.453889
 20
-2.156319
 30
0.0
 10
71.640347
 20
-2.156319
 30
0.0
 10
81.817986
 20
-2.156319
 30
0.0
 10
81.817986
 20
-1.706528
 30
0.0
 10
81.817986
 20
-1.247917
 30
0.0
 10
81.817986
 20
-0.798125
 30
0.0
 10
81.817986
 20
-0.339514
 30
0.0
 10
81.817986
 20
0.110278
 30
0.0
 10
81.817986
 20
0.568889
 30
0.0
 10
81.817986
 20
1.018681
 30
0.0
 10
81.817986
 20
1.468472
 30
0.0
 10
74.153889
 20
1.468472
 30
0.0
 10
75.000556
 20
1.909445
 30
0.0
 10
75.997153
 20
2.562083
 30
0.0
 10
76.993750
 20
3.364653
 30
0.0
 10
77.990348
 20
4.308333
 30
0.0
 10
78.995764
 20
5.401945
 30
0.0
 10
79.348542
 20
5.825278
 30
0.0
 10
79.657223
 20
6.222153
 30
0.0
 10
79.912986
 20
6.583750
 30
0.0
 10
80.124653
 20
6.910070
 30
0.0
 10
80.292223
 20
7.201111
 30
0.0
 10
80.406875
 20
7.465695
 30
0.0
 10
80.477431
 20
7.695000
 30
0.0
 10
80.503889
 20
7.897847
 30
0.0
 10
80.495070
 20
8.030139
 30
0.0
 10
80.468611
 20
8.162431
 30
0.0
 10
80.424514
 20
8.285903
 30
0.0
 10
80.353959
 20
8.400556
 30
0.0
 10
80.274584
 20
8.515208
 30
0.0
 10
80.168750
 20
8.629861
 30
0.0
 10
80.054098
 20
8.735695
 30
0.0
 10
79.912986
 20
8.841528
 30
0.0
 10
79.260348
 20
7.650903
 30
0.0
 10
78.563611
 20
6.627847
 30
0.0
 10
77.822778
 20
5.754722
 30
0.0
 10
77.037847
 20
5.049167
 30
0.0
 10
76.208820
 20
4.493542
 30
0.0
 10
75.335695
 20
4.096667
 30
0.0
 10
74.409653
 20
3.858542
 30
0.0
 10
73.448334
 20
3.779167
 30
0.0
 10
72.504653
 20
3.867361
 30
0.0
 10
71.666806
 20
4.131945
 30
0.0
 10
70.943611
 20
4.581736
 30
0.0
 10
70.326250
 20
5.199097
 30
0.0
 10
69.823542
 20
5.992847
 30
0.0
 10
69.435486
 20
6.971806
 30
0.0
 10
69.153264
 20
8.118333
 30
0.0
 10
68.976875
 20
9.450070
 30
0.0
 10
70.158681
 20
9.802847
 30
0.0
 10
71.296389
 20
10.217361
 30
0.0
 10
72.381181
 20
10.702431
 30
0.0
 10
73.430695
 20
11.240417
 30
0.0
 10
74.427292
 20
11.848958
 30
0.0
 10
75.379792
 20
12.519236
 30
0.0
 10
76.279375
 20
13.242431
 30
0.0
 10
77.143681
 20
14.036181
 30
0.0
 10
77.928611
 20
14.865208
 30
0.0
 10
78.607709
 20
15.694236
 30
0.0
 10
79.189792
 20
16.532083
 30
0.0
 10
79.666042
 20
17.369931
 30
0.0
 10
80.027639
 20
18.216597
 30
0.0
 10
80.292223
 20
19.072084
 30
0.0
 10
80.450973
 20
19.927570
 30
0.0
 10
80.503889
 20
20.783056
 30
0.0
 10
80.459792
 20
21.506250
 30
0.0
 10
80.327500
 20
22.132431
 30
0.0
 10
80.098195
 20
22.661597
 30
0.0
 10
79.789514
 20
23.102570
 30
0.0
 10
79.383820
 20
23.437709
 30
0.0
 10
78.889931
 20
23.675834
 30
0.0
 10
78.307848
 20
23.816945
 30
0.0
 10
77.637570
 20
23.869861
 30
0.0
 10
76.640972
 20
23.781667
 30
0.0
 10
75.635556
 20
23.525903
 30
0.0
 10
74.638959
 20
23.093750
 30
0.0
 10
73.633542
 20
22.494028
 30
0.0
 10
72.628125
 20
21.717917
 30
0.0
 10
71.613889
 20
20.774236
 30
0.0
 10
70.608472
 20
19.654167
 30
0.0
 10
69.585417
 20
18.366528
 30
0.0
 10
68.641736
 20
16.999514
 30
0.0
 10
67.821528
 20
15.632500
 30
0.0
 10
67.124792
 20
14.274306
 30
0.0
 10
66.551528
 20
12.916111
 30
0.0
 10
66.110556
 20
11.557917
 30
0.0
 10
65.793056
 20
10.208542
 30
0.0
 10
65.607847
 20
8.859167
 30
0.0
 10
65.546111
 20
7.518611
 30
0.0
 10
65.563750
 20
6.795417
 30
0.0
 10
65.643125
 20
6.107500
 30
0.0
 10
65.757778
 20
5.446042
 30
0.0
 10
65.934167
 20
4.819861
 30
0.0
 10
66.145834
 20
4.228958
 30
0.0
 10
66.419236
 20
3.673333
 30
0.0
 10
66.727917
 20
3.144167
 30
0.0
 10
67.098334
 20
2.650278
 30
0.0
 10
67.495209
 20
2.209306
 30
0.0
 10
67.927361
 20
1.821250
 30
0.0
 10
68.377153
 20
1.494931
 30
0.0
 10
68.421250
 20
1.468472
 30
0.0
 10
61.453889
 20
1.468472
 30
0.0
 10
55.633056
 20
1.468472
 30
0.0
 10
56.047570
 20
1.671320
 30
0.0
 10
56.761945
 20
2.085833
 30
0.0
 10
57.502778
 20
2.562083
 30
0.0
 10
58.252431
 20
3.126528
 30
0.0
 10
58.966806
 20
3.717431
 30
0.0
 10
59.592986
 20
4.290695
 30
0.0
 10
60.113334
 20
4.855139
 30
0.0
 10
60.545486
 20
5.410764
 30
0.0
 10
60.880625
 20
5.948750
 30
0.0
 10
61.118750
 20
6.469097
 30
0.0
 10
61.259861
 20
6.980625
 30
0.0
 10
61.312778
 20
7.474514
 30
0.0
 10
61.303959
 20
7.597986
 30
0.0
 10
61.277500
 20
7.721458
 30
0.0
 10
61.233403
 20
7.853750
 30
0.0
 10
61.180486
 20
7.986042
 30
0.0
 10
61.109931
 20
8.118333
 30
0.0
 10
61.021736
 20
8.250625
 30
0.0
 10
60.915903
 20
8.391736
 30
0.0
 10
60.792431
 20
8.532847
 30
0.0
 10
60.272084
 20
7.456875
 30
0.0
 10
59.698820
 20
6.522014
 30
0.0
 10
59.081459
 20
5.737083
 30
0.0
 10
58.420000
 20
5.093264
 30
0.0
 10
57.705625
 20
4.590556
 30
0.0
 10
56.947153
 20
4.228958
 30
0.0
 10
56.144583
 20
4.017292
 30
0.0
 10
55.289097
 20
3.946736
 30
0.0
 10
54.786389
 20
3.973195
 30
0.0
 10
54.301320
 20
4.070208
 30
0.0
 10
53.842708
 20
4.220139
 30
0.0
 10
53.410556
 20
4.431806
 30
0.0
 10
53.004861
 20
4.705208
 30
0.0
 10
52.616806
 20
5.040347
 30
0.0
 10
52.255208
 20
5.437222
 30
0.0
 10
51.920070
 20
5.895833
 30
0.0
 10
51.629028
 20
6.407361
 30
0.0
 10
51.364445
 20
6.954167
 30
0.0
 10
51.152778
 20
7.536250
 30
0.0
 10
50.967570
 20
8.162431
 30
0.0
 10
50.835278
 20
8.823889
 30
0.0
 10
50.729445
 20
9.529445
 30
0.0
 10
50.676528
 20
10.270278
 30
0.0
 10
50.650070
 20
11.046389
 30
0.0
 10
50.685347
 20
12.157639
 30
0.0
 10
50.764722
 20
13.198333
 30
0.0
 10
50.905833
 20
14.186111
 30
0.0
 10
51.091042
 20
15.103333
 30
0.0
 10
51.346806
 20
15.967639
 30
0.0
 10
51.646667
 20
16.770208
 30
0.0
 10
52.008264
 20
17.519861
 30
0.0
 10
52.413958
 20
18.198959
 30
0.0
 10
52.881389
 20
18.807500
 30
0.0
 10
53.392917
 20
19.345486
 30
0.0
 10
53.939722
 20
19.786459
 30
0.0
 10
54.530625
 20
20.156875
 30
0.0
 10
55.156806
 20
20.447917
 30
0.0
 10
55.827083
 20
20.650764
 30
0.0
 10
56.532639
 20
20.774236
 30
0.0
 10
57.291111
 20
20.809514
 30
0.0
 10
57.714445
 20
20.800695
 30
0.0
 10
58.155417
 20
20.765417
 30
0.0
 10
58.596389
 20
20.703681
 30
0.0
 10
59.046181
 20
20.615486
 30
0.0
 10
59.495972
 20
20.509653
 30
0.0
 10
59.954584
 20
20.377361
 30
0.0
 10
60.422014
 20
20.218611
 30
0.0
 10
60.889445
 20
20.033403
 30
0.0
 10
61.224584
 20
20.439097
 30
0.0
 10
61.559722
 20
20.835972
 30
0.0
 10
61.894861
 20
21.241667
 30
0.0
 10
62.230000
 20
21.647361
 30
0.0
 10
62.565139
 20
22.044236
 30
0.0
 10
62.900278
 20
22.449931
 30
0.0
 10
63.235417
 20
22.855625
 30
0.0
 10
63.570556
 20
23.261320
 30
0.0
 10
63.235417
 20
23.402431
 30
0.0
 10
62.882639
 20
23.525903
 30
0.0
 10
62.521042
 20
23.631736
 30
0.0
 10
62.141806
 20
23.719931
 30
0.0
 10
61.736111
 20
23.781667
 30
0.0
 10
61.321597
 20
23.834584
 30
0.0
 10
60.889445
 20
23.861042
 30
0.0
 10
60.439653
 20
23.869861
 30
0.0
 10
59.187292
 20
23.790486
 30
0.0
 10
57.970209
 20
23.561181
 30
0.0
 10
56.770764
 20
23.164306
 30
0.0
 10
55.606597
 20
22.626320
 30
0.0
 10
54.477708
 20
21.920764
 30
0.0
 10
53.366458
 20
21.065278
 30
0.0
 10
52.290486
 20
20.051042
 30
0.0
 10
51.240972
 20
18.878056
 30
0.0
 10
50.270833
 20
17.616875
 30
0.0
 10
49.432986
 20
16.320417
 30
0.0
 10
48.718611
 20
14.988681
 30
0.0
 10
48.136528
 20
13.621667
 30
0.0
 10
47.686736
 20
12.219375
 30
0.0
 10
47.360417
 20
10.781806
 30
0.0
 10
47.166389
 20
9.308958
 30
0.0
 10
47.104653
 20
7.800833
 30
0.0
 10
47.122292
 20
7.042361
 30
0.0
 10
47.201667
 20
6.310347
 30
0.0
 10
47.316320
 20
5.622431
 30
0.0
 10
47.492708
 20
4.960972
 30
0.0
 10
47.704375
 20
4.343611
 30
0.0
 10
47.977778
 20
3.761528
 30
0.0
 10
48.286458
 20
3.214722
 30
0.0
 10
48.656875
 20
2.703195
 30
0.0
 10
49.062570
 20
2.244583
 30
0.0
 10
49.494722
 20
1.847708
 30
0.0
 10
49.962153
 20
1.512570
 30
0.0
 10
50.032708
 20
1.468472
 30
0.0
 10
41.098611
 20
1.468472
 30
0.0
 10
37.835417
 20
1.468472
 30
0.0
 10
38.682083
 20
1.909445
 30
0.0
 10
39.678681
 20
2.562083
 30
0.0
 10
40.675278
 20
3.364653
 30
0.0
 10
41.671875
 20
4.308333
 30
0.0
 10
42.677292
 20
5.401945
 30
0.0
 10
43.030070
 20
5.825278
 30
0.0
 10
43.338750
 20
6.222153
 30
0.0
 10
43.594514
 20
6.583750
 30
0.0
 10
43.806181
 20
6.910070
 30
0.0
 10
43.973750
 20
7.201111
 30
0.0
 10
44.088403
 20
7.465695
 30
0.0
 10
44.158958
 20
7.695000
 30
0.0
 10
44.185417
 20
7.897847
 30
0.0
 10
44.176597
 20
8.030139
 30
0.0
 10
44.150139
 20
8.162431
 30
0.0
 10
44.106042
 20
8.285903
 30
0.0
 10
44.035486
 20
8.400556
 30
0.0
 10
43.956111
 20
8.515208
 30
0.0
 10
43.850278
 20
8.629861
 30
0.0
 10
43.735625
 20
8.735695
 30
0.0
 10
43.594514
 20
8.841528
 30
0.0
 10
42.941875
 20
7.650903
 30
0.0
 10
42.245139
 20
6.627847
 30
0.0
 10
41.504306
 20
5.754722
 30
0.0
 10
40.719375
 20
5.049167
 30
0.0
 10
39.890347
 20
4.493542
 30
0.0
 10
39.017222
 20
4.096667
 30
0.0
 10
38.091181
 20
3.858542
 30
0.0
 10
37.129861
 20
3.779167
 30
0.0
 10
36.186181
 20
3.867361
 30
0.0
 10
35.348333
 20
4.131945
 30
0.0
 10
34.625139
 20
4.581736
 30
0.0
 10
34.007778
 20
5.199097
 30
0.0
 10
33.505069
 20
5.992847
 30
0.0
 10
33.117014
 20
6.971806
 30
0.0
 10
32.834792
 20
8.118333
 30
0.0
 10
32.658403
 20
9.450070
 30
0.0
 10
33.840208
 20
9.802847
 30
0.0
 10
34.977917
 20
10.217361
 30
0.0
 10
36.071528
 20
10.702431
 30
0.0
 10
37.112222
 20
11.240417
 30
0.0
 10
38.108820
 20
11.848958
 30
0.0
 10
39.061320
 20
12.519236
 30
0.0
 10
39.960903
 20
13.242431
 30
0.0
 10
40.825208
 20
14.036181
 30
0.0
 10
41.610139
 20
14.865208
 30
0.0
 10
42.289236
 20
15.694236
 30
0.0
 10
42.871320
 20
16.532083
 30
0.0
 10
43.347570
 20
17.369931
 30
0.0
 10
43.709167
 20
18.216597
 30
0.0
 10
43.973750
 20
19.072084
 30
0.0
 10
44.132500
 20
19.927570
 30
0.0
 10
44.185417
 20
20.783056
 30
0.0
 10
44.141320
 20
21.506250
 30
0.0
 10
44.009028
 20
22.132431
 30
0.0
 10
43.779722
 20
22.661597
 30
0.0
 10
43.471042
 20
23.102570
 30
0.0
 10
43.065347
 20
23.437709
 30
0.0
 10
42.571458
 20
23.675834
 30
0.0
 10
41.989375
 20
23.816945
 30
0.0
 10
41.319097
 20
23.869861
 30
0.0
 10
40.322500
 20
23.781667
 30
0.0
 10
39.325903
 20
23.525903
 30
0.0
 10
38.320486
 20
23.093750
 30
0.0
 10
37.315070
 20
22.494028
 30
0.0
 10
36.309653
 20
21.717917
 30
0.0
 10
35.304236
 20
20.774236
 30
0.0
 10
34.290000
 20
19.654167
 30
0.0
 10
33.266944
 20
18.366528
 30
0.0
 10
32.323264
 20
16.999514
 30
0.0
 10
31.503056
 20
15.632500
 30
0.0
 10
30.806319
 20
14.274306
 30
0.0
 10
30.233056
 20
12.916111
 30
0.0
 10
29.792083
 20
11.557917
 30
0.0
 10
29.474583
 20
10.208542
 30
0.0
 10
29.289375
 20
8.859167
 30
0.0
 10
29.227639
 20
7.518611
 30
0.0
 10
29.245278
 20
6.795417
 30
0.0
 10
29.324653
 20
6.107500
 30
0.0
 10
29.439306
 20
5.446042
 30
0.0
 10
29.615694
 20
4.819861
 30
0.0
 10
29.836181
 20
4.228958
 30
0.0
 10
30.100764
 20
3.673333
 30
0.0
 10
30.418264
 20
3.144167
 30
0.0
 10
30.779861
 20
2.650278
 30
0.0
 10
31.176736
 20
2.209306
 30
0.0
 10
31.608889
 20
1.821250
 30
0.0
 10
32.058681
 20
1.494931
 30
0.0
 10
32.102778
 20
1.468472
 30
0.0
 10
30.920972
 20
1.468472
 30
0.0
 10
20.734514
 20
1.468472
 30
0.0
 10
16.809861
 20
1.468472
 30
0.0
 10
16.880417
 20
1.494931
 30
0.0
 10
18.229792
 20
2.094653
 30
0.0
 10
19.535069
 20
2.835486
 30
0.0
 10
20.805069
 20
3.708611
 30
0.0
 10
22.030972
 20
4.722847
 30
0.0
 10
22.692431
 20
5.340208
 30
0.0
 10
23.274514
 20
5.931111
 30
0.0
 10
23.759583
 20
6.486736
 30
0.0
 10
24.165278
 20
7.015903
 30
0.0
 10
24.473958
 20
7.509792
 30
0.0
 10
24.694444
 20
7.977222
 30
0.0
 10
24.826736
 20
8.409375
 30
0.0
 10
24.870833
 20
8.815070
 30
0.0
 10
24.862014
 20
8.938542
 30
0.0
 10
24.844375
 20
9.044375
 30
0.0
 10
24.800278
 20
9.150208
 30
0.0
 10
24.738542
 20
9.247222
 30
0.0
 10
24.659167
 20
9.344236
 30
0.0
 10
24.570972
 20
9.423611
 30
0.0
 10
24.456319
 20
9.502986
 30
0.0
 10
24.332847
 20
9.564722
 30
0.0
 10
23.944792
 20
8.912083
 30
0.0
 10
23.512639
 20
8.277083
 30
0.0
 10
23.027569
 20
7.677361
 30
0.0
 10
22.498403
 20
7.095278
 30
0.0
 10
21.916319
 20
6.548472
 30
0.0
 10
21.281319
 20
6.019306
 30
0.0
 10
20.593403
 20
5.525417
 30
0.0
 10
19.861389
 20
5.049167
 30
0.0
 10
19.111736
 20
4.625833
 30
0.0
 10
18.353264
 20
4.255417
 30
0.0
 10
17.603611
 20
3.946736
 30
0.0
 10
16.845139
 20
3.690972
 30
0.0
 10
16.086667
 20
3.496945
 30
0.0
 10
15.337014
 20
3.355833
 30
0.0
 10
14.578542
 20
3.267639
 30
0.0
 10
13.820069
 20
3.241181
 30
0.0
 10
12.788194
 20
3.294097
 30
0.0
 10
11.818055
 20
3.452847
 30
0.0
 10
10.900833
 20
3.708611
 30
0.0
 10
10.027708
 20
4.079028
 30
0.0
 10
9.216319
 20
4.546458
 30
0.0
 10
8.457847
 20
5.119722
 30
0.0
 10
7.743472
 20
5.798820
 30
0.0
 10
7.090833
 20
6.583750
 30
0.0
 10
6.499930
 20
7.448056
 30
0.0
 10
5.988403
 20
8.391736
 30
0.0
 10
5.556250
 20
9.405972
 30
0.0
 10
5.203472
 20
10.490764
 30
0.0
 10
4.930069
 20
11.646111
 30
0.0
 10
4.736042
 20
12.872014
 30
0.0
 10
4.612569
 20
14.168472
 30
0.0
 10
4.577292
 20
15.544306
 30
0.0
 10
4.630208
 20
17.317014
 30
0.0
 10
4.797778
 20
19.001528
 30
0.0
 10
5.080000
 20
20.606667
 30
0.0
 10
5.468055
 20
22.123611
 30
0.0
 10
5.970764
 20
23.561181
 30
0.0
 10
6.588125
 20
24.910556
 30
0.0
 10
7.311319
 20
26.171736
 30
0.0
 10
8.149167
 20
27.353542
 30
0.0
 10
9.084028
 20
28.411875
 30
0.0
 10
10.080625
 20
29.337917
 30
0.0
 10
11.147778
 20
30.114028
 30
0.0
 10
12.285486
 20
30.757847
 30
0.0
 10
13.484930
 20
31.251736
 30
0.0
 10
14.754930
 20
31.604514
 30
0.0
 10
16.086667
 20
31.816181
 30
0.0
 10
17.488958
 20
31.886736
 30
0.0
 10
18.176875
 20
31.869097
 30
0.0
 10
18.847153
 20
31.816181
 30
0.0
 10
19.490972
 20
31.727986
 30
0.0
 10
20.108333
 20
31.595695
 30
0.0
 10
20.708056
 20
31.428125
 30
0.0
 10
21.290139
 20
31.225278
 30
0.0
 10
21.845764
 20
30.987153
 30
0.0
 10
22.383750
 20
30.713750
 30
0.0
 10
22.877639
 20
30.413889
 30
0.0
 10
23.309792
 20
30.096389
 30
0.0
 10
23.671389
 20
29.778889
 30
0.0
 10
23.971250
 20
29.434931
 30
0.0
 10
24.200556
 20
29.090972
 30
0.0
 10
24.368125
 20
28.720556
 30
0.0
 10
24.465139
 20
28.350139
 30
0.0
 10
24.500417
 20
27.962084
 30
0.0
 10
24.491597
 20
27.838611
 30
0.0
 10
24.473958
 20
27.706320
 30
0.0
 10
24.447500
 20
27.574028
 30
0.0
 10
24.412222
 20
27.424097
 30
0.0
 10
24.368125
 20
27.274167
 30
0.0
 10
24.315208
 20
27.106597
 30
0.0
 10
24.244653
 20
26.939028
 30
0.0
 10
24.165278
 20
26.762639
 30
0.0
 10
24.244653
 20
26.745000
 30
0.0
 10
24.324028
 20
26.727361
 30
0.0
 10
24.394583
 20
26.718542
 30
0.0
 10
24.456319
 20
26.709722
 30
0.0
 10
24.518056
 20
26.700903
 30
0.0
 10
24.570972
 20
26.692084
 30
0.0
 10
24.615069
 20
26.692084
 30
0.0
 10
24.659167
 20
26.692084
 30
0.0
 10
24.862014
 20
26.709722
 30
0.0
 10
25.056042
 20
26.762639
 30
0.0
 10
25.241250
 20
26.859653
 30
0.0
 10
25.417639
 20
26.991945
 30
0.0
 10
25.594028
 20
27.159514
 30
0.0
 10
25.752778
 20
27.362361
 30
0.0
 10
25.902708
 20
27.609306
 30
0.0
 10
26.052639
 20
27.891528
 30
0.0
 10
26.105556
 20
28.015000
 30
0.0
 10
26.158472
 20
28.147292
 30
0.0
 10
26.220208
 20
28.270764
 30
0.0
 10
26.273125
 20
28.394236
 30
0.0
 10
26.326042
 20
28.526528
 30
0.0
 10
26.387778
 20
28.650000
 30
0.0
 10
26.440694
 20
28.773472
 30
0.0
 10
26.493611
 20
28.905764
 30
0.0
 10
26.696458
 20
29.337917
 30
0.0
 10
26.890486
 20
29.770070
 30
0.0
 10
27.084514
 20
30.202222
 30
0.0
 10
27.287361
 20
30.634375
 30
0.0
 10
27.481389
 20
31.066528
 30
0.0
 10
27.675417
 20
31.498681
 30
0.0
 10
27.878264
 20
31.930834
 30
0.0
 10
28.072292
 20
32.362986
 30
0.0
 10
26.961042
 20
32.733403
 30
0.0
 10
25.858611
 20
33.050903
 30
0.0
 10
24.765000
 20
33.324306
 30
0.0
 10
23.680208
 20
33.544792
 30
0.0
 10
22.604236
 20
33.712361
 30
0.0
 10
21.537083
 20
33.835834
 30
0.0
 10
20.487569
 20
33.915209
 30
0.0
 10
19.438056
 20
33.932847
 30
0.0
 10
19.438056
 20
33.932847
 30
0.0
  0
LWPOLYLINE
  5
101
100
AcDbEntity
  8
Layer_1
 62
7
100
AcDbPolyline
 90
50
 70
0
 10
38.496875
 20
20.809514
 30
0.0
 10
39.149514
 20
20.765417
 30
0.0
 10
39.713958
 20
20.641945
 30
0.0
 10
40.199028
 20
20.421459
 30
0.0
 10
40.595903
 20
20.121597
 30
0.0
 10
40.895764
 20
19.733542
 30
0.0
 10
41.116250
 20
19.266111
 30
0.0
 10
41.248542
 20
18.701667
 30
0.0
 10
41.292639
 20
18.057847
 30
0.0
 10
41.257361
 20
17.466945
 30
0.0
 10
41.151528
 20
16.893681
 30
0.0
 10
40.983958
 20
16.346875
 30
0.0
 10
40.745833
 20
15.808889
 30
0.0
 10
40.437153
 20
15.297361
 30
0.0
 10
40.057917
 20
14.803472
 30
0.0
 10
39.616945
 20
14.327222
 30
0.0
 10
39.105417
 20
13.868611
 30
0.0
 10
38.549792
 20
13.454097
 30
0.0
 10
37.967708
 20
13.092500
 30
0.0
 10
37.359167
 20
12.783820
 30
0.0
 10
36.732986
 20
12.528056
 30
0.0
 10
36.089167
 20
12.334028
 30
0.0
 10
35.410069
 20
12.192917
 30
0.0
 10
34.722153
 20
12.113542
 30
0.0
 10
33.998958
 20
12.087083
 30
0.0
 10
33.857847
 20
12.087083
 30
0.0
 10
33.707917
 20
12.095903
 30
0.0
 10
33.557986
 20
12.113542
 30
0.0
 10
33.408056
 20
12.140000
 30
0.0
 10
33.249306
 20
12.175278
 30
0.0
 10
33.090556
 20
12.219375
 30
0.0
 10
32.922986
 20
12.263472
 30
0.0
 10
32.755417
 20
12.316389
 30
0.0
 10
32.887708
 20
13.215972
 30
0.0
 10
33.046458
 20
14.071458
 30
0.0
 10
33.258125
 20
14.891667
 30
0.0
 10
33.496250
 20
15.667778
 30
0.0
 10
33.769653
 20
16.408611
 30
0.0
 10
34.087153
 20
17.105347
 30
0.0
 10
34.439931
 20
17.766806
 30
0.0
 10
34.819167
 20
18.384167
 30
0.0
 10
35.242500
 20
18.957431
 30
0.0
 10
35.674653
 20
19.451320
 30
0.0
 10
36.115625
 20
19.865834
 30
0.0
 10
36.565417
 20
20.200972
 30
0.0
 10
37.032847
 20
20.474375
 30
0.0
 10
37.509097
 20
20.659584
 30
0.0
 10
37.994167
 20
20.774236
 30
0.0
 10
38.496875
 20
20.809514
 30
0.0
 10
38.496875
 20
20.809514
 30
0.0
  0
LWPOLYLINE
  5
102
100
AcDbEntity
  8
Layer_1
 62
7
100
AcDbPolyline
 90
50
 70
0
 10
74.806528
 20
20.809514
 30
0.0
 10
75.467986
 20
20.765417
 30
0.0
 10
76.032431
 20
20.641945
 30
0.0
 10
76.517500
 20
20.421459
 30
0.0
 10
76.914375
 20
20.121597
 30
0.0
 10
77.214236
 20
19.733542
 30
0.0
 10
77.434722
 20
19.266111
 30
0.0
 10
77.567014
 20
18.701667
 30
0.0
 10
77.611111
 20
18.057847
 30
0.0
 10
77.575834
 20
17.466945
 30
0.0
 10
77.470000
 20
16.893681
 30
0.0
 10
77.302431
 20
16.346875
 30
0.0
 10
77.064306
 20
15.808889
 30
0.0
 10
76.755625
 20
15.297361
 30
0.0
 10
76.376389
 20
14.803472
 30
0.0
 10
75.935417
 20
14.327222
 30
0.0
 10
75.423889
 20
13.868611
 30
0.0
 10
74.868264
 20
13.454097
 30
0.0
 10
74.286181
 20
13.092500
 30
0.0
 10
73.677639
 20
12.783820
 30
0.0
 10
73.051459
 20
12.528056
 30
0.0
 10
72.398820
 20
12.334028
 30
0.0
 10
71.728542
 20
12.192917
 30
0.0
 10
71.031806
 20
12.113542
 30
0.0
 10
70.317431
 20
12.087083
 30
0.0
 10
70.176320
 20
12.087083
 30
0.0
 10
70.026389
 20
12.095903
 30
0.0
 10
69.876459
 20
12.113542
 30
0.0
 10
69.726528
 20
12.140000
 30
0.0
 10
69.567778
 20
12.175278
 30
0.0
 10
69.409028
 20
12.219375
 30
0.0
 10
69.241459
 20
12.263472
 30
0.0
 10
69.073889
 20
12.316389
 30
0.0
 10
69.197361
 20
13.215972
 30
0.0
 10
69.364931
 20
14.071458
 30
0.0
 10
69.567778
 20
14.891667
 30
0.0
 10
69.814722
 20
15.667778
 30
0.0
 10
70.088125
 20
16.408611
 30
0.0
 10
70.405625
 20
17.105347
 30
0.0
 10
70.749584
 20
17.766806
 30
0.0
 10
71.137639
 20
18.384167
 30
0.0
 10
71.560972
 20
18.957431
 30
0.0
 10
71.984306
 20
19.451320
 30
0.0
 10
72.425278
 20
19.865834
 30
0.0
 10
72.883889
 20
20.200972
 30
0.0
 10
73.342500
 20
20.474375
 30
0.0
 10
73.818750
 20
20.659584
 30
0.0
 10
74.312639
 20
20.774236
 30
0.0
 10
74.806528
 20
20.809514
 30
0.0
 10
74.806528
 20
20.809514
 30
0.0
  0
ENDSEC
  0
SECTION
  2
OBJECTS
  0
DICTIONARY
  5
C
330
0
100
AcDbDictionary
  3
ACAD_GROUP
350
D
  3
ACAD_MLINESTYLE
350
17
  0
DICTIONARY
  5
D
330
C
100
AcDbDictionary
  0
DICTIONARY
  5
1A
330
C
100
AcDbDictionary
  0
DICTIONARY
  5
17
330
C
100
AcDbDictionary
  3
STANDARD
350
18
  0
DICTIONARY
  5
19
330
C
100
AcDbDictionary
  0
ENDSEC
  0
EOF
