999
DXF created by Inkscape
  0
SECTION
  2
HEADER
  9
$ACADVER
  1
AC1014
  9
$HANDSEED
  5
FFFF
  9
$MEASUREMENT
 70
     1
  0
ENDSEC
  0
SECTION
  2
TABLES
  0
TABLE
  2
VPORT
  5
8
330
0
100
AcDbSymbolTable
 70
     4
  0
VPORT
  5
2E
330
8
100
AcDbSymbolTableRecord
100
AcDbViewportTableRecord
  2
*ACTIVE
 70
     0
 10
0.0
 20
0.0
 11
1.0
 21
1.0
 12
210.0
 22
148.5
 13
0.0
 23
0.0
 14
10.0
 24
10.0
 15
10.0
 25
10.0
 16
0.0
 26
0.0
 36
1.0
 17
0.0
 27
0.0
 37
0.0
 40
341.0
 41
1.24
 42
50.0
 43
0.0
 44
0.0
 50
0.0
 51
0.0
 71
     0
 72
   100
 73
     1
 74
     3
 75
     0
 76
     0
 77
     0
 78
     0
  0
ENDTAB
  0
TABLE
  2
LTYPE
  5
5
330
0
100
AcDbSymbolTable
 70
     1
  0
LTYPE
  5
14
330
5
100
AcDbSymbolTableRecord
100
AcDbLinetypeTableRecord
  2
BYBLOCK
 70
     0
  3

 72
    65
 73
     0
 40
0.0
  0
LTYPE
  5
15
330
5
100
AcDbSymbolTableRecord
100
AcDbLinetypeTableRecord
  2
BYLAYER
 70
     0
  3

 72
    65
 73
     0
 40
0.0
  0
LTYPE
  5
16
330
5
100
AcDbSymbolTableRecord
100
AcDbLinetypeTableRecord
  2
CONTINUOUS
 70
     0
  3
Solid line
 72
    65
 73
     0
 40
0.0
  0
ENDTAB
  0
TABLE
  2
LAYER
  5
2
100
AcDbSymbolTable
 70
2
  0
LAYER
  5
50
100
AcDbSymbolTableRecord
100
AcDbLayerTableRecord
  2
0
 70
0
  6
CONTINUOUS
  0
LAYER
  5
51
100
AcDbSymbolTableRecord
100
AcDbLayerTableRecord
  2
Layer_1
 70
0
  6
CONTINUOUS
  0
ENDTAB
  0
TABLE
  2
STYLE
  5
3
330
0
100
AcDbSymbolTable
 70
     1
  0
STYLE
  5
11
330
3
100
AcDbSymbolTableRecord
100
AcDbTextStyleTableRecord
  2
STANDARD
 70
     0
 40
0.0
 41
1.0
 50
0.0
 71
     0
 42
2.5
  3
txt
  4

  0
ENDTAB
  0
TABLE
  2
VIEW
  5
6
330
0
100
AcDbSymbolTable
 70
     0
  0
ENDTAB
  0
TABLE
  2
UCS
  5
7
330
0
100
AcDbSymbolTable
 70
     0
  0
ENDTAB
  0
TABLE
  2
APPID
  5
9
330
0
100
AcDbSymbolTable
 70
     2
  0
APPID
  5
12
330
9
100
AcDbSymbolTableRecord
100
AcDbRegAppTableRecord
  2
ACAD
 70
     0
  0
ENDTAB
  0
TABLE
  2
DIMSTYLE
  5
A
330
0
100
AcDbSymbolTable
 70
     1
  0
DIMSTYLE
105
27
330
A
100
AcDbSymbolTableRecord
100
AcDbDimStyleTableRecord
  2
ISO-25
 70
     0
  3

  4

  5

  6

  7

 40
1.0
 41
2.5
 42
0.625
 43
3.75
 44
1.25
 45
0.0
 46
0.0
 47
0.0
 48
0.0
140
2.5
141
2.5
142
0.0
143
0.03937007874016
144
1.0
145
0.0
146
1.0
147
0.625
 71
     0
 72
     0
 73
     0
 74
     0
 75
     0
 76
     0
 77
     1
 78
     8
170
     0
171
     3
172
     1
173
     0
174
     0
175
     0
176
     0
177
     0
178
     0
270
     2
271
     2
272
     2
273
     2
274
     3
340
11
275
     0
280
     0
281
     0
282
     0
283
     0
284
     8
285
     0
286
     0
287
     3
288
     0
  0
ENDTAB
  0
TABLE
  2
BLOCK_RECORD
  5
1
330
0
100
AcDbSymbolTable
 70
     1
  0
BLOCK_RECORD
  5
1F
330
1
100
AcDbSymbolTableRecord
100
AcDbBlockTableRecord
  2
*MODEL_SPACE
  0
BLOCK_RECORD
  5
1B
330
1
100
AcDbSymbolTableRecord
100
AcDbBlockTableRecord
  2
*PAPER_SPACE
  0
ENDTAB
  0
ENDSEC
  0
SECTION
  2
BLOCKS
  0
BLOCK
  5
20
330
1F
100
AcDbEntity
  8
0
100
AcDbBlockBegin
  2
*MODEL_SPACE
 70
     0
 10
0.0
 20
0.0
 30
0.0
  3
*MODEL_SPACE
  1

  0
ENDBLK
  5
21
330
1F
100
AcDbEntity
  8
0
100
AcDbBlockEnd
  0
BLOCK
  5
1C
330
1B
100
AcDbEntity
 67
     1
  8
0
100
AcDbBlockBegin
  2
*PAPER_SPACE
  1

  0
ENDBLK
  5
1D
330
1B
100
AcDbEntity
 67
     1
  8
0
100
AcDbBlockEnd
  0
ENDSEC
  0
SECTION
  2
ENTITIES
  0
LWPOLYLINE
  5
100
100
AcDbEntity
  8
Layer_1
 62
7
100
AcDbPolyline
 90
525
 70
0
 10
16.889236
 20
28.289027
 30
0.0
 10
15.204722
 20
28.218471
 30
0.0
 10
13.581944
 20
27.980346
 30
0.0
 10
12.029722
 20
27.601110
 30
0.0
 10
10.548056
 20
27.063124
 30
0.0
 10
9.136944
 20
26.366388
 30
0.0
 10
7.796389
 20
25.519721
 30
0.0
 10
6.526389
 20
24.523124
 30
0.0
 10
5.326944
 20
23.367777
 30
0.0
 10
4.233333
 20
22.106596
 30
0.0
 10
3.280833
 20
20.766041
 30
0.0
 10
2.487083
 20
19.346110
 30
0.0
 10
1.825625
 20
17.855624
 30
0.0
 10
1.314097
 20
16.294583
 30
0.0
 10
0.952500
 20
14.662985
 30
0.0
 10
0.732014
 20
12.952013
 30
0.0
 10
0.661458
 20
11.170485
 30
0.0
 10
0.696736
 20
9.926944
 30
0.0
 10
0.820208
 20
8.745138
 30
0.0
 10
1.014236
 20
7.633888
 30
0.0
 10
1.278819
 20
6.584374
 30
0.0
 10
1.631597
 20
5.596596
 30
0.0
 10
2.054931
 20
4.679374
 30
0.0
 10
2.557639
 20
3.823888
 30
0.0
 10
3.139722
 20
3.030138
 30
0.0
 10
3.792361
 20
2.324583
 30
0.0
 10
4.497917
 20
1.707221
 30
0.0
 10
5.256389
 20
1.195694
 30
0.0
 10
6.067778
 20
0.772360
 30
0.0
 10
6.923264
 20
0.437221
 30
0.0
 10
7.840486
 20
0.199096
 30
0.0
 10
8.810625
 20
0.057985
 30
0.0
 10
9.824861
 20
0.013888
 30
0.0
 10
11.103681
 20
0.066805
 30
0.0
 10
12.347222
 20
0.243194
 30
0.0
 10
13.555486
 20
0.525416
 30
0.0
 10
14.728472
 20
0.922291
 30
0.0
 10
15.866181
 20
1.433819
 30
0.0
 10
16.968611
 20
2.059999
 30
0.0
 10
18.044583
 20
2.792013
 30
0.0
 10
19.076458
 20
3.647499
 30
0.0
 10
19.640903
 20
4.167846
 30
0.0
 10
20.125972
 20
4.661735
 30
0.0
 10
20.540486
 20
5.137985
 30
0.0
 10
20.690417
 20
5.340833
 30
0.0
 10
20.919722
 20
5.085069
 30
0.0
 10
21.307778
 20
4.758749
 30
0.0
 10
21.810486
 20
4.476527
 30
0.0
 10
22.419028
 20
4.282499
 30
0.0
 10
23.151042
 20
4.203124
 30
0.0
 10
23.883056
 20
4.300138
 30
0.0
 10
24.482778
 20
4.573541
 30
0.0
 10
24.976667
 20
4.952777
 30
0.0
 10
25.188333
 20
5.190902
 30
0.0
 10
25.232431
 20
4.811666
 30
0.0
 10
25.329444
 20
4.256041
 30
0.0
 10
25.479375
 20
3.726874
 30
0.0
 10
25.655764
 20
3.232985
 30
0.0
 10
25.885069
 20
2.756735
 30
0.0
 10
26.149653
 20
2.315763
 30
0.0
 10
26.458333
 20
1.901249
 30
0.0
 10
26.793472
 20
1.522013
 30
0.0
 10
27.155069
 20
1.195694
 30
0.0
 10
27.543125
 20
0.922291
 30
0.0
 10
27.948819
 20
0.692985
 30
0.0
 10
28.372153
 20
0.516596
 30
0.0
 10
28.821944
 20
0.393124
 30
0.0
 10
29.298194
 20
0.313749
 30
0.0
 10
29.792083
 20
0.296110
 30
0.0
 10
30.621111
 20
0.349027
 30
0.0
 10
31.450139
 20
0.534235
 30
0.0
 10
32.287986
 20
0.842916
 30
0.0
 10
33.125833
 20
1.275069
 30
0.0
 10
33.963681
 20
1.830694
 30
0.0
 10
34.810347
 20
2.500971
 30
0.0
 10
35.648194
 20
3.303541
 30
0.0
 10
36.494861
 20
4.220763
 30
0.0
 10
36.794722
 20
4.582360
 30
0.0
 10
37.050486
 20
4.908680
 30
0.0
 10
37.094583
 20
4.970416
 30
0.0
 10
37.253333
 20
4.714652
 30
0.0
 10
37.526736
 20
4.397152
 30
0.0
 10
37.870694
 20
4.123749
 30
0.0
 10
38.294028
 20
3.920902
 30
0.0
 10
38.805556
 20
3.850346
 30
0.0
 10
39.308264
 20
3.947360
 30
0.0
 10
39.731597
 20
4.211944
 30
0.0
 10
40.075556
 20
4.582360
 30
0.0
 10
40.313681
 20
4.970416
 30
0.0
 10
40.410694
 20
4.405971
 30
0.0
 10
40.560625
 20
3.850346
 30
0.0
 10
40.737014
 20
3.329999
 30
0.0
 10
40.966319
 20
2.836110
 30
0.0
 10
41.230903
 20
2.368680
 30
0.0
 10
41.539583
 20
1.936527
 30
0.0
 10
41.883542
 20
1.557291
 30
0.0
 10
42.253958
 20
1.222152
 30
0.0
 10
42.642014
 20
0.931110
 30
0.0
 10
43.056528
 20
0.701805
 30
0.0
 10
43.488681
 20
0.525416
 30
0.0
 10
43.947292
 20
0.393124
 30
0.0
 10
44.432361
 20
0.313749
 30
0.0
 10
44.935069
 20
0.296110
 30
0.0
 10
45.473056
 20
0.322569
 30
0.0
 10
46.028681
 20
0.419583
 30
0.0
 10
46.601944
 20
0.569513
 30
0.0
 10
47.184028
 20
0.789999
 30
0.0
 10
47.774931
 20
1.072221
 30
0.0
 10
48.383472
 20
1.416180
 30
0.0
 10
49.000833
 20
1.830694
 30
0.0
 10
49.635833
 20
2.298124
 30
0.0
 10
50.244375
 20
2.792013
 30
0.0
 10
50.764722
 20
3.285902
 30
0.0
 10
51.205694
 20
3.762152
 30
0.0
 10
51.567292
 20
4.229583
 30
0.0
 10
51.699583
 20
4.450069
 30
0.0
 10
51.761319
 20
4.379513
 30
0.0
 10
52.087639
 20
4.097291
 30
0.0
 10
52.502153
 20
3.850346
 30
0.0
 10
53.013681
 20
3.673958
 30
0.0
 10
53.631042
 20
3.612221
 30
0.0
 10
54.239583
 20
3.700416
 30
0.0
 10
54.742292
 20
3.929721
 30
0.0
 10
55.156806
 20
4.264860
 30
0.0
 10
55.483125
 20
4.644096
 30
0.0
 10
55.721250
 20
5.023333
 30
0.0
 10
55.827083
 20
5.234999
 30
0.0
 10
55.871181
 20
4.811666
 30
0.0
 10
55.968194
 20
4.256041
 30
0.0
 10
56.118125
 20
3.726874
 30
0.0
 10
56.294514
 20
3.232985
 30
0.0
 10
56.523819
 20
2.756735
 30
0.0
 10
56.788403
 20
2.315763
 30
0.0
 10
57.097083
 20
1.901249
 30
0.0
 10
57.432222
 20
1.522013
 30
0.0
 10
57.793819
 20
1.195694
 30
0.0
 10
58.181875
 20
0.922291
 30
0.0
 10
58.587569
 20
0.692985
 30
0.0
 10
59.010903
 20
0.516596
 30
0.0
 10
59.460694
 20
0.393124
 30
0.0
 10
59.936944
 20
0.313749
 30
0.0
 10
60.430833
 20
0.296110
 30
0.0
 10
61.259861
 20
0.349027
 30
0.0
 10
62.088889
 20
0.534235
 30
0.0
 10
62.926736
 20
0.842916
 30
0.0
 10
63.764583
 20
1.275069
 30
0.0
 10
64.602431
 20
1.830694
 30
0.0
 10
65.449097
 20
2.500971
 30
0.0
 10
66.286944
 20
3.303541
 30
0.0
 10
67.133611
 20
4.220763
 30
0.0
 10
67.433472
 20
4.582360
 30
0.0
 10
67.689236
 20
4.908680
 30
0.0
 10
67.909722
 20
5.217360
 30
0.0
 10
68.086111
 20
5.490763
 30
0.0
 10
68.227222
 20
5.737708
 30
0.0
 10
68.324236
 20
5.958194
 30
0.0
 10
68.385972
 20
6.161041
 30
0.0
 10
68.403611
 20
6.328610
 30
0.0
 10
68.403611
 20
6.434444
 30
0.0
 10
68.377153
 20
6.549096
 30
0.0
 10
68.341875
 20
6.646110
 30
0.0
 10
68.280139
 20
6.751944
 30
0.0
 10
68.209583
 20
6.848958
 30
0.0
 10
68.130208
 20
6.945971
 30
0.0
 10
68.024375
 20
7.034166
 30
0.0
 10
67.909722
 20
7.122360
 30
0.0
 10
67.362917
 20
6.116944
 30
0.0
 10
66.772014
 20
5.252638
 30
0.0
 10
66.145833
 20
4.520624
 30
0.0
 10
65.484375
 20
3.920902
 30
0.0
 10
64.787639
 20
3.453471
 30
0.0
 10
64.046806
 20
3.118333
 30
0.0
 10
63.270694
 20
2.915485
 30
0.0
 10
62.450486
 20
2.853749
 30
0.0
 10
61.656736
 20
2.924305
 30
0.0
 10
60.951181
 20
3.153610
 30
0.0
 10
60.342639
 20
3.524027
 30
0.0
 10
59.822292
 20
4.044374
 30
0.0
 10
59.398958
 20
4.723471
 30
0.0
 10
59.072639
 20
5.543680
 30
0.0
 10
58.825694
 20
6.513819
 30
0.0
 10
58.684583
 20
7.633888
 30
0.0
 10
59.681181
 20
7.933749
 30
0.0
 10
60.642500
 20
8.286527
 30
0.0
 10
61.559722
 20
8.692221
 30
0.0
 10
62.441667
 20
9.150833
 30
0.0
 10
63.279514
 20
9.653541
 30
0.0
 10
64.082083
 20
10.217985
 30
0.0
 10
64.849375
 20
10.835346
 30
0.0
 10
65.572569
 20
11.505624
 30
0.0
 10
66.234028
 20
12.202360
 30
0.0
 10
66.807292
 20
12.899096
 30
0.0
 10
67.301181
 20
13.604652
 30
0.0
 10
67.698056
 20
14.319027
 30
0.0
 10
68.006736
 20
15.033402
 30
0.0
 10
68.227222
 20
15.747777
 30
0.0
 10
68.359514
 20
16.470971
 30
0.0
 10
68.403611
 20
17.202985
 30
0.0
 10
68.368333
 20
17.811527
 30
0.0
 10
68.253681
 20
18.331874
 30
0.0
 10
68.068472
 20
18.781666
 30
0.0
 10
67.803889
 20
19.152083
 30
0.0
 10
67.459931
 20
19.434305
 30
0.0
 10
67.045417
 20
19.637152
 30
0.0
 10
66.551528
 20
19.760624
 30
0.0
 10
65.987083
 20
19.795902
 30
0.0
 10
65.149236
 20
19.725346
 30
0.0
 10
64.302569
 20
19.504860
 30
0.0
 10
63.464722
 20
19.143263
 30
0.0
 10
62.609236
 20
18.640555
 30
0.0
 10
61.762569
 20
17.987916
 30
0.0
 10
60.915903
 20
17.185346
 30
0.0
 10
60.060417
 20
16.241666
 30
0.0
 10
59.196111
 20
15.156874
 30
0.0
 10
58.402361
 20
14.001527
 30
0.0
 10
57.705625
 20
12.846180
 30
0.0
 10
57.123542
 20
11.699652
 30
0.0
 10
56.638472
 20
10.553124
 30
0.0
 10
56.268056
 20
9.415416
 30
0.0
 10
56.003472
 20
8.277708
 30
0.0
 10
55.844722
 20
7.139999
 30
0.0
 10
55.827083
 20
6.743124
 30
0.0
 10
55.685972
 20
6.443263
 30
0.0
 10
55.412569
 20
6.011110
 30
0.0
 10
55.033333
 20
5.640694
 30
0.0
 10
54.539444
 20
5.376110
 30
0.0
 10
53.904444
 20
5.279096
 30
0.0
 10
53.287083
 20
5.323194
 30
0.0
 10
52.810833
 20
5.420208
 30
0.0
 10
52.466875
 20
5.570138
 30
0.0
 10
52.228750
 20
5.746527
 30
0.0
 10
52.193472
 20
5.781805
 30
0.0
 10
52.211111
 20
5.967013
 30
0.0
 10
52.211111
 20
6.072846
 30
0.0
 10
52.184653
 20
6.178680
 30
0.0
 10
52.158194
 20
6.284513
 30
0.0
 10
52.105278
 20
6.399166
 30
0.0
 10
52.043542
 20
6.513819
 30
0.0
 10
51.972986
 20
6.628471
 30
0.0
 10
51.884792
 20
6.743124
 30
0.0
 10
51.778958
 20
6.857777
 30
0.0
 10
51.337986
 20
5.949374
 30
0.0
 10
50.852917
 20
5.164444
 30
0.0
 10
50.332569
 20
4.502985
 30
0.0
 10
49.776944
 20
3.956180
 30
0.0
 10
49.177222
 20
3.532846
 30
0.0
 10
48.533403
 20
3.232985
 30
0.0
 10
47.854306
 20
3.047777
 30
0.0
 10
47.131111
 20
2.994860
 30
0.0
 10
46.707778
 20
3.012499
 30
0.0
 10
46.302083
 20
3.091874
 30
0.0
 10
45.914028
 20
3.224166
 30
0.0
 10
45.552431
 20
3.400555
 30
0.0
 10
45.208472
 20
3.629860
 30
0.0
 10
44.882153
 20
3.920902
 30
0.0
 10
44.582292
 20
4.256041
 30
0.0
 10
44.300069
 20
4.635277
 30
0.0
 10
44.044306
 20
5.067430
 30
0.0
 10
43.832639
 20
5.526041
 30
0.0
 10
43.647431
 20
6.019930
 30
0.0
 10
43.497500
 20
6.549096
 30
0.0
 10
43.374028
 20
7.104721
 30
0.0
 10
43.294653
 20
7.695624
 30
0.0
 10
43.241736
 20
8.321805
 30
0.0
 10
43.224097
 20
8.983263
 30
0.0
 10
43.250556
 20
9.918124
 30
0.0
 10
43.321111
 20
10.800069
 30
0.0
 10
43.435764
 20
11.629096
 30
0.0
 10
43.594514
 20
12.405208
 30
0.0
 10
43.806181
 20
13.137221
 30
0.0
 10
44.061944
 20
13.816319
 30
0.0
 10
44.361806
 20
14.442499
 30
0.0
 10
44.714583
 20
15.015763
 30
0.0
 10
45.111458
 20
15.536110
 30
0.0
 10
45.534792
 20
15.977083
 30
0.0
 10
46.002222
 20
16.356319
 30
0.0
 10
46.496111
 20
16.664999
 30
0.0
 10
47.025278
 20
16.911944
 30
0.0
 10
47.589722
 20
17.079513
 30
0.0
 10
48.189444
 20
17.185346
 30
0.0
 10
48.824444
 20
17.220624
 30
0.0
 10
49.186042
 20
17.211805
 30
0.0
 10
49.556458
 20
17.176527
 30
0.0
 10
49.926875
 20
17.123610
 30
0.0
 10
50.306111
 20
17.053055
 30
0.0
 10
50.685347
 20
16.964860
 30
0.0
 10
51.073403
 20
16.850208
 30
0.0
 10
51.461458
 20
16.717916
 30
0.0
 10
51.858333
 20
16.567985
 30
0.0
 10
52.140556
 20
16.903124
 30
0.0
 10
52.422778
 20
17.247083
 30
0.0
 10
52.705000
 20
17.582221
 30
0.0
 10
52.987222
 20
17.926180
 30
0.0
 10
53.269444
 20
18.261319
 30
0.0
 10
53.551667
 20
18.605277
 30
0.0
 10
53.833889
 20
18.940416
 30
0.0
 10
54.116111
 20
19.284374
 30
0.0
 10
53.842708
 20
19.399027
 30
0.0
 10
53.542847
 20
19.504860
 30
0.0
 10
53.234167
 20
19.593055
 30
0.0
 10
52.916667
 20
19.672430
 30
0.0
 10
52.581528
 20
19.725346
 30
0.0
 10
52.228750
 20
19.769444
 30
0.0
 10
51.858333
 20
19.787083
 30
0.0
 10
51.479097
 20
19.795902
 30
0.0
 10
50.429583
 20
19.734166
 30
0.0
 10
49.397708
 20
19.531319
 30
0.0
 10
48.392292
 20
19.204999
 30
0.0
 10
47.404514
 20
18.746388
 30
0.0
 10
46.452014
 20
18.155485
 30
0.0
 10
45.517153
 20
17.432291
 30
0.0
 10
44.608750
 20
16.576805
 30
0.0
 10
43.717986
 20
15.589027
 30
0.0
 10
42.906597
 20
14.521874
 30
0.0
 10
42.192222
 20
13.428263
 30
0.0
 10
41.592500
 20
12.308194
 30
0.0
 10
41.098611
 20
11.152846
 30
0.0
 10
40.719375
 20
9.971041
 30
0.0
 10
40.445972
 20
8.753958
 30
0.0
 10
40.287222
 20
7.519235
 30
0.0
 10
40.234306
 20
6.460902
 30
0.0
 10
39.969722
 20
6.116944
 30
0.0
 10
39.555208
 20
5.825902
 30
0.0
 10
39.034861
 20
5.711249
 30
0.0
 10
38.523333
 20
5.764166
 30
0.0
 10
38.126458
 20
5.878819
 30
0.0
 10
37.844236
 20
6.046388
 30
0.0
 10
37.738403
 20
6.143402
 30
0.0
 10
37.747222
 20
6.161041
 30
0.0
 10
37.764861
 20
6.328610
 30
0.0
 10
37.764861
 20
6.434444
 30
0.0
 10
37.738403
 20
6.549096
 30
0.0
 10
37.703125
 20
6.646110
 30
0.0
 10
37.641389
 20
6.751944
 30
0.0
 10
37.570833
 20
6.848958
 30
0.0
 10
37.491458
 20
6.945971
 30
0.0
 10
37.385625
 20
7.034166
 30
0.0
 10
37.270972
 20
7.122360
 30
0.0
 10
36.724167
 20
6.116944
 30
0.0
 10
36.133264
 20
5.252638
 30
0.0
 10
35.507083
 20
4.520624
 30
0.0
 10
34.845625
 20
3.920902
 30
0.0
 10
34.148889
 20
3.453471
 30
0.0
 10
33.408056
 20
3.118333
 30
0.0
 10
32.631944
 20
2.915485
 30
0.0
 10
31.811736
 20
2.853749
 30
0.0
 10
31.017986
 20
2.924305
 30
0.0
 10
30.312431
 20
3.153610
 30
0.0
 10
29.703889
 20
3.524027
 30
0.0
 10
29.183542
 20
4.044374
 30
0.0
 10
28.760208
 20
4.723471
 30
0.0
 10
28.433889
 20
5.543680
 30
0.0
 10
28.186944
 20
6.513819
 30
0.0
 10
28.045833
 20
7.633888
 30
0.0
 10
29.042431
 20
7.933749
 30
0.0
 10
30.003750
 20
8.286527
 30
0.0
 10
30.920972
 20
8.692221
 30
0.0
 10
31.802917
 20
9.150833
 30
0.0
 10
32.640764
 20
9.653541
 30
0.0
 10
33.443333
 20
10.217985
 30
0.0
 10
34.210625
 20
10.835346
 30
0.0
 10
34.933819
 20
11.505624
 30
0.0
 10
35.595278
 20
12.202360
 30
0.0
 10
36.168542
 20
12.899096
 30
0.0
 10
36.662431
 20
13.604652
 30
0.0
 10
37.059306
 20
14.319027
 30
0.0
 10
37.367986
 20
15.033402
 30
0.0
 10
37.588472
 20
15.747777
 30
0.0
 10
37.720764
 20
16.470971
 30
0.0
 10
37.764861
 20
17.202985
 30
0.0
 10
37.729583
 20
17.811527
 30
0.0
 10
37.614931
 20
18.331874
 30
0.0
 10
37.429722
 20
18.781666
 30
0.0
 10
37.165139
 20
19.152083
 30
0.0
 10
36.821181
 20
19.434305
 30
0.0
 10
36.406667
 20
19.637152
 30
0.0
 10
35.912778
 20
19.760624
 30
0.0
 10
35.348333
 20
19.795902
 30
0.0
 10
34.510486
 20
19.725346
 30
0.0
 10
33.663819
 20
19.504860
 30
0.0
 10
32.825972
 20
19.143263
 30
0.0
 10
31.970486
 20
18.640555
 30
0.0
 10
31.123819
 20
17.987916
 30
0.0
 10
30.277153
 20
17.185346
 30
0.0
 10
29.421667
 20
16.241666
 30
0.0
 10
28.557361
 20
15.156874
 30
0.0
 10
27.763611
 20
14.001527
 30
0.0
 10
27.066875
 20
12.846180
 30
0.0
 10
26.484792
 20
11.699652
 30
0.0
 10
25.999722
 20
10.553124
 30
0.0
 10
25.629306
 20
9.415416
 30
0.0
 10
25.364722
 20
8.277708
 30
0.0
 10
25.205972
 20
7.139999
 30
0.0
 10
25.188333
 20
6.875416
 30
0.0
 10
24.826736
 20
6.531458
 30
0.0
 10
24.235833
 20
6.231596
 30
0.0
 10
23.486181
 20
6.116944
 30
0.0
 10
22.780625
 20
6.169860
 30
0.0
 10
22.295556
 20
6.310971
 30
0.0
 10
21.986875
 20
6.504999
 30
0.0
 10
21.792847
 20
6.725485
 30
0.0
 10
21.669375
 20
6.937152
 30
0.0
 10
21.554722
 20
7.095902
 30
0.0
 10
21.475347
 20
7.148819
 30
0.0
 10
21.466528
 20
7.201735
 30
0.0
 10
21.448889
 20
7.289930
 30
0.0
 10
21.413611
 20
7.386944
 30
0.0
 10
21.360694
 20
7.466319
 30
0.0
 10
21.298958
 20
7.545694
 30
0.0
 10
21.219583
 20
7.607430
 30
0.0
 10
21.131389
 20
7.677985
 30
0.0
 10
21.016736
 20
7.730902
 30
0.0
 10
20.699236
 20
7.175277
 30
0.0
 10
20.328819
 20
6.646110
 30
0.0
 10
19.923125
 20
6.134583
 30
0.0
 10
19.473333
 20
5.649513
 30
0.0
 10
18.979444
 20
5.182083
 30
0.0
 10
18.450278
 20
4.741110
 30
0.0
 10
17.868194
 20
4.317777
 30
0.0
 10
17.250833
 20
3.920902
 30
0.0
 10
16.615833
 20
3.568124
 30
0.0
 10
15.980833
 20
3.250624
 30
0.0
 10
15.345833
 20
2.994860
 30
0.0
 10
14.702014
 20
2.774374
 30
0.0
 10
14.067014
 20
2.606805
 30
0.0
 10
13.432014
 20
2.492152
 30
0.0
 10
12.788194
 20
2.421596
 30
0.0
 10
12.153194
 20
2.395138
 30
0.0
 10
11.288889
 20
2.439235
 30
0.0
 10
10.459861
 20
2.571527
 30
0.0
 10
9.683750
 20
2.792013
 30
0.0
 10
8.951736
 20
3.100694
 30
0.0
 10
8.272639
 20
3.497569
 30
0.0
 10
7.628819
 20
3.982638
 30
0.0
 10
7.029097
 20
4.555902
 30
0.0
 10
6.473472
 20
5.217360
 30
0.0
 10
5.979583
 20
5.949374
 30
0.0
 10
5.547431
 20
6.743124
 30
0.0
 10
5.185833
 20
7.598610
 30
0.0
 10
4.885972
 20
8.515833
 30
0.0
 10
4.647847
 20
9.485971
 30
0.0
 10
4.489097
 20
10.526666
 30
0.0
 10
4.383264
 20
11.620277
 30
0.0
 10
4.347986
 20
12.775624
 30
0.0
 10
4.400903
 20
14.274930
 30
0.0
 10
4.542014
 20
15.694860
 30
0.0
 10
4.780139
 20
17.053055
 30
0.0
 10
5.106458
 20
18.331874
 30
0.0
 10
5.529792
 20
19.540138
 30
0.0
 10
6.050139
 20
20.677846
 30
0.0
 10
6.658681
 20
21.744999
 30
0.0
 10
7.364236
 20
22.732777
 30
0.0
 10
8.157986
 20
23.632360
 30
0.0
 10
8.995833
 20
24.408471
 30
0.0
 10
9.895417
 20
25.069930
 30
0.0
 10
10.856736
 20
25.607916
 30
0.0
 10
11.870972
 20
26.022430
 30
0.0
 10
12.938125
 20
26.322291
 30
0.0
 10
14.067014
 20
26.507499
 30
0.0
 10
15.248819
 20
26.569235
 30
0.0
 10
15.830903
 20
26.551596
 30
0.0
 10
16.386528
 20
26.507499
 30
0.0
 10
16.933333
 20
26.428124
 30
0.0
 10
17.462500
 20
26.313471
 30
0.0
 10
17.965208
 20
26.181180
 30
0.0
 10
18.450278
 20
26.004791
 30
0.0
 10
18.926528
 20
25.801944
 30
0.0
 10
19.376319
 20
25.572638
 30
0.0
 10
19.790833
 20
25.316874
 30
0.0
 10
20.152431
 20
25.052291
 30
0.0
 10
20.461111
 20
24.778888
 30
0.0
 10
20.716875
 20
24.496666
 30
0.0
 10
20.910903
 20
24.196805
 30
0.0
 10
21.052014
 20
23.896944
 30
0.0
 10
21.131389
 20
23.579444
 30
0.0
 10
21.157847
 20
23.253124
 30
0.0
 10
21.157847
 20
23.147291
 30
0.0
 10
21.140208
 20
23.041458
 30
0.0
 10
21.122569
 20
22.926805
 30
0.0
 10
21.087292
 20
22.803333
 30
0.0
 10
21.052014
 20
22.671041
 30
0.0
 10
20.999097
 20
22.529930
 30
0.0
 10
20.946181
 20
22.388819
 30
0.0
 10
20.884444
 20
22.238888
 30
0.0
 10
20.946181
 20
22.221249
 30
0.0
 10
21.007917
 20
22.212430
 30
0.0
 10
21.069653
 20
22.203610
 30
0.0
 10
21.122569
 20
22.194791
 30
0.0
 10
21.175486
 20
22.185971
 30
0.0
 10
21.219583
 20
22.185971
 30
0.0
 10
21.263681
 20
22.177152
 30
0.0
 10
21.298958
 20
22.177152
 30
0.0
 10
21.466528
 20
22.194791
 30
0.0
 10
21.634097
 20
22.238888
 30
0.0
 10
21.792847
 20
22.318263
 30
0.0
 10
21.942778
 20
22.432916
 30
0.0
 10
22.083889
 20
22.574027
 30
0.0
 10
22.216181
 20
22.750416
 30
0.0
 10
22.348472
 20
22.953263
 30
0.0
 10
22.471944
 20
23.191388
 30
0.0
 10
22.516042
 20
23.297221
 30
0.0
 10
22.560139
 20
23.403055
 30
0.0
 10
22.613056
 20
23.508888
 30
0.0
 10
22.657153
 20
23.614721
 30
0.0
 10
22.701250
 20
23.720555
 30
0.0
 10
22.754167
 20
23.835208
 30
0.0
 10
22.798264
 20
23.941041
 30
0.0
 10
22.842361
 20
24.046874
 30
0.0
 10
23.009931
 20
24.408471
 30
0.0
 10
23.177500
 20
24.770069
 30
0.0
 10
23.345069
 20
25.140485
 30
0.0
 10
23.512639
 20
25.502083
 30
0.0
 10
23.680208
 20
25.863680
 30
0.0
 10
23.847778
 20
26.234096
 30
0.0
 10
24.006528
 20
26.595694
 30
0.0
 10
24.174097
 20
26.966110
 30
0.0
 10
23.239236
 20
27.274791
 30
0.0
 10
22.304375
 20
27.539374
 30
0.0
 10
21.387153
 20
27.768680
 30
0.0
 10
20.469931
 20
27.962708
 30
0.0
 10
19.561528
 20
28.103819
 30
0.0
 10
18.661944
 20
28.209652
 30
0.0
 10
17.771181
 20
28.271388
 30
0.0
 10
16.889236
 20
28.289027
 30
0.0
 10
16.889236
 20
28.289027
 30
0.0
  0
LWPOLYLINE
  5
101
100
AcDbEntity
  8
Layer_1
 62
7
100
AcDbPolyline
 90
50
 70
0
 10
32.967083
 20
17.220624
 30
0.0
 10
33.522708
 20
17.185346
 30
0.0
 10
33.998958
 20
17.070694
 30
0.0
 10
34.404653
 20
16.894305
 30
0.0
 10
34.739792
 20
16.638541
 30
0.0
 10
34.995556
 20
16.312221
 30
0.0
 10
35.180764
 20
15.915346
 30
0.0
 10
35.295417
 20
15.439096
 30
0.0
 10
35.330694
 20
14.901110
 30
0.0
 10
35.295417
 20
14.398402
 30
0.0
 10
35.216042
 20
13.913333
 30
0.0
 10
35.066111
 20
13.454721
 30
0.0
 10
34.863264
 20
13.004930
 30
0.0
 10
34.607500
 20
12.572777
 30
0.0
 10
34.290000
 20
12.149444
 30
0.0
 10
33.919583
 20
11.752569
 30
0.0
 10
33.478611
 20
11.364513
 30
0.0
 10
33.011181
 20
11.011735
 30
0.0
 10
32.517292
 20
10.703055
 30
0.0
 10
32.014583
 20
10.447291
 30
0.0
 10
31.485417
 20
10.235624
 30
0.0
 10
30.938611
 20
10.068055
 30
0.0
 10
30.365347
 20
9.953402
 30
0.0
 10
29.783264
 20
9.882846
 30
0.0
 10
29.174722
 20
9.856388
 30
0.0
 10
29.060069
 20
9.856388
 30
0.0
 10
28.936597
 20
9.865208
 30
0.0
 10
28.804306
 20
9.882846
 30
0.0
 10
28.672014
 20
9.909305
 30
0.0
 10
28.539722
 20
9.935763
 30
0.0
 10
28.407431
 20
9.971041
 30
0.0
 10
28.266319
 20
10.006319
 30
0.0
 10
28.125208
 20
10.059235
 30
0.0
 10
28.231042
 20
10.808888
 30
0.0
 10
28.372153
 20
11.532083
 30
0.0
 10
28.548542
 20
12.228819
 30
0.0
 10
28.751389
 20
12.881458
 30
0.0
 10
28.980694
 20
13.507638
 30
0.0
 10
29.245278
 20
14.098541
 30
0.0
 10
29.545139
 20
14.654166
 30
0.0
 10
29.871458
 20
15.174513
 30
0.0
 10
30.224236
 20
15.650763
 30
0.0
 10
30.585833
 20
16.065277
 30
0.0
 10
30.956250
 20
16.418055
 30
0.0
 10
31.335486
 20
16.709096
 30
0.0
 10
31.732361
 20
16.929583
 30
0.0
 10
32.129236
 20
17.088333
 30
0.0
 10
32.543750
 20
17.185346
 30
0.0
 10
32.967083
 20
17.220624
 30
0.0
 10
32.967083
 20
17.220624
 30
0.0
  0
LWPOLYLINE
  5
102
100
AcDbEntity
  8
Layer_1
 62
7
100
AcDbPolyline
 90
50
 70
0
 10
63.605833
 20
17.220624
 30
0.0
 10
64.161458
 20
17.185346
 30
0.0
 10
64.637708
 20
17.070694
 30
0.0
 10
65.043403
 20
16.894305
 30
0.0
 10
65.378542
 20
16.638541
 30
0.0
 10
65.634306
 20
16.312221
 30
0.0
 10
65.819514
 20
15.915346
 30
0.0
 10
65.934167
 20
15.439096
 30
0.0
 10
65.969444
 20
14.901110
 30
0.0
 10
65.934167
 20
14.398402
 30
0.0
 10
65.854792
 20
13.913333
 30
0.0
 10
65.704861
 20
13.454721
 30
0.0
 10
65.502014
 20
13.004930
 30
0.0
 10
65.246250
 20
12.572777
 30
0.0
 10
64.928750
 20
12.149444
 30
0.0
 10
64.558333
 20
11.752569
 30
0.0
 10
64.117361
 20
11.364513
 30
0.0
 10
63.649931
 20
11.011735
 30
0.0
 10
63.156042
 20
10.703055
 30
0.0
 10
62.653333
 20
10.447291
 30
0.0
 10
62.124167
 20
10.235624
 30
0.0
 10
61.577361
 20
10.068055
 30
0.0
 10
61.004097
 20
9.953402
 30
0.0
 10
60.422014
 20
9.882846
 30
0.0
 10
59.813472
 20
9.856388
 30
0.0
 10
59.698819
 20
9.856388
 30
0.0
 10
59.575347
 20
9.865208
 30
0.0
 10
59.443056
 20
9.882846
 30
0.0
 10
59.310764
 20
9.909305
 30
0.0
 10
59.178472
 20
9.935763
 30
0.0
 10
59.046181
 20
9.971041
 30
0.0
 10
58.905069
 20
10.006319
 30
0.0
 10
58.763958
 20
10.059235
 30
0.0
 10
58.869792
 20
10.808888
 30
0.0
 10
59.010903
 20
11.532083
 30
0.0
 10
59.187292
 20
12.228819
 30
0.0
 10
59.390139
 20
12.881458
 30
0.0
 10
59.619444
 20
13.507638
 30
0.0
 10
59.884028
 20
14.098541
 30
0.0
 10
60.183889
 20
14.654166
 30
0.0
 10
60.510208
 20
15.174513
 30
0.0
 10
60.862986
 20
15.650763
 30
0.0
 10
61.224583
 20
16.065277
 30
0.0
 10
61.595000
 20
16.418055
 30
0.0
 10
61.974236
 20
16.709096
 30
0.0
 10
62.371111
 20
16.929583
 30
0.0
 10
62.767986
 20
17.088333
 30
0.0
 10
63.182500
 20
17.185346
 30
0.0
 10
63.605833
 20
17.220624
 30
0.0
 10
63.605833
 20
17.220624
 30
0.0
  0
ENDSEC
  0
SECTION
  2
OBJECTS
  0
DICTIONARY
  5
C
330
0
100
AcDbDictionary
  3
ACAD_GROUP
350
D
  3
ACAD_MLINESTYLE
350
17
  0
DICTIONARY
  5
D
330
C
100
AcDbDictionary
  0
DICTIONARY
  5
1A
330
C
100
AcDbDictionary
  0
DICTIONARY
  5
17
330
C
100
AcDbDictionary
  3
STANDARD
350
18
  0
DICTIONARY
  5
19
330
C
100
AcDbDictionary
  0
ENDSEC
  0
EOF
