999
DXF created by Inkscape
  0
SECTION
  2
HEADER
  9
$ACADVER
  1
AC1014
  9
$HANDSEED
  5
FFFF
  9
$MEASUREMENT
 70
     1
  0
ENDSEC
  0
SECTION
  2
TABLES
  0
TABLE
  2
VPORT
  5
8
330
0
100
AcDbSymbolTable
 70
     4
  0
VPORT
  5
2E
330
8
100
AcDbSymbolTableRecord
100
AcDbViewportTableRecord
  2
*ACTIVE
 70
     0
 10
0.0
 20
0.0
 11
1.0
 21
1.0
 12
210.0
 22
148.5
 13
0.0
 23
0.0
 14
10.0
 24
10.0
 15
10.0
 25
10.0
 16
0.0
 26
0.0
 36
1.0
 17
0.0
 27
0.0
 37
0.0
 40
341.0
 41
1.24
 42
50.0
 43
0.0
 44
0.0
 50
0.0
 51
0.0
 71
     0
 72
   100
 73
     1
 74
     3
 75
     0
 76
     0
 77
     0
 78
     0
  0
ENDTAB
  0
TABLE
  2
LTYPE
  5
5
330
0
100
AcDbSymbolTable
 70
     1
  0
LTYPE
  5
14
330
5
100
AcDbSymbolTableRecord
100
AcDbLinetypeTableRecord
  2
BYBLOCK
 70
     0
  3

 72
    65
 73
     0
 40
0.0
  0
LTYPE
  5
15
330
5
100
AcDbSymbolTableRecord
100
AcDbLinetypeTableRecord
  2
BYLAYER
 70
     0
  3

 72
    65
 73
     0
 40
0.0
  0
LTYPE
  5
16
330
5
100
AcDbSymbolTableRecord
100
AcDbLinetypeTableRecord
  2
CONTINUOUS
 70
     0
  3
Solid line
 72
    65
 73
     0
 40
0.0
  0
ENDTAB
  0
TABLE
  2
LAYER
  5
2
100
AcDbSymbolTable
 70
2
  0
LAYER
  5
50
100
AcDbSymbolTableRecord
100
AcDbLayerTableRecord
  2
0
 70
0
  6
CONTINUOUS
  0
LAYER
  5
51
100
AcDbSymbolTableRecord
100
AcDbLayerTableRecord
  2
Layer_1
 70
0
  6
CONTINUOUS
  0
ENDTAB
  0
TABLE
  2
STYLE
  5
3
330
0
100
AcDbSymbolTable
 70
     1
  0
STYLE
  5
11
330
3
100
AcDbSymbolTableRecord
100
AcDbTextStyleTableRecord
  2
STANDARD
 70
     0
 40
0.0
 41
1.0
 50
0.0
 71
     0
 42
2.5
  3
txt
  4

  0
ENDTAB
  0
TABLE
  2
VIEW
  5
6
330
0
100
AcDbSymbolTable
 70
     0
  0
ENDTAB
  0
TABLE
  2
UCS
  5
7
330
0
100
AcDbSymbolTable
 70
     0
  0
ENDTAB
  0
TABLE
  2
APPID
  5
9
330
0
100
AcDbSymbolTable
 70
     2
  0
APPID
  5
12
330
9
100
AcDbSymbolTableRecord
100
AcDbRegAppTableRecord
  2
ACAD
 70
     0
  0
ENDTAB
  0
TABLE
  2
DIMSTYLE
  5
A
330
0
100
AcDbSymbolTable
 70
     1
  0
DIMSTYLE
105
27
330
A
100
AcDbSymbolTableRecord
100
AcDbDimStyleTableRecord
  2
ISO-25
 70
     0
  3

  4

  5

  6

  7

 40
1.0
 41
2.5
 42
0.625
 43
3.75
 44
1.25
 45
0.0
 46
0.0
 47
0.0
 48
0.0
140
2.5
141
2.5
142
0.0
143
0.03937007874016
144
1.0
145
0.0
146
1.0
147
0.625
 71
     0
 72
     0
 73
     0
 74
     0
 75
     0
 76
     0
 77
     1
 78
     8
170
     0
171
     3
172
     1
173
     0
174
     0
175
     0
176
     0
177
     0
178
     0
270
     2
271
     2
272
     2
273
     2
274
     3
340
11
275
     0
280
     0
281
     0
282
     0
283
     0
284
     8
285
     0
286
     0
287
     3
288
     0
  0
ENDTAB
  0
TABLE
  2
BLOCK_RECORD
  5
1
330
0
100
AcDbSymbolTable
 70
     1
  0
BLOCK_RECORD
  5
1F
330
1
100
AcDbSymbolTableRecord
100
AcDbBlockTableRecord
  2
*MODEL_SPACE
  0
BLOCK_RECORD
  5
1B
330
1
100
AcDbSymbolTableRecord
100
AcDbBlockTableRecord
  2
*PAPER_SPACE
  0
ENDTAB
  0
ENDSEC
  0
SECTION
  2
BLOCKS
  0
BLOCK
  5
20
330
1F
100
AcDbEntity
  8
0
100
AcDbBlockBegin
  2
*MODEL_SPACE
 70
     0
 10
0.0
 20
0.0
 30
0.0
  3
*MODEL_SPACE
  1

  0
ENDBLK
  5
21
330
1F
100
AcDbEntity
  8
0
100
AcDbBlockEnd
  0
BLOCK
  5
1C
330
1B
100
AcDbEntity
 67
     1
  8
0
100
AcDbBlockBegin
  2
*PAPER_SPACE
  1

  0
ENDBLK
  5
1D
330
1B
100
AcDbEntity
 67
     1
  8
0
100
AcDbBlockEnd
  0
ENDSEC
  0
SECTION
  2
ENTITIES
  0
LWPOLYLINE
  5
100
100
AcDbEntity
  8
Layer_1
 62
7
100
AcDbPolyline
 90
221
 70
0
 10
5.988403
 20
26.234096
 30
0.0
 10
5.988403
 20
25.819583
 30
0.0
 10
5.988403
 20
25.396249
 30
0.0
 10
5.988403
 20
24.981735
 30
0.0
 10
5.988403
 20
24.567221
 30
0.0
 10
5.988403
 20
24.152708
 30
0.0
 10
5.988403
 20
23.729374
 30
0.0
 10
5.988403
 20
23.314860
 30
0.0
 10
5.988403
 20
22.900346
 30
0.0
 10
6.949722
 20
22.900346
 30
0.0
 10
7.919861
 20
22.900346
 30
0.0
 10
8.881181
 20
22.900346
 30
0.0
 10
9.851319
 20
22.900346
 30
0.0
 10
10.812639
 20
22.900346
 30
0.0
 10
11.782778
 20
22.900346
 30
0.0
 10
12.744097
 20
22.900346
 30
0.0
 10
13.705417
 20
22.900346
 30
0.0
 10
13.705417
 20
21.453958
 30
0.0
 10
13.705417
 20
20.016388
 30
0.0
 10
13.705417
 20
18.569999
 30
0.0
 10
13.705417
 20
17.132430
 30
0.0
 10
13.705417
 20
15.686041
 30
0.0
 10
13.705417
 20
14.248471
 30
0.0
 10
13.705417
 20
12.802083
 30
0.0
 10
13.705417
 20
11.355694
 30
0.0
 10
13.696597
 20
10.147430
 30
0.0
 10
13.634861
 20
9.018541
 30
0.0
 10
13.467292
 20
8.004305
 30
0.0
 10
13.167431
 20
7.122360
 30
0.0
 10
12.673542
 20
6.399166
 30
0.0
 10
11.941528
 20
5.852360
 30
0.0
 10
10.936111
 20
5.508402
 30
0.0
 10
9.604375
 20
5.384930
 30
0.0
 10
9.145764
 20
5.393749
 30
0.0
 10
8.660694
 20
5.437846
 30
0.0
 10
8.157986
 20
5.499583
 30
0.0
 10
7.646458
 20
5.596596
 30
0.0
 10
7.134931
 20
5.720069
 30
0.0
 10
6.623403
 20
5.878819
 30
0.0
 10
6.129514
 20
6.081666
 30
0.0
 10
5.662083
 20
6.319791
 30
0.0
 10
5.194653
 20
6.619652
 30
0.0
 10
4.815417
 20
6.937152
 30
0.0
 10
4.524375
 20
7.298749
 30
0.0
 10
4.303889
 20
7.695624
 30
0.0
 10
4.136319
 20
8.145416
 30
0.0
 10
4.030486
 20
8.656944
 30
0.0
 10
3.959931
 20
9.239027
 30
0.0
 10
3.915833
 20
9.891666
 30
0.0
 10
3.889375
 20
10.473749
 30
0.0
 10
3.862917
 20
11.047013
 30
0.0
 10
3.836458
 20
11.620277
 30
0.0
 10
3.810000
 20
12.193541
 30
0.0
 10
3.792361
 20
12.766805
 30
0.0
 10
3.765903
 20
13.340069
 30
0.0
 10
3.739444
 20
13.913333
 30
0.0
 10
3.712986
 20
14.486596
 30
0.0
 10
3.272014
 20
14.486596
 30
0.0
 10
2.839861
 20
14.486596
 30
0.0
 10
2.398889
 20
14.486596
 30
0.0
 10
1.966736
 20
14.486596
 30
0.0
 10
1.525764
 20
14.486596
 30
0.0
 10
1.093611
 20
14.486596
 30
0.0
 10
0.652639
 20
14.486596
 30
0.0
 10
0.220486
 20
14.486596
 30
0.0
 10
0.264583
 20
13.243055
 30
0.0
 10
0.317500
 20
11.999513
 30
0.0
 10
0.370417
 20
10.755971
 30
0.0
 10
0.423333
 20
9.512430
 30
0.0
 10
0.467431
 20
8.268888
 30
0.0
 10
0.520347
 20
7.016527
 30
0.0
 10
0.573264
 20
5.772985
 30
0.0
 10
0.626181
 20
4.529444
 30
0.0
 10
2.107847
 20
3.788610
 30
0.0
 10
3.483681
 20
3.188888
 30
0.0
 10
3.730625
 20
3.100694
 30
0.0
 10
0.000000
 20
3.100694
 30
0.0
 10
0.000000
 20
-0.144862
 30
0.0
 10
70.132222
 20
-0.144862
 30
0.0
 10
70.132222
 20
3.100694
 30
0.0
 10
65.793056
 20
3.100694
 30
0.0
 10
66.348681
 20
3.294721
 30
0.0
 10
67.706875
 20
3.859166
 30
0.0
 10
69.082708
 20
4.511805
 30
0.0
 10
70.449722
 20
5.261458
 30
0.0
 10
70.246875
 20
5.658333
 30
0.0
 10
70.044028
 20
6.046388
 30
0.0
 10
69.841181
 20
6.434444
 30
0.0
 10
69.638333
 20
6.831319
 30
0.0
 10
69.435486
 20
7.219374
 30
0.0
 10
69.232639
 20
7.607430
 30
0.0
 10
69.029792
 20
8.004305
 30
0.0
 10
68.826944
 20
8.392360
 30
0.0
 10
67.945000
 20
7.889652
 30
0.0
 10
66.974861
 20
7.386944
 30
0.0
 10
65.907708
 20
6.893055
 30
0.0
 10
64.778819
 20
6.443263
 30
0.0
 10
63.588194
 20
6.046388
 30
0.0
 10
62.362292
 20
5.737708
 30
0.0
 10
61.109931
 20
5.534860
 30
0.0
 10
59.848750
 20
5.464305
 30
0.0
 10
58.058403
 20
5.623055
 30
0.0
 10
56.638472
 20
6.037569
 30
0.0
 10
55.536042
 20
6.646110
 30
0.0
 10
54.707014
 20
7.395763
 30
0.0
 10
54.107292
 20
8.215971
 30
0.0
 10
53.701597
 20
9.036180
 30
0.0
 10
53.428194
 20
9.794652
 30
0.0
 10
53.260625
 20
10.420833
 30
0.0
 10
55.253819
 20
10.420833
 30
0.0
 10
57.247014
 20
10.420833
 30
0.0
 10
59.231389
 20
10.420833
 30
0.0
 10
61.224583
 20
10.420833
 30
0.0
 10
63.217778
 20
10.420833
 30
0.0
 10
65.210972
 20
10.420833
 30
0.0
 10
67.204167
 20
10.420833
 30
0.0
 10
69.188542
 20
10.420833
 30
0.0
 10
69.206181
 20
10.597221
 30
0.0
 10
69.223819
 20
10.835346
 30
0.0
 10
69.250278
 20
11.126388
 30
0.0
 10
69.267917
 20
11.452708
 30
0.0
 10
69.285556
 20
11.805485
 30
0.0
 10
69.303194
 20
12.175902
 30
0.0
 10
69.312014
 20
12.546319
 30
0.0
 10
69.312014
 20
12.899096
 30
0.0
 10
69.162083
 20
14.416041
 30
0.0
 10
68.703472
 20
15.932985
 30
0.0
 10
67.945000
 20
17.379374
 30
0.0
 10
66.886667
 20
18.702291
 30
0.0
 10
65.519653
 20
19.839999
 30
0.0
 10
63.861597
 20
20.730763
 30
0.0
 10
61.903681
 20
21.312846
 30
0.0
 10
59.637083
 20
21.515694
 30
0.0
 10
57.405764
 20
21.312846
 30
0.0
 10
55.421389
 20
20.713124
 30
0.0
 10
53.692778
 20
19.778263
 30
0.0
 10
52.237569
 20
18.543541
 30
0.0
 10
51.073403
 20
17.070694
 30
0.0
 10
50.226736
 20
15.394999
 30
0.0
 10
49.697569
 20
13.569374
 30
0.0
 10
49.521181
 20
11.646735
 30
0.0
 10
49.688750
 20
9.759374
 30
0.0
 10
50.191458
 20
7.969027
 30
0.0
 10
51.011667
 20
6.328610
 30
0.0
 10
52.167014
 20
4.891041
 30
0.0
 10
53.631042
 20
3.682777
 30
0.0
 10
54.768750
 20
3.100694
 30
0.0
 10
39.978542
 20
3.100694
 30
0.0
 10
41.301458
 20
3.823888
 30
0.0
 10
42.783125
 20
5.102708
 30
0.0
 10
43.929653
 20
6.610833
 30
0.0
 10
44.741042
 20
8.277708
 30
0.0
 10
45.226111
 20
10.059235
 30
0.0
 10
45.393681
 20
11.884860
 30
0.0
 10
45.217292
 20
13.781041
 30
0.0
 10
44.705764
 20
15.597846
 30
0.0
 10
43.859097
 20
17.273541
 30
0.0
 10
42.686111
 20
18.764027
 30
0.0
 10
41.195625
 20
20.016388
 30
0.0
 10
39.387639
 20
20.977708
 30
0.0
 10
37.279792
 20
21.586249
 30
0.0
 10
34.863264
 20
21.806735
 30
0.0
 10
32.526111
 20
21.595069
 30
0.0
 10
30.444722
 20
21.004166
 30
0.0
 10
28.645556
 20
20.078124
 30
0.0
 10
27.137431
 20
18.861041
 30
0.0
 10
25.937986
 20
17.379374
 30
0.0
 10
25.056042
 20
15.703680
 30
0.0
 10
24.526875
 20
13.851596
 30
0.0
 10
24.341667
 20
11.884860
 30
0.0
 10
24.509236
 20
10.006319
 30
0.0
 10
25.020764
 20
8.198333
 30
0.0
 10
25.858611
 20
6.513819
 30
0.0
 10
27.031597
 20
5.023333
 30
0.0
 10
28.522083
 20
3.770971
 30
0.0
 10
29.774444
 20
3.100694
 30
0.0
 10
14.252222
 20
3.100694
 30
0.0
 10
14.331597
 20
3.144791
 30
0.0
 10
15.213542
 20
3.850346
 30
0.0
 10
15.980833
 20
4.776388
 30
0.0
 10
16.386528
 20
5.490763
 30
0.0
 10
16.695208
 20
6.275694
 30
0.0
 10
16.915694
 20
7.095902
 30
0.0
 10
17.074444
 20
7.942569
 30
0.0
 10
17.171458
 20
8.815694
 30
0.0
 10
17.215556
 20
9.679999
 30
0.0
 10
17.242014
 20
10.535485
 30
0.0
 10
17.242014
 20
11.355694
 30
0.0
 10
17.242014
 20
12.802083
 30
0.0
 10
17.242014
 20
14.248471
 30
0.0
 10
17.242014
 20
15.686041
 30
0.0
 10
17.242014
 20
17.132430
 30
0.0
 10
17.242014
 20
18.569999
 30
0.0
 10
17.242014
 20
20.016388
 30
0.0
 10
17.242014
 20
21.453958
 30
0.0
 10
17.242014
 20
22.900346
 30
0.0
 10
17.877014
 20
22.900346
 30
0.0
 10
18.503194
 20
22.900346
 30
0.0
 10
19.138194
 20
22.900346
 30
0.0
 10
19.764375
 20
22.900346
 30
0.0
 10
20.390556
 20
22.900346
 30
0.0
 10
21.025556
 20
22.900346
 30
0.0
 10
21.651736
 20
22.900346
 30
0.0
 10
22.286736
 20
22.900346
 30
0.0
 10
22.286736
 20
23.314860
 30
0.0
 10
22.286736
 20
23.738194
 30
0.0
 10
22.286736
 20
24.152708
 30
0.0
 10
22.286736
 20
24.567221
 30
0.0
 10
22.286736
 20
24.981735
 30
0.0
 10
22.286736
 20
25.396249
 30
0.0
 10
22.286736
 20
25.819583
 30
0.0
 10
22.286736
 20
26.234096
 30
0.0
 10
20.249444
 20
26.234096
 30
0.0
 10
18.212153
 20
26.234096
 30
0.0
 10
16.174861
 20
26.234096
 30
0.0
 10
14.137569
 20
26.234096
 30
0.0
 10
12.100278
 20
26.234096
 30
0.0
 10
10.062986
 20
26.234096
 30
0.0
 10
8.025694
 20
26.234096
 30
0.0
 10
5.988403
 20
26.234096
 30
0.0
 10
5.988403
 20
26.234096
 30
0.0
  0
LWPOLYLINE
  5
101
100
AcDbEntity
  8
Layer_1
 62
7
100
AcDbPolyline
 90
34
 70
0
 10
34.863264
 20
18.305416
 30
0.0
 10
36.477222
 20
18.164305
 30
0.0
 10
37.861875
 20
17.749791
 30
0.0
 10
39.034861
 20
17.114791
 30
0.0
 10
39.978542
 20
16.285763
 30
0.0
 10
40.719375
 20
15.315624
 30
0.0
 10
41.239722
 20
14.230833
 30
0.0
 10
41.548403
 20
13.075485
 30
0.0
 10
41.654236
 20
11.884860
 30
0.0
 10
41.548403
 20
10.703055
 30
0.0
 10
41.239722
 20
9.547708
 30
0.0
 10
40.719375
 20
8.462916
 30
0.0
 10
39.978542
 20
7.483958
 30
0.0
 10
39.034861
 20
6.663749
 30
0.0
 10
37.861875
 20
6.019930
 30
0.0
 10
36.477222
 20
5.614235
 30
0.0
 10
34.863264
 20
5.464305
 30
0.0
 10
33.293403
 20
5.605416
 30
0.0
 10
31.917569
 20
6.002291
 30
0.0
 10
30.753403
 20
6.628471
 30
0.0
 10
29.800903
 20
7.439860
 30
0.0
 10
29.051250
 20
8.409999
 30
0.0
 10
28.513264
 20
9.494791
 30
0.0
 10
28.186944
 20
10.667777
 30
0.0
 10
28.081111
 20
11.884860
 30
0.0
 10
28.186944
 20
13.119583
 30
0.0
 10
28.513264
 20
14.292569
 30
0.0
 10
29.051250
 20
15.386180
 30
0.0
 10
29.800903
 20
16.347499
 30
0.0
 10
30.753403
 20
17.158888
 30
0.0
 10
31.917569
 20
17.776249
 30
0.0
 10
33.293403
 20
18.173124
 30
0.0
 10
34.863264
 20
18.305416
 30
0.0
 10
34.863264
 20
18.305416
 30
0.0
  0
LWPOLYLINE
  5
102
100
AcDbEntity
  8
Layer_1
 62
7
100
AcDbPolyline
 90
26
 70
0
 10
59.681181
 20
18.023194
 30
0.0
 10
60.219167
 20
18.014374
 30
0.0
 10
60.924722
 20
17.943819
 30
0.0
 10
61.753750
 20
17.776249
 30
0.0
 10
62.644514
 20
17.458749
 30
0.0
 10
63.526458
 20
16.947221
 30
0.0
 10
64.355486
 20
16.188749
 30
0.0
 10
65.052222
 20
15.139235
 30
0.0
 10
65.572569
 20
13.754583
 30
0.0
 10
64.064444
 20
13.754583
 30
0.0
 10
62.556319
 20
13.754583
 30
0.0
 10
61.048194
 20
13.754583
 30
0.0
 10
59.540069
 20
13.754583
 30
0.0
 10
58.031944
 20
13.754583
 30
0.0
 10
56.523819
 20
13.754583
 30
0.0
 10
55.015694
 20
13.754583
 30
0.0
 10
53.507569
 20
13.754583
 30
0.0
 10
53.701597
 20
14.257291
 30
0.0
 10
54.010278
 20
14.883471
 30
0.0
 10
54.451250
 20
15.589027
 30
0.0
 10
55.050972
 20
16.303402
 30
0.0
 10
55.853542
 20
16.964860
 30
0.0
 10
56.867778
 20
17.511666
 30
0.0
 10
58.137778
 20
17.882083
 30
0.0
 10
59.681181
 20
18.023194
 30
0.0
 10
59.681181
 20
18.023194
 30
0.0
  0
ENDSEC
  0
SECTION
  2
OBJECTS
  0
DICTIONARY
  5
C
330
0
100
AcDbDictionary
  3
ACAD_GROUP
350
D
  3
ACAD_MLINESTYLE
350
17
  0
DICTIONARY
  5
D
330
C
100
AcDbDictionary
  0
DICTIONARY
  5
1A
330
C
100
AcDbDictionary
  0
DICTIONARY
  5
17
330
C
100
AcDbDictionary
  3
STANDARD
350
18
  0
DICTIONARY
  5
19
330
C
100
AcDbDictionary
  0
ENDSEC
  0
EOF
