999
DXF created by Inkscape
  0
SECTION
  2
HEADER
  9
$ACADVER
  1
AC1014
  9
$HANDSEED
  5
FFFF
  9
$MEASUREMENT
 70
     1
  0
ENDSEC
  0
SECTION
  2
TABLES
  0
TABLE
  2
VPORT
  5
8
330
0
100
AcDbSymbolTable
 70
     4
  0
VPORT
  5
2E
330
8
100
AcDbSymbolTableRecord
100
AcDbViewportTableRecord
  2
*ACTIVE
 70
     0
 10
0.0
 20
0.0
 11
1.0
 21
1.0
 12
210.0
 22
148.5
 13
0.0
 23
0.0
 14
10.0
 24
10.0
 15
10.0
 25
10.0
 16
0.0
 26
0.0
 36
1.0
 17
0.0
 27
0.0
 37
0.0
 40
341.0
 41
1.24
 42
50.0
 43
0.0
 44
0.0
 50
0.0
 51
0.0
 71
     0
 72
   100
 73
     1
 74
     3
 75
     0
 76
     0
 77
     0
 78
     0
  0
ENDTAB
  0
TABLE
  2
LTYPE
  5
5
330
0
100
AcDbSymbolTable
 70
     1
  0
LTYPE
  5
14
330
5
100
AcDbSymbolTableRecord
100
AcDbLinetypeTableRecord
  2
BYBLOCK
 70
     0
  3

 72
    65
 73
     0
 40
0.0
  0
LTYPE
  5
15
330
5
100
AcDbSymbolTableRecord
100
AcDbLinetypeTableRecord
  2
BYLAYER
 70
     0
  3

 72
    65
 73
     0
 40
0.0
  0
LTYPE
  5
16
330
5
100
AcDbSymbolTableRecord
100
AcDbLinetypeTableRecord
  2
CONTINUOUS
 70
     0
  3
Solid line
 72
    65
 73
     0
 40
0.0
  0
ENDTAB
  0
TABLE
  2
LAYER
  5
2
100
AcDbSymbolTable
 70
2
  0
LAYER
  5
50
100
AcDbSymbolTableRecord
100
AcDbLayerTableRecord
  2
0
 70
0
  6
CONTINUOUS
  0
LAYER
  5
51
100
AcDbSymbolTableRecord
100
AcDbLayerTableRecord
  2
Layer_1
 70
0
  6
CONTINUOUS
  0
ENDTAB
  0
TABLE
  2
STYLE
  5
3
330
0
100
AcDbSymbolTable
 70
     1
  0
STYLE
  5
11
330
3
100
AcDbSymbolTableRecord
100
AcDbTextStyleTableRecord
  2
STANDARD
 70
     0
 40
0.0
 41
1.0
 50
0.0
 71
     0
 42
2.5
  3
txt
  4

  0
ENDTAB
  0
TABLE
  2
VIEW
  5
6
330
0
100
AcDbSymbolTable
 70
     0
  0
ENDTAB
  0
TABLE
  2
UCS
  5
7
330
0
100
AcDbSymbolTable
 70
     0
  0
ENDTAB
  0
TABLE
  2
APPID
  5
9
330
0
100
AcDbSymbolTable
 70
     2
  0
APPID
  5
12
330
9
100
AcDbSymbolTableRecord
100
AcDbRegAppTableRecord
  2
ACAD
 70
     0
  0
ENDTAB
  0
TABLE
  2
DIMSTYLE
  5
A
330
0
100
AcDbSymbolTable
 70
     1
  0
DIMSTYLE
105
27
330
A
100
AcDbSymbolTableRecord
100
AcDbDimStyleTableRecord
  2
ISO-25
 70
     0
  3

  4

  5

  6

  7

 40
1.0
 41
2.5
 42
0.625
 43
3.75
 44
1.25
 45
0.0
 46
0.0
 47
0.0
 48
0.0
140
2.5
141
2.5
142
0.0
143
0.03937007874016
144
1.0
145
0.0
146
1.0
147
0.625
 71
     0
 72
     0
 73
     0
 74
     0
 75
     0
 76
     0
 77
     1
 78
     8
170
     0
171
     3
172
     1
173
     0
174
     0
175
     0
176
     0
177
     0
178
     0
270
     2
271
     2
272
     2
273
     2
274
     3
340
11
275
     0
280
     0
281
     0
282
     0
283
     0
284
     8
285
     0
286
     0
287
     3
288
     0
  0
ENDTAB
  0
TABLE
  2
BLOCK_RECORD
  5
1
330
0
100
AcDbSymbolTable
 70
     1
  0
BLOCK_RECORD
  5
1F
330
1
100
AcDbSymbolTableRecord
100
AcDbBlockTableRecord
  2
*MODEL_SPACE
  0
BLOCK_RECORD
  5
1B
330
1
100
AcDbSymbolTableRecord
100
AcDbBlockTableRecord
  2
*PAPER_SPACE
  0
ENDTAB
  0
ENDSEC
  0
SECTION
  2
BLOCKS
  0
BLOCK
  5
20
330
1F
100
AcDbEntity
  8
0
100
AcDbBlockBegin
  2
*MODEL_SPACE
 70
     0
 10
0.0
 20
0.0
 30
0.0
  3
*MODEL_SPACE
  1

  0
ENDBLK
  5
21
330
1F
100
AcDbEntity
  8
0
100
AcDbBlockEnd
  0
BLOCK
  5
1C
330
1B
100
AcDbEntity
 67
     1
  8
0
100
AcDbBlockBegin
  2
*PAPER_SPACE
  1

  0
ENDBLK
  5
1D
330
1B
100
AcDbEntity
 67
     1
  8
0
100
AcDbBlockEnd
  0
ENDSEC
  0
SECTION
  2
ENTITIES
  0
LWPOLYLINE
  5
100
100
AcDbEntity
  8
Layer_1
 62
7
100
AcDbPolyline
 90
129
 70
0
 10
5.987627
 20
26.233123
 30
0.0
 10
5.987627
 20
25.816563
 30
0.0
 10
5.987627
 20
25.400003
 30
0.0
 10
5.987627
 20
24.983443
 30
0.0
 10
5.987627
 20
24.566883
 30
0.0
 10
5.987627
 20
24.150323
 30
0.0
 10
5.987627
 20
23.733763
 30
0.0
 10
5.987627
 20
23.317203
 30
0.0
 10
5.987627
 20
22.900643
 30
0.0
 10
6.952827
 20
22.900643
 30
0.0
 10
7.918027
 20
22.900643
 30
0.0
 10
8.883227
 20
22.900643
 30
0.0
 10
9.848427
 20
22.900643
 30
0.0
 10
10.813627
 20
22.900643
 30
0.0
 10
11.778827
 20
22.900643
 30
0.0
 10
12.744027
 20
22.900643
 30
0.0
 10
13.709227
 20
22.900643
 30
0.0
 10
13.709227
 20
21.457923
 30
0.0
 10
13.709227
 20
20.015203
 30
0.0
 10
13.709227
 20
18.572480
 30
0.0
 10
13.709227
 20
17.129760
 30
0.0
 10
13.709227
 20
15.687037
 30
0.0
 10
13.709227
 20
14.244317
 30
0.0
 10
13.709227
 20
12.801597
 30
0.0
 10
13.709227
 20
11.358877
 30
0.0
 10
13.697876
 20
10.145406
 30
0.0
 10
13.633661
 20
9.019537
 30
0.0
 10
13.471338
 20
8.004186
 30
0.0
 10
13.165665
 20
7.122157
 30
0.0
 10
12.671396
 20
6.396338
 30
0.0
 10
11.943290
 20
5.849617
 30
0.0
 10
10.936101
 20
5.504826
 30
0.0
 10
9.604586
 20
5.384797
 30
0.0
 10
9.146831
 20
5.396651
 30
0.0
 10
8.662882
 20
5.433735
 30
0.0
 10
8.160835
 20
5.498420
 30
0.0
 10
7.648786
 20
5.593105
 30
0.0
 10
7.134833
 20
5.720190
 30
0.0
 10
6.627071
 20
5.882016
 30
0.0
 10
6.133597
 20
6.081011
 30
0.0
 10
5.662506
 20
6.319545
 30
0.0
 10
5.194036
 20
6.618221
 30
0.0
 10
4.817957
 20
6.941225
 30
0.0
 10
4.523793
 20
7.297530
 30
0.0
 10
4.301067
 20
7.696225
 30
0.0
 10
4.139301
 20
8.146370
 30
0.0
 10
4.028017
 20
8.656966
 30
0.0
 10
3.956738
 20
9.237131
 30
0.0
 10
3.914986
 20
9.895865
 30
0.0
 10
3.889586
 20
10.469905
 30
0.0
 10
3.864186
 20
11.043945
 30
0.0
 10
3.838786
 20
11.617985
 30
0.0
 10
3.813386
 20
12.192025
 30
0.0
 10
3.787986
 20
12.766065
 30
0.0
 10
3.762586
 20
13.340105
 30
0.0
 10
3.737186
 20
13.914145
 30
0.0
 10
3.711786
 20
14.488185
 30
0.0
 10
3.274906
 20
14.488185
 30
0.0
 10
2.838026
 20
14.488185
 30
0.0
 10
2.401146
 20
14.488185
 30
0.0
 10
1.964266
 20
14.488185
 30
0.0
 10
1.527386
 20
14.488185
 30
0.0
 10
1.090506
 20
14.488185
 30
0.0
 10
0.653626
 20
14.488185
 30
0.0
 10
0.216746
 20
14.488185
 30
0.0
 10
0.267546
 20
13.243585
 30
0.0
 10
0.318346
 20
11.998985
 30
0.0
 10
0.369146
 20
10.754385
 30
0.0
 10
0.419946
 20
9.509785
 30
0.0
 10
0.470746
 20
8.265185
 30
0.0
 10
0.521546
 20
7.020585
 30
0.0
 10
0.572346
 20
5.775985
 30
0.0
 10
0.623146
 20
4.531385
 30
0.0
 10
2.107775
 20
3.787786
 30
0.0
 10
3.485725
 20
3.192805
 30
0.0
 10
4.760805
 20
2.731146
 30
0.0
 10
5.936826
 20
2.387625
 30
0.0
 10
7.017596
 20
2.146946
 30
0.0
 10
8.006927
 20
1.993925
 30
0.0
 10
8.908627
 20
1.913266
 30
0.0
 10
9.726506
 20
1.889842
 30
0.0
 10
10.152115
 20
1.898873
 30
0.0
 10
10.784416
 20
1.946427
 30
0.0
 10
11.571023
 20
2.063493
 30
0.0
 10
12.459547
 20
2.281058
 30
0.0
 10
13.397601
 20
2.630083
 30
0.0
 10
14.332797
 20
3.141469
 30
0.0
 10
15.212748
 20
3.846263
 30
0.0
 10
15.985066
 20
4.775338
 30
0.0
 10
16.389244
 20
5.494949
 30
0.0
 10
16.696266
 20
6.272668
 30
0.0
 10
16.919468
 20
7.094189
 30
0.0
 10
17.072186
 20
7.945258
 30
0.0
 10
17.167754
 20
8.811568
 30
0.0
 10
17.219506
 20
9.678808
 30
0.0
 10
17.240780
 20
10.532728
 30
0.0
 10
17.244909
 20
11.359018
 30
0.0
 10
17.244909
 20
12.801738
 30
0.0
 10
17.244909
 20
14.244458
 30
0.0
 10
17.244909
 20
15.687178
 30
0.0
 10
17.244909
 20
17.129901
 30
0.0
 10
17.244909
 20
18.572621
 30
0.0
 10
17.244909
 20
20.015344
 30
0.0
 10
17.244909
 20
21.458064
 30
0.0
 10
17.244909
 20
22.900784
 30
0.0
 10
17.874829
 20
22.900784
 30
0.0
 10
18.504749
 20
22.900784
 30
0.0
 10
19.134669
 20
22.900784
 30
0.0
 10
19.764589
 20
22.900784
 30
0.0
 10
20.394509
 20
22.900784
 30
0.0
 10
21.024429
 20
22.900784
 30
0.0
 10
21.654349
 20
22.900784
 30
0.0
 10
22.284269
 20
22.900784
 30
0.0
 10
22.284269
 20
23.317344
 30
0.0
 10
22.284269
 20
23.733904
 30
0.0
 10
22.284269
 20
24.150464
 30
0.0
 10
22.284269
 20
24.567024
 30
0.0
 10
22.284269
 20
24.983584
 30
0.0
 10
22.284269
 20
25.400144
 30
0.0
 10
22.284269
 20
25.816704
 30
0.0
 10
22.284269
 20
26.233264
 30
0.0
 10
20.247189
 20
26.233264
 30
0.0
 10
18.210109
 20
26.233264
 30
0.0
 10
16.173029
 20
26.233264
 30
0.0
 10
14.135949
 20
26.233264
 30
0.0
 10
12.098869
 20
26.233264
 30
0.0
 10
10.061789
 20
26.233264
 30
0.0
 10
8.024709
 20
26.233264
 30
0.0
 10
5.987629
 20
26.233264
 30
0.0
  0
LWPOLYLINE
  5
101
100
AcDbEntity
  8
Layer_1
 62
7
100
AcDbPolyline
 90
33
 70
0
 10
24.341032
 20
11.887197
 30
0.0
 10
24.511609
 20
10.002602
 30
0.0
 10
25.019848
 20
8.194658
 30
0.0
 10
25.860509
 20
6.517242
 30
0.0
 10
27.028354
 20
5.024117
 30
0.0
 10
28.518144
 20
3.769131
 30
0.0
 10
30.324639
 20
2.806048
 30
0.0
 10
32.442602
 20
2.188772
 30
0.0
 10
34.866792
 20
1.971037
 30
0.0
 10
37.349323
 20
2.197097
 30
0.0
 10
39.494669
 20
2.834637
 30
0.0
 10
41.304735
 20
3.822697
 30
0.0
 10
42.781429
 20
5.100317
 30
0.0
 10
43.926653
 20
6.606537
 30
0.0
 10
44.742312
 20
8.280397
 30
0.0
 10
45.230308
 20
10.060937
 30
0.0
 10
45.392552
 20
11.887197
 30
0.0
 10
45.220309
 20
13.783477
 30
0.0
 10
44.708022
 20
15.596867
 30
0.0
 10
43.862360
 20
17.275014
 30
0.0
 10
42.689989
 20
18.765520
 30
0.0
 10
41.197581
 20
20.015996
 30
0.0
 10
39.391799
 20
20.974053
 30
0.0
 10
37.279315
 20
21.587305
 30
0.0
 10
34.866792
 20
21.803363
 30
0.0
 10
32.524279
 20
21.597304
 30
0.0
 10
30.444654
 20
21.008343
 30
0.0
 10
28.643159
 20
20.080289
 30
0.0
 10
27.135034
 20
18.856960
 30
0.0
 10
25.935518
 20
17.382171
 30
0.0
 10
25.059853
 20
15.699737
 30
0.0
 10
24.523277
 20
13.853468
 30
0.0
 10
24.341032
 20
11.887197
 30
0.0
  0
LWPOLYLINE
  5
102
100
AcDbEntity
  8
Layer_1
 62
7
100
AcDbPolyline
 90
33
 70
0
 10
28.079912
 20
11.887197
 30
0.0
 10
28.188181
 20
13.119887
 30
0.0
 10
28.511712
 20
14.296387
 30
0.0
 10
29.048606
 20
15.383338
 30
0.0
 10
29.796954
 20
16.347437
 30
0.0
 10
30.754851
 20
17.155321
 30
0.0
 10
31.920394
 20
17.773653
 30
0.0
 10
33.291676
 20
18.169100
 30
0.0
 10
34.866792
 20
18.308323
 30
0.0
 10
36.476912
 20
18.162431
 30
0.0
 10
37.864624
 20
17.750793
 30
0.0
 10
39.032310
 20
17.112457
 30
0.0
 10
39.982349
 20
16.286477
 30
0.0
 10
40.717126
 20
15.311907
 30
0.0
 10
41.239017
 20
14.227807
 30
0.0
 10
41.550404
 20
13.073208
 30
0.0
 10
41.653672
 20
11.887197
 30
0.0
 10
41.550404
 20
10.701187
 30
0.0
 10
41.239017
 20
9.546587
 30
0.0
 10
40.717126
 20
8.462487
 30
0.0
 10
39.982349
 20
7.487917
 30
0.0
 10
39.032310
 20
6.661937
 30
0.0
 10
37.864624
 20
6.023607
 30
0.0
 10
36.476912
 20
5.611958
 30
0.0
 10
34.866792
 20
5.466077
 30
0.0
 10
33.291676
 20
5.606963
 30
0.0
 10
31.920394
 20
6.006448
 30
0.0
 10
30.754851
 20
6.629792
 30
0.0
 10
29.796954
 20
7.442197
 30
0.0
 10
29.048606
 20
8.408893
 30
0.0
 10
28.511712
 20
9.495138
 30
0.0
 10
28.188181
 20
10.666163
 30
0.0
 10
28.079912
 20
11.887197
 30
0.0
  0
LWPOLYLINE
  5
103
100
AcDbEntity
  8
Layer_1
 62
7
100
AcDbPolyline
 90
73
 70
0
 10
68.825957
 20
8.392157
 30
0.0
 10
67.948308
 20
7.893047
 30
0.0
 10
66.971122
 20
7.386317
 30
0.0
 10
65.909165
 20
6.894827
 30
0.0
 10
64.777197
 20
6.441437
 30
0.0
 10
63.589984
 20
6.049007
 30
0.0
 10
62.362292
 20
5.740397
 30
0.0
 10
61.108881
 20
5.538467
 30
0.0
 10
59.844517
 20
5.466077
 30
0.0
 10
58.059772
 20
5.619126
 30
0.0
 10
56.638404
 20
6.035037
 30
0.0
 10
55.536124
 20
6.649068
 30
0.0
 10
54.708639
 20
7.396477
 30
0.0
 10
54.111658
 20
8.212466
 30
0.0
 10
53.700892
 20
9.032237
 30
0.0
 10
53.432050
 20
9.791076
 30
0.0
 10
53.260837
 20
10.424157
 30
0.0
 10
55.252197
 20
10.424157
 30
0.0
 10
57.243557
 20
10.424157
 30
0.0
 10
59.234917
 20
10.424157
 30
0.0
 10
61.226277
 20
10.424157
 30
0.0
 10
63.217637
 20
10.424157
 30
0.0
 10
65.208997
 20
10.424157
 30
0.0
 10
67.200357
 20
10.424157
 30
0.0
 10
69.191717
 20
10.424157
 30
0.0
 10
69.208622
 20
10.597357
 30
0.0
 10
69.227898
 20
10.834367
 30
0.0
 10
69.248133
 20
11.122827
 30
0.0
 10
69.267888
 20
11.450317
 30
0.0
 10
69.285753
 20
11.804478
 30
0.0
 10
69.300288
 20
12.172947
 30
0.0
 10
69.310052
 20
12.543307
 30
0.0
 10
69.313637
 20
12.903197
 30
0.0
 10
69.161395
 20
14.416868
 30
0.0
 10
68.705307
 20
15.929607
 30
0.0
 10
67.946321
 20
17.379473
 30
0.0
 10
66.885394
 20
18.704560
 30
0.0
 10
65.523477
 20
19.842957
 30
0.0
 10
63.861524
 20
20.732753
 30
0.0
 10
61.900486
 20
21.312031
 30
0.0
 10
59.641317
 20
21.518883
 30
0.0
 10
57.409611
 20
21.309570
 30
0.0
 10
55.419839
 20
20.713068
 30
0.0
 10
53.689146
 20
19.776519
 30
0.0
 10
52.234679
 20
18.547080
 30
0.0
 10
51.073581
 20
17.071896
 30
0.0
 10
50.222997
 20
15.398126
 30
0.0
 10
49.700076
 20
13.572882
 30
0.0
 10
49.521957
 20
11.643357
 30
0.0
 10
49.688962
 20
9.757577
 30
0.0
 10
50.187437
 20
7.971787
 30
0.0
 10
51.013574
 20
6.332697
 30
0.0
 10
52.163559
 20
4.886957
 30
0.0
 10
53.633584
 20
3.681247
 30
0.0
 10
55.419839
 20
2.762247
 30
0.0
 10
57.518514
 20
2.176608
 30
0.0
 10
59.925797
 20
1.971037
 30
0.0
 10
61.138170
 20
2.025817
 30
0.0
 10
62.393407
 20
2.188207
 30
0.0
 10
63.684839
 20
2.455387
 30
0.0
 10
65.005797
 20
2.824477
 30
0.0
 10
66.349615
 20
3.292627
 30
0.0
 10
67.709627
 20
3.856987
 30
0.0
 10
69.079164
 20
4.514678
 30
0.0
 10
70.451557
 20
5.262877
 30
0.0
 10
70.248357
 20
5.654037
 30
0.0
 10
70.045157
 20
6.045197
 30
0.0
 10
69.841957
 20
6.436357
 30
0.0
 10
69.638757
 20
6.827517
 30
0.0
 10
69.435557
 20
7.218677
 30
0.0
 10
69.232357
 20
7.609837
 30
0.0
 10
69.029157
 20
8.000997
 30
0.0
 10
68.825957
 20
8.392157
 30
0.0
  0
LWPOLYLINE
  5
104
100
AcDbEntity
  8
Layer_1
 62
7
100
AcDbPolyline
 90
25
 70
0
 10
53.504677
 20
13.756637
 30
0.0
 10
53.701764
 20
14.255042
 30
0.0
 10
54.006962
 20
14.886316
 30
0.0
 10
54.448369
 20
15.589021
 30
0.0
 10
55.054079
 20
16.301717
 30
0.0
 10
55.852195
 20
16.962995
 30
0.0
 10
56.870814
 20
17.511398
 30
0.0
 10
58.138035
 20
17.885492
 30
0.0
 10
59.681957
 20
18.023843
 30
0.0
 10
60.216864
 20
18.012187
 30
0.0
 10
60.928462
 20
17.945749
 30
0.0
 10
61.757216
 20
17.777392
 30
0.0
 10
62.643597
 20
17.459971
 30
0.0
 10
63.528073
 20
16.946335
 30
0.0
 10
64.351112
 20
16.189336
 30
0.0
 10
65.053185
 20
15.141812
 30
0.0
 10
65.574757
 20
13.756637
 30
0.0
 10
64.065997
 20
13.756637
 30
0.0
 10
62.557237
 20
13.756637
 30
0.0
 10
61.048477
 20
13.756637
 30
0.0
 10
59.539717
 20
13.756637
 30
0.0
 10
58.030957
 20
13.756637
 30
0.0
 10
56.522197
 20
13.756637
 30
0.0
 10
55.013437
 20
13.756637
 30
0.0
 10
53.504677
 20
13.756637
 30
0.0
  0
ENDSEC
  0
SECTION
  2
OBJECTS
  0
DICTIONARY
  5
C
330
0
100
AcDbDictionary
  3
ACAD_GROUP
350
D
  3
ACAD_MLINESTYLE
350
17
  0
DICTIONARY
  5
D
330
C
100
AcDbDictionary
  0
DICTIONARY
  5
1A
330
C
100
AcDbDictionary
  0
DICTIONARY
  5
17
330
C
100
AcDbDictionary
  3
STANDARD
350
18
  0
DICTIONARY
  5
19
330
C
100
AcDbDictionary
  0
ENDSEC
  0
EOF
